<svg width="190" height="50" viewBox="0 0 190 50" fill="none" xmlns="http://www.w3.org/2000/svg">
<g clip-path="url(#clip0_3507_944)">
<path d="M39.8783 24.4548V39.8157C39.8783 40.8043 40.0482 41.4751 40.3879 41.8282C40.7277 42.1814 41.3091 42.3579 42.1321 42.3579V43.1001C41.6863 43.0772 41.0228 43.0475 40.1417 43.011C39.2605 42.9746 38.3622 42.9569 37.4468 42.9579C36.5313 42.9579 35.6039 42.9756 34.6646 43.011C33.7252 43.0465 33.0207 43.0761 32.551 43.1001V42.3579C33.373 42.3579 33.9543 42.1814 34.2952 41.8282C34.636 41.4751 34.8059 40.8043 34.8048 39.8157V28.6923C34.8048 27.6329 34.6464 26.8517 34.3295 26.3485C34.0125 25.8454 33.4197 25.5923 32.551 25.5892V24.8439C33.3023 24.9136 34.0297 24.9485 34.7331 24.9485C35.7203 24.9485 36.642 24.9074 37.4982 24.8251C38.2986 24.7522 39.0935 24.6285 39.8783 24.4548ZM37.1304 15.7329C38.1175 15.7329 38.8968 15.9741 39.4683 16.4564C40.0398 16.9386 40.3277 17.6037 40.3318 18.4517C40.3318 19.2985 40.044 19.9636 39.4683 20.447C38.8927 20.9303 38.1133 21.1715 37.1304 21.1704C36.1432 21.1704 35.3639 20.9293 34.7924 20.447C34.2209 19.9647 33.933 19.2996 33.9289 18.4517C33.9289 17.6048 34.2167 16.9397 34.7924 16.4564C35.368 15.973 36.1474 15.7319 37.1304 15.7329Z" fill="black"/>
<path d="M61.612 24.8438V25.5485C61.118 25.6971 60.6773 25.9858 60.3433 26.3798C59.9443 26.8142 59.5567 27.5522 59.1805 28.5938L54.2147 42.5782L52.9116 45.0501L45.2321 27.5626C44.8321 26.6438 44.4388 26.0845 44.0522 25.8845C43.7454 25.7077 43.4017 25.605 43.0485 25.5845V24.8438C43.8236 24.9136 44.6279 24.9657 45.4613 25.0001C46.2936 25.036 47.0994 25.0532 47.8741 25.0532C48.8352 25.0532 49.7185 25.0298 50.5238 24.9829C51.3291 24.936 52.0803 24.8892 52.7776 24.8423V25.5829C52.336 25.581 51.8948 25.6107 51.4574 25.672C51.0459 25.7298 50.7638 25.8954 50.6111 26.1657C50.4583 26.436 50.5238 26.9017 50.8059 27.561L55.2434 38.2954L54.9316 38.5079L57.5377 31.197C58.1955 29.2907 58.2994 27.8959 57.8494 27.0126C57.3995 26.1293 56.6124 25.6412 55.4881 25.5485V24.8438C56.0295 24.8678 56.6165 24.8912 57.2494 24.9142C57.8822 24.9371 58.4345 24.9485 58.9062 24.9485C59.3748 24.9485 59.8679 24.9371 60.3854 24.9142C60.9029 24.8912 61.3117 24.8678 61.612 24.8438ZM54.2147 42.5704L52.8758 46.3485C52.43 47.5485 51.9131 48.3819 51.3249 48.8485C50.9529 49.1533 50.5212 49.3764 50.0577 49.5032C49.4725 49.6646 48.8675 49.7419 48.2606 49.7329C47.6688 49.7278 47.0812 49.6324 46.518 49.4501C45.9477 49.2794 45.4314 48.9627 45.0202 48.5313C44.6162 48.0922 44.4011 47.5112 44.4216 46.9142C44.4092 46.5823 44.4731 46.2521 44.6082 45.949C44.7433 45.6458 44.9461 45.3778 45.201 45.1657C45.7169 44.7298 46.3996 44.5126 47.2444 44.5126C48.0195 44.5126 48.6534 44.7006 49.1459 45.0767C49.6385 45.4527 49.8821 46.0063 49.8769 46.7376C49.8734 47.2197 49.7191 47.6886 49.4358 48.0782C49.1079 48.5284 48.6455 48.8622 48.1156 49.0313C48.255 49.057 48.3964 49.0691 48.538 49.0673H48.9261C49.6096 49.0758 50.2734 48.838 50.7965 48.397C51.3358 47.948 51.7816 47.2418 52.1339 46.2782L53.3668 42.6407L54.2147 42.5704Z" fill="black"/>
<path d="M66.7557 43.347C65.1815 43.347 64.0421 42.935 63.3376 42.1111C62.6286 41.2751 62.2523 40.2063 62.2808 39.1095C62.2808 38.097 62.5099 37.273 62.9682 36.6376C63.4396 35.99 64.0466 35.4535 64.7466 35.0657C65.4816 34.6513 66.2546 34.3085 67.055 34.0423C67.8644 33.7715 68.6391 33.5006 69.3789 33.2298C70.0218 33.0101 70.6277 32.6941 71.176 32.2923C71.3903 32.141 71.5648 31.9398 71.6845 31.706C71.8042 31.4723 71.8656 31.2129 71.8634 30.9501V28.197C71.8721 27.6356 71.7699 27.078 71.5626 26.5564C71.3826 26.0979 71.0623 25.7084 70.6476 25.4439C70.1618 25.1658 69.6074 25.0309 69.0485 25.0548C68.5744 25.0567 68.1026 25.1218 67.6457 25.2485C67.2072 25.36 66.806 25.5859 66.4829 25.9032C67.0888 26.102 67.622 26.4767 68.0151 26.9798C68.3747 27.4508 68.5668 28.0289 68.5606 28.622C68.5606 29.422 68.2847 30.0574 67.733 30.5282C67.1893 30.9971 66.4923 31.2485 65.7753 31.2345C64.9284 31.2345 64.2883 30.9699 63.855 30.4407C63.4158 29.8975 63.1847 29.2148 63.2035 28.5157C63.1796 27.9092 63.3596 27.3121 63.7148 26.8204C64.1153 26.319 64.5975 25.889 65.1409 25.5485C65.8864 25.1396 66.6878 24.8427 67.5194 24.6673C68.5083 24.4502 69.5185 24.3454 70.5307 24.3548C71.5134 24.3434 72.4936 24.4552 73.4485 24.6876C74.273 24.8872 75.0275 25.3086 75.6307 25.9064C76.1709 26.4508 76.5381 27.1435 76.6859 27.897C76.8668 28.8811 76.9493 29.8808 76.9321 30.8814V40.486C76.9321 41.0517 76.9898 41.4517 77.1082 41.6876C77.1618 41.7993 77.2473 41.8926 77.3539 41.9555C77.4605 42.0183 77.5833 42.048 77.7068 42.0407C77.9416 42.0406 78.1724 41.9798 78.377 41.8642C78.5906 41.7437 78.7912 41.6012 78.9755 41.4392L79.3278 42.0407C78.8228 42.4702 78.2409 42.7995 77.6133 43.0111C76.9147 43.243 76.1825 43.3565 75.4467 43.347C74.0377 43.347 73.1025 43.0585 72.6412 42.4814C72.1867 41.9148 71.9329 41.2129 71.9195 40.486C71.4008 41.3842 70.653 42.1279 69.753 42.6407C68.8294 43.126 67.7982 43.369 66.7557 43.347ZM69.4677 41.0939C69.9031 41.0974 70.3322 40.9899 70.7147 40.7814C71.1774 40.4972 71.5692 40.1108 71.8603 39.6517V32.4001C71.5664 32.8833 71.1612 33.2889 70.6788 33.5829C70.1738 33.8954 69.6574 34.2366 69.1295 34.6064C68.598 34.975 68.1485 35.4501 67.8093 36.0017C67.4571 36.5673 67.281 37.3209 67.281 38.2626C67.281 39.2736 67.4914 39.9986 67.9138 40.4329C68.1124 40.6457 68.3533 40.8145 68.621 40.9283C68.8886 41.0422 69.177 41.0986 69.4677 41.0939Z" fill="black"/>
<path d="M83.3459 43.1002V42.394C83.9199 42.3782 84.489 42.283 85.037 42.1111C85.2222 42.0415 85.3879 41.928 85.5198 41.7802C85.6517 41.6325 85.746 41.4549 85.7945 41.2627C85.9223 40.8398 85.9868 40.2044 85.9878 39.3565V21.8424C85.9878 20.9705 85.9234 20.3288 85.7945 19.9174C85.7401 19.7246 85.6411 19.5474 85.5058 19.4C85.3704 19.2527 85.2024 19.1392 85.0152 19.0689C84.4756 18.8909 83.9108 18.8017 83.3428 18.8049V18.0986C83.9538 18.1226 84.7523 18.146 85.7384 18.1689C86.7245 18.1919 87.7813 18.2038 88.9087 18.2049C89.8948 18.2049 90.8695 18.1929 91.8328 18.1689C92.7945 18.1455 93.594 18.1221 94.2269 18.0986V18.8049C93.4756 18.8288 92.9041 18.9169 92.5123 19.0689C92.3273 19.1388 92.1618 19.2524 92.0299 19.4001C91.898 19.5478 91.8036 19.7253 91.7548 19.9174C91.6385 20.3341 91.5797 20.9757 91.5787 21.8424V39.3565C91.5787 40.2033 91.6436 40.8387 91.7735 41.2627C91.8237 41.4575 91.9211 41.6369 92.0571 41.7849C92.193 41.9329 92.3633 42.045 92.5529 42.1111C93.0952 42.2801 93.6577 42.3753 94.2253 42.394V43.1002C93.5925 43.0533 92.7929 43.0236 91.8312 43.0111C90.8695 42.9986 89.8938 42.994 88.9072 42.994C87.7797 42.994 86.723 42.9997 85.7369 43.0111C84.7508 43.0226 83.9538 43.0523 83.3459 43.1002ZM89.2984 30.8815V30.1752H103.213V30.8815H89.2984ZM98.2809 43.1002V42.394C98.8549 42.3782 99.424 42.283 99.9721 42.1111C100.157 42.0415 100.323 41.928 100.455 41.7802C100.587 41.6325 100.681 41.4549 100.73 41.2627C100.859 40.8398 100.924 40.2044 100.923 39.3565V21.8424C100.923 20.9705 100.858 20.3288 100.73 19.9174C100.675 19.7246 100.576 19.5474 100.441 19.4C100.305 19.2527 100.137 19.1392 99.9502 19.0689C99.4101 18.8911 98.8448 18.8019 98.2762 18.8049V18.0986C98.9111 18.1226 99.7393 18.146 100.761 18.1689C101.782 18.1919 102.798 18.2038 103.808 18.2049C104.887 18.2049 105.902 18.1929 106.854 18.1689C107.805 18.145 108.575 18.1215 109.162 18.0986V18.8049C108.409 18.8288 107.837 18.9169 107.447 19.0689C107.262 19.1382 107.096 19.2516 106.964 19.3994C106.832 19.5472 106.738 19.725 106.69 19.9174C106.571 20.3341 106.513 20.9757 106.514 21.8424V39.3565C106.514 40.2033 106.578 40.8387 106.707 41.2627C106.758 41.4573 106.855 41.6364 106.991 41.7843C107.127 41.9323 107.297 42.0445 107.486 42.1111C108.029 42.28 108.592 42.3751 109.16 42.394V43.1002C108.573 43.0533 107.804 43.0236 106.852 43.0111C105.9 42.9986 104.885 42.9929 103.806 42.994C102.796 42.994 101.781 42.9997 100.759 43.0111C99.7377 43.0226 98.9117 43.0523 98.2809 43.1002Z" fill="black"/>
<path d="M119.592 24.3486C121.659 24.3486 123.28 24.9606 124.454 26.1846C125.628 27.4085 126.215 29.4096 126.215 32.1877H114.626L114.555 31.5174H121.776C121.805 30.448 121.735 29.3783 121.566 28.3221C121.4 27.346 121.141 26.5648 120.786 25.9783C120.432 25.3919 119.964 25.0976 119.384 25.0955C118.561 25.0955 117.862 25.6132 117.287 26.6486C116.713 27.684 116.366 29.4028 116.248 31.8049L116.353 32.0158C116.33 32.2986 116.311 32.5939 116.3 32.8986C116.29 33.2033 116.283 33.5236 116.283 33.8518C116.283 35.4768 116.512 36.7955 116.969 37.808C117.426 38.8205 118.008 39.5559 118.713 40.0143C119.346 40.4514 120.094 40.6912 120.863 40.7033C121.659 40.6828 122.444 40.5027 123.169 40.1736C124.001 39.8205 124.78 39.0554 125.507 37.8783L126.142 38.0908C125.838 39.0278 125.386 39.9098 124.803 40.7033C124.186 41.5566 123.393 42.2669 122.477 42.7861C121.542 43.3278 120.415 43.5986 119.097 43.5986C117.5 43.5986 116.091 43.2575 114.87 42.5752C113.649 41.8929 112.692 40.857 111.999 39.4674C111.304 38.0778 110.958 36.3122 110.959 34.1705C110.959 31.983 111.329 30.1601 112.069 28.7018C112.809 27.2434 113.83 26.1544 115.133 25.4346C116.438 24.7106 117.925 24.3486 119.592 24.3486Z" fill="black"/>
<path d="M132.908 43.347C131.334 43.347 130.195 42.935 129.491 42.1111C128.782 41.2754 128.405 40.2065 128.433 39.1095C128.433 38.097 128.662 37.273 129.119 36.6376C129.591 35.9896 130.198 35.453 130.899 35.0658C131.633 34.651 132.406 34.3082 133.206 34.0423C134.016 33.7715 134.791 33.5006 135.531 33.2298C136.173 33.0098 136.779 32.6938 137.327 32.2923C137.541 32.141 137.716 31.9398 137.835 31.706C137.955 31.4723 138.016 31.2129 138.014 30.9501V28.197C138.023 27.6357 137.922 27.0781 137.715 26.5564C137.535 26.0974 137.214 25.7078 136.798 25.4439C136.312 25.1653 135.756 25.0304 135.196 25.0548C134.722 25.0567 134.25 25.1218 133.793 25.2486C133.355 25.3604 132.954 25.5863 132.631 25.9033C133.237 26.1016 133.77 26.4764 134.163 26.9798C134.523 27.4505 134.715 28.0288 134.708 28.622C134.708 29.422 134.432 30.0574 133.881 30.5283C133.338 30.9964 132.642 31.2478 131.926 31.2345C131.081 31.2345 130.441 30.9699 130.006 30.4408C129.567 29.8975 129.335 29.2148 129.354 28.5158C129.33 27.9092 129.51 27.3121 129.866 26.8204C130.266 26.319 130.748 25.889 131.292 25.5486C132.037 25.1396 132.839 24.8427 133.67 24.6673C134.659 24.4503 135.669 24.3455 136.681 24.3548C137.665 24.3433 138.645 24.4551 139.601 24.6876C140.425 24.8872 141.18 25.3086 141.783 25.9064C142.325 26.451 142.693 27.1451 142.84 27.9001C143.021 28.8842 143.103 29.884 143.086 30.8845V40.4892C143.086 41.0548 143.145 41.4553 143.262 41.6907C143.316 41.8025 143.401 41.8957 143.508 41.9586C143.614 42.0215 143.737 42.0512 143.861 42.0439C144.095 42.0437 144.326 41.9829 144.531 41.8673C144.745 41.7472 144.945 41.6047 145.129 41.4423L145.482 42.0439C144.977 42.4736 144.395 42.8029 143.767 43.0142C143.069 43.2461 142.336 43.3597 141.601 43.3501C140.192 43.3501 139.256 43.0616 138.795 42.4845C138.341 41.9179 138.087 41.2161 138.073 40.4892C137.556 41.3852 136.811 42.1276 135.915 42.6407C134.988 43.1276 133.954 43.3706 132.908 43.347ZM135.62 41.0939C136.055 41.0977 136.485 40.9901 136.867 40.7814C137.33 40.4976 137.722 40.1111 138.013 39.6517V32.4001C137.719 32.8833 137.315 33.2889 136.833 33.5829C136.328 33.8954 135.811 34.2366 135.282 34.6064C134.75 34.975 134.301 35.4501 133.962 36.0017C133.609 36.5673 133.433 37.321 133.433 38.2626C133.433 39.2736 133.644 39.9986 134.068 40.4329C134.266 40.6459 134.506 40.8147 134.774 40.9286C135.041 41.0424 135.33 41.0987 135.62 41.0939Z" fill="black"/>
<path d="M153.691 15.4502V39.8158C153.691 40.8044 153.861 41.4752 154.201 41.8283C154.542 42.1814 155.122 42.358 155.945 42.358V43.1002C155.499 43.0773 154.83 43.0476 153.937 43.0111C153.045 42.9747 152.141 42.957 151.225 42.958C150.309 42.958 149.387 42.9757 148.459 43.0111C147.531 43.0465 146.833 43.0762 146.364 43.1002V42.358C147.185 42.358 147.766 42.1814 148.108 41.8283C148.45 41.4752 148.62 40.8044 148.618 39.8158V19.6877C148.618 18.6283 148.462 17.8471 148.15 17.3439C147.838 16.8408 147.241 16.5861 146.358 16.5799V15.8393C147.109 15.9091 147.836 15.9439 148.54 15.9439C149.503 15.9439 150.419 15.9028 151.288 15.8205C152.096 15.7485 152.899 15.6248 153.691 15.4502Z" fill="black"/>
<path d="M164.61 19.0518V24.8439H168.767V25.5486H164.61V39.8158C164.61 40.5221 164.739 41.0221 164.998 41.3158C165.256 41.6111 165.643 41.758 166.16 41.758C166.624 41.743 167.069 41.5756 167.428 41.2814C167.852 40.9689 168.226 40.4158 168.556 39.6393L169.155 39.9518C168.814 40.9551 168.224 41.8548 167.44 42.5658C166.676 43.2492 165.637 43.5903 164.323 43.5893C163.63 43.6019 162.94 43.5005 162.279 43.2893C161.649 43.086 161.085 42.7165 160.646 42.2195C160.207 41.7224 159.91 41.1161 159.786 40.4643C159.602 39.4805 159.52 38.4805 159.539 37.4799V25.5486H156.578V24.8439H159.539V20.1814C160.456 20.1886 161.371 20.1001 162.27 19.9174C163.088 19.7456 163.876 19.4539 164.61 19.0518Z" fill="black"/>
<path d="M177.008 15.4844V27.6328C177.596 26.4099 178.388 25.5563 179.387 25.0719C180.439 24.5781 181.589 24.3307 182.751 24.3484C183.761 24.3484 184.571 24.4719 185.182 24.7187C185.739 24.9293 186.235 25.2751 186.625 25.725C187.05 26.2228 187.346 26.8172 187.489 27.4562C187.665 28.1625 187.752 29.1161 187.752 30.3172V39.8156C187.752 40.8042 187.923 41.475 188.264 41.8281C188.604 42.1812 189.186 42.3578 190.008 42.3578V43.1C189.561 43.0771 188.885 43.0474 187.981 43.0109C187.077 42.9745 186.203 42.9568 185.358 42.9578C184.442 42.9578 183.555 42.9755 182.698 43.0109C181.84 43.0463 181.201 43.076 180.779 43.1V42.3578C181.483 42.3578 181.976 42.1812 182.258 41.8281C182.54 41.475 182.68 40.8042 182.68 39.8156V28.8328C182.689 28.3153 182.629 27.799 182.504 27.2969C182.406 26.8927 182.177 26.5327 181.853 26.2734C181.535 26.0266 181.083 25.9031 180.497 25.9031C180.028 25.8996 179.565 25.999 179.139 26.1941C178.713 26.3893 178.335 26.6755 178.031 27.0328C177.349 27.7859 177.008 28.7625 177.008 29.9625V39.8156C177.008 40.8042 177.15 41.475 177.432 41.8281C177.715 42.1812 178.208 42.3578 178.912 42.3578V43.1C178.49 43.0771 177.866 43.0474 177.041 43.0109C176.218 42.9766 175.386 42.9578 174.54 42.9578C173.625 42.9578 172.703 42.9755 171.775 43.0109C170.846 43.0463 170.147 43.076 169.68 43.1V42.3578C170.501 42.3578 171.081 42.1812 171.422 41.8281C171.763 41.475 171.933 40.8042 171.933 39.8156V19.7219C171.933 18.6635 171.778 17.8823 171.466 17.3781C171.154 16.874 170.561 16.6208 169.687 16.6188V15.8766C170.439 15.9474 171.166 15.9828 171.87 15.9828C172.831 15.9828 173.747 15.9417 174.618 15.8594C175.422 15.7855 176.22 15.6603 177.008 15.4844Z" fill="black"/>
<path d="M6.30309 28.9438C6.34985 28.672 6.40597 28.4011 6.47143 28.1313C6.66447 27.3456 6.92523 26.5781 7.25076 25.8376C7.26609 25.8315 7.27997 25.8222 7.29152 25.8103C7.30306 25.7985 7.312 25.7844 7.31778 25.7688C7.66012 25.0096 8.09576 24.2963 8.61458 23.6454C10.8393 21.0152 12.9404 19.5569 14.9178 19.2704C17.9447 20.1017 21.2054 23.0329 22.9573 26.6142L22.976 26.6423C23.1183 27.0389 23.2385 27.4432 23.3361 27.8532C23.4218 28.2095 23.4919 28.572 23.5496 28.947C25.5435 28.1029 27.4039 26.9717 29.0719 25.5892C29.0595 25.5579 29.0501 25.5282 29.0376 25.497C29.0127 25.4345 28.9846 25.372 28.9581 25.3095C28.9184 25.1833 28.871 25.0596 28.8163 24.9392C28.6396 24.5608 28.444 24.1915 28.2302 23.8329C27.7733 23.0318 27.252 22.2694 26.6716 21.5532C26.5168 21.3626 26.3567 21.1709 26.1915 20.9782C25.2719 19.8642 24.3601 18.9157 23.7569 18.322C21.7634 16.3204 19.3272 14.5142 16.6884 12.2517C15.1298 10.9345 14.0044 9.28291 13.1846 8.08135C12.3647 6.87979 11.9532 5.74541 11.9532 4.6876C11.9532 3.5376 11.9532 2.95635 12.3569 2.00322L13.5399 0.225098C12.6625 0.700659 11.8574 1.29941 11.149 2.00322C10.5803 2.62857 10.0947 3.32496 9.70408 4.0751C9.28519 4.87814 8.96339 5.72842 8.74551 6.60791C8.5176 7.50831 8.40241 8.43366 8.4026 9.3626C8.40232 10.6485 8.65166 11.9222 9.13673 13.1126C10.0719 15.3688 11.5386 16.1735 12.3569 17.3626C9.87709 18.5673 8.78603 19.0813 6.76601 20.7017C5.7662 21.3387 4.83028 22.0713 3.97135 22.8892C2.97407 23.8367 2.12166 24.9266 1.44165 26.1235C2.93611 27.2697 4.56964 28.221 6.30309 28.9548V28.9438Z" fill="url(#paint0_linear_3507_944)"/>
<path d="M29.0735 25.5874C27.4055 26.97 25.5451 28.1012 23.5512 28.9452C23.672 29.7326 23.7319 30.5282 23.7305 31.3249C23.7477 32.8283 23.5322 34.3253 23.0914 35.7624C22.715 37.0014 22.1253 38.1647 21.3489 39.1999C20.6549 40.1216 19.7715 40.8831 18.7584 41.4327C17.7805 41.9607 16.6863 42.2347 15.5756 42.2296C14.6738 42.2347 13.7777 42.0857 12.9259 41.789C12.1042 41.5026 11.3294 41.0956 10.6269 40.5812C9.91412 40.0599 9.27545 39.4438 8.72843 38.7499C8.17086 38.0388 7.69993 37.2635 7.32564 36.4405C6.93934 35.5955 6.64311 34.712 6.44188 33.8046C6.23404 32.8816 6.12948 31.9383 6.13015 30.9921C6.13008 30.3044 6.18953 29.6179 6.30784 28.9405C4.57292 28.2081 2.9378 27.2578 1.44172 26.1124C1.28585 26.3937 1.12999 26.678 0.997503 26.9687C0.306141 28.4526 -0.0488972 30.0715 -0.0421196 31.7093C-0.0609967 33.3992 0.287933 35.073 0.980358 36.614C1.63979 38.0733 2.58606 39.3843 3.76256 40.4687C4.95833 41.5618 6.35122 42.4162 7.86649 42.9858C9.46021 43.5886 11.1509 43.8926 12.8542 43.8827C14.2616 43.883 15.6661 43.7543 17.0501 43.4983C18.4123 43.249 19.7453 42.8595 21.0278 42.3358C22.2736 41.827 23.4553 41.173 24.5488 40.3874C25.6145 39.6204 26.5601 38.6983 27.3544 37.6515C28.156 36.586 28.7841 35.4 29.2154 34.1374C29.6799 32.7485 29.908 31.2912 29.8903 29.8265C29.8693 28.3762 29.5928 26.9411 29.0735 25.5874Z" fill="black"/>
</g>
<defs>
<linearGradient id="paint0_linear_3507_944" x1="15.2576" y1="34.1157" x2="15.2576" y2="5.39541" gradientUnits="userSpaceOnUse">
<stop stop-color="#FF6606"/>
<stop offset="0.02" stop-color="#FF6806"/>
<stop offset="0.29" stop-color="#FF8A06"/>
<stop offset="0.56" stop-color="#FFA206"/>
<stop offset="0.8" stop-color="#FFB106"/>
<stop offset="1" stop-color="#FFB606"/>
</linearGradient>
<clipPath id="clip0_3507_944">
<rect width="190" height="50" fill="white"/>
</clipPath>
</defs>
</svg>
