<svg width="97" height="60" viewBox="0 0 549 353" fill="none" xmlns="http://www.w3.org/2000/svg">
<path d="M275.85 170.51V268.82C275.85 275.147 276.94 279.44 279.12 281.7C281.3 283.96 285.03 285.09 290.31 285.09V289.84C287.45 289.693 283.193 289.503 277.54 289.27C271.887 289.037 266.123 288.923 260.25 288.93C254.377 288.93 248.427 289.043 242.4 289.27C236.373 289.497 231.853 289.687 228.84 289.84V285.09C234.113 285.09 237.843 283.96 240.03 281.7C242.217 279.44 243.307 275.147 243.3 268.82V197.63C243.3 190.85 242.283 185.85 240.25 182.63C238.217 179.41 234.413 177.79 228.84 177.77V173C233.66 173.447 238.327 173.67 242.84 173.67C249.173 173.67 255.087 173.407 260.58 172.88C265.715 172.413 270.815 171.622 275.85 170.51ZM258.22 114.69C264.553 114.69 269.553 116.233 273.22 119.32C276.887 122.407 278.733 126.663 278.76 132.09C278.76 137.51 276.913 141.767 273.22 144.86C269.527 147.953 264.527 149.497 258.22 149.49C251.887 149.49 246.887 147.947 243.22 144.86C239.553 141.773 237.707 137.517 237.68 132.09C237.68 126.67 239.527 122.413 243.22 119.32C246.913 116.227 251.913 114.683 258.22 114.69Z" fill="black"/>
<path d="M415.29 173V177.51C412.12 178.461 409.293 180.308 407.15 182.83C404.59 185.61 402.103 190.333 399.69 197L367.83 286.5L359.47 302.32L310.2 190.4C307.633 184.52 305.11 180.94 302.63 179.66C300.661 178.529 298.457 177.872 296.19 177.74V173C301.163 173.447 306.323 173.78 311.67 174C317.01 174.23 322.18 174.34 327.15 174.34C333.317 174.34 338.983 174.19 344.15 173.89C349.317 173.59 354.137 173.29 358.61 172.99V177.73C355.777 177.718 352.946 177.908 350.14 178.3C347.5 178.67 345.69 179.73 344.71 181.46C343.73 183.19 344.15 186.17 345.96 190.39L374.43 259.09L372.43 260.45L389.15 213.66C393.37 201.46 394.037 192.533 391.15 186.88C388.263 181.227 383.213 178.103 376 177.51V173C379.473 173.153 383.24 173.303 387.3 173.45C391.36 173.597 394.903 173.67 397.93 173.67C400.937 173.67 404.1 173.597 407.42 173.45C410.74 173.303 413.363 173.153 415.29 173ZM367.83 286.45L359.24 310.63C356.38 318.31 353.063 323.643 349.29 326.63C346.903 328.581 344.134 330.008 341.16 330.82C337.405 331.853 333.523 332.347 329.63 332.29C325.833 332.257 322.063 331.647 318.45 330.48C314.791 329.387 311.479 327.361 308.84 324.6C306.248 321.79 304.868 318.071 305 314.25C304.92 312.126 305.33 310.013 306.197 308.073C307.064 306.133 308.365 304.417 310 303.06C313.31 300.27 317.69 298.88 323.11 298.88C328.083 298.88 332.15 300.083 335.31 302.49C338.47 304.897 340.033 308.44 340 313.12C339.977 316.206 338.988 319.206 337.17 321.7C335.066 324.581 332.099 326.718 328.7 327.8C329.594 327.964 330.501 328.041 331.41 328.03H333.9C338.285 328.085 342.544 326.562 345.9 323.74C349.36 320.867 352.22 316.347 354.48 310.18L362.39 286.9L367.83 286.45Z" fill="black"/>
<path d="M448.29 291.42C438.19 291.42 430.88 288.783 426.36 283.51C421.811 278.16 419.397 271.32 419.58 264.3C419.58 257.82 421.05 252.547 423.99 248.48C427.015 244.335 430.909 240.902 435.4 238.42C440.115 235.767 445.075 233.574 450.21 231.87C455.403 230.137 460.373 228.403 465.12 226.67C469.244 225.264 473.132 223.241 476.65 220.67C478.025 219.702 479.144 218.414 479.912 216.918C480.68 215.422 481.074 213.762 481.06 212.08V194.46C481.116 190.867 480.46 187.298 479.13 183.96C477.975 181.026 475.92 178.533 473.26 176.84C470.143 175.061 466.586 174.197 463 174.35C459.958 174.362 456.932 174.779 454 175.59C451.187 176.303 448.613 177.749 446.54 179.78C450.427 181.052 453.848 183.45 456.37 186.67C458.677 189.684 459.909 193.384 459.87 197.18C459.87 202.3 458.1 206.367 454.56 209.38C451.072 212.381 446.6 213.99 442 213.9C436.567 213.9 432.46 212.207 429.68 208.82C426.862 205.343 425.379 200.974 425.5 196.5C425.346 192.618 426.501 188.797 428.78 185.65C431.35 182.441 434.443 179.689 437.93 177.51C442.713 174.893 447.855 172.993 453.19 171.87C459.535 170.481 466.015 169.81 472.51 169.87C478.814 169.797 485.103 170.512 491.23 172C496.52 173.277 501.36 175.974 505.23 179.8C508.696 183.284 511.052 187.718 512 192.54C513.161 198.838 513.69 205.237 513.58 211.64V273.11C513.58 276.73 513.95 279.29 514.71 280.8C515.054 281.515 515.602 282.112 516.286 282.514C516.97 282.917 517.758 283.107 518.55 283.06C520.057 283.059 521.538 282.67 522.85 281.93C524.221 281.159 525.508 280.247 526.69 279.21L528.95 283.06C525.71 285.809 521.977 287.916 517.95 289.27C513.468 290.755 508.771 291.481 504.05 291.42C495.01 291.42 489.01 289.573 486.05 285.88C483.135 282.254 481.506 277.762 481.42 273.11C478.092 278.858 473.295 283.618 467.52 286.9C461.594 290.006 454.979 291.561 448.29 291.42ZM465.69 277C468.483 277.023 471.236 276.335 473.69 275C476.659 273.181 479.173 270.708 481.04 267.77V221.36C479.154 224.453 476.555 227.049 473.46 228.93C470.22 230.93 466.907 233.113 463.52 235.48C460.11 237.839 457.226 240.88 455.05 244.41C452.79 248.03 451.66 252.853 451.66 258.88C451.66 265.35 453.01 269.99 455.72 272.77C456.994 274.132 458.54 275.212 460.257 275.941C461.974 276.669 463.825 277.03 465.69 277Z" fill="black"/>
<path fill-rule="evenodd" clip-rule="evenodd" d="M209.403 181.896C206.277 170.888 200.761 160.784 194.173 150.56C187.525 138.714 181.375 129.036 175.044 119.071C171.081 112.833 167.046 106.484 162.773 99.42C147.073 76.08 138.533 34.54 167.803 20C135.863 24.89 112.893 57.92 115.043 89.41C115.897 100.38 119.182 106.536 122.736 113.197C124.055 115.668 125.411 118.208 126.693 121.09C84.7041 119.318 44.3594 147.334 27.8386 182.887C36.6408 189.459 49.388 197.864 59.5407 202.629C59.4535 203.425 59.3778 204.223 59.3136 205.021C60.8499 185.914 68.9994 167.237 82.8432 154.04C105.703 132.2 142.713 137.71 159.043 164.79C166.063 176.42 170.697 189.701 172.272 203.674C172.272 203.673 172.272 203.673 172.272 203.673C184.563 198.411 199.049 190.2 209.403 181.896Z" fill="url(#paint0_linear_6_477)"/>
<path fill-rule="evenodd" clip-rule="evenodd" d="M172.272 203.673C173.894 218.066 172.27 233.194 166.663 248.01C148.883 297.4 88.5733 292.23 68.1633 248.01C60.5359 234.305 57.8303 218.251 59.5408 202.629C49.3881 197.864 36.6409 189.459 27.8387 182.887C14.339 211.939 16.7467 246.023 47.1633 273C104.193 321.9 215.623 282.78 212.173 202C212.21 194.868 211.203 188.232 209.403 181.896C199.049 190.2 184.563 198.411 172.272 203.673Z" fill="black"/>
<defs>
<linearGradient id="paint0_linear_6_477" x1="116.003" y1="226.5" x2="116.131" y2="69.3996" gradientUnits="userSpaceOnUse">
<stop stop-color="#FF6606"/>
<stop offset="0.02" stop-color="#FF6806"/>
<stop offset="0.29" stop-color="#FF8A06"/>
<stop offset="0.56" stop-color="#FFA206"/>
<stop offset="0.8" stop-color="#FFB106"/>
<stop offset="1" stop-color="#FFB606"/>
</linearGradient>
</defs>
</svg>
