<svg width="424" height="194" viewBox="0 0 926 430" fill="none" xmlns="http://www.w3.org/2000/svg">
<path d="M124.19 258.3H110.02V152.48H124.19V168.42C127.6 161.97 131.99 157.05 137.55 153.74C143.11 150.34 149.48 148.73 156.65 148.73C163.82 148.73 170.46 150.43 175.66 153.83C180.95 157.23 184.99 162.25 187.77 168.78C191.8 162.07 196.83 156.96 202.74 153.65C208.66 150.34 215.47 148.64 223.36 148.64C234.21 148.64 242.73 151.95 248.91 158.49C255.1 165.03 258.24 173.98 258.24 185.44V258.31H244.16V191.08C244.16 181.14 242.1 173.62 237.97 168.52C233.85 163.51 227.75 160.91 219.59 160.91C209.82 160.91 202.73 164.13 198.16 170.49C193.59 176.85 191.35 186.96 191.35 200.75V258.31H177.27V191.08C177.27 180.69 175.3 173 171.44 168.25C167.58 163.51 161.49 161 153.24 161C143.29 161 135.93 164.22 131.27 170.67C126.61 177.12 124.28 187.14 124.28 200.75V258.31H124.19V258.3Z" fill="black"/>
<path fill-rule="evenodd" clip-rule="evenodd" d="M384.77 148.72H402.79V148.63H410.23V198.67C410.23 228.21 389.43 253.01 361.81 258.56V265.01C361.81 268.5 360.29 271.63 357.87 273.78V274.14C357.87 331.17 304.43 410.13 204 410.13C149.39 410.13 112.54 382.2 91.2 358.74C66.09 331.08 49.32 295.18 44.66 259.28C30.67 256.69 20 244.42 20 229.74C20 213.18 33.54 199.66 50.13 199.66C66.72 199.66 80.26 213.18 80.26 229.74C80.26 242.81 71.92 253.82 60.35 258.03C64.74 290.53 80.08 323.02 102.85 348.18C122.04 369.31 155.13 394.46 204 394.46C252.87 394.46 288.02 372.17 306.49 353.37C328.73 330.72 342.09 301.18 342.09 274.23V273.87C339.67 271.72 338.14 268.59 338.14 265.1V258.65C310.61 253.1 289.72 228.39 289.72 198.76V148.72H316.26C320.21 148.72 323.43 151.94 323.43 155.88C323.43 159.82 320.2 163.04 316.26 163.04H305.5V198.67C305.5 223.65 325.5 244.06 350.06 244.06C374.62 244.06 394.63 223.74 394.63 198.67V163.04H384.76C380.82 163.04 377.59 159.82 377.59 155.88C377.59 151.94 380.82 148.72 384.76 148.72H384.77ZM50.22 215.33C42.24 215.33 35.78 221.77 35.78 229.74C35.78 237.71 42.24 244.15 50.22 244.15C58.2 244.15 64.66 237.7 64.66 229.74C64.66 221.78 58.2 215.33 50.22 215.33Z" fill="url(#paint0_linear_22_1188)"/>
<path d="M555.73 379.73H530.35V406.44H522.37V345.95H559.84V352.52H530.35V373.21H555.73V379.73Z" fill="black"/>
<path d="M587.95 407.27C581.86 407.27 576.9 405.27 573.08 401.29C569.26 397.27 567.35 391.92 567.35 385.21V383.8C567.35 379.34 568.19 375.37 569.88 371.88C571.6 368.36 573.98 365.62 577.02 363.66C580.09 361.66 583.42 360.67 586.99 360.67C592.83 360.67 597.38 362.59 600.62 366.45C603.86 370.3 605.48 375.81 605.48 382.98V386.18H575.03C575.14 390.61 576.43 394.2 578.89 396.94C581.38 399.65 584.54 401.01 588.36 401.01C591.07 401.01 593.37 400.46 595.26 399.35C597.14 398.24 598.79 396.77 600.2 394.95L604.89 398.61C601.12 404.4 595.47 407.29 587.94 407.29L587.95 407.27ZM587 366.98C583.9 366.98 581.3 368.12 579.19 370.39C577.09 372.63 575.78 375.79 575.28 379.86H597.8V379.28C597.58 375.37 596.53 372.36 594.64 370.22C592.76 368.06 590.21 366.98 587 366.98Z" fill="black"/>
<path d="M635.09 407.27C629 407.27 624.04 405.27 620.22 401.29C616.4 397.27 614.49 391.92 614.49 385.21V383.8C614.49 379.34 615.33 375.37 617.02 371.88C618.74 368.36 621.12 365.62 624.16 363.66C627.23 361.66 630.56 360.67 634.13 360.67C639.97 360.67 644.52 362.59 647.75 366.45C650.99 370.3 652.61 375.81 652.61 382.98V386.18H622.16C622.27 390.61 623.56 394.2 626.02 396.94C628.51 399.65 631.67 401.01 635.49 401.01C638.2 401.01 640.5 400.46 642.39 399.35C644.28 398.24 645.92 396.77 647.33 394.95L652.03 398.61C648.26 404.4 642.61 407.29 635.08 407.29L635.09 407.27ZM634.14 366.98C631.04 366.98 628.43 368.12 626.33 370.39C624.23 372.63 622.92 375.79 622.43 379.86H644.95V379.28C644.73 375.37 643.68 372.36 641.79 370.22C639.91 368.06 637.36 366.98 634.15 366.98H634.14Z" fill="black"/>
<path d="M671.93 406.44H664.24V342.63H671.93V406.44Z" fill="black"/>
<path d="M728.45 379.48C721.61 377.51 716.62 375.1 713.5 372.25C710.4 369.37 708.85 365.82 708.85 361.62C708.85 356.86 710.75 352.92 714.54 349.82C718.36 346.69 723.32 345.12 729.41 345.12C733.56 345.12 737.26 345.92 740.5 347.53C743.77 349.14 746.29 351.35 748.06 354.18C749.86 357 750.76 360.09 750.76 363.44H742.74C742.74 359.78 741.58 356.92 739.25 354.84C736.92 352.74 733.64 351.68 729.41 351.68C725.48 351.68 722.4 352.55 720.19 354.3C718 356.02 716.91 358.41 716.91 361.49C716.91 363.96 717.95 366.05 720.03 367.76C722.13 369.45 725.69 371 730.71 372.41C735.75 373.82 739.68 375.39 742.51 377.1C745.36 378.79 747.47 380.77 748.82 383.04C750.21 385.31 750.9 387.98 750.9 391.06C750.9 395.96 748.99 399.89 745.17 402.86C741.35 405.8 736.24 407.26 729.84 407.26C725.69 407.26 721.81 406.47 718.21 404.89C714.61 403.28 711.83 401.1 709.86 398.33C707.92 395.56 706.95 392.42 706.95 388.9H714.97C714.97 392.56 716.31 395.45 719 397.58C721.71 399.69 725.33 400.74 729.84 400.74C734.05 400.74 737.28 399.88 739.52 398.17C741.76 396.45 742.89 394.11 742.89 391.15C742.89 388.19 741.85 385.9 739.77 384.3C737.69 382.67 733.93 381.06 728.47 379.48H728.45Z" fill="black"/>
<path d="M789.71 406.44C789.27 405.55 788.91 403.97 788.63 401.7C785.06 405.41 780.79 407.27 775.84 407.27C771.41 407.27 767.77 406.02 764.91 403.53C762.09 401.01 760.67 397.83 760.67 393.97C760.67 389.29 762.44 385.66 765.99 383.09C769.56 380.49 774.57 379.19 781.03 379.19H788.51V375.66C788.51 372.97 787.71 370.84 786.1 369.26C784.49 367.65 782.13 366.85 779 366.85C776.26 366.85 773.96 367.54 772.1 368.93C770.24 370.32 769.32 371.99 769.32 373.96H761.59C761.59 371.72 762.38 369.56 763.96 367.48C765.57 365.38 767.73 363.71 770.44 362.49C773.18 361.27 776.19 360.66 779.45 360.66C784.63 360.66 788.69 361.96 791.62 364.57C794.56 367.14 796.08 370.7 796.19 375.25V395.94C796.19 400.07 796.71 403.35 797.77 405.79V406.45H789.71V406.44ZM776.96 400.58C779.37 400.58 781.65 399.96 783.81 398.71C785.97 397.46 787.54 395.84 788.51 393.85V384.63H782.49C773.07 384.63 768.36 387.38 768.36 392.9C768.36 395.31 769.16 397.19 770.77 398.55C772.38 399.91 774.44 400.59 776.96 400.59V400.58Z" fill="black"/>
<path d="M814.05 406.44V367.43H806.95V361.49H814.05V356.88C814.05 352.06 815.34 348.34 817.91 345.7C820.49 343.07 824.13 341.75 828.84 341.75C830.61 341.75 832.37 341.98 834.11 342.46L833.69 348.69C832.39 348.44 831 348.32 829.54 348.32C827.05 348.32 825.12 349.06 823.76 350.52C822.4 351.96 821.72 354.04 821.72 356.75V361.49H831.32V367.43H821.72V406.44H814.03H814.05Z" fill="black"/>
<path d="M859.53 407.27C853.44 407.27 848.48 405.27 844.66 401.29C840.84 397.27 838.93 391.92 838.93 385.21V383.8C838.93 379.34 839.77 375.37 841.46 371.88C843.18 368.36 845.56 365.62 848.61 363.66C851.68 361.66 855.01 360.67 858.58 360.67C864.42 360.67 868.97 362.59 872.2 366.45C875.44 370.3 877.06 375.81 877.06 382.98V386.18H846.61C846.72 390.61 848.01 394.2 850.47 396.94C852.96 399.65 856.12 401.01 859.94 401.01C862.65 401.01 864.95 400.46 866.84 399.35C868.72 398.24 870.37 396.77 871.78 394.95L876.48 398.61C872.71 404.4 867.06 407.29 859.53 407.29V407.27ZM858.57 366.98C855.47 366.98 852.86 368.12 850.76 370.39C848.66 372.63 847.35 375.79 846.85 379.86H869.37V379.28C869.15 375.37 868.1 372.36 866.21 370.22C864.33 368.06 861.78 366.98 858.57 366.98Z" fill="black"/>
<path d="M656.702 151.598V237.555C656.702 243.087 657.655 246.841 659.561 248.817C661.467 250.793 664.729 251.781 669.345 251.781V255.934C666.845 255.806 663.123 255.64 658.18 255.436C653.237 255.232 648.198 255.133 643.062 255.139C637.927 255.139 632.725 255.238 627.455 255.436C622.186 255.634 618.234 255.8 615.599 255.934V251.781C620.21 251.781 623.471 250.793 625.383 248.817C627.295 246.841 628.248 243.087 628.242 237.555V175.311C628.242 169.382 627.353 165.011 625.575 162.195C623.798 159.38 620.472 157.963 615.599 157.946V153.775C619.813 154.166 623.894 154.361 627.84 154.361C633.378 154.361 638.548 154.131 643.351 153.67C647.841 153.262 652.3 152.57 656.702 151.598ZM641.288 102.792C646.825 102.792 651.197 104.141 654.403 106.84C657.609 109.539 659.223 113.261 659.247 118.006C659.247 122.745 657.632 126.466 654.403 129.171C651.173 131.876 646.802 133.225 641.288 133.219C635.75 133.219 631.378 131.87 628.172 129.171C624.966 126.472 623.352 122.75 623.328 118.006C623.328 113.267 624.943 109.545 628.172 106.84C631.402 104.136 635.773 102.786 641.288 102.792Z" fill="black"/>
<path d="M778.621 153.775V157.719C775.85 158.55 773.378 160.165 771.504 162.37C769.266 164.801 767.092 168.931 764.981 174.76L737.125 253.014L729.815 266.846L686.736 168.989C684.492 163.848 682.286 160.718 680.117 159.599C678.396 158.61 676.468 158.035 674.486 157.92V153.775C678.835 154.166 683.346 154.457 688.021 154.65C692.69 154.851 697.211 154.947 701.556 154.947C706.948 154.947 711.903 154.816 716.42 154.554C720.938 154.291 725.152 154.029 729.063 153.767V157.911C726.586 157.9 724.111 158.067 721.657 158.409C719.349 158.733 717.767 159.66 716.91 161.172C716.053 162.685 716.42 165.291 718.003 168.98L742.895 229.048L741.147 230.237L755.766 189.326C759.456 178.659 760.038 170.854 757.515 165.911C754.991 160.968 750.575 158.237 744.268 157.719V153.775C747.305 153.909 750.598 154.041 754.148 154.169C757.698 154.297 760.796 154.361 763.443 154.361C766.071 154.361 768.837 154.297 771.74 154.169C774.643 154.041 776.937 153.909 778.621 153.775ZM737.125 252.97L729.614 274.112C727.113 280.827 724.213 285.49 720.914 288.102C718.828 289.807 716.406 291.055 713.806 291.765C710.523 292.668 707.129 293.101 703.725 293.05C700.405 293.022 697.109 292.488 693.949 291.468C690.75 290.512 687.854 288.741 685.547 286.327C683.281 283.869 682.074 280.618 682.189 277.277C682.12 275.42 682.478 273.572 683.236 271.876C683.994 270.18 685.132 268.68 686.561 267.493C689.455 265.054 693.285 263.838 698.024 263.838C702.372 263.838 705.928 264.891 708.691 266.995C711.454 269.099 712.821 272.197 712.792 276.289C712.772 278.987 711.906 281.611 710.317 283.791C708.478 286.31 705.884 288.178 702.911 289.125C703.693 289.268 704.486 289.336 705.281 289.326H707.458C711.292 289.374 715.016 288.042 717.95 285.575C720.975 283.062 723.476 279.11 725.452 273.719L732.368 253.364L737.125 252.97Z" fill="black"/>
<path d="M807.475 257.316C798.644 257.316 792.252 255.011 788.3 250.4C784.323 245.722 782.212 239.741 782.372 233.604C782.372 227.938 783.658 223.327 786.228 219.771C788.873 216.147 792.278 213.145 796.204 210.976C800.327 208.656 804.664 206.738 809.154 205.249C813.694 203.733 818.04 202.217 822.19 200.702C825.796 199.473 829.195 197.704 832.271 195.456C833.473 194.609 834.452 193.483 835.124 192.175C835.795 190.867 836.14 189.416 836.127 187.945V172.539C836.176 169.398 835.603 166.277 834.44 163.358C833.43 160.793 831.633 158.613 829.307 157.133C826.582 155.577 823.472 154.822 820.336 154.956C817.677 154.966 815.031 155.331 812.467 156.04C810.008 156.664 807.757 157.928 805.945 159.704C809.343 160.816 812.335 162.913 814.54 165.728C816.557 168.363 817.634 171.598 817.6 174.917C817.6 179.394 816.052 182.95 812.957 185.584C809.907 188.208 805.997 189.615 801.975 189.536C797.225 189.536 793.634 188.056 791.203 185.095C788.739 182.055 787.443 178.234 787.548 174.323C787.414 170.928 788.424 167.587 790.416 164.836C792.663 162.03 795.368 159.624 798.417 157.719C802.599 155.431 807.094 153.769 811.759 152.788C817.306 151.573 822.973 150.986 828.652 151.039C834.164 150.975 839.662 151.601 845.019 152.901C849.644 154.018 853.877 156.376 857.26 159.721C860.291 162.767 862.351 166.644 863.18 170.86C864.195 176.367 864.658 181.962 864.561 187.56V241.307C864.561 244.472 864.885 246.71 865.549 248.03C865.85 248.656 866.329 249.177 866.927 249.529C867.525 249.881 868.214 250.047 868.907 250.006C870.224 250.006 871.519 249.665 872.666 249.018C873.865 248.344 874.99 247.547 876.024 246.64L878 250.006C875.167 252.41 871.903 254.252 868.382 255.436C864.464 256.734 860.356 257.369 856.229 257.316C848.324 257.316 843.078 255.701 840.49 252.472C837.941 249.302 836.517 245.374 836.442 241.307C833.532 246.333 829.337 250.494 824.289 253.364C819.107 256.079 813.323 257.439 807.475 257.316ZM822.688 244.708C825.131 244.728 827.538 244.126 829.683 242.959C832.279 241.369 834.477 239.207 836.11 236.638V196.059C834.461 198.763 832.188 201.033 829.482 202.678C826.649 204.427 823.752 206.336 820.791 208.405C817.809 210.468 815.288 213.126 813.385 216.213C811.409 219.378 810.421 223.595 810.421 228.865C810.421 234.522 811.602 238.579 813.971 241.009C815.086 242.2 816.437 243.145 817.938 243.782C819.44 244.419 821.058 244.734 822.688 244.708Z" fill="black"/>
<path fill-rule="evenodd" clip-rule="evenodd" d="M598.6 161.55C595.867 151.925 591.044 143.091 585.284 134.152C579.471 123.795 574.095 115.333 568.559 106.62C565.094 101.167 561.566 95.6151 557.83 89.439C544.104 69.0322 536.637 32.7127 562.228 20C534.302 24.2755 514.219 53.1545 516.099 80.687C516.845 90.2788 519.717 95.6606 522.825 101.484C523.978 103.645 525.163 105.866 526.285 108.386C489.573 106.836 454.298 131.332 439.854 162.417C447.549 168.163 458.695 175.511 467.572 179.677C467.495 180.373 467.429 181.071 467.373 181.769C468.716 165.063 475.841 148.733 487.946 137.195C507.933 118.099 540.291 122.917 554.569 146.594C560.707 156.762 564.758 168.374 566.135 180.591C576.882 175.989 589.548 168.81 598.6 161.55Z" fill="url(#paint1_linear_22_1188)"/>
<path fill-rule="evenodd" clip-rule="evenodd" d="M566.135 180.591C567.554 193.175 566.134 206.401 561.232 219.355C545.686 262.538 492.955 258.018 475.11 219.355C468.442 207.372 466.076 193.336 467.572 179.677C458.695 175.511 447.55 168.163 439.854 162.417C428.05 187.817 430.156 217.618 456.75 241.205C506.612 283.959 604.039 249.756 601.022 179.127C601.054 172.892 600.174 167.09 598.6 161.55C589.548 168.81 576.882 175.989 566.135 180.591Z" fill="black"/>
<path d="M893.532 166C891.084 166 888.911 165.46 887.013 164.379C885.156 163.298 883.679 161.823 882.582 159.953C881.527 158.041 881 155.9 881 153.531C881 151.121 881.527 148.98 882.582 147.11C883.679 145.239 885.156 143.764 887.013 142.683C888.911 141.561 891.084 141 893.532 141C895.979 141 898.131 141.561 899.987 142.683C901.844 143.764 903.3 145.239 904.354 147.11C905.451 148.98 906 151.121 906 153.531C906 155.9 905.451 158.041 904.354 159.953C903.3 161.823 901.844 163.298 899.987 164.379C898.131 165.46 895.979 166 893.532 166ZM896.253 160.14L892.203 153.968H895.177L899.481 160.14H896.253ZM893.532 163.943C895.599 163.943 897.392 163.506 898.911 162.633C900.43 161.719 901.612 160.472 902.456 158.893C903.3 157.313 903.722 155.526 903.722 153.531C903.722 151.495 903.3 149.707 902.456 148.17C901.612 146.59 900.43 145.364 898.911 144.491C897.392 143.577 895.599 143.12 893.532 143.12C891.464 143.12 889.65 143.577 888.089 144.491C886.57 145.364 885.388 146.59 884.544 148.17C883.7 149.707 883.278 151.495 883.278 153.531C883.278 155.526 883.7 157.313 884.544 158.893C885.388 160.472 886.57 161.719 888.089 162.633C889.65 163.506 891.464 163.943 893.532 163.943ZM888.595 160.14V146.736H894.481C895.873 146.736 896.97 147.11 897.772 147.858C898.616 148.564 899.038 149.541 899.038 150.788C899.038 152.035 898.616 153.032 897.772 153.781C896.97 154.487 895.873 154.84 894.481 154.84H891.316V160.14H888.595ZM891.316 152.596H894.291C894.882 152.596 895.367 152.471 895.747 152.222C896.127 151.931 896.316 151.474 896.316 150.85C896.316 150.268 896.127 149.853 895.747 149.603C895.367 149.313 894.882 149.167 894.291 149.167H891.316V152.596Z" fill="black"/>
<defs>
<linearGradient id="paint0_linear_22_1188" x1="215.06" y1="456.66" x2="215.19" y2="-85.7701" gradientUnits="userSpaceOnUse">
<stop stop-color="#FF6606"/>
<stop offset="0.02" stop-color="#FF6806"/>
<stop offset="0.29" stop-color="#FF8A06"/>
<stop offset="0.56" stop-color="#FFA206"/>
<stop offset="0.8" stop-color="#FFB106"/>
<stop offset="1" stop-color="#FFB606"/>
</linearGradient>
<linearGradient id="paint1_linear_22_1188" x1="516.938" y1="200.548" x2="517.05" y2="63.1914" gradientUnits="userSpaceOnUse">
<stop stop-color="#FF6606"/>
<stop offset="0.02" stop-color="#FF6806"/>
<stop offset="0.29" stop-color="#FF8A06"/>
<stop offset="0.56" stop-color="#FFA206"/>
<stop offset="0.8" stop-color="#FFB106"/>
<stop offset="1" stop-color="#FFB606"/>
</linearGradient>
</defs>
</svg>
