<svg width="243" height="18" viewBox="0 0 243 18" fill="none" xmlns="http://www.w3.org/2000/svg">
<path d="M223.724 0.870818C224.73 0.843098 225.739 0.753185 226.742 0.694363C230.487 0.475305 234.23 0.25354 237.971 0C238.613 0.0547647 239.099 0.298167 239.433 0.730199C239.612 1.00267 239.79 1.27648 239.968 1.54896C240.213 2.08781 240.361 2.63682 240.419 3.19867C240.476 3.76051 240.464 4.31897 240.331 4.98764C240.197 5.65631 239.926 6.32227 239.433 6.83882C239.099 7.27085 238.613 7.51425 237.971 7.56902C234.018 7.83811 230.063 8.07407 226.106 8.30935C225.932 8.32017 225.76 8.33099 225.587 8.34316C227.261 8.32084 228.937 8.29719 230.612 8.26676C232.159 8.23904 233.705 8.21065 235.252 8.18293L235.326 8.18159C235.902 8.17122 236.477 8.16088 237.053 8.15115C237.321 8.14574 237.588 8.14506 237.854 8.14506C238.132 8.14506 238.411 8.14573 238.689 8.13965C238.734 8.07204 238.783 8.00849 238.841 7.94832C238.993 7.75157 239.214 7.64203 239.505 7.61769C240.029 7.68398 240.535 7.79336 241.047 7.90382L241.062 7.90707C241.354 7.93141 241.576 8.04296 241.727 8.24039C241.809 8.36479 241.89 8.48919 241.972 8.61292C242.121 8.94286 242.194 9.28227 242.188 9.63317C242.194 9.98272 242.121 10.3221 241.972 10.6514C241.869 10.9022 241.684 11.1084 241.417 11.27C240.972 11.385 240.51 11.5425 240.047 11.602C239.628 11.6561 239.211 11.7034 238.788 11.7278C238.193 11.7616 237.598 11.7954 237.002 11.8217C236.348 11.8515 235.694 11.8799 235.042 11.9096C233.538 11.9759 232.034 12.0435 230.531 12.1104C228.004 12.2213 225.478 12.3302 222.95 12.4296C220.577 12.5215 218.203 12.6439 215.827 12.6959C213.051 12.7568 210.27 12.8406 207.492 12.8805C202.043 12.9576 196.596 13.034 191.147 13.1036C181.23 13.2287 171.316 13.3518 161.397 13.4282C156.479 13.4674 151.563 13.5012 146.646 13.5559C144.148 13.583 141.649 13.5972 139.153 13.6513C136.515 13.7081 133.876 13.7344 131.24 13.8257C126.029 14.0029 120.819 14.1807 115.613 14.4187C110.535 14.6519 105.455 14.8798 100.375 15.1103C95.3177 15.3402 90.2601 15.5816 85.1972 15.7628C79.732 15.9581 74.2677 16.0677 68.7963 16.1448C64.027 16.211 59.2514 16.2665 54.483 16.4071C51.6341 16.4916 48.7923 16.591 45.9461 16.7215C43.6171 16.829 41.2944 16.9791 38.9681 17.1069C33.9653 17.3827 28.9546 17.6281 23.9465 17.833C21.698 17.9256 19.4504 18 17.1993 18C16.8925 18 16.5856 17.9986 16.2788 17.9959C13.6625 17.9716 11.0506 17.8371 8.43425 17.8147C7.93291 17.8107 7.64735 17.3881 7.49881 17.0893C7.34407 16.7499 7.26889 16.401 7.27509 16.0413C7.27509 15.4599 7.44839 14.4937 8.3096 14.2929C8.35292 13.9562 8.46788 13.604 8.71811 13.3416C8.85869 13.1591 9.06644 13.055 9.33878 13.032L9.39355 13.0204C10.2268 12.8437 11.0612 12.6667 11.9091 12.5377C12.7146 12.414 13.5237 12.3302 14.3389 12.2585C15.9464 12.1145 17.5636 12.0205 19.1745 11.9089C22.2047 11.6994 25.21 11.3086 28.2234 10.9976C29.0484 10.9124 29.8744 10.8278 30.7003 10.7433L30.7398 10.7393C25.8175 10.5831 20.8801 10.454 15.9516 10.5047C13.414 10.5311 10.8755 10.5872 8.33966 10.6771C5.82767 10.7663 3.31567 10.8312 0.80191 10.8955C0.458847 10.9049 0.252853 10.5905 0.154709 10.3938C0.0485992 10.1592 -0.00268555 9.91782 -3.05176e-05 9.66969C-3.05176e-05 9.23225 0.131699 8.55276 0.80191 8.44188C2.19452 8.21268 3.59332 8.05379 5.0045 7.89964C6.25121 7.76239 7.49261 7.58862 8.72783 7.39661C11.3017 6.99838 13.8712 6.58191 16.4424 6.17692C19.1021 5.75841 21.7688 5.42171 24.4602 5.14383C26.8139 4.89908 29.1969 4.76115 31.5665 4.64959C36.8177 4.40349 42.076 4.23109 47.321 3.92819C52.3282 3.63949 57.3133 3.17703 62.3143 2.82952C65.1861 2.63142 68.058 2.45292 70.9343 2.28592C72.0546 2.22034 73.1775 2.18112 74.2986 2.13041C75.4339 2.08106 76.5684 2.01616 77.7054 1.98438C82.8753 1.83564 88.0425 1.70649 93.215 1.63144C98.4822 1.55436 103.752 1.45701 109.021 1.4374C119.636 1.39684 130.251 1.40157 140.867 1.42118C151.554 1.44146 162.242 1.47729 172.93 1.51718C178.415 1.53746 183.898 1.52057 189.382 1.51043C194.756 1.50029 200.132 1.40022 205.505 1.34005C210.642 1.28326 215.776 1.09665 220.911 0.951287C221.848 0.924919 222.786 0.897186 223.724 0.870818Z" fill="#FFC752"/>
</svg>
