<?xml version="1.0" standalone="no"?>
<!DOCTYPE svg PUBLIC "-//W3C//DTD SVG 20010904//EN"
 "http://www.w3.org/TR/2001/REC-SVG-20010904/DTD/svg10.dtd">
<svg version="1.0" xmlns="http://www.w3.org/2000/svg"
 width="1180.000000pt" height="1180.000000pt" viewBox="0 0 1180.000000 1180.000000"
 preserveAspectRatio="xMidYMid meet">
<metadata>
Created by potrace 1.14, written by Peter Selinger 2001-2017
</metadata>
<g transform="translate(0.000000,1180.000000) scale(0.100000,-0.100000)"
fill="#000000" stroke="none">
<path d="M7847 11384 c-1 -2 -14 -5 -27 -7 -14 -3 -37 -10 -52 -16 -16 -6 -28
-8 -28 -6 0 3 -15 -1 -32 -8 -18 -8 -39 -12 -45 -10 -7 3 -13 1 -13 -4 0 -5
-11 -10 -23 -11 -70 -5 -397 -157 -525 -243 -24 -16 -45 -29 -48 -29 -4 0 -71
-47 -109 -78 -5 -4 -24 -18 -42 -30 -217 -153 -548 -532 -682 -782 -13 -25
-29 -48 -35 -52 -6 -4 -7 -8 -3 -8 4 0 -4 -17 -18 -37 -14 -21 -25 -43 -25
-50 0 -7 -5 -13 -12 -13 -6 0 -8 -3 -5 -6 4 -4 -2 -23 -13 -43 -35 -66 -117
-262 -125 -304 -2 -9 -7 -22 -10 -27 -3 -5 -8 -18 -10 -27 -3 -10 -14 -49 -25
-88 -12 -38 -23 -77 -25 -85 -7 -26 -46 -223 -51 -260 -3 -19 -8 -48 -10 -65
-3 -16 -7 -67 -9 -113 -2 -45 -6 -85 -8 -90 -5 -8 1 -225 7 -297 7 -74 21
-176 33 -230 22 -107 36 -158 67 -245 15 -41 28 -79 30 -85 9 -38 77 -175 244
-497 45 -87 82 -164 82 -172 0 -10 -10 -13 -37 -9 -21 2 -44 6 -51 8 -8 3 -10
0 -6 -6 4 -8 -1 -9 -17 -3 -13 4 -28 7 -34 6 -5 0 -69 -3 -142 -6 -126 -5
-201 -11 -288 -23 -22 -3 -53 -6 -70 -8 -27 -2 -170 -27 -235 -40 -14 -3 -36
-7 -50 -10 -58 -11 -70 -14 -78 -19 -4 -2 -28 -7 -52 -11 -25 -4 -51 -11 -57
-17 -7 -6 -13 -8 -13 -4 0 3 -11 1 -25 -4 -14 -5 -36 -12 -48 -14 -165 -32
-709 -260 -889 -373 -21 -13 -38 -21 -38 -18 0 3 -15 -5 -33 -19 -19 -14 -37
-23 -40 -19 -4 3 -7 1 -7 -5 0 -7 -7 -12 -15 -12 -8 0 -15 -4 -15 -10 0 -5 -5
-10 -12 -10 -6 0 -26 -11 -45 -26 -18 -14 -33 -21 -33 -17 0 4 -4 3 -8 -2 -4
-6 -41 -33 -82 -60 -41 -27 -79 -53 -85 -58 -5 -4 -65 -48 -132 -98 -68 -50
-123 -95 -123 -100 0 -5 -6 -9 -14 -9 -8 0 -21 -8 -28 -18 -7 -10 -23 -25 -36
-34 -33 -22 -233 -210 -312 -293 -122 -127 -160 -169 -238 -265 -30 -36 -61
-74 -70 -85 -81 -98 -302 -424 -302 -445 0 -5 -4 -10 -9 -10 -5 0 -11 -8 -14
-17 -4 -10 -18 -38 -32 -63 -45 -78 -129 -245 -127 -252 1 -5 -3 -8 -9 -8 -5
0 -8 -4 -4 -9 3 -5 -4 -24 -14 -43 -11 -18 -29 -58 -41 -88 -11 -30 -27 -68
-34 -85 -12 -26 -76 -212 -82 -240 -10 -38 -14 -55 -27 -97 -8 -27 -13 -48
-11 -48 3 0 0 -8 -5 -18 -5 -10 -12 -38 -16 -62 -4 -25 -9 -48 -11 -52 -2 -4
-7 -26 -10 -50 -4 -24 -12 -70 -19 -103 -7 -33 -11 -70 -10 -82 1 -13 -1 -23
-4 -23 -22 0 -20 -600 3 -726 6 -31 20 -118 21 -129 4 -28 29 -138 47 -200 10
-38 21 -74 22 -80 1 -5 9 -30 16 -55 8 -25 14 -47 15 -50 1 -3 9 -22 18 -44 9
-21 17 -43 17 -48 0 -5 10 -28 21 -51 12 -23 22 -44 22 -47 -1 -17 101 -226
156 -318 17 -29 31 -57 31 -62 0 -6 3 -10 8 -10 4 0 23 -27 42 -60 19 -33 38
-60 43 -60 4 0 7 -5 7 -11 0 -7 16 -31 35 -55 19 -23 35 -47 35 -53 0 -6 4
-11 9 -11 4 0 20 -17 33 -38 14 -20 36 -49 49 -63 13 -14 42 -47 64 -75 62
-77 322 -333 410 -402 44 -35 90 -73 103 -83 12 -10 26 -19 31 -19 5 0 11 -4
13 -8 4 -12 184 -132 196 -132 6 0 12 -4 14 -8 4 -11 123 -82 136 -82 6 0 12
-4 14 -9 2 -5 10 -11 18 -13 8 -2 17 -6 20 -9 11 -12 323 -159 338 -159 5 0
26 -8 48 -19 51 -24 312 -110 358 -118 20 -3 36 -10 36 -16 0 -6 3 -8 6 -5 3
3 29 0 57 -8 29 -7 64 -15 80 -19 15 -3 39 -7 55 -10 15 -3 43 -10 62 -15 30
-8 69 -14 155 -26 11 -1 20 -3 20 -4 0 -1 11 -3 25 -5 30 -4 120 -14 175 -20
83 -10 193 -18 267 -19 43 0 78 -4 78 -8 0 -4 11 -4 23 1 13 5 30 5 37 1 8 -5
18 -7 22 -4 4 3 85 7 180 10 95 2 191 6 213 9 22 2 66 6 97 9 31 3 74 7 95 10
21 3 54 8 73 10 40 6 104 15 140 22 14 2 41 7 60 10 19 3 67 13 105 21 39 8
79 16 90 18 53 8 311 79 393 109 23 8 44 15 47 16 3 0 7 1 10 1 3 1 10 3 15 4
6 1 11 3 13 5 1 1 9 3 18 5 9 1 32 9 50 18 19 8 68 27 109 42 80 29 280 115
343 146 155 78 262 134 267 140 3 3 25 17 50 30 25 14 59 33 75 44 59 37 230
150 240 158 6 4 42 31 81 60 39 29 78 59 86 67 9 8 26 22 38 30 12 8 28 20 34
25 6 6 45 39 86 75 122 106 281 270 400 410 12 14 31 36 43 50 12 14 19 25 17
25 -4 0 28 40 55 69 14 15 174 258 212 321 73 124 239 485 247 540 1 5 4 15 8
20 6 10 28 86 27 95 0 3 5 19 11 35 7 17 14 38 16 48 2 9 6 25 9 35 13 46 54
233 60 272 2 14 6 41 9 60 26 168 31 253 31 535 -1 235 -6 367 -20 455 -1 8
-5 42 -10 75 -4 33 -9 69 -12 80 -2 11 -7 34 -9 50 -3 17 -12 57 -20 90 -8 33
-17 71 -20 85 -2 14 -7 32 -11 40 -3 8 -8 26 -10 40 -2 13 -9 30 -15 37 -6 7
-8 13 -4 13 3 0 -10 44 -30 98 -20 53 -37 102 -38 107 -1 6 -5 15 -8 21 -4 6
-17 37 -29 70 -34 93 -228 481 -259 519 -7 8 -9 15 -6 15 4 0 -6 19 -21 43
-34 52 -44 67 -85 137 -17 30 -34 57 -37 60 -3 3 -13 16 -20 30 -8 14 -50 85
-93 158 -43 73 -78 137 -78 142 0 6 -4 10 -9 10 -5 0 -15 15 -22 33 -13 31
-48 89 -69 115 -6 6 -8 12 -4 12 3 0 1 6 -5 14 -19 22 -111 178 -111 188 0 4
-4 8 -10 8 -5 0 -10 5 -10 11 0 6 -13 30 -30 54 -16 24 -30 48 -30 54 0 6 -4
11 -10 11 -5 0 -10 5 -10 10 0 6 -26 51 -57 99 -32 49 -70 109 -84 133 -57 92
-179 284 -189 295 -5 7 -10 14 -10 17 0 2 -45 74 -100 161 -55 86 -100 160
-100 165 0 4 -4 10 -8 12 -10 4 -92 135 -92 147 0 5 -4 11 -8 13 -10 4 -72
105 -72 117 0 5 -3 11 -7 13 -10 4 -73 107 -73 118 0 5 -3 10 -8 12 -9 4 -96
142 -131 208 -13 25 -33 58 -43 73 -11 15 -21 34 -22 41 -1 7 -8 24 -17 37
-13 21 -39 74 -44 89 -1 3 -12 28 -25 55 -41 91 -58 130 -65 155 -4 14 -11 30
-15 35 -4 6 -22 55 -40 110 -18 55 -36 109 -41 120 -4 11 -13 40 -19 65 -6 25
-15 59 -20 75 -25 82 -51 205 -46 214 4 5 2 12 -3 15 -7 5 -17 57 -27 141 -1
11 -4 34 -7 50 -25 129 -26 486 -2 606 3 13 7 40 10 59 6 45 9 59 35 160 48
186 144 380 257 521 24 30 153 159 184 184 50 40 135 101 159 113 14 7 41 22
60 32 l35 20 -43 -2 c-23 -1 -44 -3 -45 -4z m-1737 -4818 c19 -2 58 -8 85 -11
28 -4 59 -9 70 -12 11 -3 38 -9 60 -14 59 -14 89 -21 100 -23 50 -13 72 -20
81 -28 7 -5 16 -8 20 -7 10 2 24 -3 91 -32 23 -11 46 -19 52 -19 5 0 60 -26
123 -58 115 -60 287 -171 368 -239 83 -69 290 -283 290 -299 0 -3 6 -11 13
-18 48 -51 93 -119 199 -301 44 -76 188 -373 188 -388 0 -7 4 -17 8 -22 4 -6
18 -37 31 -70 12 -33 31 -82 42 -109 10 -27 19 -55 19 -62 0 -8 4 -22 10 -32
5 -9 17 -42 26 -72 40 -139 53 -187 56 -210 2 -14 7 -31 11 -37 5 -7 6 -17 2
-22 -3 -5 -1 -12 4 -16 5 -3 10 -13 9 -23 0 -9 3 -28 6 -42 7 -31 27 -136 32
-172 2 -16 6 -43 9 -60 7 -39 13 -86 19 -153 3 -27 5 -50 6 -50 4 0 12 -213
13 -330 0 -141 -9 -350 -18 -395 -3 -14 -7 -47 -10 -75 -2 -27 -7 -61 -9 -75
-4 -22 -7 -40 -21 -130 -3 -14 -7 -36 -10 -50 -3 -14 -7 -37 -10 -52 -3 -15
-15 -65 -26 -110 -11 -46 -21 -90 -21 -98 0 -8 -4 -19 -8 -25 -6 -8 -15 -40
-25 -85 -5 -22 -50 -157 -55 -165 -4 -5 -10 -22 -14 -37 -3 -15 -11 -40 -17
-55 -6 -15 -10 -29 -10 -30 0 -2 -29 -70 -58 -138 -45 -101 -146 -292 -167
-316 -8 -8 -14 -19 -14 -23 0 -7 -39 -66 -50 -76 -3 -3 -17 -21 -30 -40 -13
-19 -27 -37 -30 -40 -3 -3 -18 -23 -35 -45 -37 -50 -213 -228 -280 -282 -147
-119 -386 -254 -540 -304 -38 -12 -76 -27 -83 -32 -7 -5 -15 -7 -19 -4 -3 4
-11 3 -17 -2 -9 -7 -39 -15 -141 -37 -14 -3 -84 -14 -120 -20 -141 -22 -469
-21 -563 1 -13 3 -43 8 -65 11 -23 3 -60 10 -82 16 -22 5 -47 11 -55 13 -48 9
-174 47 -215 64 -11 5 -47 19 -80 31 -63 25 -226 101 -235 110 -7 7 -80 48
-112 62 -16 7 -28 16 -28 20 0 4 -6 8 -13 8 -7 0 -24 11 -39 25 -15 14 -30 25
-33 25 -35 0 -391 323 -451 408 -8 12 -29 37 -45 55 -28 30 -122 162 -181 254
-14 22 -24 44 -21 47 4 3 2 6 -3 6 -5 0 -18 17 -29 38 -10 20 -26 45 -35 56
-8 10 -14 19 -12 20 4 1 -43 98 -94 196 -18 36 -34 70 -34 77 0 6 -4 13 -8 15
-16 6 -113 262 -155 408 -26 87 -46 160 -46 163 0 1 -2 13 -5 27 -11 47 -18
85 -21 110 -2 14 -4 25 -5 25 -2 0 -7 31 -14 99 -4 33 -9 62 -11 66 -24 39
-24 679 0 784 3 12 7 37 9 56 23 185 99 504 149 623 9 20 14 37 12 37 -14 0
148 356 232 510 53 98 225 352 263 390 3 3 27 32 54 65 58 70 251 264 316 318
60 50 58 48 115 87 28 19 52 37 55 40 3 3 21 14 40 24 19 11 37 22 40 26 7 8
246 124 285 138 17 5 39 13 50 18 11 4 25 8 30 10 6 1 30 9 55 17 25 9 56 18
70 20 14 3 43 10 65 15 71 19 119 27 245 39 30 3 56 6 58 8 5 4 304 -3 342 -9z"/>
</g>
</svg>
