<?xml version="1.0" encoding="utf-8"?>
<!-- Generator: Adobe Illustrator 24.1.3, SVG Export Plug-In . SVG Version: 6.00 Build 0)  -->
<svg version="1.1" id="Layer_1" xmlns="http://www.w3.org/2000/svg" xmlns:xlink="http://www.w3.org/1999/xlink" x="0px" y="0px"
	 viewBox="0 0 584 219" style="enable-background:new 0 0 584 219;" xml:space="preserve">
<style type="text/css">
	.st0{fill:#EC6B00;}
	.st1{fill:#595959;}
</style>
<path class="st0" d="M161.5,93.8l10.4,23.5h-20.7L161.5,93.8z M216.1,0.9v108.4c0,3.2-0.1,6.4-0.4,9.6
	c-4.8,55.4-50.9,98.8-107.1,98.8c0,0,0,0,0,0H1.1V109.2C1.1,50.9,47,3.3,104.3,1c1.4-0.1,2.9-0.1,4.3-0.1H216.1z M77.6,82.5H41.3
	c-1.8,0-3.3,1.4-3.3,3.3v57.7h6.5v-27.2h23.9v-6.5H44.6V89h33V82.5z M131.6,125.5h-7.3l-1,1.7c-2.6,4.8-9.7,9.8-17.7,9.8
	c-11.5,0-20.8-10.8-20.8-24s9.3-24,20.8-24c7.8,0,15,5,17.6,10l1,1.6h7l-2.2-4.8c-3.8-7.6-13.9-13.3-23.3-13.3
	c-15,0-27.3,13.7-27.3,30.5c0,16.8,12.2,30.5,27.3,30.5c10.4,0,19.6-6.6,23.4-13.2L131.6,125.5z M190.4,143.4l-25.9-59
	c-0.5-1.1-1.5-1.8-2.6-1.9c0,0-0.2,0-0.4,0s-0.3,0-0.3,0c-1.2,0.1-2.2,0.8-2.6,1.9l-23.9,54.5l-1.9,4.5h7l8.6-19.6h26.5l8.6,19.6
	H190.4z"/>
<path class="st1" d="M425.9,204.2v13.2h-6v-13.2h0l0-10.4c0-6.4-4.8-11.6-10.7-11.6c-5.9,0-10.7,5.2-10.7,11.6v23.6h-6v-41.2h6v4.1
	c3-2.6,6.7-4.1,10.7-4.1c9.2,0,16.8,7.9,16.8,17.6L425.9,204.2z M302.2,217.4h-6.5l-8-18.1h-24.4l-8,18.1h-6.5l1.8-4.2l22.2-50.4
	c0.4-1,1.3-1.6,2.4-1.7l0.3,0l0.3,0c1.1,0.1,2,0.8,2.4,1.7L302.2,217.4z M285.1,193.2l-9.6-21.8l-9.6,21.8H285.1z M305.7,217.4h6
	v-57.2h-6V217.4z M336.7,166.2h6.1v-6h-6.1V166.2z M320.8,217.4h6v-57.2h-6V217.4z M336.7,217.4h6v-41.2h-6V217.4z M401.2,0.1h-6.1
	v6h6.1V0.1z M425.1,64.7h-3v6h3c7.4,0,11.3-3.3,15.8-13.4l0.2-0.5l14.3-36.5l1.8-4.2h-6.7l-11.5,29.9l-11-27.9l-0.7-2h-6.7
	l15.1,38.1C431.8,63.1,429.5,64.7,425.1,64.7z M277.1,137.3c9.6,0,18.2-6.1,21.7-12.2l2.4-4.4h-6.8l-0.9,1.5
	c-2.4,4.4-9,9.1-16.4,9.1c-10.6,0-19.2-10-19.2-22.2s8.6-22.2,19.2-22.2c7.2,0,13.9,4.6,16.3,9.2l0.9,1.5h6.5l-2.1-4.4
	c-3.6-7-12.8-12.3-21.6-12.3c-13.9,0-25.2,12.7-25.2,28.2C251.9,124.7,263.2,137.3,277.1,137.3z M401.1,16.1h-6v41.2h6V16.1z
	 M350.3,96.2v41.2h6v-20.9c0.1-8.9,5.5-14.2,14.4-14.2h3v-6h-3c-5.9,0-10.8,1.8-14.4,5.1v-5.1H350.3z M262.5,32.1h22.2v-6h-22.2V6.9
	H293v-6h-33.6c-1.7,0-3,1.3-3,3v53.4h6V32.1z M505.5,97.7l-11.8,28.7L482,98.2l-0.7-2h-6.7l16.3,39.2l0.9,2h4l0.6-1.5l14.5-35.4
	l1.8-4.2H506L505.5,97.7z M579,96.2c-5.9,0-10.8,1.8-14.4,5.1v-5.1h-6v41.2h6v-20.9c0.1-8.9,5.5-14.2,14.4-14.2h3v-6H579z M410,57.3
	h6V0.1h-6V57.3z M356.8,32.5l0.1,24.8h6l-0.1-24.8c0-5.8,3.8-10.4,8.7-10.4s8.7,4.5,8.7,10.4l0.1,24.8h6l-0.1-24.8
	c0-9.2-6.5-16.4-14.7-16.4c-4.7,0-9,2.4-11.7,6.4c-2.7-4-7-6.4-11.7-6.4c-3.2,0-6.2,1.1-8.7,3.1v-3.1h-6v41.2h6V32.5
	c0-5.8,3.8-10.4,8.7-10.4C353,22.2,356.8,26.7,356.8,32.5z M449.8,182.2c6,0,9.1,2.8,10.7,5.1l1.3,2l4.8-3.6l-1.2-1.8
	c-2.4-3.5-7.1-7.7-15.6-7.7c-10.4,0-18.9,9.2-18.9,20.6c0,11.3,8.5,20.6,18.9,20.6c6.7,0,11.9-2.7,15.6-8.2l1.2-1.8l-4.8-3.6
	l-1.3,1.9c-2.7,3.8-6.2,5.6-10.7,5.6c-7.1,0-12.9-6.5-12.9-14.6C436.9,188.8,442.7,182.2,449.8,182.2z M289.7,36.7
	c0-11.3,8.1-20.6,18.1-20.6c4.3,0,8.4,1.9,11.5,5v-5h6v41.2h-6v-5c-3.1,3.2-7.2,5-11.5,5C297.8,57.3,289.7,48.1,289.7,36.7z
	 M295.7,36.7c0,8,5.4,14.6,12.1,14.6c6.3,0,11.5-6.5,11.5-14.6c0-8-5.2-14.6-11.5-14.6C301.1,22.2,295.7,28.7,295.7,36.7z
	 M306.5,116.8c0-11.3,8.1-20.6,18.1-20.6c4.3,0,8.4,1.9,11.5,5v-5h6v41.2h-6v-5c-3.1,3.2-7.2,5-11.5,5
	C314.6,137.3,306.5,128.1,306.5,116.8z M312.5,116.8c0,8,5.4,14.6,12.1,14.6c6.3,0,11.5-6.5,11.5-14.6c0-8-5.2-14.6-11.5-14.6
	C317.9,102.2,312.5,108.7,312.5,116.8z M348.6,196.8c0-11.3,8.1-20.6,18.1-20.6c4.3,0,8.4,1.9,11.5,5v-5h6v41.2h-6v-5
	c-3.1,3.2-7.2,5-11.5,5C356.7,217.4,348.6,208.1,348.6,196.8z M354.6,196.8c0,8,5.4,14.6,12.1,14.6c6.3,0,11.5-6.5,11.5-14.6
	c0-8-5.2-14.6-11.5-14.6C360,182.2,354.6,188.8,354.6,196.8z M509.5,196.8v3h-31.8c1.2,6.6,6.5,11.6,12.8,11.6
	c6.4,0.1,9.7-3.3,11.6-5.9l1.3-1.8l4.8,3.6l-1.3,1.8c-4,5.5-9.5,8.3-16.3,8.3c-0.1,0-0.2,0-0.2,0c-10.7,0-19-9-19-20.6
	c0-11.5,8.4-20.6,19-20.6C500.9,176.2,509.5,185.5,509.5,196.8z M503.3,193.8c-1-6.5-6.5-11.6-12.9-11.6c-6.3,0-11.5,4.9-12.8,11.6
	H503.3z M551.3,116.8v3h-31.8c1.2,6.6,6.5,11.6,12.8,11.6c6.4,0.1,9.7-3.3,11.6-5.9l1.3-1.8l4.8,3.6l-1.3,1.8
	c-4,5.5-9.5,8.3-16.3,8.3c-0.1,0-0.2,0-0.2,0c-10.7,0-19-9-19-20.6c0-11.5,8.4-20.6,19-20.6C542.7,96.2,551.3,105.4,551.3,116.8z
	 M545.1,113.8c-1-6.5-6.5-11.6-12.9-11.6c-6.3,0-11.5,4.9-12.8,11.6H545.1z M411.5,116.8v3h-31.8c1.2,6.6,6.5,11.6,12.8,11.6
	c6.4,0.1,9.7-3.3,11.6-5.9l1.3-1.8l4.8,3.6l-1.3,1.8c-4,5.5-9.5,8.3-16.3,8.3c-0.1,0-0.2,0-0.2,0c-10.7,0-19-9-19-20.6
	c0-11.5,8.4-20.6,19-20.6C402.9,96.2,411.5,105.4,411.5,116.8z M405.3,113.8c-1-6.5-6.5-11.6-12.9-11.6c-6.3,0-11.5,4.9-12.8,11.6
	H405.3z M416.9,116.8c0-11.3,8.5-20.6,19-20.6c4.9,0,9.6,2.1,13,5.6v-5.6h6.1l-0.1,38.2c0,6.2-7.2,14.9-19,15l-0.8,0H433v-6h3
	c7.8-0.1,13-5.5,13-9v-2.5c-3.5,3.5-8.1,5.6-13,5.6C425.5,137.3,416.9,128.1,416.9,116.8z M422.9,116.8c0,8,5.8,14.6,13,14.6
	s13-6.5,13-14.6c0-8-5.8-14.6-13-14.6S422.9,108.7,422.9,116.8z M529.9,184.6c0,2.3-0.8,4.3-2.4,5.9c-1.6,1.6-3.6,2.4-5.9,2.4
	c-2.3,0-4.3-0.8-5.9-2.5c-1.6-1.6-2.4-3.6-2.4-5.9c0-1.3,0.3-2.5,0.8-3.5c0.5-1.1,1.3-2.1,2.2-2.9c1.6-1.3,3.3-1.9,5.2-1.9
	c1.3,0,2.4,0.2,3.5,0.7c1.5,0.6,2.7,1.7,3.6,3.1C529.4,181.4,529.9,182.9,529.9,184.6z M528.5,184.6c0-1.1-0.3-2.2-0.8-3.3
	c-0.5-1.1-1.2-1.9-2.1-2.5c-1.2-0.9-2.6-1.3-4.1-1.3c-1.9,0-3.5,0.7-4.9,2.1c-1.4,1.4-2,3.1-2,5c0,2,0.7,3.7,2,5.1
	c1.4,1.4,3,2.1,5,2.1c1.9,0,3.6-0.7,4.9-2.1C527.8,188.2,528.5,186.5,528.5,184.6z M522.4,185.4l3.1,4h-2.2l-2.9-3.8v3.8h-1.8v-9.6
	h1.9c1.3,0,2.3,0.2,2.9,0.7c0.7,0.6,1,1.3,1,2.2c0,0.6-0.2,1.2-0.6,1.7c-0.4,0.5-0.8,0.8-1.4,1L522.4,185.4z M522.7,182.7
	c0-0.8-0.6-1.3-1.9-1.3h-0.4v2.6h0.3C522,184,522.7,183.6,522.7,182.7z M463.9,86.2h6.1v-6h-6.1V86.2z M463.9,137.3h6V96.2h-6V137.3
	z"/>
</svg>
