<?xml version="1.0" encoding="UTF-8" standalone="no"?>
<svg
   xmlns:dc="http://purl.org/dc/elements/1.1/"
   xmlns:cc="http://creativecommons.org/ns#"
   xmlns:rdf="http://www.w3.org/1999/02/22-rdf-syntax-ns#"
   xmlns:svg="http://www.w3.org/2000/svg"
   xmlns="http://www.w3.org/2000/svg"
   xmlns:sodipodi="http://sodipodi.sourceforge.net/DTD/sodipodi-0.dtd"
   xmlns:inkscape="http://www.inkscape.org/namespaces/inkscape"
   inkscape:version="1.0 (4035a4fb49, 2020-05-01)"
   sodipodi:docname="diyamd-capabilities-COPY2.svg"
   id="svg577"
   viewBox="0 0 778.09 778.27"
   version="1.1"
   fill="none">
  <metadata
     id="metadata581">
    <rdf:RDF>
      <cc:Work
         rdf:about="">
        <dc:format>image/svg+xml</dc:format>
        <dc:type
           rdf:resource="http://purl.org/dc/dcmitype/StillImage" />
      </cc:Work>
    </rdf:RDF>
  </metadata>
  <sodipodi:namedview
     inkscape:current-layer="svg577"
     inkscape:window-maximized="1"
     inkscape:window-y="-8"
     inkscape:window-x="-8"
     inkscape:cy="367.39385"
     inkscape:cx="278.66767"
     inkscape:zoom="1.0761588"
     showgrid="false"
     id="namedview579"
     inkscape:window-height="1017"
     inkscape:window-width="1920"
     inkscape:pageshadow="2"
     inkscape:pageopacity="0"
     guidetolerance="10"
     gridtolerance="10"
     objecttolerance="10"
     borderopacity="1"
     bordercolor="#666666"
     pagecolor="#ffffff" />

    <a
        xlink:href="telehealth-capabilities"
        class="capability-one" >
        <g
            id="g1317">
            <path
                style="filter:url(#filter0_d)"
                id="path530"
                fill="#0b5394"
                d="m 207.9,79.297 c 52.816,-31.345 112.92,-48.326 174.33,-49.254 61.41,-0.928 122,14.228 175.74,43.962 l -170.42,308 z" />
            <path
                class="capability-first"
                d="m 324.3,85.737 h -7.075 v 21.909 h -2.871 V 85.737 h -7.058 V 83.139 H 324.3 Z m 14.133,13.86 h -12.356 c 0.046,1.948 0.57,3.452 1.573,4.511 1.002,1.06 2.381,1.59 4.135,1.59 1.971,0 3.783,-0.65 5.435,-1.948 v 2.631 c -1.538,1.117 -3.572,1.675 -6.101,1.675 -2.472,0 -4.415,-0.792 -5.828,-2.375 -1.412,-1.595 -2.119,-3.834 -2.119,-6.717 0,-2.723 0.769,-4.939 2.307,-6.648 1.55,-1.72 3.47,-2.58 5.76,-2.58 2.29,0 4.061,0.74 5.314,2.222 1.254,1.481 1.88,3.537 1.88,6.169 z m -2.871,-2.376 c -0.011,-1.618 -0.404,-2.877 -1.179,-3.777 -0.763,-0.9 -1.829,-1.35 -3.196,-1.35 -1.321,0 -2.444,0.473 -3.366,1.419 -0.923,0.945 -1.493,2.182 -1.709,3.708 z m 9.929,10.425 h -2.802 V 81.738 h 2.802 z m 19.739,-8.049 h -12.356 c 0.046,1.948 0.57,3.452 1.573,4.511 1.002,1.06 2.381,1.59 4.135,1.59 1.971,0 3.783,-0.65 5.435,-1.948 v 2.631 c -1.538,1.117 -3.572,1.675 -6.101,1.675 -2.473,0 -4.415,-0.792 -5.828,-2.375 -1.413,-1.595 -2.119,-3.834 -2.119,-6.717 0,-2.723 0.769,-4.939 2.307,-6.648 1.55,-1.72 3.469,-2.58 5.759,-2.58 2.29,0 4.062,0.74 5.315,2.222 1.254,1.481 1.88,3.537 1.88,6.169 z m -2.871,-2.376 c -0.011,-1.618 -0.404,-2.877 -1.179,-3.777 -0.763,-0.9 -1.829,-1.35 -3.196,-1.35 -1.321,0 -2.444,0.473 -3.367,1.419 -0.922,0.945 -1.492,2.182 -1.709,3.708 z m 21.653,10.425 h -2.803 V 97.563 c 0,-3.646 -1.356,-5.469 -4.067,-5.469 -1.367,0 -2.518,0.53 -3.452,1.59 -0.935,1.048 -1.402,2.398 -1.402,4.05 v 9.912 h -2.802 V 81.738 h 2.802 v 11.313 h 0.069 c 1.344,-2.21 3.258,-3.315 5.742,-3.315 3.942,0 5.913,2.375 5.913,7.126 z m 19.363,-8.049 h -12.356 c 0.045,1.948 0.569,3.452 1.572,4.511 1.003,1.06 2.381,1.59 4.136,1.59 1.971,0 3.782,-0.65 5.434,-1.948 v 2.631 c -1.538,1.117 -3.571,1.675 -6.101,1.675 -2.472,0 -4.415,-0.792 -5.827,-2.375 -1.413,-1.595 -2.119,-3.834 -2.119,-6.717 0,-2.723 0.769,-4.939 2.307,-6.648 1.549,-1.72 3.469,-2.58 5.759,-2.58 2.29,0 4.062,0.74 5.315,2.222 1.253,1.481 1.88,3.537 1.88,6.169 z m -2.871,-2.376 c -0.012,-1.618 -0.405,-2.877 -1.18,-3.777 -0.763,-0.9 -1.828,-1.35 -3.195,-1.35 -1.322,0 -2.444,0.473 -3.367,1.419 -0.923,0.945 -1.493,2.182 -1.709,3.708 z m 19.653,10.425 h -2.803 v -2.734 h -0.068 c -1.219,2.096 -3.014,3.144 -5.383,3.144 -1.744,0 -3.111,-0.461 -4.102,-1.384 -0.98,-0.923 -1.47,-2.148 -1.47,-3.674 0,-3.27 1.926,-5.173 5.777,-5.708 l 5.246,-0.735 c 0,-2.974 -1.202,-4.461 -3.606,-4.461 -2.107,0 -4.01,0.718 -5.708,2.154 v -2.872 c 1.721,-1.093 3.703,-1.64 5.948,-1.64 4.113,0 6.169,2.176 6.169,6.528 z m -2.803,-8.853 -4.221,0.582 c -1.299,0.182 -2.279,0.507 -2.939,0.974 -0.661,0.455 -0.992,1.27 -0.992,2.443 0,0.855 0.302,1.556 0.906,2.103 0.615,0.535 1.43,0.803 2.444,0.803 1.39,0 2.535,-0.484 3.435,-1.453 0.912,-0.98 1.367,-2.216 1.367,-3.708 z m 10.887,8.853 h -2.803 V 81.738 h 2.803 z m 13.791,-0.171 c -0.661,0.365 -1.532,0.547 -2.615,0.547 -3.065,0 -4.597,-1.709 -4.597,-5.127 V 92.539 h -3.008 v -2.393 h 3.008 v -4.272 l 2.803,-0.906 v 5.178 h 4.409 v 2.393 h -4.409 v 9.86 c 0,1.174 0.199,2.011 0.598,2.513 0.399,0.501 1.06,0.752 1.982,0.752 0.707,0 1.316,-0.194 1.829,-0.581 z m 18.269,0.171 h -2.803 V 97.563 c 0,-3.646 -1.355,-5.469 -4.067,-5.469 -1.367,0 -2.518,0.53 -3.452,1.59 -0.934,1.048 -1.402,2.398 -1.402,4.05 v 9.912 h -2.802 V 81.738 h 2.802 v 11.313 h 0.069 c 1.344,-2.21 3.258,-3.315 5.742,-3.315 3.942,0 5.913,2.375 5.913,7.126 z"
                fill="#ffffff"
                id="path538" />
        </g>
    </a>
    <a
     xlink:href="increase-your-revenue"
     class="capability-two" >
        <g
            id="g1313">
            <path
                style="filter:url(#filter0_d)"
                id="path534"
                fill="#0b5394"
                d="m 566.32,78.817 c 53.622,29.946 98.476,73.401 130.11,126.05 31.629,52.647 48.933,112.65 50.193,174.06 l -351.93,7.218 z" />
            <path
                d="m 560.22,245.647 h -3.418 l -4.101,-6.87 c -0.376,-0.638 -0.741,-1.179 -1.094,-1.624 -0.353,-0.455 -0.718,-0.826 -1.094,-1.11 -0.365,-0.285 -0.763,-0.49 -1.196,-0.616 -0.422,-0.136 -0.9,-0.205 -1.436,-0.205 h -2.358 v 10.425 h -2.871 V 221.14 h 7.314 c 1.071,0 2.057,0.137 2.957,0.41 0.911,0.262 1.697,0.667 2.358,1.214 0.672,0.547 1.196,1.23 1.572,2.05 0.376,0.809 0.564,1.761 0.564,2.854 0,0.855 -0.131,1.641 -0.393,2.359 -0.25,0.706 -0.615,1.339 -1.093,1.897 -0.468,0.558 -1.037,1.037 -1.709,1.435 -0.661,0.388 -1.408,0.69 -2.239,0.906 v 0.069 c 0.41,0.182 0.763,0.393 1.059,0.632 0.308,0.228 0.598,0.501 0.872,0.82 0.273,0.319 0.541,0.684 0.803,1.094 0.274,0.399 0.575,0.866 0.906,1.401 z m -14.697,-21.909 v 8.887 h 3.896 c 0.718,0 1.379,-0.109 1.983,-0.325 0.615,-0.217 1.145,-0.524 1.589,-0.923 0.444,-0.41 0.792,-0.906 1.043,-1.487 0.25,-0.592 0.376,-1.253 0.376,-1.982 0,-1.31 -0.428,-2.33 -1.282,-3.059 -0.843,-0.741 -2.068,-1.111 -3.675,-1.111 z m 30.744,13.86 h -12.356 c 0.046,1.948 0.57,3.452 1.573,4.511 1.002,1.06 2.381,1.59 4.135,1.59 1.972,0 3.783,-0.65 5.435,-1.948 v 2.631 c -1.538,1.117 -3.572,1.675 -6.101,1.675 -2.472,0 -4.415,-0.792 -5.828,-2.375 -1.412,-1.595 -2.119,-3.834 -2.119,-6.717 0,-2.723 0.769,-4.939 2.307,-6.648 1.55,-1.72 3.47,-2.58 5.76,-2.58 2.29,0 4.061,0.74 5.315,2.222 1.253,1.481 1.879,3.537 1.879,6.169 z m -2.871,-2.376 c -0.011,-1.618 -0.404,-2.877 -1.179,-3.777 -0.763,-0.9 -1.828,-1.35 -3.196,-1.35 -1.321,0 -2.444,0.473 -3.366,1.419 -0.923,0.945 -1.493,2.182 -1.709,3.708 z m 20.884,-7.075 -6.973,17.5 h -2.751 l -6.631,-17.5 h 3.076 l 4.444,12.715 c 0.33,0.934 0.535,1.749 0.615,2.444 h 0.068 c 0.114,-0.878 0.296,-1.669 0.547,-2.376 l 4.649,-12.783 z m 17.09,9.451 h -12.356 c 0.046,1.948 0.57,3.452 1.572,4.511 1.003,1.06 2.381,1.59 4.136,1.59 1.971,0 3.783,-0.65 5.435,-1.948 v 2.631 c -1.538,1.117 -3.572,1.675 -6.101,1.675 -2.473,0 -4.415,-0.792 -5.828,-2.375 -1.413,-1.595 -2.119,-3.834 -2.119,-6.717 0,-2.723 0.769,-4.939 2.307,-6.648 1.549,-1.72 3.469,-2.58 5.759,-2.58 2.29,0 4.062,0.74 5.315,2.222 1.253,1.481 1.88,3.537 1.88,6.169 z m -2.871,-2.376 c -0.012,-1.618 -0.405,-2.877 -1.179,-3.777 -0.764,-0.9 -1.829,-1.35 -3.196,-1.35 -1.322,0 -2.444,0.473 -3.367,1.419 -0.923,0.945 -1.492,2.182 -1.709,3.708 z m 21.653,10.425 h -2.803 v -9.98 c 0,-3.715 -1.356,-5.572 -4.067,-5.572 -1.402,0 -2.564,0.53 -3.487,1.59 -0.911,1.048 -1.367,2.375 -1.367,3.982 v 9.98 h -2.803 v -17.5 h 2.803 v 2.905 h 0.068 c 1.322,-2.21 3.236,-3.315 5.743,-3.315 1.914,0 3.378,0.621 4.392,1.863 1.014,1.23 1.521,3.013 1.521,5.349 z m 19.448,0 h -2.803 v -2.769 h -0.068 c -1.162,2.12 -2.962,3.179 -5.401,3.179 -4.169,0 -6.254,-2.484 -6.254,-7.451 v -10.459 h 2.785 v 10.015 c 0,3.691 1.413,5.537 4.239,5.537 1.367,0 2.489,-0.502 3.366,-1.504 0.889,-1.014 1.333,-2.336 1.333,-3.965 v -10.083 h 2.803 z m 19.739,-8.049 h -12.356 c 0.045,1.948 0.569,3.452 1.572,4.511 1.003,1.06 2.381,1.59 4.136,1.59 1.971,0 3.782,-0.65 5.434,-1.948 v 2.631 c -1.538,1.117 -3.571,1.675 -6.101,1.675 -2.472,0 -4.415,-0.792 -5.827,-2.375 -1.413,-1.595 -2.12,-3.834 -2.12,-6.717 0,-2.723 0.77,-4.939 2.308,-6.648 1.549,-1.72 3.469,-2.58 5.759,-2.58 2.29,0 4.062,0.74 5.315,2.222 1.253,1.481 1.88,3.537 1.88,6.169 z m -2.871,-2.376 c -0.012,-1.618 -0.405,-2.877 -1.18,-3.777 -0.763,-0.9 -1.828,-1.35 -3.195,-1.35 -1.322,0 -2.444,0.473 -3.367,1.419 -0.923,0.945 -1.493,2.182 -1.709,3.708 z m -125.41,55.75 c -2.461,1.39 -5.195,2.085 -8.203,2.085 -3.497,0 -6.329,-1.128 -8.493,-3.384 -2.154,-2.255 -3.23,-5.241 -3.23,-8.955 0,-3.794 1.196,-6.904 3.588,-9.331 2.404,-2.438 5.446,-3.657 9.126,-3.657 2.666,0 4.905,0.433 6.717,1.299 v 3.179 c -1.983,-1.254 -4.33,-1.88 -7.041,-1.88 -2.746,0 -4.996,0.945 -6.751,2.837 -1.754,1.891 -2.632,4.34 -2.632,7.348 0,3.099 0.815,5.537 2.444,7.315 1.629,1.766 3.84,2.649 6.631,2.649 1.914,0 3.572,-0.382 4.973,-1.145 v -6.871 h -5.366 v -2.597 h 8.237 z m 19.397,-6.374 h -12.356 c 0.046,1.948 0.57,3.452 1.573,4.511 1.002,1.06 2.381,1.59 4.135,1.59 1.971,0 3.783,-0.65 5.435,-1.948 v 2.631 c -1.538,1.117 -3.572,1.675 -6.101,1.675 -2.472,0 -4.415,-0.792 -5.828,-2.375 -1.413,-1.595 -2.119,-3.834 -2.119,-6.717 0,-2.723 0.769,-4.939 2.307,-6.648 1.55,-1.72 3.469,-2.58 5.76,-2.58 2.29,0 4.061,0.74 5.314,2.222 1.254,1.481 1.88,3.537 1.88,6.169 z m -2.871,-2.376 c -0.011,-1.618 -0.404,-2.877 -1.179,-3.777 -0.763,-0.9 -1.829,-1.35 -3.196,-1.35 -1.321,0 -2.444,0.473 -3.366,1.419 -0.923,0.945 -1.493,2.182 -1.709,3.708 z m 21.653,10.425 h -2.803 v -9.98 c 0,-3.715 -1.355,-5.572 -4.067,-5.572 -1.401,0 -2.564,0.53 -3.486,1.59 -0.912,1.048 -1.368,2.375 -1.368,3.982 v 9.98 h -2.802 v -17.5 h 2.802 v 2.905 h 0.069 c 1.321,-2.21 3.235,-3.315 5.742,-3.315 1.914,0 3.378,0.621 4.392,1.863 1.014,1.23 1.521,3.013 1.521,5.349 z m 19.363,-8.049 h -12.356 c 0.045,1.948 0.57,3.452 1.572,4.511 1.003,1.06 2.381,1.59 4.136,1.59 1.971,0 3.782,-0.65 5.434,-1.948 v 2.631 c -1.538,1.117 -3.571,1.675 -6.101,1.675 -2.472,0 -4.414,-0.792 -5.827,-2.375 -1.413,-1.595 -2.119,-3.834 -2.119,-6.717 0,-2.723 0.769,-4.939 2.307,-6.648 1.549,-1.72 3.469,-2.58 5.759,-2.58 2.29,0 4.062,0.74 5.315,2.222 1.253,1.481 1.88,3.537 1.88,6.169 z m -2.871,-2.376 c -0.012,-1.618 -0.405,-2.877 -1.179,-3.777 -0.764,-0.9 -1.829,-1.35 -3.196,-1.35 -1.322,0 -2.444,0.473 -3.367,1.419 -0.923,0.945 -1.492,2.182 -1.709,3.708 z m 16.252,-4.238 c -0.49,-0.376 -1.196,-0.564 -2.119,-0.564 -1.196,0 -2.199,0.564 -3.008,1.692 -0.797,1.128 -1.196,2.666 -1.196,4.614 v 8.921 h -2.803 v -17.5 h 2.803 v 3.606 h 0.068 c 0.399,-1.231 1.009,-2.188 1.829,-2.871 0.82,-0.695 1.737,-1.043 2.751,-1.043 0.73,0 1.288,0.08 1.675,0.24 z m 15.569,14.663 h -2.803 v -2.734 h -0.068 c -1.219,2.096 -3.014,3.144 -5.383,3.144 -1.744,0 -3.111,-0.461 -4.102,-1.384 -0.98,-0.923 -1.47,-2.148 -1.47,-3.674 0,-3.27 1.926,-5.173 5.777,-5.708 l 5.246,-0.735 c 0,-2.974 -1.202,-4.461 -3.606,-4.461 -2.107,0 -4.01,0.718 -5.708,2.154 v -2.872 c 1.721,-1.093 3.703,-1.64 5.948,-1.64 4.113,0 6.169,2.176 6.169,6.528 z m -2.803,-8.853 -4.221,0.582 c -1.299,0.182 -2.279,0.507 -2.939,0.974 -0.661,0.455 -0.992,1.27 -0.992,2.443 0,0.855 0.302,1.556 0.906,2.103 0.615,0.535 1.43,0.803 2.444,0.803 1.39,0 2.535,-0.484 3.435,-1.453 0.912,-0.98 1.367,-2.216 1.367,-3.708 z m 16.201,8.682 c -0.66,0.365 -1.532,0.547 -2.614,0.547 -3.065,0 -4.597,-1.709 -4.597,-5.127 V 277.54 h -3.008 v -2.393 h 3.008 v -4.272 l 2.802,-0.906 v 5.178 h 4.409 v 2.393 h -4.409 v 9.86 c 0,1.174 0.2,2.011 0.598,2.513 0.399,0.501 1.06,0.752 1.983,0.752 0.706,0 1.316,-0.194 1.828,-0.581 z m 5.179,-21.772 c -0.502,0 -0.929,-0.171 -1.282,-0.513 -0.353,-0.342 -0.53,-0.775 -0.53,-1.299 0,-0.524 0.177,-0.957 0.53,-1.299 0.353,-0.353 0.78,-0.529 1.282,-0.529 0.512,0 0.945,0.176 1.299,0.529 0.364,0.342 0.546,0.775 0.546,1.299 0,0.501 -0.182,0.929 -0.546,1.282 -0.354,0.353 -0.787,0.53 -1.299,0.53 z m 1.367,21.943 h -2.803 v -17.5 h 2.803 z m 12.988,0.41 c -2.586,0 -4.654,-0.814 -6.203,-2.444 -1.539,-1.64 -2.308,-3.811 -2.308,-6.511 0,-2.939 0.804,-5.235 2.41,-6.887 1.607,-1.652 3.777,-2.478 6.511,-2.478 2.609,0 4.643,0.803 6.101,2.41 1.47,1.606 2.205,3.833 2.205,6.682 0,2.791 -0.792,5.03 -2.375,6.716 -1.573,1.675 -3.686,2.512 -6.341,2.512 z m 0.205,-15.962 c -1.8,0 -3.224,0.615 -4.272,1.846 -1.048,1.219 -1.572,2.905 -1.572,5.059 0,2.073 0.529,3.708 1.589,4.904 1.059,1.197 2.478,1.795 4.255,1.795 1.812,0 3.202,-0.587 4.17,-1.76 0.98,-1.174 1.47,-2.843 1.47,-5.008 0,-2.187 -0.49,-3.874 -1.47,-5.058 -0.968,-1.185 -2.358,-1.778 -4.17,-1.778 z m 27.515,15.552 h -2.803 v -9.98 c 0,-3.715 -1.356,-5.572 -4.067,-5.572 -1.402,0 -2.564,0.53 -3.487,1.59 -0.911,1.048 -1.367,2.375 -1.367,3.982 v 9.98 h -2.802 v -17.5 h 2.802 v 2.905 h 0.069 c 1.321,-2.21 3.235,-3.315 5.742,-3.315 1.914,0 3.378,0.621 4.392,1.863 1.014,1.23 1.521,3.013 1.521,5.349 z"
                fill="#ffffff"
                id="path540" />
        </g>
    </a>
    <a
     xlink:href="establish-your-brand"
     class="capability-three">
        <g
            id="g1309">
            <path
                style="filter:url(#filter0_d)"
                id="path510"
                fill="#4285f4"
                d="m 748.09,393.547 c 0,61.418 -16.07,121.77 -46.614,175.05 -30.543,53.285 -74.496,97.65 -127.49,128.69 l -177.89,-303.74 z" />
            <path
                id="path542"
                fill="#ffffff"
                d="m 552.62,502.627 c -1.812,0.957 -4.068,1.435 -6.768,1.435 -3.486,0 -6.278,-1.122 -8.374,-3.367 -2.096,-2.244 -3.145,-5.189 -3.145,-8.835 0,-3.919 1.18,-7.087 3.538,-9.502 2.358,-2.415 5.349,-3.623 8.972,-3.623 2.324,0 4.25,0.336 5.777,1.008 v 3.059 c -1.755,-0.979 -3.692,-1.469 -5.811,-1.469 -2.814,0 -5.098,0.94 -6.853,2.819 -1.743,1.88 -2.615,4.393 -2.615,7.537 0,2.985 0.815,5.366 2.444,7.144 1.641,1.766 3.788,2.649 6.443,2.649 2.461,0 4.591,-0.547 6.392,-1.641 z m 13.74,-13.638 c -0.49,-0.376 -1.196,-0.564 -2.119,-0.564 -1.197,0 -2.199,0.564 -3.008,1.692 -0.798,1.128 -1.196,2.666 -1.196,4.614 v 8.921 h -2.803 v -17.5 h 2.803 v 3.606 h 0.068 c 0.399,-1.231 1.008,-2.188 1.829,-2.871 0.82,-0.695 1.737,-1.043 2.751,-1.043 0.729,0 1.287,0.08 1.675,0.24 z m 17.107,6.614 h -12.356 c 0.045,1.948 0.569,3.452 1.572,4.511 1.003,1.06 2.381,1.59 4.136,1.59 1.971,0 3.782,-0.65 5.434,-1.948 v 2.631 c -1.538,1.117 -3.571,1.675 -6.101,1.675 -2.472,0 -4.415,-0.792 -5.827,-2.375 -1.413,-1.595 -2.119,-3.834 -2.119,-6.717 0,-2.723 0.769,-4.939 2.307,-6.648 1.549,-1.72 3.469,-2.58 5.759,-2.58 2.29,0 4.062,0.74 5.315,2.222 1.253,1.481 1.88,3.537 1.88,6.169 z m -2.871,-2.376 c -0.012,-1.618 -0.405,-2.877 -1.18,-3.777 -0.763,-0.9 -1.828,-1.35 -3.195,-1.35 -1.322,0 -2.444,0.473 -3.367,1.419 -0.923,0.945 -1.493,2.182 -1.709,3.708 z m 19.653,10.425 h -2.803 v -2.734 h -0.068 c -1.219,2.096 -3.014,3.144 -5.383,3.144 -1.744,0 -3.111,-0.461 -4.102,-1.384 -0.98,-0.923 -1.47,-2.148 -1.47,-3.674 0,-3.27 1.926,-5.173 5.777,-5.708 l 5.246,-0.735 c 0,-2.974 -1.202,-4.461 -3.606,-4.461 -2.107,0 -4.01,0.718 -5.708,2.154 v -2.872 c 1.721,-1.093 3.703,-1.64 5.948,-1.64 4.113,0 6.169,2.176 6.169,6.528 z m -2.803,-8.853 -4.221,0.582 c -1.299,0.182 -2.279,0.507 -2.939,0.974 -0.661,0.455 -0.992,1.27 -0.992,2.443 0,0.855 0.302,1.556 0.906,2.103 0.615,0.535 1.43,0.803 2.444,0.803 1.39,0 2.535,-0.484 3.435,-1.453 0.912,-0.98 1.367,-2.216 1.367,-3.708 z m 16.201,8.682 c -0.66,0.365 -1.532,0.547 -2.614,0.547 -3.065,0 -4.597,-1.709 -4.597,-5.127 v -10.356 h -3.008 v -2.393 h 3.008 v -4.272 l 2.802,-0.906 v 5.178 h 4.409 v 2.393 h -4.409 v 9.86 c 0,1.174 0.2,2.011 0.598,2.513 0.399,0.501 1.06,0.752 1.983,0.752 0.706,0 1.316,-0.194 1.828,-0.581 z m 5.179,-21.772 c -0.502,0 -0.929,-0.171 -1.282,-0.513 -0.353,-0.342 -0.53,-0.775 -0.53,-1.299 0,-0.524 0.177,-0.957 0.53,-1.299 0.353,-0.353 0.78,-0.529 1.282,-0.529 0.512,0 0.945,0.176 1.299,0.529 0.364,0.342 0.546,0.775 0.546,1.299 0,0.501 -0.182,0.929 -0.546,1.282 -0.354,0.353 -0.787,0.53 -1.299,0.53 z m 1.367,21.943 h -2.803 v -17.5 h 2.803 z m 20.2,0 h -2.803 v -9.98 c 0,-3.715 -1.355,-5.572 -4.067,-5.572 -1.401,0 -2.564,0.53 -3.486,1.59 -0.912,1.048 -1.368,2.375 -1.368,3.982 v 9.98 h -2.802 v -17.5 h 2.802 v 2.905 h 0.069 c 1.321,-2.21 3.235,-3.315 5.742,-3.315 1.914,0 3.378,0.621 4.392,1.863 1.014,1.23 1.521,3.013 1.521,5.349 z m 20.234,-1.401 c 0,6.425 -3.076,9.638 -9.228,9.638 -2.165,0 -4.056,-0.41 -5.674,-1.23 v -2.803 c 1.971,1.094 3.851,1.641 5.64,1.641 4.306,0 6.46,-2.29 6.46,-6.87 v -1.914 h -0.069 c -1.333,2.233 -3.338,3.349 -6.015,3.349 -2.176,0 -3.931,-0.775 -5.264,-2.324 -1.322,-1.561 -1.982,-3.652 -1.982,-6.272 0,-2.974 0.712,-5.338 2.136,-7.092 1.435,-1.755 3.395,-2.632 5.879,-2.632 2.358,0 4.107,0.945 5.246,2.837 h 0.069 v -2.427 h 2.802 z m -2.802,-6.512 v -2.58 c 0,-1.39 -0.473,-2.581 -1.419,-3.572 -0.934,-0.991 -2.102,-1.487 -3.503,-1.487 -1.732,0 -3.088,0.633 -4.068,1.897 -0.979,1.253 -1.469,3.014 -1.469,5.281 0,1.948 0.467,3.509 1.401,4.683 0.946,1.162 2.193,1.743 3.743,1.743 1.572,0 2.848,-0.559 3.828,-1.675 0.991,-1.117 1.487,-2.546 1.487,-4.29 z m 30.608,7.913 h -2.803 v -2.734 h -0.068 c -1.22,2.096 -3.014,3.144 -5.384,3.144 -1.743,0 -3.11,-0.461 -4.101,-1.384 -0.98,-0.923 -1.47,-2.148 -1.47,-3.674 0,-3.27 1.925,-5.173 5.776,-5.708 l 5.247,-0.735 c 0,-2.974 -1.202,-4.461 -3.606,-4.461 -2.108,0 -4.01,0.718 -5.708,2.154 v -2.872 c 1.72,-1.093 3.703,-1.64 5.947,-1.64 4.113,0 6.17,2.176 6.17,6.528 z m -2.803,-8.853 -4.221,0.582 c -1.299,0.182 -2.279,0.507 -2.94,0.974 -0.661,0.455 -0.991,1.27 -0.991,2.443 0,0.855 0.302,1.556 0.906,2.103 0.615,0.535 1.43,0.803 2.444,0.803 1.39,0 2.535,-0.484 3.435,-1.453 0.911,-0.98 1.367,-2.216 1.367,-3.708 z m -111.05,55.853 v -24.507 h 6.973 c 2.119,0 3.799,0.519 5.041,1.555 1.242,1.037 1.863,2.387 1.863,4.051 0,1.39 -0.376,2.597 -1.128,3.623 -0.752,1.025 -1.789,1.754 -3.11,2.187 v 0.069 c 1.652,0.193 2.973,0.82 3.965,1.879 0.991,1.049 1.486,2.416 1.486,4.102 0,2.096 -0.752,3.794 -2.255,5.093 -1.504,1.299 -3.401,1.948 -5.691,1.948 z m 2.871,-21.909 v 7.912 h 2.94 c 1.572,0 2.808,-0.376 3.708,-1.128 0.9,-0.763 1.35,-1.834 1.35,-3.212 0,-2.382 -1.566,-3.572 -4.699,-3.572 z m 0,10.493 v 8.818 h 3.897 c 1.686,0 2.99,-0.398 3.913,-1.196 0.934,-0.797 1.402,-1.891 1.402,-3.281 0,-2.894 -1.971,-4.341 -5.913,-4.341 z m 25.943,-3.247 c -0.49,-0.376 -1.197,-0.564 -2.12,-0.564 -1.196,0 -2.198,0.564 -3.007,1.692 -0.798,1.128 -1.197,2.666 -1.197,4.614 v 8.921 h -2.802 v -17.5 h 2.802 v 3.606 h 0.069 c 0.398,-1.231 1.008,-2.188 1.828,-2.871 0.821,-0.695 1.738,-1.043 2.752,-1.043 0.729,0 1.287,0.08 1.675,0.24 z m 15.568,14.663 h -2.802 v -2.734 h -0.069 c -1.219,2.096 -3.013,3.144 -5.383,3.144 -1.743,0 -3.11,-0.461 -4.102,-1.384 -0.979,-0.923 -1.469,-2.148 -1.469,-3.674 0,-3.27 1.925,-5.173 5.776,-5.708 l 5.247,-0.735 c 0,-2.974 -1.202,-4.461 -3.606,-4.461 -2.108,0 -4.011,0.718 -5.708,2.154 v -2.872 c 1.72,-1.093 3.702,-1.64 5.947,-1.64 4.113,0 6.169,2.176 6.169,6.528 z m -2.802,-8.853 -4.222,0.582 c -1.298,0.182 -2.278,0.507 -2.939,0.974 -0.661,0.455 -0.991,1.27 -0.991,2.443 0,0.855 0.302,1.556 0.906,2.103 0.615,0.535 1.429,0.803 2.443,0.803 1.39,0 2.535,-0.484 3.435,-1.453 0.912,-0.98 1.368,-2.216 1.368,-3.708 z m 22.61,8.853 h -2.803 v -9.98 c 0,-3.715 -1.356,-5.572 -4.068,-5.572 -1.401,0 -2.563,0.53 -3.486,1.59 -0.911,1.048 -1.367,2.375 -1.367,3.982 v 9.98 h -2.803 v -17.5 h 2.803 v 2.905 h 0.068 c 1.322,-2.21 3.236,-3.315 5.742,-3.315 1.915,0 3.379,0.621 4.393,1.863 1.014,1.23 1.521,3.013 1.521,5.349 z m 20.234,0 h -2.803 v -2.974 h -0.068 c -1.299,2.256 -3.304,3.384 -6.016,3.384 -2.199,0 -3.959,-0.78 -5.281,-2.341 -1.31,-1.572 -1.965,-3.709 -1.965,-6.409 0,-2.894 0.729,-5.212 2.188,-6.955 1.458,-1.744 3.4,-2.615 5.827,-2.615 2.404,0 4.153,0.945 5.247,2.837 h 0.068 v -10.835 h 2.803 z m -2.803,-7.913 v -2.58 c 0,-1.413 -0.467,-2.609 -1.401,-3.589 -0.934,-0.98 -2.119,-1.47 -3.555,-1.47 -1.709,0 -3.053,0.627 -4.033,1.88 -0.98,1.253 -1.47,2.985 -1.47,5.195 0,2.017 0.467,3.612 1.402,4.786 0.945,1.162 2.21,1.743 3.793,1.743 1.561,0 2.826,-0.564 3.794,-1.692 0.98,-1.128 1.47,-2.552 1.47,-4.273 z" />
        </g>
    </a>
    <a
        xlink:href="integrate-with-your-office"
        class="capability-four">
        <g
            id="g1305">
            <path
                style="filter:url(#filter0_d)"
                id="path518"
                fill="#4285f4"
                d="m 566.92,700.477 c -53.077,30.901 -113.32,47.377 -174.73,47.791 -61.416,0.413 -121.87,-15.25 -175.36,-45.434 l 172.99,-306.56 z" />
            <path
                style="fill:#ffffff"
                id="path546"
                d="m 341.37,649.657 v -3.384 c 0.387,0.342 0.849,0.649 1.384,0.923 0.547,0.273 1.117,0.507 1.709,0.701 0.604,0.182 1.208,0.324 1.812,0.427 0.604,0.102 1.162,0.154 1.675,0.154 1.765,0 3.081,-0.325 3.947,-0.975 0.878,-0.66 1.316,-1.606 1.316,-2.836 0,-0.661 -0.148,-1.237 -0.444,-1.727 -0.285,-0.489 -0.684,-0.934 -1.196,-1.333 -0.513,-0.41 -1.123,-0.797 -1.829,-1.162 -0.695,-0.376 -1.447,-0.769 -2.256,-1.179 -0.854,-0.433 -1.652,-0.871 -2.392,-1.316 -0.741,-0.444 -1.385,-0.934 -1.932,-1.469 -0.546,-0.536 -0.979,-1.14 -1.298,-1.812 -0.308,-0.684 -0.462,-1.481 -0.462,-2.393 0,-1.116 0.245,-2.085 0.735,-2.905 0.49,-0.832 1.134,-1.515 1.931,-2.051 0.798,-0.535 1.703,-0.934 2.717,-1.196 1.026,-0.262 2.068,-0.393 3.128,-0.393 2.415,0 4.175,0.291 5.281,0.872 v 3.23 c -1.447,-1.003 -3.304,-1.504 -5.572,-1.504 -0.626,0 -1.253,0.068 -1.88,0.205 -0.626,0.125 -1.184,0.336 -1.674,0.632 -0.49,0.296 -0.889,0.678 -1.197,1.145 -0.307,0.467 -0.461,1.037 -0.461,1.709 0,0.627 0.114,1.168 0.342,1.624 0.239,0.455 0.586,0.871 1.042,1.247 0.456,0.376 1.009,0.741 1.658,1.094 0.661,0.353 1.418,0.74 2.273,1.162 0.877,0.433 1.709,0.889 2.495,1.367 0.786,0.479 1.475,1.009 2.068,1.59 0.592,0.581 1.059,1.224 1.401,1.931 0.353,0.706 0.53,1.515 0.53,2.426 0,1.208 -0.239,2.234 -0.718,3.077 -0.467,0.831 -1.105,1.509 -1.914,2.033 -0.797,0.524 -1.72,0.9 -2.768,1.128 -1.049,0.24 -2.154,0.359 -3.316,0.359 -0.387,0 -0.866,-0.034 -1.435,-0.102 -0.57,-0.057 -1.151,-0.148 -1.744,-0.274 -0.592,-0.114 -1.156,-0.256 -1.691,-0.427 -0.524,-0.182 -0.946,-0.382 -1.265,-0.598 z m 20.798,-20.952 c -0.501,0 -0.928,-0.171 -1.281,-0.513 -0.354,-0.342 -0.53,-0.775 -0.53,-1.299 0,-0.524 0.176,-0.957 0.53,-1.299 0.353,-0.353 0.78,-0.529 1.281,-0.529 0.513,0 0.946,0.176 1.299,0.529 0.365,0.342 0.547,0.775 0.547,1.299 0,0.501 -0.182,0.929 -0.547,1.282 -0.353,0.353 -0.786,0.53 -1.299,0.53 z m 1.367,21.943 h -2.802 v -17.5 h 2.802 z m 30.523,0 h -2.803 v -10.049 c 0,-1.937 -0.302,-3.338 -0.906,-4.204 -0.592,-0.866 -1.595,-1.299 -3.007,-1.299 -1.197,0 -2.216,0.547 -3.059,1.641 -0.832,1.094 -1.248,2.404 -1.248,3.931 v 9.98 h -2.803 v -10.391 c 0,-3.44 -1.327,-5.161 -3.982,-5.161 -1.23,0 -2.244,0.519 -3.042,1.555 -0.797,1.026 -1.196,2.365 -1.196,4.017 v 9.98 h -2.803 v -17.5 h 2.803 v 2.769 h 0.068 c 1.242,-2.12 3.054,-3.179 5.435,-3.179 1.196,0 2.239,0.336 3.127,1.008 0.889,0.661 1.499,1.533 1.829,2.615 1.299,-2.415 3.236,-3.623 5.811,-3.623 3.85,0 5.776,2.375 5.776,7.126 z m 8.169,-2.529 h -0.068 v 10.578 h -2.803 v -25.549 h 2.803 v 3.076 h 0.068 c 1.378,-2.324 3.395,-3.486 6.05,-3.486 2.256,0 4.016,0.786 5.28,2.358 1.265,1.561 1.897,3.657 1.897,6.289 0,2.928 -0.712,5.275 -2.136,7.041 -1.424,1.755 -3.372,2.632 -5.845,2.632 -2.267,0 -4.016,-0.98 -5.246,-2.939 z m -0.068,-7.058 v 2.443 c 0,1.447 0.467,2.678 1.401,3.692 0.946,1.002 2.142,1.504 3.589,1.504 1.697,0 3.025,-0.65 3.982,-1.948 0.968,-1.299 1.452,-3.105 1.452,-5.418 0,-1.948 -0.45,-3.475 -1.35,-4.58 -0.9,-1.105 -2.119,-1.658 -3.657,-1.658 -1.629,0 -2.939,0.57 -3.931,1.709 -0.991,1.128 -1.486,2.547 -1.486,4.256 z m 20.576,9.587 h -2.803 V 624.74 h 2.803 z m 19.738,-8.049 h -12.355 c 0.045,1.948 0.569,3.452 1.572,4.511 1.002,1.06 2.381,1.59 4.136,1.59 1.971,0 3.782,-0.65 5.434,-1.948 v 2.631 c -1.538,1.117 -3.572,1.675 -6.101,1.675 -2.472,0 -4.415,-0.792 -5.828,-2.375 -1.412,-1.595 -2.119,-3.834 -2.119,-6.717 0,-2.723 0.769,-4.939 2.307,-6.648 1.55,-1.72 3.47,-2.58 5.76,-2.58 2.29,0 4.061,0.74 5.315,2.222 1.253,1.481 1.879,3.537 1.879,6.169 z m -2.871,-2.376 c -0.011,-1.618 -0.404,-2.877 -1.179,-3.777 -0.763,-0.9 -1.828,-1.35 -3.196,-1.35 -1.321,0 -2.443,0.473 -3.366,1.419 -0.923,0.945 -1.493,2.182 -1.709,3.708 z m -127.22,57.425 h -2.872 v -24.507 h 2.872 z m 20.61,0 h -2.803 v -9.98 c 0,-3.715 -1.356,-5.572 -4.067,-5.572 -1.402,0 -2.564,0.53 -3.487,1.59 -0.911,1.048 -1.367,2.375 -1.367,3.982 v 9.98 h -2.802 v -17.5 h 2.802 v 2.905 h 0.069 c 1.321,-2.21 3.235,-3.315 5.742,-3.315 1.914,0 3.378,0.621 4.392,1.863 1.014,1.23 1.521,3.013 1.521,5.349 z m 13.415,-0.171 c -0.66,0.365 -1.532,0.547 -2.614,0.547 -3.065,0 -4.597,-1.709 -4.597,-5.127 v -10.356 h -3.008 v -2.393 h 3.008 v -4.272 l 2.802,-0.906 v 5.178 h 4.409 v 2.393 h -4.409 v 9.86 c 0,1.174 0.2,2.011 0.598,2.513 0.399,0.501 1.06,0.752 1.983,0.752 0.706,0 1.316,-0.194 1.828,-0.581 z m 17.808,-7.878 h -12.356 c 0.046,1.948 0.57,3.452 1.572,4.511 1.003,1.06 2.382,1.59 4.136,1.59 1.971,0 3.783,-0.65 5.435,-1.948 v 2.631 c -1.538,1.117 -3.572,1.675 -6.101,1.675 -2.473,0 -4.415,-0.792 -5.828,-2.375 -1.413,-1.595 -2.119,-3.834 -2.119,-6.717 0,-2.723 0.769,-4.939 2.307,-6.648 1.549,-1.72 3.469,-2.58 5.759,-2.58 2.29,0 4.062,0.74 5.315,2.222 1.253,1.481 1.88,3.537 1.88,6.169 z m -2.871,-2.376 c -0.011,-1.618 -0.404,-2.877 -1.179,-3.777 -0.764,-0.9 -1.829,-1.35 -3.196,-1.35 -1.322,0 -2.444,0.473 -3.367,1.419 -0.923,0.945 -1.492,2.182 -1.709,3.708 z m 22.063,9.024 c 0,6.425 -3.076,9.638 -9.229,9.638 -2.164,0 -4.056,-0.41 -5.673,-1.23 v -2.803 c 1.971,1.094 3.851,1.641 5.639,1.641 4.307,0 6.46,-2.29 6.46,-6.87 v -1.914 h -0.068 c -1.333,2.233 -3.338,3.349 -6.016,3.349 -2.176,0 -3.93,-0.775 -5.263,-2.324 -1.322,-1.561 -1.983,-3.652 -1.983,-6.272 0,-2.974 0.712,-5.338 2.136,-7.092 1.436,-1.755 3.396,-2.632 5.879,-2.632 2.359,0 4.108,0.945 5.247,2.837 h 0.068 v -2.427 h 2.803 z m -2.803,-6.512 v -2.58 c 0,-1.39 -0.473,-2.581 -1.418,-3.572 -0.934,-0.991 -2.102,-1.487 -3.504,-1.487 -1.731,0 -3.087,0.633 -4.067,1.897 -0.98,1.253 -1.47,3.014 -1.47,5.281 0,1.948 0.467,3.509 1.402,4.683 0.945,1.162 2.193,1.743 3.742,1.743 1.573,0 2.849,-0.559 3.828,-1.675 0.992,-1.117 1.487,-2.546 1.487,-4.29 z m 17.603,-6.75 c -0.49,-0.376 -1.197,-0.564 -2.119,-0.564 -1.197,0 -2.199,0.564 -3.008,1.692 -0.798,1.128 -1.196,2.666 -1.196,4.614 v 8.921 h -2.803 v -17.5 h 2.803 v 3.606 h 0.068 c 0.399,-1.231 1.008,-2.188 1.829,-2.871 0.82,-0.695 1.737,-1.043 2.751,-1.043 0.729,0 1.287,0.08 1.675,0.24 z m 15.569,14.663 h -2.803 v -2.734 h -0.068 c -1.22,2.096 -3.014,3.144 -5.384,3.144 -1.743,0 -3.11,-0.461 -4.101,-1.384 -0.98,-0.923 -1.47,-2.148 -1.47,-3.674 0,-3.27 1.925,-5.173 5.776,-5.708 l 5.247,-0.735 c 0,-2.974 -1.202,-4.461 -3.606,-4.461 -2.108,0 -4.01,0.718 -5.708,2.154 v -2.872 c 1.72,-1.093 3.703,-1.64 5.947,-1.64 4.113,0 6.17,2.176 6.17,6.528 z m -2.803,-8.853 -4.221,0.582 c -1.299,0.182 -2.279,0.507 -2.94,0.974 -0.661,0.455 -0.991,1.27 -0.991,2.443 0,0.855 0.302,1.556 0.906,2.103 0.615,0.535 1.43,0.803 2.444,0.803 1.39,0 2.535,-0.484 3.435,-1.453 0.911,-0.98 1.367,-2.216 1.367,-3.708 z m 16.201,8.682 c -0.661,0.365 -1.532,0.547 -2.615,0.547 -3.064,0 -4.597,-1.709 -4.597,-5.127 v -10.356 h -3.008 v -2.393 h 3.008 v -4.272 l 2.803,-0.906 v 5.178 h 4.409 v 2.393 h -4.409 v 9.86 c 0,1.174 0.199,2.011 0.598,2.513 0.399,0.501 1.06,0.752 1.982,0.752 0.707,0 1.316,-0.194 1.829,-0.581 z m 5.178,-21.772 c -0.501,0 -0.928,-0.171 -1.281,-0.513 -0.354,-0.342 -0.53,-0.775 -0.53,-1.299 0,-0.524 0.176,-0.957 0.53,-1.299 0.353,-0.353 0.78,-0.529 1.281,-0.529 0.513,0 0.946,0.176 1.299,0.529 0.365,0.342 0.547,0.775 0.547,1.299 0,0.501 -0.182,0.929 -0.547,1.282 -0.353,0.353 -0.786,0.53 -1.299,0.53 z m 1.367,21.943 h -2.802 v -17.5 h 2.802 z m 12.989,0.41 c -2.587,0 -4.654,-0.814 -6.204,-2.444 -1.538,-1.64 -2.307,-3.811 -2.307,-6.511 0,-2.939 0.803,-5.235 2.41,-6.887 1.606,-1.652 3.777,-2.478 6.511,-2.478 2.609,0 4.643,0.803 6.101,2.41 1.47,1.606 2.205,3.833 2.205,6.682 0,2.791 -0.792,5.03 -2.376,6.716 -1.572,1.675 -3.686,2.512 -6.34,2.512 z m 0.205,-15.962 c -1.8,0 -3.224,0.615 -4.273,1.846 -1.048,1.219 -1.572,2.905 -1.572,5.059 0,2.073 0.53,3.708 1.589,4.904 1.06,1.197 2.478,1.795 4.256,1.795 1.811,0 3.201,-0.587 4.17,-1.76 0.98,-1.174 1.469,-2.843 1.469,-5.008 0,-2.187 -0.489,-3.874 -1.469,-5.058 -0.969,-1.185 -2.359,-1.778 -4.17,-1.778 z m 27.514,15.552 h -2.802 v -9.98 c 0,-3.715 -1.356,-5.572 -4.068,-5.572 -1.401,0 -2.563,0.53 -3.486,1.59 -0.911,1.048 -1.367,2.375 -1.367,3.982 v 9.98 h -2.803 v -17.5 h 2.803 v 2.905 h 0.068 c 1.322,-2.21 3.236,-3.315 5.742,-3.315 1.914,0 3.378,0.621 4.392,1.863 1.014,1.23 1.521,3.013 1.521,5.349 z" />
        </g>
    </a>
    <a
     xlink:href="remote-patient-monitoring"
     class="capability-five">
        <g id="g718">
            <path
                d="M 209.26,699.187 C 155.753,669.035 111.066,625.409 79.64,572.637 48.213,519.869 31.139,459.797 30.115,398.387 l 351.95,-5.87 z"
                fill="#00b4a4"
                id="path241"
                style="filter:url(#filter0_d)" />
            <path
                d="m 86.25,483.82648 h -3.418 l -4.102,-6.87 c -0.376,-0.638 -0.74,-1.179 -1.093,-1.624 -0.354,-0.455 -0.718,-0.826 -1.094,-1.11 -0.365,-0.285 -0.764,-0.49 -1.196,-0.616 -0.422,-0.136 -0.901,-0.205 -1.436,-0.205 h -2.358 v 10.425 h -2.872 v -24.507 h 7.315 c 1.071,0 2.056,0.137 2.956,0.41 0.912,0.262 1.698,0.667 2.359,1.214 0.672,0.547 1.196,1.23 1.572,2.05 0.376,0.809 0.564,1.761 0.564,2.854 0,0.855 -0.131,1.641 -0.393,2.359 -0.251,0.706 -0.615,1.339 -1.094,1.897 -0.467,0.558 -1.036,1.037 -1.709,1.435 -0.66,0.388 -1.407,0.69 -2.238,0.906 v 0.069 c 0.41,0.182 0.763,0.393 1.059,0.632 0.308,0.228 0.598,0.501 0.872,0.82 0.273,0.319 0.541,0.684 0.803,1.094 0.273,0.399 0.575,0.866 0.906,1.401 z m -14.697,-21.909 v 8.887 h 3.896 c 0.718,0 1.379,-0.109 1.982,-0.325 0.616,-0.217 1.146,-0.524 1.59,-0.923 0.444,-0.41 0.792,-0.906 1.042,-1.487 0.251,-0.592 0.376,-1.253 0.376,-1.982 0,-1.31 -0.427,-2.33 -1.281,-3.059 -0.844,-0.741 -2.068,-1.111 -3.675,-1.111 z m 30.744,13.86 H 89.941 c 0.046,1.948 0.57,3.452 1.573,4.511 1.002,1.06 2.381,1.59 4.135,1.59 1.971,0 3.783,-0.65 5.435,-1.948 v 2.631 c -1.538,1.117 -3.572,1.675 -6.101,1.675 -2.473,0 -4.415,-0.792 -5.828,-2.375 -1.413,-1.595 -2.119,-3.834 -2.119,-6.717 0,-2.723 0.769,-4.939 2.307,-6.648 1.55,-1.72 3.469,-2.58 5.759,-2.58 2.29,0 4.062,0.74 5.315,2.222 1.254,1.481 1.88,3.537 1.88,6.169 z m -2.871,-2.376 c -0.011,-1.618 -0.404,-2.877 -1.179,-3.777 -0.763,-0.9 -1.829,-1.35 -3.196,-1.35 -1.321,0 -2.444,0.473 -3.367,1.419 -0.922,0.945 -1.492,2.182 -1.709,3.708 z m 31.975,10.425 h -2.803 v -10.049 c 0,-1.937 -0.301,-3.338 -0.905,-4.204 -0.593,-0.866 -1.595,-1.299 -3.008,-1.299 -1.196,0 -2.216,0.547 -3.059,1.641 -0.832,1.094 -1.248,2.404 -1.248,3.931 v 9.98 h -2.802 v -10.391 c 0,-3.44 -1.328,-5.161 -3.982,-5.161 -1.231,0 -2.245,0.519 -3.042,1.555 -0.798,1.026 -1.197,2.365 -1.197,4.017 v 9.98 h -2.802 v -17.5 h 2.802 v 2.769 h 0.069 c 1.242,-2.12 3.053,-3.179 5.434,-3.179 1.197,0 2.239,0.336 3.128,1.008 0.888,0.661 1.498,1.533 1.828,2.615 1.299,-2.415 3.236,-3.623 5.811,-3.623 3.851,0 5.776,2.375 5.776,7.126 z m 12.613,0.41 c -2.587,0 -4.655,-0.814 -6.204,-2.444 -1.538,-1.64 -2.307,-3.811 -2.307,-6.511 0,-2.939 0.803,-5.235 2.409,-6.887 1.607,-1.652 3.777,-2.478 6.512,-2.478 2.609,0 4.642,0.803 6.101,2.41 1.469,1.606 2.204,3.833 2.204,6.682 0,2.791 -0.791,5.03 -2.375,6.716 -1.572,1.675 -3.686,2.512 -6.34,2.512 z m 0.205,-15.962 c -1.801,0 -3.225,0.615 -4.273,1.846 -1.048,1.219 -1.572,2.905 -1.572,5.059 0,2.073 0.53,3.708 1.589,4.904 1.06,1.197 2.478,1.795 4.256,1.795 1.811,0 3.201,-0.587 4.17,-1.76 0.979,-1.174 1.469,-2.843 1.469,-5.008 0,-2.187 -0.49,-3.874 -1.469,-5.058 -0.969,-1.185 -2.359,-1.778 -4.17,-1.778 z m 21.106,15.381 c -0.661,0.365 -1.533,0.547 -2.615,0.547 -3.065,0 -4.597,-1.709 -4.597,-5.127 v -10.356 h -3.008 v -2.393 h 3.008 v -4.272 l 2.802,-0.906 v 5.178 h 4.41 v 2.393 h -4.41 v 9.86 c 0,1.174 0.2,2.011 0.599,2.513 0.398,0.501 1.059,0.752 1.982,0.752 0.706,0 1.316,-0.194 1.829,-0.581 z m 17.807,-7.878 h -12.356 c 0.046,1.948 0.57,3.452 1.572,4.511 1.003,1.06 2.382,1.59 4.136,1.59 1.971,0 3.783,-0.65 5.435,-1.948 v 2.631 c -1.538,1.117 -3.572,1.675 -6.101,1.675 -2.473,0 -4.415,-0.792 -5.828,-2.375 -1.413,-1.595 -2.119,-3.834 -2.119,-6.717 0,-2.723 0.769,-4.939 2.307,-6.648 1.55,-1.72 3.469,-2.58 5.759,-2.58 2.29,0 4.062,0.74 5.315,2.222 1.254,1.481 1.88,3.537 1.88,6.169 z m -2.871,-2.376 c -0.011,-1.618 -0.404,-2.877 -1.179,-3.777 -0.763,-0.9 -1.829,-1.35 -3.196,-1.35 -1.322,0 -2.444,0.473 -3.367,1.419 -0.922,0.945 -1.492,2.182 -1.709,3.708 z m 19.978,1.162 v 9.263 h -2.871 v -24.507 h 6.733 c 2.621,0 4.649,0.638 6.084,1.914 1.447,1.276 2.171,3.076 2.171,5.401 0,2.324 -0.803,4.227 -2.41,5.708 -1.595,1.481 -3.754,2.221 -6.477,2.221 z m 0,-12.646 v 10.049 h 3.008 c 1.982,0 3.492,-0.45 4.529,-1.35 1.048,-0.912 1.572,-2.194 1.572,-3.846 0,-3.235 -1.914,-4.853 -5.742,-4.853 z m 27.703,21.909 h -2.803 v -2.734 h -0.068 c -1.219,2.096 -3.014,3.144 -5.384,3.144 -1.743,0 -3.11,-0.461 -4.101,-1.384 -0.98,-0.923 -1.47,-2.148 -1.47,-3.674 0,-3.27 1.926,-5.173 5.776,-5.708 l 5.247,-0.735 c 0,-2.974 -1.202,-4.461 -3.606,-4.461 -2.108,0 -4.01,0.718 -5.708,2.154 v -2.872 c 1.72,-1.093 3.703,-1.64 5.947,-1.64 4.113,0 6.17,2.176 6.17,6.528 z m -2.803,-8.853 -4.221,0.582 c -1.299,0.182 -2.279,0.507 -2.94,0.974 -0.66,0.455 -0.991,1.27 -0.991,2.443 0,0.855 0.302,1.556 0.906,2.103 0.615,0.535 1.43,0.803 2.444,0.803 1.39,0 2.535,-0.484 3.435,-1.453 0.911,-0.98 1.367,-2.216 1.367,-3.708 z m 16.201,8.682 c -0.661,0.365 -1.532,0.547 -2.615,0.547 -3.064,0 -4.597,-1.709 -4.597,-5.127 v -10.356 h -3.008 v -2.393 h 3.008 v -4.272 l 2.803,-0.906 v 5.178 h 4.409 v 2.393 h -4.409 v 9.86 c 0,1.174 0.199,2.011 0.598,2.513 0.399,0.501 1.06,0.752 1.983,0.752 0.706,0 1.315,-0.194 1.828,-0.581 z m 5.178,-21.772 c -0.501,0 -0.928,-0.171 -1.281,-0.513 -0.354,-0.342 -0.53,-0.775 -0.53,-1.299 0,-0.524 0.176,-0.957 0.53,-1.299 0.353,-0.353 0.78,-0.529 1.281,-0.529 0.513,0 0.946,0.176 1.299,0.529 0.365,0.342 0.547,0.775 0.547,1.299 0,0.501 -0.182,0.929 -0.547,1.282 -0.353,0.353 -0.786,0.53 -1.299,0.53 z m 1.368,21.943 h -2.803 v -17.5 h 2.803 z m 19.738,-8.049 h -12.356 c 0.046,1.948 0.57,3.452 1.573,4.511 1.002,1.06 2.381,1.59 4.135,1.59 1.971,0 3.783,-0.65 5.435,-1.948 v 2.631 c -1.538,1.117 -3.572,1.675 -6.101,1.675 -2.472,0 -4.415,-0.792 -5.828,-2.375 -1.412,-1.595 -2.119,-3.834 -2.119,-6.717 0,-2.723 0.769,-4.939 2.307,-6.648 1.55,-1.72 3.47,-2.58 5.76,-2.58 2.29,0 4.061,0.74 5.314,2.222 1.254,1.481 1.88,3.537 1.88,6.169 z m -2.871,-2.376 c -0.011,-1.618 -0.404,-2.877 -1.179,-3.777 -0.763,-0.9 -1.829,-1.35 -3.196,-1.35 -1.321,0 -2.444,0.473 -3.366,1.419 -0.923,0.945 -1.493,2.182 -1.709,3.708 z m 21.653,10.425 h -2.803 v -9.98 c 0,-3.715 -1.355,-5.572 -4.067,-5.572 -1.401,0 -2.563,0.53 -3.486,1.59 -0.912,1.048 -1.368,2.375 -1.368,3.982 v 9.98 h -2.802 v -17.5 h 2.802 v 2.905 h 0.069 c 1.321,-2.21 3.236,-3.315 5.742,-3.315 1.914,0 3.378,0.621 4.392,1.863 1.014,1.23 1.521,3.013 1.521,5.349 z m 13.416,-0.171 c -0.661,0.365 -1.533,0.547 -2.615,0.547 -3.065,0 -4.597,-1.709 -4.597,-5.127 v -10.356 h -3.008 v -2.393 h 3.008 v -4.272 l 2.802,-0.906 v 5.178 h 4.41 v 2.393 h -4.41 v 9.86 c 0,1.174 0.2,2.011 0.599,2.513 0.398,0.501 1.059,0.752 1.982,0.752 0.706,0 1.316,-0.194 1.829,-0.581 z m -175.38,47.171 h -2.854 v -16.44 c 0,-1.299 0.079,-2.889 0.239,-4.768 h -0.068 c -0.274,1.105 -0.519,1.896 -0.735,2.375 l -8.374,18.833 h -1.402 l -8.357,-18.696 c -0.239,-0.547 -0.484,-1.385 -0.735,-2.512 h -0.068 c 0.091,0.979 0.137,2.58 0.137,4.802 v 16.406 h -2.769 v -24.507 h 3.794 l 7.52,17.09 c 0.581,1.31 0.957,2.29 1.128,2.939 H 112 c 0.49,-1.344 0.883,-2.347 1.179,-3.007 l 7.674,-17.022 h 3.589 z m 13.398,0.41 c -2.586,0 -4.654,-0.814 -6.204,-2.444 -1.538,-1.64 -2.307,-3.811 -2.307,-6.511 0,-2.939 0.804,-5.235 2.41,-6.887 1.606,-1.652 3.777,-2.478 6.511,-2.478 2.609,0 4.643,0.803 6.101,2.41 1.47,1.606 2.205,3.833 2.205,6.682 0,2.791 -0.792,5.03 -2.376,6.716 -1.572,1.675 -3.685,2.512 -6.34,2.512 z m 0.205,-15.962 c -1.8,0 -3.224,0.615 -4.272,1.846 -1.048,1.219 -1.573,2.905 -1.573,5.059 0,2.073 0.53,3.708 1.59,4.904 1.059,1.197 2.478,1.795 4.255,1.795 1.812,0 3.202,-0.587 4.17,-1.76 0.98,-1.174 1.47,-2.843 1.47,-5.008 0,-2.187 -0.49,-3.874 -1.47,-5.058 -0.968,-1.185 -2.358,-1.778 -4.17,-1.778 z m 27.515,15.552 h -2.803 v -9.98 c 0,-3.715 -1.356,-5.572 -4.067,-5.572 -1.402,0 -2.564,0.53 -3.487,1.59 -0.911,1.048 -1.367,2.375 -1.367,3.982 v 9.98 h -2.803 v -17.5 h 2.803 v 2.905 h 0.069 c 1.321,-2.21 3.235,-3.315 5.742,-3.315 1.914,0 3.378,0.621 4.392,1.863 1.014,1.23 1.521,3.013 1.521,5.349 z m 6.733,-21.943 c -0.501,0 -0.928,-0.171 -1.282,-0.513 -0.353,-0.342 -0.529,-0.775 -0.529,-1.299 0,-0.524 0.176,-0.957 0.529,-1.299 0.354,-0.353 0.781,-0.529 1.282,-0.529 0.513,0 0.946,0.176 1.299,0.529 0.365,0.342 0.547,0.775 0.547,1.299 0,0.501 -0.182,0.929 -0.547,1.282 -0.353,0.353 -0.786,0.53 -1.299,0.53 z m 1.367,21.943 h -2.802 v -17.5 h 2.802 z m 13.792,-0.171 c -0.661,0.365 -1.532,0.547 -2.615,0.547 -3.065,0 -4.597,-1.709 -4.597,-5.127 v -10.356 h -3.008 v -2.393 h 3.008 v -4.272 l 2.803,-0.906 v 5.178 h 4.409 v 2.393 h -4.409 v 9.86 c 0,1.174 0.199,2.011 0.598,2.513 0.399,0.501 1.059,0.752 1.982,0.752 0.707,0 1.316,-0.194 1.829,-0.581 z m 11.057,0.581 c -2.586,0 -4.654,-0.814 -6.204,-2.444 -1.538,-1.64 -2.307,-3.811 -2.307,-6.511 0,-2.939 0.804,-5.235 2.41,-6.887 1.606,-1.652 3.777,-2.478 6.511,-2.478 2.609,0 4.643,0.803 6.101,2.41 1.47,1.606 2.205,3.833 2.205,6.682 0,2.791 -0.792,5.03 -2.376,6.716 -1.572,1.675 -3.685,2.512 -6.34,2.512 z m 0.205,-15.962 c -1.8,0 -3.224,0.615 -4.272,1.846 -1.049,1.219 -1.573,2.905 -1.573,5.059 0,2.073 0.53,3.708 1.59,4.904 1.059,1.197 2.478,1.795 4.255,1.795 1.812,0 3.202,-0.587 4.17,-1.76 0.98,-1.174 1.47,-2.843 1.47,-5.008 0,-2.187 -0.49,-3.874 -1.47,-5.058 -0.968,-1.185 -2.358,-1.778 -4.17,-1.778 z m 22.114,0.889 c -0.49,-0.376 -1.196,-0.564 -2.119,-0.564 -1.196,0 -2.199,0.564 -3.008,1.692 -0.797,1.128 -1.196,2.666 -1.196,4.614 v 8.921 h -2.803 v -17.5 h 2.803 v 3.606 h 0.068 c 0.399,-1.231 1.009,-2.188 1.829,-2.871 0.82,-0.695 1.738,-1.043 2.752,-1.043 0.729,0 1.287,0.08 1.674,0.24 z m 4.478,-7.28 c -0.501,0 -0.929,-0.171 -1.282,-0.513 -0.353,-0.342 -0.53,-0.775 -0.53,-1.299 0,-0.524 0.177,-0.957 0.53,-1.299 0.353,-0.353 0.781,-0.529 1.282,-0.529 0.513,0 0.946,0.176 1.299,0.529 0.364,0.342 0.547,0.775 0.547,1.299 0,0.501 -0.183,0.929 -0.547,1.282 -0.353,0.353 -0.786,0.53 -1.299,0.53 z m 1.367,21.943 h -2.803 v -17.5 h 2.803 z m 20.2,0 h -2.802 v -9.98 c 0,-3.715 -1.356,-5.572 -4.068,-5.572 -1.401,0 -2.563,0.53 -3.486,1.59 -0.912,1.048 -1.367,2.375 -1.367,3.982 v 9.98 h -2.803 v -17.5 h 2.803 v 2.905 h 0.068 c 1.322,-2.21 3.236,-3.315 5.742,-3.315 1.914,0 3.378,0.621 4.392,1.863 1.014,1.23 1.521,3.013 1.521,5.349 z m 20.235,-1.401 c 0,6.425 -3.076,9.638 -9.229,9.638 -2.165,0 -4.056,-0.41 -5.674,-1.23 v -2.803 c 1.971,1.094 3.851,1.641 5.64,1.641 4.307,0 6.46,-2.29 6.46,-6.87 v -1.914 h -0.068 c -1.333,2.233 -3.339,3.349 -6.016,3.349 -2.176,0 -3.931,-0.775 -5.264,-2.324 -1.321,-1.561 -1.982,-3.652 -1.982,-6.272 0,-2.974 0.712,-5.338 2.136,-7.092 1.436,-1.755 3.395,-2.632 5.879,-2.632 2.358,0 4.107,0.945 5.247,2.837 h 0.068 v -2.427 h 2.803 z m -2.803,-6.512 v -2.58 c 0,-1.39 -0.473,-2.581 -1.419,-3.572 -0.934,-0.991 -2.102,-1.487 -3.503,-1.487 -1.732,0 -3.088,0.633 -4.067,1.897 -0.98,1.253 -1.47,3.014 -1.47,5.281 0,1.948 0.467,3.509 1.401,4.683 0.946,1.162 2.194,1.743 3.743,1.743 1.572,0 2.848,-0.559 3.828,-1.675 0.991,-1.117 1.487,-2.546 1.487,-4.29 z"
                id="path267"
                style="fill:#ffffff;" />
        </g>
    </a>

    <a
        xlink:href="access-to-vital-patient-information"
        class="capability-six">

  <g
     id="g1297">
        <g
            id="g1292">
            <path
                d="m 30.11,391.707 c -1.511,-61.399 13.069,-122.12 42.292,-176.14 29.223,-54.02 72.072,-99.454 124.29,-131.79 l 185.31,299.27 z"
                fill="#00b4a4"
                id="path526"
                style="filter:url(#filter0_d)" />
            </g>
            <path
            style="fill:#ffffff"
            id="path550"
            d="m 112.8,244.647 h -3.179 l -2.598,-6.87 h -10.39 l -2.444,6.87 h -3.196 l 9.399,-24.507 h 2.974 z m -6.717,-9.451 -3.845,-10.442 c -0.125,-0.341 -0.251,-0.888 -0.376,-1.64 h -0.068 c -0.114,0.695 -0.245,1.242 -0.393,1.64 l -3.811,10.442 z m 21.892,8.648 c -1.344,0.809 -2.939,1.213 -4.785,1.213 -2.495,0 -4.512,-0.809 -6.05,-2.427 -1.526,-1.629 -2.29,-3.737 -2.29,-6.323 0,-2.882 0.826,-5.195 2.478,-6.938 1.652,-1.755 3.857,-2.632 6.614,-2.632 1.538,0 2.894,0.285 4.068,0.854 v 2.871 c -1.299,-0.911 -2.689,-1.367 -4.17,-1.367 -1.789,0 -3.259,0.644 -4.41,1.931 -1.139,1.276 -1.709,2.957 -1.709,5.042 0,2.051 0.536,3.669 1.607,4.853 1.082,1.185 2.529,1.778 4.341,1.778 1.526,0 2.962,-0.507 4.306,-1.521 z m 16.167,0 c -1.344,0.809 -2.939,1.213 -4.785,1.213 -2.495,0 -4.512,-0.809 -6.05,-2.427 -1.526,-1.629 -2.29,-3.737 -2.29,-6.323 0,-2.882 0.826,-5.195 2.478,-6.938 1.652,-1.755 3.857,-2.632 6.614,-2.632 1.538,0 2.894,0.285 4.068,0.854 v 2.871 c -1.299,-0.911 -2.689,-1.367 -4.17,-1.367 -1.789,0 -3.259,0.644 -4.41,1.931 -1.139,1.276 -1.709,2.957 -1.709,5.042 0,2.051 0.536,3.669 1.607,4.853 1.082,1.185 2.529,1.778 4.341,1.778 1.526,0 2.962,-0.507 4.306,-1.521 z m 18.304,-7.246 H 150.09 c 0.045,1.948 0.569,3.452 1.572,4.511 1.002,1.06 2.381,1.59 4.136,1.59 1.971,0 3.782,-0.65 5.434,-1.948 v 2.631 c -1.538,1.117 -3.572,1.675 -6.101,1.675 -2.472,0 -4.415,-0.792 -5.828,-2.375 -1.412,-1.595 -2.119,-3.834 -2.119,-6.717 0,-2.723 0.769,-4.939 2.307,-6.648 1.55,-1.72 3.47,-2.58 5.76,-2.58 2.29,0 4.061,0.74 5.315,2.222 1.253,1.481 1.88,3.537 1.88,6.169 z m -2.872,-2.376 c -0.011,-1.618 -0.404,-2.877 -1.179,-3.777 -0.763,-0.9 -1.828,-1.35 -3.196,-1.35 -1.321,0 -2.443,0.473 -3.366,1.419 -0.923,0.945 -1.493,2.182 -1.709,3.708 z m 6.067,9.793 v -3.008 c 1.527,1.128 3.208,1.692 5.042,1.692 2.461,0 3.691,-0.821 3.691,-2.461 0,-0.467 -0.108,-0.86 -0.324,-1.179 -0.205,-0.331 -0.49,-0.621 -0.855,-0.872 -0.353,-0.251 -0.775,-0.473 -1.265,-0.666 -0.478,-0.206 -0.996,-0.416 -1.555,-0.633 -0.774,-0.307 -1.458,-0.615 -2.051,-0.923 -0.581,-0.319 -1.07,-0.672 -1.469,-1.059 -0.388,-0.399 -0.684,-0.849 -0.889,-1.35 -0.194,-0.502 -0.29,-1.088 -0.29,-1.761 0,-0.82 0.188,-1.543 0.564,-2.17 0.376,-0.638 0.877,-1.168 1.503,-1.589 0.627,-0.433 1.339,-0.758 2.137,-0.974 0.809,-0.217 1.64,-0.325 2.495,-0.325 1.515,0 2.871,0.262 4.067,0.786 v 2.837 c -1.287,-0.843 -2.768,-1.265 -4.443,-1.265 -0.524,0 -0.997,0.063 -1.419,0.188 -0.421,0.114 -0.786,0.279 -1.093,0.496 -0.297,0.216 -0.53,0.478 -0.701,0.786 -0.16,0.296 -0.239,0.627 -0.239,0.991 0,0.456 0.079,0.838 0.239,1.145 0.171,0.308 0.416,0.581 0.735,0.821 0.319,0.239 0.706,0.455 1.162,0.649 0.456,0.194 0.974,0.404 1.555,0.632 0.775,0.296 1.47,0.604 2.085,0.923 0.615,0.308 1.139,0.661 1.572,1.06 0.433,0.387 0.764,0.837 0.992,1.35 0.239,0.512 0.358,1.122 0.358,1.828 0,0.866 -0.193,1.618 -0.581,2.256 -0.376,0.638 -0.883,1.168 -1.521,1.59 -0.638,0.421 -1.373,0.734 -2.204,0.94 -0.832,0.205 -1.704,0.307 -2.615,0.307 -1.8,0 -3.361,-0.347 -4.683,-1.042 z m 14.869,0 v -3.008 c 1.526,1.128 3.207,1.692 5.041,1.692 2.461,0 3.691,-0.821 3.691,-2.461 0,-0.467 -0.108,-0.86 -0.324,-1.179 -0.205,-0.331 -0.49,-0.621 -0.855,-0.872 -0.353,-0.251 -0.774,-0.473 -1.264,-0.666 -0.479,-0.206 -0.997,-0.416 -1.556,-0.633 -0.774,-0.307 -1.458,-0.615 -2.05,-0.923 -0.581,-0.319 -1.071,-0.672 -1.47,-1.059 -0.387,-0.399 -0.684,-0.849 -0.889,-1.35 -0.193,-0.502 -0.29,-1.088 -0.29,-1.761 0,-0.82 0.188,-1.543 0.564,-2.17 0.376,-0.638 0.877,-1.168 1.504,-1.589 0.626,-0.433 1.338,-0.758 2.136,-0.974 0.809,-0.217 1.64,-0.325 2.495,-0.325 1.515,0 2.871,0.262 4.067,0.786 v 2.837 c -1.287,-0.843 -2.768,-1.265 -4.443,-1.265 -0.524,0 -0.997,0.063 -1.418,0.188 -0.422,0.114 -0.787,0.279 -1.094,0.496 -0.296,0.216 -0.53,0.478 -0.701,0.786 -0.159,0.296 -0.239,0.627 -0.239,0.991 0,0.456 0.08,0.838 0.239,1.145 0.171,0.308 0.416,0.581 0.735,0.821 0.319,0.239 0.706,0.455 1.162,0.649 0.456,0.194 0.974,0.404 1.555,0.632 0.775,0.296 1.47,0.604 2.085,0.923 0.615,0.308 1.14,0.661 1.572,1.06 0.433,0.387 0.764,0.837 0.992,1.35 0.239,0.512 0.359,1.122 0.359,1.828 0,0.866 -0.194,1.618 -0.581,2.256 -0.376,0.638 -0.883,1.168 -1.521,1.59 -0.639,0.421 -1.373,0.734 -2.205,0.94 -0.832,0.205 -1.703,0.307 -2.615,0.307 -1.8,0 -3.361,-0.347 -4.682,-1.042 z m 33.649,0.461 c -0.66,0.365 -1.532,0.547 -2.614,0.547 -3.065,0 -4.597,-1.709 -4.597,-5.127 V 229.54 h -3.008 v -2.393 h 3.008 v -4.272 l 2.802,-0.906 v 5.178 h 4.409 v 2.393 h -4.409 v 9.86 c 0,1.174 0.2,2.011 0.598,2.513 0.399,0.501 1.06,0.752 1.983,0.752 0.706,0 1.316,-0.194 1.828,-0.581 z m 11.058,0.581 c -2.587,0 -4.655,-0.814 -6.204,-2.444 -1.538,-1.64 -2.307,-3.811 -2.307,-6.511 0,-2.939 0.803,-5.235 2.41,-6.887 1.606,-1.652 3.776,-2.478 6.511,-2.478 2.609,0 4.642,0.803 6.101,2.41 1.47,1.606 2.204,3.833 2.204,6.682 0,2.791 -0.791,5.03 -2.375,6.716 -1.572,1.675 -3.686,2.512 -6.34,2.512 z m 0.205,-15.962 c -1.8,0 -3.225,0.615 -4.273,1.846 -1.048,1.219 -1.572,2.905 -1.572,5.059 0,2.073 0.53,3.708 1.589,4.904 1.06,1.197 2.478,1.795 4.256,1.795 1.811,0 3.201,-0.587 4.17,-1.76 0.979,-1.174 1.469,-2.843 1.469,-5.008 0,-2.187 -0.49,-3.874 -1.469,-5.058 -0.969,-1.185 -2.359,-1.778 -4.17,-1.778 z M 92.262,267.14 83.187,291.647 H 80.025 L 71.139,267.14 h 3.195 l 6.785,19.431 c 0.216,0.627 0.382,1.35 0.496,2.171 h 0.068 c 0.091,-0.684 0.279,-1.419 0.564,-2.205 l 6.921,-19.397 z m 4.58,2.564 c -0.502,0 -0.929,-0.171 -1.282,-0.513 -0.353,-0.342 -0.53,-0.775 -0.53,-1.299 0,-0.524 0.177,-0.957 0.53,-1.299 0.353,-0.353 0.78,-0.529 1.282,-0.529 0.512,0 0.945,0.176 1.299,0.529 0.364,0.342 0.546,0.775 0.546,1.299 0,0.501 -0.182,0.929 -0.546,1.282 -0.354,0.353 -0.787,0.53 -1.299,0.53 z m 1.367,21.943 h -2.803 v -17.5 h 2.803 z M 112,291.476 c -0.66,0.365 -1.532,0.547 -2.614,0.547 -3.065,0 -4.598,-1.709 -4.598,-5.127 V 276.54 h -3.007 v -2.393 h 3.007 v -4.272 l 2.803,-0.906 v 5.178 H 112 v 2.393 h -4.409 v 9.86 c 0,1.174 0.2,2.011 0.598,2.513 0.399,0.501 1.06,0.752 1.983,0.752 0.706,0 1.316,-0.194 1.828,-0.581 z m 16.27,0.171 h -2.803 v -2.734 h -0.068 c -1.219,2.096 -3.014,3.144 -5.383,3.144 -1.744,0 -3.111,-0.461 -4.102,-1.384 -0.98,-0.923 -1.47,-2.148 -1.47,-3.674 0,-3.27 1.926,-5.173 5.777,-5.708 l 5.246,-0.735 c 0,-2.974 -1.202,-4.461 -3.606,-4.461 -2.108,0 -4.01,0.718 -5.708,2.154 v -2.872 c 1.721,-1.093 3.703,-1.64 5.947,-1.64 4.113,0 6.17,2.176 6.17,6.528 z m -2.803,-8.853 -4.221,0.582 c -1.299,0.182 -2.279,0.507 -2.939,0.974 -0.661,0.455 -0.992,1.27 -0.992,2.443 0,0.855 0.302,1.556 0.906,2.103 0.615,0.535 1.43,0.803 2.444,0.803 1.39,0 2.535,-0.484 3.435,-1.453 0.911,-0.98 1.367,-2.216 1.367,-3.708 z m 10.886,8.853 h -2.802 v -25.908 h 2.802 z m 18.526,-9.263 v 9.263 h -2.871 V 267.14 h 6.733 c 2.621,0 4.649,0.638 6.084,1.914 1.447,1.276 2.17,3.076 2.17,5.401 0,2.324 -0.803,4.227 -2.409,5.708 -1.595,1.481 -3.754,2.221 -6.477,2.221 z m 0,-12.646 v 10.049 h 3.008 c 1.982,0 3.492,-0.45 4.528,-1.35 1.049,-0.912 1.573,-2.194 1.573,-3.846 0,-3.235 -1.914,-4.853 -5.743,-4.853 z m 27.702,21.909 h -2.802 v -2.734 h -0.069 c -1.219,2.096 -3.013,3.144 -5.383,3.144 -1.743,0 -3.11,-0.461 -4.102,-1.384 -0.979,-0.923 -1.469,-2.148 -1.469,-3.674 0,-3.27 1.925,-5.173 5.776,-5.708 l 5.247,-0.735 c 0,-2.974 -1.202,-4.461 -3.606,-4.461 -2.108,0 -4.011,0.718 -5.708,2.154 v -2.872 c 1.72,-1.093 3.703,-1.64 5.947,-1.64 4.113,0 6.169,2.176 6.169,6.528 z m -2.802,-8.853 -4.222,0.582 c -1.298,0.182 -2.278,0.507 -2.939,0.974 -0.661,0.455 -0.991,1.27 -0.991,2.443 0,0.855 0.302,1.556 0.906,2.103 0.615,0.535 1.429,0.803 2.443,0.803 1.39,0 2.535,-0.484 3.435,-1.453 0.912,-0.98 1.368,-2.216 1.368,-3.708 z m 16.201,8.682 c -0.661,0.365 -1.533,0.547 -2.615,0.547 -3.065,0 -4.597,-1.709 -4.597,-5.127 V 276.54 h -3.008 v -2.393 h 3.008 v -4.272 l 2.803,-0.906 v 5.178 h 4.409 v 2.393 h -4.409 v 9.86 c 0,1.174 0.199,2.011 0.598,2.513 0.399,0.501 1.059,0.752 1.982,0.752 0.707,0 1.316,-0.194 1.829,-0.581 z m 5.178,-21.772 c -0.501,0 -0.928,-0.171 -1.282,-0.513 -0.353,-0.342 -0.529,-0.775 -0.529,-1.299 0,-0.524 0.176,-0.957 0.529,-1.299 0.354,-0.353 0.781,-0.529 1.282,-0.529 0.513,0 0.946,0.176 1.299,0.529 0.364,0.342 0.547,0.775 0.547,1.299 0,0.501 -0.183,0.929 -0.547,1.282 -0.353,0.353 -0.786,0.53 -1.299,0.53 z m 1.367,21.943 h -2.802 v -17.5 h 2.802 z m 19.739,-8.049 h -12.356 c 0.046,1.948 0.57,3.452 1.572,4.511 1.003,1.06 2.382,1.59 4.136,1.59 1.971,0 3.783,-0.65 5.435,-1.948 v 2.631 c -1.538,1.117 -3.572,1.675 -6.101,1.675 -2.473,0 -4.415,-0.792 -5.828,-2.375 -1.413,-1.595 -2.119,-3.834 -2.119,-6.717 0,-2.723 0.769,-4.939 2.307,-6.648 1.549,-1.72 3.469,-2.58 5.759,-2.58 2.29,0 4.062,0.74 5.315,2.222 1.253,1.481 1.88,3.537 1.88,6.169 z m -2.871,-2.376 c -0.011,-1.618 -0.405,-2.877 -1.179,-3.777 -0.764,-0.9 -1.829,-1.35 -3.196,-1.35 -1.322,0 -2.444,0.473 -3.367,1.419 -0.923,0.945 -1.492,2.182 -1.709,3.708 z m 21.653,10.425 h -2.803 v -9.98 c 0,-3.715 -1.356,-5.572 -4.067,-5.572 -1.402,0 -2.564,0.53 -3.487,1.59 -0.911,1.048 -1.367,2.375 -1.367,3.982 v 9.98 h -2.803 v -17.5 h 2.803 v 2.905 h 0.069 c 1.321,-2.21 3.235,-3.315 5.742,-3.315 1.914,0 3.378,0.621 4.392,1.863 1.014,1.23 1.521,3.013 1.521,5.349 z m 13.415,-0.171 c -0.661,0.365 -1.532,0.547 -2.614,0.547 -3.065,0 -4.598,-1.709 -4.598,-5.127 V 276.54 h -3.007 v -2.393 h 3.007 v -4.272 l 2.803,-0.906 v 5.178 h 4.409 v 2.393 h -4.409 v 9.86 c 0,1.174 0.2,2.011 0.598,2.513 0.399,0.501 1.06,0.752 1.983,0.752 0.706,0 1.316,-0.194 1.828,-0.581 z M 78.471,338.647 H 75.6 V 314.14 h 2.871 z m 20.61,0 h -2.802 v -9.98 c 0,-3.715 -1.356,-5.572 -4.068,-5.572 -1.401,0 -2.563,0.53 -3.486,1.59 -0.911,1.048 -1.367,2.375 -1.367,3.982 v 9.98 h -2.803 v -17.5 h 2.803 v 2.905 h 0.068 c 1.322,-2.21 3.236,-3.315 5.742,-3.315 1.914,0 3.378,0.621 4.392,1.863 1.014,1.23 1.521,3.013 1.521,5.349 z M 113.027,315.2 c -0.547,-0.308 -1.168,-0.462 -1.863,-0.462 -1.96,0 -2.939,1.236 -2.939,3.709 v 2.7 h 4.101 v 2.393 h -4.101 v 15.107 h -2.786 V 323.54 h -2.991 v -2.393 h 2.991 v -2.837 c 0,-1.834 0.53,-3.281 1.589,-4.341 1.06,-1.071 2.381,-1.606 3.965,-1.606 0.855,0 1.532,0.102 2.034,0.307 z m 9.638,23.857 c -2.586,0 -4.654,-0.814 -6.203,-2.444 -1.538,-1.64 -2.307,-3.811 -2.307,-6.511 0,-2.939 0.803,-5.235 2.409,-6.887 1.607,-1.652 3.777,-2.478 6.512,-2.478 2.609,0 4.642,0.803 6.101,2.41 1.469,1.606 2.204,3.833 2.204,6.682 0,2.791 -0.792,5.03 -2.375,6.716 -1.573,1.675 -3.686,2.512 -6.341,2.512 z m 0.206,-15.962 c -1.801,0 -3.225,0.615 -4.273,1.846 -1.048,1.219 -1.572,2.905 -1.572,5.059 0,2.073 0.53,3.708 1.589,4.904 1.06,1.197 2.478,1.795 4.256,1.795 1.811,0 3.201,-0.587 4.169,-1.76 0.98,-1.174 1.47,-2.843 1.47,-5.008 0,-2.187 -0.49,-3.874 -1.47,-5.058 -0.968,-1.185 -2.358,-1.778 -4.169,-1.778 z m 22.114,0.889 c -0.49,-0.376 -1.197,-0.564 -2.119,-0.564 -1.197,0 -2.199,0.564 -3.008,1.692 -0.798,1.128 -1.196,2.666 -1.196,4.614 v 8.921 h -2.803 v -17.5 h 2.803 v 3.606 h 0.068 c 0.399,-1.231 1.008,-2.188 1.828,-2.871 0.821,-0.695 1.738,-1.043 2.752,-1.043 0.729,0 1.287,0.08 1.675,0.24 z m 27.89,14.663 h -2.802 v -10.049 c 0,-1.937 -0.302,-3.338 -0.906,-4.204 -0.593,-0.866 -1.595,-1.299 -3.008,-1.299 -1.196,0 -2.216,0.547 -3.059,1.641 -0.832,1.094 -1.248,2.404 -1.248,3.931 v 9.98 h -2.802 v -10.391 c 0,-3.44 -1.328,-5.161 -3.982,-5.161 -1.231,0 -2.245,0.519 -3.042,1.555 -0.798,1.026 -1.197,2.365 -1.197,4.017 v 9.98 h -2.802 v -17.5 h 2.802 v 2.769 h 0.069 c 1.242,-2.12 3.053,-3.179 5.434,-3.179 1.197,0 2.239,0.336 3.128,1.008 0.889,0.661 1.498,1.533 1.828,2.615 1.299,-2.415 3.236,-3.623 5.811,-3.623 3.851,0 5.776,2.375 5.776,7.126 z m 17.825,0 h -2.803 v -2.734 h -0.068 c -1.219,2.096 -3.014,3.144 -5.383,3.144 -1.743,0 -3.111,-0.461 -4.102,-1.384 -0.98,-0.923 -1.47,-2.148 -1.47,-3.674 0,-3.27 1.926,-5.173 5.777,-5.708 l 5.246,-0.735 c 0,-2.974 -1.202,-4.461 -3.606,-4.461 -2.107,0 -4.01,0.718 -5.708,2.154 v -2.872 c 1.721,-1.093 3.703,-1.64 5.948,-1.64 4.113,0 6.169,2.176 6.169,6.528 z m -2.803,-8.853 -4.221,0.582 c -1.299,0.182 -2.278,0.507 -2.939,0.974 -0.661,0.455 -0.991,1.27 -0.991,2.443 0,0.855 0.301,1.556 0.905,2.103 0.616,0.535 1.43,0.803 2.444,0.803 1.39,0 2.535,-0.484 3.435,-1.453 0.912,-0.98 1.367,-2.216 1.367,-3.708 z m 16.202,8.682 c -0.661,0.365 -1.533,0.547 -2.615,0.547 -3.065,0 -4.597,-1.709 -4.597,-5.127 V 323.54 h -3.008 v -2.393 h 3.008 v -4.272 l 2.802,-0.906 v 5.178 h 4.41 v 2.393 h -4.41 v 9.86 c 0,1.174 0.2,2.011 0.599,2.513 0.398,0.501 1.059,0.752 1.982,0.752 0.706,0 1.316,-0.194 1.829,-0.581 z m 5.178,-21.772 c -0.502,0 -0.929,-0.171 -1.282,-0.513 -0.353,-0.342 -0.53,-0.775 -0.53,-1.299 0,-0.524 0.177,-0.957 0.53,-1.299 0.353,-0.353 0.78,-0.529 1.282,-0.529 0.512,0 0.945,0.176 1.299,0.529 0.364,0.342 0.546,0.775 0.546,1.299 0,0.501 -0.182,0.929 -0.546,1.282 -0.354,0.353 -0.787,0.53 -1.299,0.53 z m 1.367,21.943 h -2.803 v -17.5 h 2.803 z m 12.988,0.41 c -2.586,0 -4.654,-0.814 -6.203,-2.444 -1.538,-1.64 -2.308,-3.811 -2.308,-6.511 0,-2.939 0.804,-5.235 2.41,-6.887 1.607,-1.652 3.777,-2.478 6.511,-2.478 2.609,0 4.643,0.803 6.101,2.41 1.47,1.606 2.205,3.833 2.205,6.682 0,2.791 -0.792,5.03 -2.375,6.716 -1.573,1.675 -3.686,2.512 -6.341,2.512 z m 0.205,-15.962 c -1.8,0 -3.224,0.615 -4.272,1.846 -1.048,1.219 -1.572,2.905 -1.572,5.059 0,2.073 0.529,3.708 1.589,4.904 1.06,1.197 2.478,1.795 4.255,1.795 1.812,0 3.202,-0.587 4.17,-1.76 0.98,-1.174 1.47,-2.843 1.47,-5.008 0,-2.187 -0.49,-3.874 -1.47,-5.058 -0.968,-1.185 -2.358,-1.778 -4.17,-1.778 z m 27.515,15.552 h -2.803 v -9.98 c 0,-3.715 -1.356,-5.572 -4.067,-5.572 -1.402,0 -2.564,0.53 -3.486,1.59 -0.912,1.048 -1.368,2.375 -1.368,3.982 v 9.98 h -2.802 v -17.5 h 2.802 v 2.905 h 0.069 c 1.321,-2.21 3.235,-3.315 5.742,-3.315 1.914,0 3.378,0.621 4.392,1.863 1.014,1.23 1.521,3.013 1.521,5.349 z" />
        </g>
    </a>
  
  <circle
     cx="393.10001"
     cy="386.147"
     r="95.5"
     id="circle552"
     style="fill:#ffffff;filter:url(#filter0_d)" />
  <defs
     id="defs575">
    <filter
       filterUnits="userSpaceOnUse"
       color-interpolation-filters="sRGB"
       height="1017.9"
       width="1011"
       y="-6"
       x="0"
       id="filter0_d">
      <feFlood
         id="feFlood560"
         result="BackgroundImageFix"
         flood-opacity="0" />
      <feColorMatrix
         id="feColorMatrix562"
         values="0 0 0 0 0 0 0 0 0 0 0 0 0 0 0 0 0 0 127 0"
         in="SourceAlpha" />
      <feOffset
         id="feOffset564"
         dy="0"
         dx="0" />
      <feGaussianBlur
         id="feGaussianBlur566"
         stdDeviation="10" />
      <feColorMatrix
         id="feColorMatrix568"
         values="0 0 0 0 0 0 0 0 0 0 0 0 0 0 0 0 0 0 0.36 0" />
      <feBlend
         id="feBlend570"
         result="effect1_dropShadow"
         in2="BackgroundImageFix" />
      <feBlend
         id="feBlend572"
         result="shape"
         in2="effect1_dropShadow"
         in="SourceGraphic" />
    </filter>
    <mask
       id="mask516"
       fill="#ffffff">
      <path
         id="path514"
         d="M 664.32,800.83 C 611.243,831.731 551,848.207 489.59,848.621 428.174,849.034 367.72,833.371 314.23,803.187 l 172.99,-306.56 z" />
    </mask>
  </defs>
</svg>
