<?xml version="1.0" encoding="UTF-8" standalone="no"?>
<svg
   xmlns:dc="http://purl.org/dc/elements/1.1/"
   xmlns:cc="http://creativecommons.org/ns#"
   xmlns:rdf="http://www.w3.org/1999/02/22-rdf-syntax-ns#"
   xmlns:svg="http://www.w3.org/2000/svg"
   xmlns="http://www.w3.org/2000/svg"
   xmlns:sodipodi="http://sodipodi.sourceforge.net/DTD/sodipodi-0.dtd"
   xmlns:inkscape="http://www.inkscape.org/namespaces/inkscape"
   inkscape:version="1.0 (4035a4fb49, 2020-05-01)"
   sodipodi:docname="mydiya-capabilities-copy.svg"
   id="svg1451"
   viewBox="0 0 778.09 778.27"
   version="1.1"
   fill="none">
  <metadata
     id="metadata1455">
    <rdf:RDF>
      <cc:Work
         rdf:about="">
        <dc:format>image/svg+xml</dc:format>
        <dc:type
           rdf:resource="http://purl.org/dc/dcmitype/StillImage" />
      </cc:Work>
    </rdf:RDF>
  </metadata>
  <sodipodi:namedview
     inkscape:current-layer="svg1451"
     inkscape:window-maximized="1"
     inkscape:window-y="-8"
     inkscape:window-x="1912"
     inkscape:cy="389.13501"
     inkscape:cx="221.48806"
     inkscape:zoom="1.0921659"
     showgrid="false"
     id="namedview1453"
     inkscape:window-height="1017"
     inkscape:window-width="1920"
     inkscape:pageshadow="2"
     inkscape:pageopacity="0"
     guidetolerance="10"
     gridtolerance="10"
     objecttolerance="10"
     borderopacity="1"
     bordercolor="#666666"
     pagecolor="#ffffff" />

     <a xlink:href="./covid-19" class="capability-one">
        <g
            id="g1494">
            <path
                style="filter:url(#filter0_d)"
                d="m 207.9,79.297 c 52.816,-31.345 112.92,-48.326 174.33,-49.254 61.41,-0.928 122,14.228 175.74,43.962 l -170.42,308 z"
                fill="#0b5394"
                id="path1408" />
            <path
                style="fill:#ffffff"
                d="m 328.69,110.627 c -1.812,0.957 -4.068,1.435 -6.768,1.435 -3.486,0 -6.277,-1.122 -8.374,-3.367 -2.096,-2.244 -3.144,-5.189 -3.144,-8.835 0,-3.919 1.179,-7.087 3.537,-9.502 2.359,-2.415 5.349,-3.623 8.972,-3.623 2.325,0 4.25,0.336 5.777,1.008 v 3.059 c -1.755,-0.979 -3.692,-1.469 -5.811,-1.469 -2.814,0 -5.098,0.94 -6.853,2.819 -1.743,1.88 -2.615,4.393 -2.615,7.537 0,2.985 0.815,5.366 2.444,7.144 1.641,1.766 3.789,2.649 6.443,2.649 2.461,0 4.592,-0.547 6.392,-1.641 z m 13.911,1.435 c -3.475,0 -6.261,-1.145 -8.357,-3.435 -2.085,-2.29 -3.127,-5.269 -3.127,-8.938 0,-3.942 1.065,-7.086 3.195,-9.433 2.131,-2.347 5.03,-3.521 8.699,-3.521 3.384,0 6.107,1.139 8.169,3.418 2.074,2.279 3.11,5.258 3.11,8.938 0,3.999 -1.059,7.161 -3.178,9.485 -2.119,2.324 -4.956,3.486 -8.511,3.486 z m 0.205,-22.729 c -2.575,0 -4.665,0.928 -6.272,2.785 -1.606,1.857 -2.41,4.296 -2.41,7.315 0,3.019 0.781,5.451 2.342,7.297 1.572,1.834 3.617,2.752 6.135,2.752 2.689,0 4.808,-0.878 6.357,-2.632 1.55,-1.755 2.325,-4.21 2.325,-7.366 0,-3.236 -0.752,-5.736 -2.256,-7.502 -1.504,-1.766 -3.578,-2.649 -6.221,-2.649 z m 33.667,-2.188 -9.075,24.507 h -3.161 L 355.35,87.145 h 3.196 l 6.784,19.431 c 0.217,0.627 0.382,1.35 0.496,2.171 h 0.068 c 0.092,-0.684 0.28,-1.419 0.564,-2.205 l 6.922,-19.397 z m 6.392,24.507 h -2.871 V 87.145 h 2.871 z m 6.46,0 V 87.145 h 6.767 c 8.636,0 12.954,3.982 12.954,11.946 0,3.783 -1.202,6.825 -3.606,9.126 -2.392,2.29 -5.599,3.435 -9.621,3.435 z m 2.871,-21.909 v 19.311 h 3.657 c 3.213,0 5.714,-0.86 7.502,-2.58 1.789,-1.721 2.683,-4.159 2.683,-7.315 0,-6.277 -3.338,-9.416 -10.014,-9.416 z m 30.249,13.262 h -9.331 V 100.8 h 9.331 z m 14.594,8.647 h -2.802 V 90.478 c -0.217,0.216 -0.536,0.467 -0.957,0.752 -0.41,0.273 -0.878,0.547 -1.402,0.82 -0.512,0.273 -1.059,0.53 -1.64,0.769 -0.57,0.239 -1.128,0.427 -1.675,0.564 v -2.837 c 0.615,-0.171 1.265,-0.399 1.948,-0.684 0.695,-0.296 1.373,-0.62 2.034,-0.974 0.672,-0.364 1.304,-0.74 1.897,-1.128 0.592,-0.398 1.105,-0.786 1.538,-1.162 h 1.059 z m 23.653,-13.723 c 0,2.244 -0.222,4.244 -0.667,5.998 -0.444,1.744 -1.093,3.225 -1.948,4.444 -0.854,1.207 -1.897,2.13 -3.127,2.768 -1.231,0.627 -2.632,0.94 -4.205,0.94 -1.617,0 -3.042,-0.285 -4.272,-0.854 v -2.683 c 1.356,0.763 2.803,1.145 4.341,1.145 1.105,0 2.091,-0.228 2.956,-0.684 0.878,-0.456 1.618,-1.116 2.222,-1.982 0.604,-0.878 1.065,-1.954 1.384,-3.23 0.319,-1.276 0.479,-2.74 0.479,-4.392 h -0.068 c -1.049,2.107 -2.872,3.161 -5.469,3.161 -1.048,0 -2.011,-0.182 -2.888,-0.547 -0.878,-0.376 -1.635,-0.9 -2.273,-1.572 -0.638,-0.684 -1.134,-1.492 -1.487,-2.427 -0.353,-0.934 -0.53,-1.965 -0.53,-3.093 0,-1.208 0.194,-2.313 0.581,-3.315 0.399,-1.003 0.946,-1.863 1.641,-2.581 0.706,-0.729 1.538,-1.293 2.495,-1.692 0.968,-0.399 2.022,-0.598 3.161,-0.598 1.231,0 2.319,0.251 3.265,0.752 0.957,0.49 1.76,1.213 2.409,2.17 0.65,0.946 1.145,2.114 1.487,3.504 0.342,1.39 0.513,2.979 0.513,4.768 z m -3.025,-2.512 c 0,-0.946 -0.125,-1.806 -0.376,-2.581 -0.239,-0.775 -0.575,-1.435 -1.008,-1.982 -0.433,-0.559 -0.952,-0.986 -1.556,-1.282 -0.592,-0.308 -1.241,-0.462 -1.948,-0.462 -0.672,0 -1.299,0.137 -1.88,0.411 -0.581,0.262 -1.088,0.638 -1.521,1.128 -0.421,0.478 -0.757,1.053 -1.008,1.726 -0.239,0.66 -0.359,1.384 -0.359,2.17 0,0.866 0.114,1.641 0.342,2.324 0.239,0.684 0.575,1.265 1.008,1.743 0.433,0.468 0.952,0.826 1.555,1.077 0.616,0.251 1.294,0.376 2.034,0.376 0.649,0 1.259,-0.12 1.829,-0.359 0.581,-0.25 1.082,-0.581 1.504,-0.991 0.433,-0.422 0.769,-0.911 1.008,-1.47 0.251,-0.569 0.376,-1.179 0.376,-1.828 z m -143.88,62.244 v -3.384 c 0.388,0.342 0.849,0.649 1.385,0.923 0.547,0.273 1.116,0.507 1.709,0.701 0.604,0.182 1.207,0.324 1.811,0.427 0.604,0.102 1.162,0.154 1.675,0.154 1.766,0 3.082,-0.325 3.948,-0.975 0.877,-0.66 1.316,-1.606 1.316,-2.836 0,-0.661 -0.148,-1.237 -0.445,-1.727 -0.284,-0.489 -0.683,-0.934 -1.196,-1.333 -0.513,-0.41 -1.122,-0.797 -1.829,-1.162 -0.694,-0.376 -1.446,-0.769 -2.255,-1.179 -0.855,-0.433 -1.652,-0.871 -2.393,-1.316 -0.74,-0.444 -1.384,-0.934 -1.931,-1.469 -0.547,-0.536 -0.98,-1.14 -1.299,-1.812 -0.308,-0.684 -0.461,-1.481 -0.461,-2.393 0,-1.116 0.245,-2.085 0.735,-2.905 0.489,-0.832 1.133,-1.515 1.931,-2.051 0.797,-0.535 1.703,-0.934 2.717,-1.196 1.025,-0.262 2.068,-0.393 3.127,-0.393 2.416,0 4.176,0.291 5.281,0.872 v 3.23 c -1.447,-1.003 -3.304,-1.504 -5.571,-1.504 -0.627,0 -1.253,0.068 -1.88,0.205 -0.627,0.125 -1.185,0.336 -1.675,0.632 -0.49,0.296 -0.888,0.678 -1.196,1.145 -0.308,0.467 -0.462,1.037 -0.462,1.709 0,0.627 0.114,1.168 0.342,1.624 0.24,0.455 0.587,0.871 1.043,1.247 0.455,0.376 1.008,0.741 1.657,1.094 0.661,0.353 1.419,0.74 2.273,1.162 0.878,0.433 1.709,0.889 2.496,1.367 0.786,0.479 1.475,1.009 2.067,1.59 0.593,0.581 1.06,1.224 1.402,1.931 0.353,0.706 0.53,1.515 0.53,2.426 0,1.208 -0.24,2.234 -0.718,3.077 -0.467,0.831 -1.105,1.509 -1.914,2.033 -0.798,0.524 -1.721,0.9 -2.769,1.128 -1.048,0.24 -2.153,0.359 -3.315,0.359 -0.388,0 -0.866,-0.034 -1.436,-0.102 -0.569,-0.057 -1.151,-0.148 -1.743,-0.274 -0.592,-0.114 -1.156,-0.256 -1.692,-0.427 -0.524,-0.182 -0.946,-0.382 -1.265,-0.598 z m 32.266,-16.509 -8.049,20.303 c -1.436,3.623 -3.452,5.434 -6.05,5.434 -0.729,0 -1.339,-0.074 -1.829,-0.222 v -2.512 c 0.604,0.205 1.157,0.308 1.658,0.308 1.413,0 2.472,-0.844 3.179,-2.53 l 1.401,-3.315 -6.836,-17.466 h 3.111 l 4.733,13.467 c 0.057,0.171 0.177,0.615 0.359,1.333 h 0.103 c 0.057,-0.274 0.171,-0.707 0.342,-1.299 l 4.973,-13.501 z m 27.874,17.5 h -2.803 v -10.049 c 0,-1.937 -0.302,-3.338 -0.906,-4.204 -0.592,-0.866 -1.595,-1.299 -3.008,-1.299 -1.196,0 -2.216,0.547 -3.059,1.641 -0.831,1.094 -1.247,2.404 -1.247,3.931 v 9.98 h -2.803 v -10.391 c 0,-3.44 -1.327,-5.161 -3.982,-5.161 -1.23,0 -2.244,0.519 -3.042,1.555 -0.797,1.026 -1.196,2.365 -1.196,4.017 v 9.98 h -2.803 v -17.5 h 2.803 v 2.769 h 0.068 c 1.242,-2.12 3.053,-3.179 5.435,-3.179 1.196,0 2.238,0.336 3.127,1.008 0.889,0.661 1.498,1.533 1.829,2.615 1.299,-2.415 3.235,-3.623 5.81,-3.623 3.851,0 5.777,2.375 5.777,7.126 z m 8.169,-2.529 h -0.069 v 10.578 h -2.803 v -25.549 h 2.803 v 3.076 h 0.069 c 1.378,-2.324 3.395,-3.486 6.049,-3.486 2.256,0 4.016,0.786 5.281,2.358 1.265,1.561 1.897,3.657 1.897,6.289 0,2.928 -0.712,5.275 -2.136,7.041 -1.424,1.755 -3.373,2.632 -5.845,2.632 -2.267,0 -4.016,-0.98 -5.246,-2.939 z m -0.069,-7.058 v 2.443 c 0,1.447 0.467,2.678 1.402,3.692 0.945,1.002 2.142,1.504 3.588,1.504 1.698,0 3.025,-0.65 3.982,-1.948 0.969,-1.299 1.453,-3.105 1.453,-5.418 0,-1.948 -0.45,-3.475 -1.35,-4.58 -0.9,-1.105 -2.119,-1.658 -3.657,-1.658 -1.63,0 -2.94,0.57 -3.931,1.709 -0.991,1.128 -1.487,2.547 -1.487,4.256 z m 25.891,9.416 c -0.66,0.365 -1.532,0.547 -2.614,0.547 -3.065,0 -4.598,-1.709 -4.598,-5.127 v -10.356 h -3.007 v -2.393 h 3.007 v -4.272 l 2.803,-0.906 v 5.178 h 4.409 v 2.393 h -4.409 v 9.86 c 0,1.174 0.2,2.011 0.598,2.513 0.399,0.501 1.06,0.752 1.983,0.752 0.706,0 1.316,-0.194 1.828,-0.581 z m 11.057,0.581 c -2.586,0 -4.654,-0.814 -6.203,-2.444 -1.538,-1.64 -2.307,-3.811 -2.307,-6.511 0,-2.939 0.803,-5.235 2.409,-6.887 1.607,-1.652 3.777,-2.478 6.512,-2.478 2.609,0 4.642,0.803 6.101,2.41 1.469,1.606 2.204,3.833 2.204,6.682 0,2.791 -0.792,5.03 -2.375,6.716 -1.572,1.675 -3.686,2.512 -6.341,2.512 z m 0.206,-15.962 c -1.801,0 -3.225,0.615 -4.273,1.846 -1.048,1.219 -1.572,2.905 -1.572,5.059 0,2.073 0.53,3.708 1.589,4.904 1.06,1.197 2.478,1.795 4.256,1.795 1.811,0 3.201,-0.587 4.169,-1.76 0.98,-1.174 1.47,-2.843 1.47,-5.008 0,-2.187 -0.49,-3.874 -1.47,-5.058 -0.968,-1.185 -2.358,-1.778 -4.169,-1.778 z m 37.836,15.552 h -2.802 v -10.049 c 0,-1.937 -0.302,-3.338 -0.906,-4.204 -0.592,-0.866 -1.595,-1.299 -3.008,-1.299 -1.196,0 -2.216,0.547 -3.059,1.641 -0.832,1.094 -1.247,2.404 -1.247,3.931 v 9.98 h -2.803 v -10.391 c 0,-3.44 -1.328,-5.161 -3.982,-5.161 -1.231,0 -2.245,0.519 -3.042,1.555 -0.798,1.026 -1.196,2.365 -1.196,4.017 v 9.98 h -2.803 v -17.5 h 2.803 v 2.769 h 0.068 c 1.242,-2.12 3.053,-3.179 5.434,-3.179 1.197,0 2.239,0.336 3.128,1.008 0.889,0.661 1.498,1.533 1.829,2.615 1.298,-2.415 3.235,-3.623 5.81,-3.623 3.851,0 5.776,2.375 5.776,7.126 z m -108.38,25.091 h -7.076 v 21.909 h -2.871 v -21.909 h -7.058 v -2.598 h 17.005 z m 9.57,7.246 c -0.49,-0.376 -1.196,-0.564 -2.119,-0.564 -1.196,0 -2.199,0.564 -3.008,1.692 -0.797,1.128 -1.196,2.666 -1.196,4.614 v 8.921 h -2.803 v -17.5 h 2.803 v 3.606 h 0.068 c 0.399,-1.231 1.008,-2.188 1.829,-2.871 0.82,-0.695 1.737,-1.043 2.751,-1.043 0.729,0 1.288,0.08 1.675,0.24 z m 15.569,14.663 h -2.803 v -2.734 h -0.068 c -1.219,2.096 -3.014,3.144 -5.384,3.144 -1.743,0 -3.11,-0.461 -4.101,-1.384 -0.98,-0.923 -1.47,-2.148 -1.47,-3.674 0,-3.27 1.926,-5.173 5.777,-5.708 l 5.246,-0.735 c 0,-2.974 -1.202,-4.461 -3.606,-4.461 -2.108,0 -4.01,0.718 -5.708,2.154 v -2.872 c 1.721,-1.093 3.703,-1.64 5.947,-1.64 4.113,0 6.17,2.176 6.17,6.528 z m -2.803,-8.853 -4.221,0.582 c -1.299,0.182 -2.279,0.507 -2.94,0.974 -0.66,0.455 -0.991,1.27 -0.991,2.443 0,0.855 0.302,1.556 0.906,2.103 0.615,0.535 1.43,0.803 2.444,0.803 1.39,0 2.535,-0.484 3.435,-1.453 0.911,-0.98 1.367,-2.216 1.367,-3.708 z m 20.012,8.05 c -1.344,0.809 -2.939,1.213 -4.785,1.213 -2.495,0 -4.512,-0.809 -6.05,-2.427 -1.526,-1.629 -2.29,-3.737 -2.29,-6.323 0,-2.882 0.826,-5.195 2.478,-6.938 1.652,-1.755 3.857,-2.632 6.614,-2.632 1.538,0 2.894,0.285 4.067,0.854 v 2.871 c -1.298,-0.911 -2.688,-1.367 -4.169,-1.367 -1.789,0 -3.259,0.644 -4.41,1.931 -1.139,1.276 -1.709,2.957 -1.709,5.042 0,2.051 0.536,3.669 1.607,4.853 1.082,1.185 2.529,1.778 4.341,1.778 1.526,0 2.962,-0.507 4.306,-1.521 z m 18.765,0.803 h -3.931 l -7.724,-8.408 h -0.069 v 8.408 h -2.802 v -25.908 h 2.802 v 16.423 h 0.069 l 7.348,-8.015 h 3.675 L 401,196.594 Z m 16.936,-8.049 H 414.33 c 0.046,1.948 0.57,3.452 1.572,4.511 1.003,1.06 2.381,1.59 4.136,1.59 1.971,0 3.783,-0.65 5.435,-1.948 v 2.631 c -1.538,1.117 -3.572,1.675 -6.101,1.675 -2.473,0 -4.415,-0.792 -5.828,-2.375 -1.413,-1.595 -2.119,-3.834 -2.119,-6.717 0,-2.723 0.769,-4.939 2.307,-6.648 1.549,-1.72 3.469,-2.58 5.759,-2.58 2.29,0 4.062,0.74 5.315,2.222 1.253,1.481 1.88,3.537 1.88,6.169 z m -2.871,-2.376 c -0.012,-1.618 -0.405,-2.877 -1.179,-3.777 -0.764,-0.9 -1.829,-1.35 -3.196,-1.35 -1.322,0 -2.444,0.473 -3.367,1.419 -0.923,0.945 -1.492,2.182 -1.709,3.708 z m 16.252,-4.238 c -0.49,-0.376 -1.196,-0.564 -2.119,-0.564 -1.196,0 -2.199,0.564 -3.008,1.692 -0.797,1.128 -1.196,2.666 -1.196,4.614 v 8.921 h -2.803 v -17.5 h 2.803 v 3.606 h 0.068 c 0.399,-1.231 1.009,-2.188 1.829,-2.871 0.82,-0.695 1.738,-1.043 2.752,-1.043 0.729,0 1.287,0.08 1.674,0.24 z"
                id="path1416" />
        </g>
    </a>
    <a xlink:href="./emergency-access" class="capability-two">
        <g
            id="g1514">
            <path
                style="filter:url(#filter0_d)"
                d="m 566.32,78.817 c 53.622,29.946 98.476,73.401 130.11,126.05 31.629,52.647 48.933,112.65 50.193,174.06 l -351.93,7.218 z"
                fill="#0b5394"
                id="path1412" />
            <path
                style="fill:#ffffff"
                d="M 527.19,261.647 H 514.201 V 237.14 h 12.442 v 2.598 h -9.57 v 8.152 h 8.852 v 2.58 h -8.852 v 8.579 h 10.117 z m 29.189,0 h -2.803 v -10.049 c 0,-1.937 -0.301,-3.338 -0.905,-4.204 -0.593,-0.866 -1.595,-1.299 -3.008,-1.299 -1.196,0 -2.216,0.547 -3.059,1.641 -0.832,1.094 -1.248,2.404 -1.248,3.931 v 9.98 h -2.802 v -10.391 c 0,-3.44 -1.328,-5.161 -3.982,-5.161 -1.231,0 -2.245,0.519 -3.042,1.555 -0.798,1.026 -1.197,2.365 -1.197,4.017 v 9.98 h -2.802 v -17.5 h 2.802 v 2.769 h 0.069 c 1.242,-2.12 3.053,-3.179 5.434,-3.179 1.197,0 2.239,0.336 3.128,1.008 0.888,0.661 1.498,1.533 1.828,2.615 1.299,-2.415 3.236,-3.623 5.811,-3.623 3.851,0 5.776,2.375 5.776,7.126 z m 19.363,-8.049 h -12.356 c 0.046,1.948 0.57,3.452 1.572,4.511 1.003,1.06 2.381,1.59 4.136,1.59 1.971,0 3.783,-0.65 5.435,-1.948 v 2.631 c -1.538,1.117 -3.572,1.675 -6.101,1.675 -2.473,0 -4.415,-0.792 -5.828,-2.375 -1.413,-1.595 -2.119,-3.834 -2.119,-6.717 0,-2.723 0.769,-4.939 2.307,-6.648 1.549,-1.72 3.469,-2.58 5.759,-2.58 2.29,0 4.062,0.74 5.315,2.222 1.253,1.481 1.88,3.537 1.88,6.169 z m -2.871,-2.376 c -0.011,-1.618 -0.405,-2.877 -1.179,-3.777 -0.764,-0.9 -1.829,-1.35 -3.196,-1.35 -1.322,0 -2.444,0.473 -3.367,1.419 -0.923,0.945 -1.492,2.182 -1.709,3.708 z m 16.252,-4.238 c -0.49,-0.376 -1.196,-0.564 -2.119,-0.564 -1.196,0 -2.199,0.564 -3.008,1.692 -0.797,1.128 -1.196,2.666 -1.196,4.614 v 8.921 h -2.803 v -17.5 h 2.803 v 3.606 h 0.068 c 0.399,-1.231 1.009,-2.188 1.829,-2.871 0.82,-0.695 1.738,-1.043 2.752,-1.043 0.729,0 1.287,0.08 1.674,0.24 z m 17.979,13.262 c 0,6.425 -3.076,9.638 -9.229,9.638 -2.164,0 -4.056,-0.41 -5.673,-1.23 v -2.803 c 1.971,1.094 3.85,1.641 5.639,1.641 4.307,0 6.46,-2.29 6.46,-6.87 v -1.914 h -0.068 c -1.333,2.233 -3.338,3.349 -6.016,3.349 -2.176,0 -3.931,-0.775 -5.264,-2.324 -1.321,-1.561 -1.982,-3.652 -1.982,-6.272 0,-2.974 0.712,-5.338 2.136,-7.092 1.436,-1.755 3.395,-2.632 5.879,-2.632 2.359,0 4.107,0.945 5.247,2.837 h 0.068 v -2.427 h 2.803 z m -2.803,-6.512 v -2.58 c 0,-1.39 -0.473,-2.581 -1.418,-3.572 -0.935,-0.991 -2.102,-1.487 -3.504,-1.487 -1.732,0 -3.087,0.633 -4.067,1.897 -0.98,1.253 -1.47,3.014 -1.47,5.281 0,1.948 0.467,3.509 1.402,4.683 0.945,1.162 2.193,1.743 3.742,1.743 1.572,0 2.848,-0.559 3.828,-1.675 0.992,-1.117 1.487,-2.546 1.487,-4.29 z m 22.542,-0.136 h -12.356 c 0.045,1.948 0.569,3.452 1.572,4.511 1.003,1.06 2.381,1.59 4.136,1.59 1.971,0 3.782,-0.65 5.434,-1.948 v 2.631 c -1.538,1.117 -3.572,1.675 -6.101,1.675 -2.472,0 -4.415,-0.792 -5.827,-2.375 -1.413,-1.595 -2.12,-3.834 -2.12,-6.717 0,-2.723 0.769,-4.939 2.308,-6.648 1.549,-1.72 3.469,-2.58 5.759,-2.58 2.29,0 4.061,0.74 5.315,2.222 1.253,1.481 1.88,3.537 1.88,6.169 z m -2.871,-2.376 c -0.012,-1.618 -0.405,-2.877 -1.18,-3.777 -0.763,-0.9 -1.828,-1.35 -3.195,-1.35 -1.322,0 -2.444,0.473 -3.367,1.419 -0.923,0.945 -1.493,2.182 -1.709,3.708 z m 21.652,10.425 h -2.802 v -9.98 c 0,-3.715 -1.356,-5.572 -4.068,-5.572 -1.401,0 -2.563,0.53 -3.486,1.59 -0.912,1.048 -1.367,2.375 -1.367,3.982 v 9.98 h -2.803 v -17.5 h 2.803 v 2.905 h 0.068 c 1.322,-2.21 3.236,-3.315 5.742,-3.315 1.914,0 3.378,0.621 4.392,1.863 1.014,1.23 1.521,3.013 1.521,5.349 z m 17.227,-0.803 c -1.344,0.809 -2.94,1.213 -4.785,1.213 -2.495,0 -4.512,-0.809 -6.05,-2.427 -1.527,-1.629 -2.29,-3.737 -2.29,-6.323 0,-2.882 0.826,-5.195 2.478,-6.938 1.652,-1.755 3.857,-2.632 6.614,-2.632 1.538,0 2.894,0.285 4.067,0.854 v 2.871 c -1.299,-0.911 -2.689,-1.367 -4.17,-1.367 -1.789,0 -3.258,0.644 -4.409,1.931 -1.139,1.276 -1.709,2.957 -1.709,5.042 0,2.051 0.536,3.669 1.606,4.853 1.083,1.185 2.53,1.778 4.341,1.778 1.527,0 2.963,-0.507 4.307,-1.521 z m 18.166,-16.697 -8.049,20.303 c -1.435,3.623 -3.452,5.434 -6.05,5.434 -0.729,0 -1.338,-0.074 -1.828,-0.222 v -2.512 c 0.604,0.205 1.156,0.308 1.657,0.308 1.413,0 2.473,-0.844 3.179,-2.53 l 1.401,-3.315 -6.835,-17.466 h 3.11 l 4.734,13.467 c 0.057,0.171 0.176,0.615 0.359,1.333 h 0.102 c 0.057,-0.274 0.171,-0.707 0.342,-1.299 l 4.973,-13.501 z m -114.23,64.5 h -3.179 l -2.597,-6.87 h -10.391 l -2.444,6.87 h -3.196 l 9.4,-24.507 h 2.973 z m -6.716,-9.451 -3.846,-10.442 c -0.125,-0.341 -0.25,-0.888 -0.376,-1.64 h -0.068 c -0.114,0.695 -0.245,1.242 -0.393,1.64 l -3.811,10.442 z m 21.892,8.648 c -1.345,0.809 -2.94,1.213 -4.785,1.213 -2.496,0 -4.512,-0.809 -6.05,-2.427 -1.527,-1.629 -2.29,-3.737 -2.29,-6.323 0,-2.882 0.826,-5.195 2.478,-6.938 1.652,-1.755 3.856,-2.632 6.613,-2.632 1.539,0 2.894,0.285 4.068,0.854 v 2.871 c -1.299,-0.911 -2.689,-1.367 -4.17,-1.367 -1.789,0 -3.259,0.644 -4.409,1.931 -1.14,1.276 -1.709,2.957 -1.709,5.042 0,2.051 0.535,3.669 1.606,4.853 1.083,1.185 2.53,1.778 4.341,1.778 1.527,0 2.962,-0.507 4.307,-1.521 z m 16.167,0 c -1.345,0.809 -2.94,1.213 -4.785,1.213 -2.496,0 -4.512,-0.809 -6.05,-2.427 -1.527,-1.629 -2.29,-3.737 -2.29,-6.323 0,-2.882 0.826,-5.195 2.478,-6.938 1.652,-1.755 3.856,-2.632 6.613,-2.632 1.539,0 2.894,0.285 4.068,0.854 v 2.871 c -1.299,-0.911 -2.689,-1.367 -4.17,-1.367 -1.789,0 -3.259,0.644 -4.409,1.931 -1.14,1.276 -1.709,2.957 -1.709,5.042 0,2.051 0.535,3.669 1.606,4.853 1.083,1.185 2.53,1.778 4.341,1.778 1.527,0 2.962,-0.507 4.307,-1.521 z m 18.303,-7.246 h -12.356 c 0.046,1.948 0.57,3.452 1.572,4.511 1.003,1.06 2.381,1.59 4.136,1.59 1.971,0 3.783,-0.65 5.435,-1.948 v 2.631 c -1.539,1.117 -3.572,1.675 -6.102,1.675 -2.472,0 -4.414,-0.792 -5.827,-2.375 -1.413,-1.595 -2.119,-3.834 -2.119,-6.717 0,-2.723 0.769,-4.939 2.307,-6.648 1.549,-1.72 3.469,-2.58 5.759,-2.58 2.29,0 4.062,0.74 5.315,2.222 1.253,1.481 1.88,3.537 1.88,6.169 z m -2.871,-2.376 c -0.012,-1.618 -0.405,-2.877 -1.179,-3.777 -0.764,-0.9 -1.829,-1.35 -3.196,-1.35 -1.322,0 -2.444,0.473 -3.367,1.419 -0.923,0.945 -1.492,2.182 -1.709,3.708 z m 6.067,9.793 v -3.008 c 1.526,1.128 3.207,1.692 5.041,1.692 2.461,0 3.692,-0.821 3.692,-2.461 0,-0.467 -0.109,-0.86 -0.325,-1.179 -0.205,-0.331 -0.49,-0.621 -0.855,-0.872 -0.353,-0.251 -0.774,-0.473 -1.264,-0.666 -0.479,-0.206 -0.997,-0.416 -1.555,-0.633 -0.775,-0.307 -1.459,-0.615 -2.051,-0.923 -0.581,-0.319 -1.071,-0.672 -1.47,-1.059 -0.387,-0.399 -0.684,-0.849 -0.889,-1.35 -0.193,-0.502 -0.29,-1.088 -0.29,-1.761 0,-0.82 0.188,-1.543 0.564,-2.17 0.376,-0.638 0.877,-1.168 1.504,-1.589 0.626,-0.433 1.338,-0.758 2.136,-0.974 0.809,-0.217 1.641,-0.325 2.495,-0.325 1.515,0 2.871,0.262 4.067,0.786 v 2.837 c -1.287,-0.843 -2.768,-1.265 -4.443,-1.265 -0.524,0 -0.997,0.063 -1.418,0.188 -0.422,0.114 -0.786,0.279 -1.094,0.496 -0.296,0.216 -0.53,0.478 -0.701,0.786 -0.159,0.296 -0.239,0.627 -0.239,0.991 0,0.456 0.08,0.838 0.239,1.145 0.171,0.308 0.416,0.581 0.735,0.821 0.319,0.239 0.706,0.455 1.162,0.649 0.456,0.194 0.974,0.404 1.555,0.632 0.775,0.296 1.47,0.604 2.085,0.923 0.616,0.308 1.14,0.661 1.573,1.06 0.433,0.387 0.763,0.837 0.991,1.35 0.239,0.512 0.359,1.122 0.359,1.828 0,0.866 -0.194,1.618 -0.581,2.256 -0.376,0.638 -0.883,1.168 -1.521,1.59 -0.638,0.421 -1.373,0.734 -2.205,0.94 -0.832,0.205 -1.703,0.307 -2.615,0.307 -1.8,0 -3.361,-0.347 -4.682,-1.042 z m 14.868,0 v -3.008 c 1.527,1.128 3.207,1.692 5.041,1.692 2.461,0 3.692,-0.821 3.692,-2.461 0,-0.467 -0.108,-0.86 -0.325,-1.179 -0.205,-0.331 -0.49,-0.621 -0.854,-0.872 -0.354,-0.251 -0.775,-0.473 -1.265,-0.666 -0.479,-0.206 -0.997,-0.416 -1.555,-0.633 -0.775,-0.307 -1.459,-0.615 -2.051,-0.923 -0.581,-0.319 -1.071,-0.672 -1.47,-1.059 -0.387,-0.399 -0.683,-0.849 -0.888,-1.35 -0.194,-0.502 -0.291,-1.088 -0.291,-1.761 0,-0.82 0.188,-1.543 0.564,-2.17 0.376,-0.638 0.877,-1.168 1.504,-1.589 0.627,-0.433 1.339,-0.758 2.136,-0.974 0.809,-0.217 1.641,-0.325 2.495,-0.325 1.516,0 2.871,0.262 4.068,0.786 v 2.837 c -1.288,-0.843 -2.769,-1.265 -4.444,-1.265 -0.524,0 -0.997,0.063 -1.418,0.188 -0.422,0.114 -0.786,0.279 -1.094,0.496 -0.296,0.216 -0.53,0.478 -0.701,0.786 -0.159,0.296 -0.239,0.627 -0.239,0.991 0,0.456 0.08,0.838 0.239,1.145 0.171,0.308 0.416,0.581 0.735,0.821 0.319,0.239 0.707,0.455 1.162,0.649 0.456,0.194 0.975,0.404 1.556,0.632 0.774,0.296 1.469,0.604 2.085,0.923 0.615,0.308 1.139,0.661 1.572,1.06 0.433,0.387 0.763,0.837 0.991,1.35 0.239,0.512 0.359,1.122 0.359,1.828 0,0.866 -0.194,1.618 -0.581,2.256 -0.376,0.638 -0.883,1.168 -1.521,1.59 -0.638,0.421 -1.373,0.734 -2.205,0.94 -0.831,0.205 -1.703,0.307 -2.615,0.307 -1.8,0 -3.361,-0.347 -4.682,-1.042 z"
                id="path1418" />
        </g>
    </a>
    <a xlink:href="./emergency-card" class="capability-three">
        <g
            id="g1510">
            <path
                style="filter:url(#filter0_d)"
                d="m 748.09,393.547 c 0,61.418 -16.07,121.77 -46.613,175.05 -30.543,53.285 -74.497,97.65 -127.49,128.69 l -177.89,-303.74 z"
                fill="#4285f4"
                id="path1388" />
            <path
                style="fill:#ffffff"
                d="M 544.19,498.647 H 531.201 V 474.14 h 12.442 v 2.598 h -9.57 v 8.152 h 8.852 v 2.58 h -8.852 v 8.579 h 10.117 z m 29.189,0 h -2.803 v -10.049 c 0,-1.937 -0.301,-3.338 -0.905,-4.204 -0.593,-0.866 -1.595,-1.299 -3.008,-1.299 -1.196,0 -2.216,0.547 -3.059,1.641 -0.832,1.094 -1.248,2.404 -1.248,3.931 v 9.98 h -2.802 v -10.391 c 0,-3.44 -1.328,-5.161 -3.982,-5.161 -1.231,0 -2.245,0.519 -3.042,1.555 -0.798,1.026 -1.197,2.365 -1.197,4.017 v 9.98 h -2.802 v -17.5 h 2.802 v 2.769 h 0.069 c 1.242,-2.12 3.053,-3.179 5.434,-3.179 1.197,0 2.239,0.336 3.128,1.008 0.888,0.661 1.498,1.533 1.828,2.615 1.299,-2.415 3.236,-3.623 5.811,-3.623 3.851,0 5.776,2.375 5.776,7.126 z m 19.363,-8.049 h -12.356 c 0.046,1.948 0.57,3.452 1.572,4.511 1.003,1.06 2.381,1.59 4.136,1.59 1.971,0 3.783,-0.65 5.435,-1.948 v 2.631 c -1.538,1.117 -3.572,1.675 -6.101,1.675 -2.473,0 -4.415,-0.792 -5.828,-2.375 -1.413,-1.595 -2.119,-3.834 -2.119,-6.717 0,-2.723 0.769,-4.939 2.307,-6.648 1.549,-1.72 3.469,-2.58 5.759,-2.58 2.29,0 4.062,0.74 5.315,2.222 1.253,1.481 1.88,3.537 1.88,6.169 z m -2.871,-2.376 c -0.011,-1.618 -0.405,-2.877 -1.179,-3.777 -0.764,-0.9 -1.829,-1.35 -3.196,-1.35 -1.322,0 -2.444,0.473 -3.367,1.419 -0.923,0.945 -1.492,2.182 -1.709,3.708 z m 16.252,-4.238 c -0.49,-0.376 -1.196,-0.564 -2.119,-0.564 -1.196,0 -2.199,0.564 -3.008,1.692 -0.797,1.128 -1.196,2.666 -1.196,4.614 v 8.921 h -2.803 v -17.5 h 2.803 v 3.606 h 0.068 c 0.399,-1.231 1.009,-2.188 1.829,-2.871 0.82,-0.695 1.738,-1.043 2.752,-1.043 0.729,0 1.287,0.08 1.674,0.24 z m 17.979,13.262 c 0,6.425 -3.076,9.638 -9.229,9.638 -2.164,0 -4.056,-0.41 -5.673,-1.23 v -2.803 c 1.971,1.094 3.85,1.641 5.639,1.641 4.307,0 6.46,-2.29 6.46,-6.87 v -1.914 h -0.068 c -1.333,2.233 -3.338,3.349 -6.016,3.349 -2.176,0 -3.931,-0.775 -5.264,-2.324 -1.321,-1.561 -1.982,-3.652 -1.982,-6.272 0,-2.974 0.712,-5.338 2.136,-7.092 1.436,-1.755 3.395,-2.632 5.879,-2.632 2.359,0 4.107,0.945 5.247,2.837 h 0.068 v -2.427 h 2.803 z m -2.803,-6.512 v -2.58 c 0,-1.39 -0.473,-2.581 -1.418,-3.572 -0.935,-0.991 -2.102,-1.487 -3.504,-1.487 -1.732,0 -3.087,0.633 -4.067,1.897 -0.98,1.253 -1.47,3.014 -1.47,5.281 0,1.948 0.467,3.509 1.402,4.683 0.945,1.162 2.193,1.743 3.742,1.743 1.572,0 2.848,-0.559 3.828,-1.675 0.992,-1.117 1.487,-2.546 1.487,-4.29 z m 22.542,-0.136 h -12.356 c 0.045,1.948 0.569,3.452 1.572,4.511 1.003,1.06 2.381,1.59 4.136,1.59 1.971,0 3.782,-0.65 5.434,-1.948 v 2.631 c -1.538,1.117 -3.572,1.675 -6.101,1.675 -2.472,0 -4.415,-0.792 -5.827,-2.375 -1.413,-1.595 -2.12,-3.834 -2.12,-6.717 0,-2.723 0.769,-4.939 2.308,-6.648 1.549,-1.72 3.469,-2.58 5.759,-2.58 2.29,0 4.061,0.74 5.315,2.222 1.253,1.481 1.88,3.537 1.88,6.169 z m -2.871,-2.376 c -0.012,-1.618 -0.405,-2.877 -1.18,-3.777 -0.763,-0.9 -1.828,-1.35 -3.195,-1.35 -1.322,0 -2.444,0.473 -3.367,1.419 -0.923,0.945 -1.493,2.182 -1.709,3.708 z m 21.652,10.425 h -2.802 v -9.98 c 0,-3.715 -1.356,-5.572 -4.068,-5.572 -1.401,0 -2.563,0.53 -3.486,1.59 -0.912,1.048 -1.367,2.375 -1.367,3.982 v 9.98 h -2.803 v -17.5 h 2.803 v 2.905 h 0.068 c 1.322,-2.21 3.236,-3.315 5.742,-3.315 1.914,0 3.378,0.621 4.392,1.863 1.014,1.23 1.521,3.013 1.521,5.349 z m 17.227,-0.803 c -1.344,0.809 -2.94,1.213 -4.785,1.213 -2.495,0 -4.512,-0.809 -6.05,-2.427 -1.527,-1.629 -2.29,-3.737 -2.29,-6.323 0,-2.882 0.826,-5.195 2.478,-6.938 1.652,-1.755 3.857,-2.632 6.614,-2.632 1.538,0 2.894,0.285 4.067,0.854 v 2.871 c -1.299,-0.911 -2.689,-1.367 -4.17,-1.367 -1.789,0 -3.258,0.644 -4.409,1.931 -1.139,1.276 -1.709,2.957 -1.709,5.042 0,2.051 0.536,3.669 1.606,4.853 1.083,1.185 2.53,1.778 4.341,1.778 1.527,0 2.963,-0.507 4.307,-1.521 z m 18.166,-16.697 -8.049,20.303 c -1.435,3.623 -3.452,5.434 -6.05,5.434 -0.729,0 -1.338,-0.074 -1.828,-0.222 v -2.512 c 0.604,0.205 1.156,0.308 1.657,0.308 1.413,0 2.473,-0.844 3.179,-2.53 l 1.401,-3.315 -6.835,-17.466 h 3.11 l 4.734,13.467 c 0.057,0.171 0.176,0.615 0.359,1.333 h 0.102 c 0.057,-0.274 0.171,-0.707 0.342,-1.299 l 4.973,-13.501 z m -101.15,63.475 c -1.812,0.957 -4.068,1.435 -6.768,1.435 -3.486,0 -6.278,-1.122 -8.374,-3.367 -2.096,-2.244 -3.144,-5.189 -3.144,-8.835 0,-3.919 1.179,-7.087 3.537,-9.502 2.359,-2.415 5.349,-3.623 8.972,-3.623 2.324,0 4.25,0.336 5.777,1.008 v 3.059 c -1.755,-0.979 -3.692,-1.469 -5.811,-1.469 -2.814,0 -5.098,0.94 -6.853,2.819 -1.743,1.88 -2.615,4.393 -2.615,7.537 0,2.985 0.815,5.366 2.444,7.144 1.641,1.766 3.788,2.649 6.443,2.649 2.461,0 4.592,-0.547 6.392,-1.641 z m 17.141,1.025 h -2.803 v -2.734 h -0.068 c -1.219,2.096 -3.014,3.144 -5.384,3.144 -1.743,0 -3.11,-0.461 -4.101,-1.384 -0.98,-0.923 -1.47,-2.148 -1.47,-3.674 0,-3.27 1.926,-5.173 5.776,-5.708 l 5.247,-0.735 c 0,-2.974 -1.202,-4.461 -3.606,-4.461 -2.108,0 -4.01,0.718 -5.708,2.154 v -2.872 c 1.72,-1.093 3.703,-1.64 5.947,-1.64 4.113,0 6.17,2.176 6.17,6.528 z m -2.803,-8.853 -4.221,0.582 c -1.299,0.182 -2.279,0.507 -2.94,0.974 -0.66,0.455 -0.991,1.27 -0.991,2.443 0,0.855 0.302,1.556 0.906,2.103 0.615,0.535 1.43,0.803 2.444,0.803 1.39,0 2.535,-0.484 3.435,-1.453 0.911,-0.98 1.367,-2.216 1.367,-3.708 z m 17.209,-5.81 c -0.489,-0.376 -1.196,-0.564 -2.119,-0.564 -1.196,0 -2.199,0.564 -3.007,1.692 -0.798,1.128 -1.197,2.666 -1.197,4.614 v 8.921 h -2.802 v -17.5 h 2.802 v 3.606 h 0.069 c 0.398,-1.231 1.008,-2.188 1.828,-2.871 0.821,-0.695 1.738,-1.043 2.752,-1.043 0.729,0 1.287,0.08 1.674,0.24 z m 17.979,14.663 h -2.803 v -2.974 h -0.068 c -1.299,2.256 -3.304,3.384 -6.016,3.384 -2.199,0 -3.959,-0.78 -5.28,-2.341 -1.311,-1.572 -1.966,-3.709 -1.966,-6.409 0,-2.894 0.729,-5.212 2.188,-6.955 1.458,-1.744 3.401,-2.615 5.827,-2.615 2.404,0 4.153,0.945 5.247,2.837 h 0.068 v -10.835 h 2.803 z m -2.803,-7.913 v -2.58 c 0,-1.413 -0.467,-2.609 -1.401,-3.589 -0.934,-0.98 -2.119,-1.47 -3.555,-1.47 -1.709,0 -3.053,0.627 -4.033,1.88 -0.98,1.253 -1.47,2.985 -1.47,5.195 0,2.017 0.467,3.612 1.402,4.786 0.945,1.162 2.21,1.743 3.794,1.743 1.56,0 2.825,-0.564 3.794,-1.692 0.979,-1.128 1.469,-2.552 1.469,-4.273 z"
                id="path1420" />
        </g>
    </a>
    <a xlink:href="./connection-24-7" class="capability-four">
        <g
            id="g1506">
            <path
            style="filter:url(#filter0_d)"
            d="m 566.92,700.477 c -53.078,30.901 -113.32,47.377 -174.73,47.791 -61.416,0.413 -121.87,-15.25 -175.36,-45.434 l 172.99,-306.56 z"
            fill="#4285f4"
            id="path1396" />
            <path
            style="fill:#ffffff"
            d="m 368.67,616.567 c 0,-0.752 -0.12,-1.407 -0.359,-1.965 -0.228,-0.559 -0.547,-1.02 -0.957,-1.385 -0.399,-0.376 -0.872,-0.655 -1.419,-0.837 -0.547,-0.182 -1.139,-0.274 -1.777,-0.274 -0.547,0 -1.082,0.075 -1.606,0.223 -0.525,0.148 -1.037,0.353 -1.539,0.615 -0.489,0.262 -0.968,0.575 -1.435,0.94 -0.456,0.364 -0.883,0.769 -1.282,1.213 v -3.008 c 0.786,-0.763 1.664,-1.344 2.632,-1.743 0.98,-0.41 2.17,-0.615 3.572,-0.615 1.002,0 1.931,0.148 2.785,0.444 0.855,0.285 1.596,0.707 2.222,1.265 0.627,0.558 1.117,1.248 1.47,2.068 0.364,0.82 0.547,1.76 0.547,2.82 0,0.968 -0.114,1.845 -0.342,2.632 -0.217,0.786 -0.553,1.526 -1.008,2.221 -0.445,0.695 -1.009,1.362 -1.692,2 -0.684,0.638 -1.487,1.287 -2.41,1.948 -1.151,0.82 -2.102,1.521 -2.854,2.102 -0.74,0.581 -1.333,1.128 -1.777,1.641 -0.433,0.501 -0.741,1.008 -0.923,1.521 -0.171,0.501 -0.256,1.082 -0.256,1.743 h 12.202 v 2.512 h -15.125 v -1.213 c 0,-1.049 0.114,-1.971 0.342,-2.769 0.228,-0.797 0.604,-1.555 1.128,-2.273 0.524,-0.718 1.208,-1.435 2.051,-2.153 0.854,-0.718 1.897,-1.527 3.127,-2.427 0.889,-0.638 1.629,-1.248 2.222,-1.829 0.604,-0.581 1.088,-1.162 1.452,-1.743 0.365,-0.581 0.621,-1.168 0.769,-1.76 0.16,-0.604 0.24,-1.242 0.24,-1.914 z m 20.2,-6.426 v 16.184 h 3.144 v 2.564 h -3.144 v 5.759 h -2.769 v -5.759 h -11.518 v -2.427 c 1.071,-1.208 2.153,-2.495 3.247,-3.862 1.094,-1.379 2.136,-2.775 3.127,-4.187 1.003,-1.413 1.926,-2.82 2.769,-4.222 0.854,-1.412 1.572,-2.762 2.153,-4.05 z m -11.126,16.184 h 8.357 v -11.997 c -0.854,1.493 -1.663,2.826 -2.426,3.999 -0.764,1.174 -1.493,2.239 -2.188,3.196 -0.683,0.957 -1.339,1.823 -1.965,2.598 -0.627,0.774 -1.219,1.509 -1.778,2.204 z m 29.361,-16.184 -11.758,28.574 h -2.615 l 11.724,-28.574 z m 17.004,1.624 c -0.376,0.649 -0.832,1.458 -1.367,2.426 -0.524,0.969 -1.082,2.057 -1.675,3.265 -0.592,1.207 -1.196,2.506 -1.811,3.896 -0.616,1.39 -1.191,2.826 -1.726,4.307 -0.536,1.481 -1.009,2.985 -1.419,4.511 -0.399,1.516 -0.689,3.008 -0.871,4.478 h -3.008 c 0.205,-1.458 0.518,-2.945 0.94,-4.46 0.433,-1.527 0.917,-3.02 1.452,-4.478 0.547,-1.47 1.123,-2.882 1.726,-4.238 0.604,-1.356 1.191,-2.604 1.761,-3.743 0.569,-1.139 1.088,-2.142 1.555,-3.008 0.478,-0.877 0.86,-1.561 1.145,-2.051 h -12.288 v -2.529 h 15.586 z m -102.11,68.858 c -1.811,0.957 -4.067,1.435 -6.767,1.435 -3.487,0 -6.278,-1.122 -8.374,-3.367 -2.097,-2.244 -3.145,-5.189 -3.145,-8.835 0,-3.919 1.179,-7.087 3.538,-9.502 2.358,-2.415 5.349,-3.623 8.972,-3.623 2.324,0 4.25,0.336 5.776,1.008 v 3.059 c -1.754,-0.979 -3.691,-1.469 -5.81,-1.469 -2.814,0 -5.099,0.94 -6.853,2.819 -1.743,1.88 -2.615,4.393 -2.615,7.537 0,2.985 0.815,5.366 2.444,7.144 1.641,1.766 3.788,2.649 6.443,2.649 2.461,0 4.591,-0.547 6.391,-1.641 z m 11.929,1.435 c -2.586,0 -4.654,-0.814 -6.204,-2.444 -1.538,-1.64 -2.307,-3.811 -2.307,-6.511 0,-2.939 0.804,-5.235 2.41,-6.887 1.606,-1.652 3.777,-2.478 6.511,-2.478 2.609,0 4.643,0.803 6.101,2.41 1.47,1.606 2.205,3.833 2.205,6.682 0,2.791 -0.792,5.03 -2.376,6.716 -1.572,1.675 -3.685,2.512 -6.34,2.512 z m 0.205,-15.962 c -1.8,0 -3.224,0.615 -4.272,1.846 -1.048,1.219 -1.573,2.905 -1.573,5.059 0,2.073 0.53,3.708 1.59,4.904 1.059,1.197 2.478,1.795 4.255,1.795 1.812,0 3.202,-0.587 4.17,-1.76 0.98,-1.174 1.47,-2.843 1.47,-5.008 0,-2.187 -0.49,-3.874 -1.47,-5.058 -0.968,-1.185 -2.358,-1.778 -4.17,-1.778 z m 27.515,15.552 h -2.803 v -9.98 c 0,-3.715 -1.356,-5.572 -4.067,-5.572 -1.402,0 -2.564,0.53 -3.487,1.59 -0.911,1.048 -1.367,2.375 -1.367,3.982 v 9.98 h -2.803 v -17.5 h 2.803 v 2.905 h 0.069 c 1.321,-2.21 3.235,-3.315 5.742,-3.315 1.914,0 3.378,0.621 4.392,1.863 1.014,1.23 1.521,3.013 1.521,5.349 z m 19.824,0 h -2.803 v -9.98 c 0,-3.715 -1.356,-5.572 -4.067,-5.572 -1.401,0 -2.564,0.53 -3.486,1.59 -0.912,1.048 -1.368,2.375 -1.368,3.982 v 9.98 h -2.802 v -17.5 h 2.802 v 2.905 h 0.069 c 1.321,-2.21 3.235,-3.315 5.742,-3.315 1.914,0 3.378,0.621 4.392,1.863 1.014,1.23 1.521,3.013 1.521,5.349 z m 19.363,-8.049 h -12.356 c 0.045,1.948 0.57,3.452 1.572,4.511 1.003,1.06 2.381,1.59 4.136,1.59 1.971,0 3.782,-0.65 5.434,-1.948 v 2.631 c -1.538,1.117 -3.571,1.675 -6.101,1.675 -2.472,0 -4.415,-0.792 -5.827,-2.375 -1.413,-1.595 -2.119,-3.834 -2.119,-6.717 0,-2.723 0.769,-4.939 2.307,-6.648 1.549,-1.72 3.469,-2.58 5.759,-2.58 2.29,0 4.062,0.74 5.315,2.222 1.253,1.481 1.88,3.537 1.88,6.169 z m -2.871,-2.376 c -0.012,-1.618 -0.405,-2.877 -1.179,-3.777 -0.764,-0.9 -1.829,-1.35 -3.196,-1.35 -1.322,0 -2.444,0.473 -3.367,1.419 -0.923,0.945 -1.492,2.182 -1.709,3.708 z m 19.055,9.622 c -1.345,0.809 -2.94,1.213 -4.785,1.213 -2.495,0 -4.512,-0.809 -6.05,-2.427 -1.527,-1.629 -2.29,-3.737 -2.29,-6.323 0,-2.882 0.826,-5.195 2.478,-6.938 1.652,-1.755 3.857,-2.632 6.614,-2.632 1.538,0 2.894,0.285 4.067,0.854 v 2.871 c -1.299,-0.911 -2.689,-1.367 -4.17,-1.367 -1.789,0 -3.258,0.644 -4.409,1.931 -1.139,1.276 -1.709,2.957 -1.709,5.042 0,2.051 0.535,3.669 1.606,4.853 1.083,1.185 2.53,1.778 4.341,1.778 1.527,0 2.962,-0.507 4.307,-1.521 z m 12.356,0.632 c -0.661,0.365 -1.533,0.547 -2.615,0.547 -3.065,0 -4.597,-1.709 -4.597,-5.127 v -10.356 h -3.008 v -2.393 h 3.008 v -4.272 l 2.803,-0.906 v 5.178 h 4.409 v 2.393 h -4.409 v 9.86 c 0,1.174 0.199,2.011 0.598,2.513 0.399,0.501 1.059,0.752 1.982,0.752 0.707,0 1.316,-0.194 1.829,-0.581 z m 5.178,-21.772 c -0.501,0 -0.928,-0.171 -1.282,-0.513 -0.353,-0.342 -0.529,-0.775 -0.529,-1.299 0,-0.524 0.176,-0.957 0.529,-1.299 0.354,-0.353 0.781,-0.529 1.282,-0.529 0.513,0 0.946,0.176 1.299,0.529 0.364,0.342 0.547,0.775 0.547,1.299 0,0.501 -0.183,0.929 -0.547,1.282 -0.353,0.353 -0.786,0.53 -1.299,0.53 z m 1.367,21.943 h -2.802 v -17.5 h 2.802 z m 12.989,0.41 c -2.587,0 -4.655,-0.814 -6.204,-2.444 -1.538,-1.64 -2.307,-3.811 -2.307,-6.511 0,-2.939 0.803,-5.235 2.409,-6.887 1.607,-1.652 3.777,-2.478 6.512,-2.478 2.609,0 4.642,0.803 6.101,2.41 1.47,1.606 2.204,3.833 2.204,6.682 0,2.791 -0.791,5.03 -2.375,6.716 -1.572,1.675 -3.686,2.512 -6.34,2.512 z m 0.205,-15.962 c -1.801,0 -3.225,0.615 -4.273,1.846 -1.048,1.219 -1.572,2.905 -1.572,5.059 0,2.073 0.53,3.708 1.589,4.904 1.06,1.197 2.478,1.795 4.256,1.795 1.811,0 3.201,-0.587 4.17,-1.76 0.979,-1.174 1.469,-2.843 1.469,-5.008 0,-2.187 -0.49,-3.874 -1.469,-5.058 -0.969,-1.185 -2.359,-1.778 -4.17,-1.778 z m 27.514,15.552 h -2.802 v -9.98 c 0,-3.715 -1.356,-5.572 -4.068,-5.572 -1.401,0 -2.563,0.53 -3.486,1.59 -0.912,1.048 -1.367,2.375 -1.367,3.982 v 9.98 h -2.803 v -17.5 h 2.803 v 2.905 h 0.068 c 1.322,-2.21 3.236,-3.315 5.742,-3.315 1.914,0 3.378,0.621 4.392,1.863 1.014,1.23 1.521,3.013 1.521,5.349 z"
            id="path1422" />
        </g>
    </a>
    <a xlink:href="./expert-at-home" class="capability-five">
        <g
            id="g1502">
            <path
            style="filter:url(#filter0_d)"
            d="M 209.26,699.187 C 155.753,669.035 111.065,625.409 79.64,572.637 48.215,519.865 31.139,459.797 30.115,398.387 l 351.95,-5.87 z"
            fill="#00b4a4"
            id="path1400" />
            <path
            style="fill:#ffffff"
            d="M 113.32,506.647 H 100.331 V 482.14 h 12.442 v 2.598 h -9.57 v 8.152 h 8.852 v 2.58 h -8.852 v 8.579 h 10.117 z m 17.124,-17.5 -5.879,8.853 5.776,8.647 h -3.264 l -3.435,-5.674 c -0.216,-0.353 -0.473,-0.797 -0.769,-1.333 h -0.068 c -0.057,0.103 -0.325,0.547 -0.804,1.333 l -3.503,5.674 h -3.23 l 5.964,-8.579 -5.708,-8.921 h 3.265 l 3.383,5.981 c 0.251,0.445 0.496,0.901 0.735,1.368 h 0.069 l 4.375,-7.349 z m 6.152,14.971 h -0.068 v 10.578 h -2.803 v -25.549 h 2.803 v 3.076 h 0.068 c 1.379,-2.324 3.395,-3.486 6.05,-3.486 2.256,0 4.016,0.786 5.281,2.358 1.264,1.561 1.897,3.657 1.897,6.289 0,2.928 -0.712,5.275 -2.137,7.041 -1.424,1.755 -3.372,2.632 -5.844,2.632 -2.268,0 -4.016,-0.98 -5.247,-2.939 z m -0.068,-7.058 v 2.443 c 0,1.447 0.467,2.678 1.401,3.692 0.946,1.002 2.142,1.504 3.589,1.504 1.698,0 3.025,-0.65 3.982,-1.948 0.968,-1.299 1.453,-3.105 1.453,-5.418 0,-1.948 -0.45,-3.475 -1.351,-4.58 -0.9,-1.105 -2.119,-1.658 -3.657,-1.658 -1.629,0 -2.939,0.57 -3.93,1.709 -0.992,1.128 -1.487,2.547 -1.487,4.256 z m 31.838,1.538 H 156.01 c 0.046,1.948 0.57,3.452 1.572,4.511 1.003,1.06 2.382,1.59 4.136,1.59 1.971,0 3.783,-0.65 5.435,-1.948 v 2.631 c -1.538,1.117 -3.572,1.675 -6.101,1.675 -2.473,0 -4.415,-0.792 -5.828,-2.375 -1.413,-1.595 -2.119,-3.834 -2.119,-6.717 0,-2.723 0.769,-4.939 2.307,-6.648 1.55,-1.72 3.469,-2.58 5.759,-2.58 2.29,0 4.062,0.74 5.315,2.222 1.254,1.481 1.88,3.537 1.88,6.169 z m -2.871,-2.376 c -0.011,-1.618 -0.404,-2.877 -1.179,-3.777 -0.763,-0.9 -1.829,-1.35 -3.196,-1.35 -1.322,0 -2.444,0.473 -3.367,1.419 -0.922,0.945 -1.492,2.182 -1.709,3.708 z m 16.253,-4.238 c -0.49,-0.376 -1.197,-0.564 -2.12,-0.564 -1.196,0 -2.199,0.564 -3.007,1.692 -0.798,1.128 -1.197,2.666 -1.197,4.614 v 8.921 h -2.802 v -17.5 h 2.802 v 3.606 h 0.069 c 0.398,-1.231 1.008,-2.188 1.828,-2.871 0.821,-0.695 1.738,-1.043 2.752,-1.043 0.729,0 1.287,0.08 1.675,0.24 z m 11.159,14.492 c -0.661,0.365 -1.532,0.547 -2.615,0.547 -3.064,0 -4.597,-1.709 -4.597,-5.127 V 491.54 h -3.008 v -2.393 h 3.008 v -4.272 l 2.803,-0.906 v 5.178 h 4.409 v 2.393 h -4.409 v 9.86 c 0,1.174 0.199,2.011 0.598,2.513 0.399,0.501 1.06,0.752 1.983,0.752 0.706,0 1.315,-0.194 1.828,-0.581 z m 25.874,0.171 h -2.803 v -2.734 h -0.068 c -1.219,2.096 -3.013,3.144 -5.383,3.144 -1.743,0 -3.111,-0.461 -4.102,-1.384 -0.98,-0.923 -1.469,-2.148 -1.469,-3.674 0,-3.27 1.925,-5.173 5.776,-5.708 l 5.246,-0.735 c 0,-2.974 -1.202,-4.461 -3.605,-4.461 -2.108,0 -4.011,0.718 -5.709,2.154 v -2.872 c 1.721,-1.093 3.703,-1.64 5.948,-1.64 4.113,0 6.169,2.176 6.169,6.528 z m -2.803,-8.853 -4.221,0.582 c -1.299,0.182 -2.278,0.507 -2.939,0.974 -0.661,0.455 -0.991,1.27 -0.991,2.443 0,0.855 0.302,1.556 0.905,2.103 0.616,0.535 1.43,0.803 2.444,0.803 1.39,0 2.535,-0.484 3.435,-1.453 0.912,-0.98 1.367,-2.216 1.367,-3.708 z m 16.202,8.682 c -0.661,0.365 -1.533,0.547 -2.615,0.547 -3.065,0 -4.597,-1.709 -4.597,-5.127 V 491.54 h -3.008 v -2.393 h 3.008 v -4.272 l 2.802,-0.906 v 5.178 h 4.41 v 2.393 h -4.41 v 9.86 c 0,1.174 0.2,2.011 0.599,2.513 0.398,0.501 1.059,0.752 1.982,0.752 0.706,0 1.316,-0.194 1.829,-0.581 z m -92.354,47.171 h -2.871 V 542.47 h -12.681 v 11.177 h -2.871 V 529.14 h 2.871 v 10.75 h 12.681 v -10.75 h 2.871 z m 13.364,0.41 c -2.586,0 -4.654,-0.814 -6.203,-2.444 -1.538,-1.64 -2.307,-3.811 -2.307,-6.511 0,-2.939 0.803,-5.235 2.409,-6.887 1.607,-1.652 3.777,-2.478 6.512,-2.478 2.609,0 4.642,0.803 6.101,2.41 1.469,1.606 2.204,3.833 2.204,6.682 0,2.791 -0.792,5.03 -2.375,6.716 -1.573,1.675 -3.686,2.512 -6.341,2.512 z m 0.205,-15.962 c -1.8,0 -3.224,0.615 -4.272,1.846 -1.048,1.219 -1.572,2.905 -1.572,5.059 0,2.073 0.53,3.708 1.589,4.904 1.06,1.197 2.478,1.795 4.255,1.795 1.812,0 3.202,-0.587 4.17,-1.76 0.98,-1.174 1.47,-2.843 1.47,-5.008 0,-2.187 -0.49,-3.874 -1.47,-5.058 -0.968,-1.185 -2.358,-1.778 -4.17,-1.778 z m 37.837,15.552 h -2.802 v -10.049 c 0,-1.937 -0.302,-3.338 -0.906,-4.204 -0.593,-0.866 -1.595,-1.299 -3.008,-1.299 -1.196,0 -2.216,0.547 -3.059,1.641 -0.832,1.094 -1.248,2.404 -1.248,3.931 v 9.98 h -2.802 v -10.391 c 0,-3.44 -1.328,-5.161 -3.982,-5.161 -1.231,0 -2.245,0.519 -3.042,1.555 -0.798,1.026 -1.197,2.365 -1.197,4.017 v 9.98 h -2.802 v -17.5 h 2.802 v 2.769 h 0.069 c 1.242,-2.12 3.053,-3.179 5.434,-3.179 1.197,0 2.239,0.336 3.128,1.008 0.889,0.661 1.498,1.533 1.828,2.615 1.299,-2.415 3.236,-3.623 5.811,-3.623 3.851,0 5.776,2.375 5.776,7.126 z m 19.363,-8.049 h -12.356 c 0.046,1.948 0.57,3.452 1.572,4.511 1.003,1.06 2.382,1.59 4.136,1.59 1.971,0 3.783,-0.65 5.435,-1.948 v 2.631 c -1.538,1.117 -3.572,1.675 -6.101,1.675 -2.473,0 -4.415,-0.792 -5.828,-2.375 -1.413,-1.595 -2.119,-3.834 -2.119,-6.717 0,-2.723 0.769,-4.939 2.307,-6.648 1.55,-1.72 3.469,-2.58 5.759,-2.58 2.29,0 4.062,0.74 5.315,2.222 1.254,1.481 1.88,3.537 1.88,6.169 z m -2.871,-2.376 c -0.011,-1.618 -0.404,-2.877 -1.179,-3.777 -0.763,-0.9 -1.829,-1.35 -3.196,-1.35 -1.322,0 -2.444,0.473 -3.367,1.419 -0.922,0.945 -1.492,2.182 -1.709,3.708 z"
            id="path1424" />
        </g>
    </a>
  <a xlink:href="./medication-safety" class="capability-six">
        <g
            id="g1498">
            <path
                style="filter:url(#filter0_d)"
                d="m 30.11,391.707 c -1.511,-61.399 13.069,-122.12 42.292,-176.14 29.223,-54.02 72.071,-99.453 124.29,-131.79 l 185.31,299.27 z"
                fill="#00b4a4"
                id="path1404" />
            <path
                style="fill:#ffffff"
                d="m 115.55,270.647 h -2.854 v -16.44 c 0,-1.299 0.08,-2.889 0.239,-4.768 h -0.068 c -0.273,1.105 -0.518,1.896 -0.735,2.375 l -8.374,18.833 h -1.401 L 94,251.951 c -0.239,-0.547 -0.484,-1.385 -0.735,-2.512 h -0.068 c 0.091,0.979 0.136,2.58 0.136,4.802 v 16.406 H 90.565 V 246.14 h 3.794 l 7.519,17.09 c 0.581,1.31 0.957,2.29 1.128,2.939 h 0.103 c 0.49,-1.344 0.883,-2.347 1.179,-3.007 l 7.673,-17.022 h 3.589 z m 20.149,-8.049 h -12.356 c 0.046,1.948 0.57,3.452 1.572,4.511 1.003,1.06 2.382,1.59 4.136,1.59 1.971,0 3.783,-0.65 5.435,-1.948 v 2.631 c -1.538,1.117 -3.572,1.675 -6.101,1.675 -2.473,0 -4.415,-0.792 -5.828,-2.375 -1.413,-1.595 -2.119,-3.834 -2.119,-6.717 0,-2.723 0.769,-4.939 2.307,-6.648 1.549,-1.72 3.469,-2.58 5.759,-2.58 2.29,0 4.062,0.74 5.315,2.222 1.253,1.481 1.88,3.537 1.88,6.169 z m -2.871,-2.376 c -0.011,-1.618 -0.404,-2.877 -1.179,-3.777 -0.764,-0.9 -1.829,-1.35 -3.196,-1.35 -1.322,0 -2.444,0.473 -3.367,1.419 -0.923,0.945 -1.492,2.182 -1.709,3.708 z m 22.063,10.425 h -2.803 v -2.974 h -0.068 c -1.299,2.256 -3.304,3.384 -6.016,3.384 -2.199,0 -3.959,-0.78 -5.28,-2.341 -1.311,-1.572 -1.966,-3.709 -1.966,-6.409 0,-2.894 0.729,-5.212 2.188,-6.955 1.458,-1.744 3.401,-2.615 5.827,-2.615 2.404,0 4.153,0.945 5.247,2.837 h 0.068 v -10.835 h 2.803 z m -2.803,-7.913 v -2.58 c 0,-1.413 -0.467,-2.609 -1.401,-3.589 -0.934,-0.98 -2.119,-1.47 -3.555,-1.47 -1.709,0 -3.053,0.627 -4.033,1.88 -0.98,1.253 -1.47,2.985 -1.47,5.195 0,2.017 0.467,3.612 1.402,4.786 0.945,1.162 2.21,1.743 3.794,1.743 1.56,0 2.825,-0.564 3.794,-1.692 0.979,-1.128 1.469,-2.552 1.469,-4.273 z M 162,248.704 c -0.501,0 -0.928,-0.171 -1.281,-0.513 -0.354,-0.342 -0.53,-0.775 -0.53,-1.299 0,-0.524 0.176,-0.957 0.53,-1.299 0.353,-0.353 0.78,-0.529 1.281,-0.529 0.513,0 0.946,0.176 1.299,0.529 0.365,0.342 0.547,0.775 0.547,1.299 0,0.501 -0.182,0.929 -0.547,1.282 -0.353,0.353 -0.786,0.53 -1.299,0.53 z m 1.368,21.943 h -2.803 v -17.5 h 2.803 z m 17.602,-0.803 c -1.344,0.809 -2.939,1.213 -4.785,1.213 -2.495,0 -4.512,-0.809 -6.05,-2.427 -1.527,-1.629 -2.29,-3.737 -2.29,-6.323 0,-2.882 0.826,-5.195 2.478,-6.938 1.652,-1.755 3.857,-2.632 6.614,-2.632 1.538,0 2.894,0.285 4.067,0.854 v 2.871 c -1.299,-0.911 -2.689,-1.367 -4.17,-1.367 -1.788,0 -3.258,0.644 -4.409,1.931 -1.139,1.276 -1.709,2.957 -1.709,5.042 0,2.051 0.536,3.669 1.607,4.853 1.082,1.185 2.529,1.778 4.34,1.778 1.527,0 2.963,-0.507 4.307,-1.521 z m 16.765,0.803 h -2.802 v -2.734 h -0.069 c -1.219,2.096 -3.013,3.144 -5.383,3.144 -1.743,0 -3.11,-0.461 -4.102,-1.384 -0.98,-0.923 -1.469,-2.148 -1.469,-3.674 0,-3.27 1.925,-5.173 5.776,-5.708 l 5.247,-0.735 c 0,-2.974 -1.202,-4.461 -3.606,-4.461 -2.108,0 -4.011,0.718 -5.708,2.154 v -2.872 c 1.72,-1.093 3.702,-1.64 5.947,-1.64 4.113,0 6.169,2.176 6.169,6.528 z m -2.802,-8.853 -4.222,0.582 c -1.299,0.182 -2.278,0.507 -2.939,0.974 -0.661,0.455 -0.991,1.27 -0.991,2.443 0,0.855 0.302,1.556 0.905,2.103 0.616,0.535 1.43,0.803 2.444,0.803 1.39,0 2.535,-0.484 3.435,-1.453 0.912,-0.98 1.368,-2.216 1.368,-3.708 z m 16.201,8.682 c -0.661,0.365 -1.533,0.547 -2.615,0.547 -3.065,0 -4.597,-1.709 -4.597,-5.127 V 255.54 h -3.008 v -2.393 h 3.008 v -4.272 l 2.803,-0.906 v 5.178 h 4.409 v 2.393 h -4.409 v 9.86 c 0,1.174 0.199,2.011 0.598,2.513 0.398,0.501 1.059,0.752 1.982,0.752 0.706,0 1.316,-0.194 1.829,-0.581 z m 5.178,-21.772 c -0.501,0 -0.929,-0.171 -1.282,-0.513 -0.353,-0.342 -0.53,-0.775 -0.53,-1.299 0,-0.524 0.177,-0.957 0.53,-1.299 0.353,-0.353 0.781,-0.529 1.282,-0.529 0.513,0 0.946,0.176 1.299,0.529 0.364,0.342 0.547,0.775 0.547,1.299 0,0.501 -0.183,0.929 -0.547,1.282 -0.353,0.353 -0.786,0.53 -1.299,0.53 z m 1.367,21.943 h -2.803 v -17.5 h 2.803 z m 12.988,0.41 c -2.586,0 -4.654,-0.814 -6.203,-2.444 -1.538,-1.64 -2.307,-3.811 -2.307,-6.511 0,-2.939 0.803,-5.235 2.409,-6.887 1.607,-1.652 3.777,-2.478 6.512,-2.478 2.609,0 4.642,0.803 6.101,2.41 1.469,1.606 2.204,3.833 2.204,6.682 0,2.791 -0.792,5.03 -2.375,6.716 -1.573,1.675 -3.686,2.512 -6.341,2.512 z m 0.205,-15.962 c -1.8,0 -3.224,0.615 -4.272,1.846 -1.048,1.219 -1.572,2.905 -1.572,5.059 0,2.073 0.53,3.708 1.589,4.904 1.06,1.197 2.478,1.795 4.255,1.795 1.812,0 3.202,-0.587 4.17,-1.76 0.98,-1.174 1.47,-2.843 1.47,-5.008 0,-2.187 -0.49,-3.874 -1.47,-5.058 -0.968,-1.185 -2.358,-1.778 -4.17,-1.778 z m 27.515,15.552 h -2.803 v -9.98 c 0,-3.715 -1.355,-5.572 -4.067,-5.572 -1.401,0 -2.563,0.53 -3.486,1.59 -0.912,1.048 -1.368,2.375 -1.368,3.982 v 9.98 h -2.802 v -17.5 h 2.802 v 2.905 h 0.069 c 1.321,-2.21 3.236,-3.315 5.742,-3.315 1.914,0 3.378,0.621 4.392,1.863 1.014,1.23 1.521,3.013 1.521,5.349 z m -129.47,46.009 v -3.384 c 0.388,0.342 0.849,0.649 1.385,0.923 0.547,0.273 1.116,0.507 1.709,0.701 0.604,0.182 1.207,0.324 1.811,0.427 0.604,0.102 1.162,0.154 1.675,0.154 1.766,0 3.082,-0.325 3.948,-0.975 0.877,-0.66 1.316,-1.606 1.316,-2.836 0,-0.661 -0.148,-1.237 -0.445,-1.727 -0.284,-0.489 -0.683,-0.934 -1.196,-1.333 -0.513,-0.41 -1.122,-0.797 -1.829,-1.162 -0.695,-0.376 -1.446,-0.769 -2.255,-1.179 -0.855,-0.433 -1.652,-0.871 -2.393,-1.316 -0.741,-0.444 -1.384,-0.934 -1.931,-1.469 -0.547,-0.536 -0.98,-1.14 -1.299,-1.812 -0.308,-0.684 -0.461,-1.481 -0.461,-2.393 0,-1.116 0.245,-2.085 0.734,-2.905 0.49,-0.832 1.134,-1.515 1.932,-2.051 0.797,-0.535 1.703,-0.934 2.717,-1.196 1.025,-0.262 2.068,-0.393 3.127,-0.393 2.416,0 4.176,0.291 5.281,0.872 v 3.23 c -1.447,-1.003 -3.304,-1.504 -5.571,-1.504 -0.627,0 -1.253,0.068 -1.88,0.205 -0.627,0.125 -1.185,0.336 -1.675,0.632 -0.49,0.296 -0.889,0.678 -1.196,1.145 -0.308,0.467 -0.462,1.037 -0.462,1.709 0,0.627 0.114,1.168 0.342,1.624 0.24,0.455 0.587,0.871 1.043,1.247 0.455,0.376 1.008,0.741 1.657,1.094 0.661,0.353 1.419,0.74 2.273,1.162 0.878,0.433 1.709,0.889 2.496,1.367 0.786,0.479 1.475,1.009 2.067,1.59 0.593,0.581 1.06,1.224 1.402,1.931 0.353,0.706 0.53,1.515 0.53,2.426 0,1.208 -0.24,2.234 -0.718,3.077 -0.467,0.831 -1.105,1.509 -1.914,2.033 -0.798,0.524 -1.721,0.9 -2.769,1.128 -1.048,0.24 -2.153,0.359 -3.315,0.359 -0.388,0 -0.866,-0.034 -1.436,-0.102 -0.57,-0.057 -1.151,-0.148 -1.743,-0.274 -0.592,-0.114 -1.156,-0.256 -1.692,-0.427 -0.524,-0.182 -0.946,-0.382 -1.265,-0.598 z m 31.89,0.991 h -2.803 v -2.734 h -0.068 c -1.219,2.096 -3.014,3.144 -5.383,3.144 -1.743,0 -3.111,-0.461 -4.102,-1.384 -0.98,-0.923 -1.47,-2.148 -1.47,-3.674 0,-3.27 1.926,-5.173 5.777,-5.708 l 5.246,-0.735 c 0,-2.974 -1.202,-4.461 -3.606,-4.461 -2.107,0 -4.01,0.718 -5.708,2.154 v -2.872 c 1.721,-1.093 3.703,-1.64 5.948,-1.64 4.113,0 6.169,2.176 6.169,6.528 z m -2.803,-8.853 -4.221,0.582 c -1.299,0.182 -2.278,0.507 -2.939,0.974 -0.661,0.455 -0.991,1.27 -0.991,2.443 0,0.855 0.301,1.556 0.905,2.103 0.616,0.535 1.43,0.803 2.444,0.803 1.39,0 2.535,-0.484 3.435,-1.453 0.912,-0.98 1.367,-2.216 1.367,-3.708 z M 174.735,294.2 c -0.547,-0.308 -1.167,-0.462 -1.862,-0.462 -1.96,0 -2.94,1.236 -2.94,3.709 v 2.7 h 4.102 v 2.393 h -4.102 v 15.107 h -2.786 V 302.54 h -2.99 v -2.393 h 2.99 v -2.837 c 0,-1.834 0.53,-3.281 1.59,-4.341 1.059,-1.071 2.381,-1.606 3.965,-1.606 0.854,0 1.532,0.102 2.033,0.307 z m 16.389,15.398 h -12.355 c 0.045,1.948 0.569,3.452 1.572,4.511 1.002,1.06 2.381,1.59 4.136,1.59 1.971,0 3.782,-0.65 5.434,-1.948 v 2.631 c -1.538,1.117 -3.572,1.675 -6.101,1.675 -2.472,0 -4.415,-0.792 -5.828,-2.375 -1.412,-1.595 -2.119,-3.834 -2.119,-6.717 0,-2.723 0.769,-4.939 2.307,-6.648 1.55,-1.72 3.47,-2.58 5.76,-2.58 2.29,0 4.061,0.74 5.315,2.222 1.253,1.481 1.879,3.537 1.879,6.169 z m -2.871,-2.376 c -0.011,-1.618 -0.404,-2.877 -1.179,-3.777 -0.763,-0.9 -1.828,-1.35 -3.196,-1.35 -1.321,0 -2.443,0.473 -3.366,1.419 -0.923,0.945 -1.493,2.182 -1.709,3.708 z m 15.245,10.254 c -0.661,0.365 -1.533,0.547 -2.615,0.547 -3.065,0 -4.597,-1.709 -4.597,-5.127 V 302.54 h -3.008 v -2.393 h 3.008 v -4.272 l 2.802,-0.906 v 5.178 h 4.41 v 2.393 h -4.41 v 9.86 c 0,1.174 0.2,2.011 0.598,2.513 0.399,0.501 1.06,0.752 1.983,0.752 0.706,0 1.316,-0.194 1.829,-0.581 z m 17.67,-17.329 -8.049,20.303 c -1.435,3.623 -3.452,5.434 -6.05,5.434 -0.729,0 -1.338,-0.074 -1.828,-0.222 v -2.512 c 0.604,0.205 1.156,0.308 1.657,0.308 1.413,0 2.473,-0.844 3.179,-2.53 l 1.401,-3.315 -6.835,-17.466 h 3.11 l 4.734,13.467 c 0.057,0.171 0.176,0.615 0.359,1.333 h 0.102 c 0.057,-0.274 0.171,-0.707 0.342,-1.299 l 4.973,-13.501 z"
                id="path1426" />
        </g>
    </a>
  <circle
     id="circle1428"
     r="95.5"
     cy="386.147"
     cx="393.10001"
     style="fill:#ffffff;filter:url(#filter0_d)" />
  <defs
     id="defs1449">
    <filter
       filterUnits="userSpaceOnUse"
       color-interpolation-filters="sRGB"
       height="1017.9"
       width="1011"
       y="-6"
       x="0"
       id="filter0_d">
      <feFlood
         id="feFlood1434"
         result="BackgroundImageFix"
         flood-opacity="0" />
      <feColorMatrix
         id="feColorMatrix1436"
         values="0 0 0 0 0 0 0 0 0 0 0 0 0 0 0 0 0 0 127 0"
         in="SourceAlpha" />
      <feOffset
         id="feOffset1438"
         dy="0"
         dx="0" />
      <feGaussianBlur
         id="feGaussianBlur1440"
         stdDeviation="10" />
      <feColorMatrix
         id="feColorMatrix1442"
         values="0 0 0 0 0 0 0 0 0 0 0 0 0 0 0 0 0 0 0.36 0" />
      <feBlend
         id="feBlend1444"
         result="effect1_dropShadow"
         in2="BackgroundImageFix" />
      <feBlend
         id="feBlend1446"
         result="shape"
         in2="effect1_dropShadow"
         in="SourceGraphic" />
    </filter>
    <mask
       fill="white"
       id="mask1394">
      <path
         d="m664.32 800.83c-53.078 30.901-113.32 47.377-174.73 47.791-61.416 0.413-121.87-15.25-175.36-45.434l172.99-306.56z"
         id="path1392" />
    </mask>
  </defs>
</svg>
