<?xml version="1.0" standalone="no"?>
<!DOCTYPE svg PUBLIC "-//W3C//DTD SVG 20010904//EN"
 "http://www.w3.org/TR/2001/REC-SVG-20010904/DTD/svg10.dtd">
<svg version="1.0" xmlns="http://www.w3.org/2000/svg"
 width="260.000000pt" height="260.000000pt" viewBox="0 0 260.000000 260.000000"
 preserveAspectRatio="xMidYMid meet">
<metadata>
Created by potrace 1.11, written by Peter Selinger 2001-2013
</metadata>
<g transform="translate(0.000000,260.000000) scale(0.100000,-0.100000)"
fill="#000000" stroke="none">
<path d="M287 2593 c-3 -4 -5 -43 -5 -86 l1 -77 31 -1 c17 -1 173 -2 346 -4
371 -3 473 -9 597 -36 180 -39 292 -87 428 -184 229 -163 356 -369 431 -700
13 -59 13 -348 -1 -427 -42 -235 -139 -425 -299 -584 -162 -162 -349 -254
-596 -294 -41 -6 -86 -14 -100 -17 -14 -3 -200 -7 -415 -9 -214 -2 -397 -3
-406 -4 -14 0 -17 -12 -15 -82 l1 -83 385 -2 c400 -1 475 3 650 38 330 65 563
208 750 460 167 225 250 501 245 811 -3 122 -5 153 -20 228 -3 14 -7 35 -9 47
-21 108 -83 275 -142 380 -147 263 -424 482 -716 567 -190 55 -231 59 -699 63
-240 3 -439 1 -442 -4z"/>
<path d="M884 1887 c-2 -106 -24 -163 -121 -314 -42 -65 -93 -147 -114 -183
-70 -119 -102 -258 -87 -370 26 -203 218 -364 420 -355 62 3 127 15 134 26 3
5 12 9 20 9 21 0 96 53 139 98 66 69 116 202 110 294 -16 234 -107 444 -283
655 -48 57 -144 156 -193 200 l-24 22 -1 -82z"/>
</g>
</svg>
