<svg width="18" height="18" viewBox="0 0 18 18" fill="none" xmlns="http://www.w3.org/2000/svg">
<g clip-path="url(#clip0_1311:18510)">
<path d="M17.873 9.39413C17.6181 10.0088 17.0232 10.4058 16.3574 10.4058H14.1676V12.445C14.1676 12.8334 13.8528 13.1482 13.4644 13.1482C13.0761 13.1482 12.7612 12.8334 12.7612 12.445V9.70271C12.7612 9.31435 13.0761 8.99959 13.4644 8.99959H16.3574C16.4938 8.99959 16.5516 8.90936 16.5739 8.85553C16.6009 8.7903 16.6141 8.69362 16.5236 8.60298L9.54082 1.61115C9.26616 1.33704 8.81847 1.33704 8.54312 1.61183L1.47301 8.60504C1.38457 8.69334 1.39775 8.79016 1.42467 8.85539C1.44705 8.90923 1.50473 8.99959 1.64137 8.99959H4.67497C5.06334 8.99959 5.3781 9.31448 5.3781 9.70271V12.445C5.3781 12.8334 5.06334 13.1483 4.67497 13.1483C4.28661 13.1483 3.97171 12.8334 3.97171 12.445V10.406H1.64137C0.974914 10.406 0.379867 10.0083 0.125259 9.39304C-0.129075 8.77849 0.0108636 8.07756 0.481765 7.60748L7.55188 0.614411C8.37256 -0.205169 9.71193 -0.205169 10.5351 0.616608L17.5187 7.60927C17.9885 8.07976 18.1275 8.78027 17.873 9.39413V9.39413ZM4.67497 16.5938C4.28661 16.5938 3.97171 16.9085 3.97171 17.2969C3.97171 17.6852 4.28661 18 4.67497 18C5.06334 18 5.3781 17.6852 5.3781 17.2969C5.3781 16.9085 5.06334 16.5938 4.67497 16.5938ZM4.67497 14.1327C4.28661 14.1327 3.97171 14.4474 3.97171 14.8358C3.97171 15.2242 4.28661 15.5389 4.67497 15.5389C5.06334 15.5389 5.3781 15.2242 5.3781 14.8358C5.3781 14.4474 5.06334 14.1327 4.67497 14.1327ZM13.4643 16.5938C13.0761 16.5938 12.7612 16.9085 12.7612 17.2969C12.7612 17.6852 13.0761 18 13.4643 18C13.8527 18 14.1676 17.6852 14.1676 17.2969C14.1676 16.9085 13.8527 16.5938 13.4643 16.5938ZM13.4643 14.1327C13.0761 14.1327 12.7612 14.4474 12.7612 14.8358C12.7612 15.2242 13.0761 15.5389 13.4643 15.5389C13.8527 15.5389 14.1676 15.2242 14.1676 14.8358C14.1676 14.4474 13.8527 14.1327 13.4643 14.1327ZM9.44359 8.96443H8.79924C8.48942 8.96443 8.22768 8.69074 8.22768 8.36678V8.11038C8.22768 7.79549 8.47336 7.55818 8.79924 7.55818H9.40843C9.58765 7.55818 9.77277 7.67807 9.77277 7.87871C9.77277 8.26694 10.0877 8.58183 10.4759 8.58183C10.8643 8.58183 11.1792 8.26694 11.1792 7.87871C11.1792 7.03592 10.5568 6.33279 9.73692 6.18214V5.72992C9.73692 5.34155 9.42216 5.02679 9.0338 5.02679C8.64543 5.02679 8.33067 5.34155 8.33067 5.72992V6.20631C7.98268 6.28844 7.6638 6.46188 7.40535 6.71484C7.02879 7.0833 6.82143 7.57892 6.82143 8.11038V8.36678C6.82143 9.47173 7.70857 10.3708 8.79924 10.3708H9.44359C9.76617 10.3708 10.0189 10.6154 10.0189 10.9277V11.3552C10.0189 11.7014 9.72951 11.8825 9.44359 11.8825H8.39632C8.22891 11.8825 8.0486 11.7863 8.0486 11.5749C8.0486 11.1866 7.73384 10.8718 7.34547 10.8718C6.95711 10.8718 6.64235 11.1866 6.64235 11.5749C6.64235 12.5145 7.37871 13.2546 8.33067 13.2873V13.6756C8.33067 14.064 8.64543 14.3788 9.0338 14.3788C9.42216 14.3788 9.73692 14.064 9.73692 13.6756V13.2685C10.7043 13.1339 11.4252 12.3419 11.4252 11.3552V10.9277C11.4252 10.3964 11.2173 9.90005 10.8397 9.53009C10.4672 9.16534 9.97134 8.96443 9.44359 8.96443V8.96443Z" fill="#FDC400"/>
</g>
<defs>
<clipPath id="clip0_1311:18510">
<rect width="18" height="18" fill="white"/>
</clipPath>
</defs>
</svg>
