<svg width="220" height="228" viewBox="0 0 220 228" fill="none" xmlns="http://www.w3.org/2000/svg">
<circle cx="100" cy="128" r="100" fill="#DEF1FA"/>
<g clip-path="url(#clip0_1311:17217)">
<path d="M148.793 150.078C145.897 150.441 142.939 150.625 140.001 150.625C136.943 150.625 133.71 150.431 130.896 150.078C128.326 149.757 125.984 151.578 125.662 154.147C125.34 156.715 127.162 159.059 129.73 159.381C132.919 159.78 136.566 160 140.001 160C143.327 160 146.677 159.792 149.958 159.381C152.527 159.059 154.349 156.716 154.027 154.147C153.705 151.578 151.363 149.757 148.793 150.078V150.078Z" fill="#0C9FDB"/>
<path d="M91.5399 143.773C96.8527 147.813 102.652 151.174 108.777 153.76C111.152 154.764 113.908 153.66 114.919 151.266C115.926 148.881 114.809 146.131 112.425 145.124C107.021 142.842 101.904 139.877 97.2149 136.311C95.1543 134.743 92.2133 135.144 90.6462 137.204C89.079 139.265 89.479 142.206 91.5399 143.773Z" fill="#0C9FDB"/>
<path d="M82.7958 129.042C84.8564 127.474 85.2567 124.534 83.6895 122.473C80.1233 117.783 77.1583 112.666 74.8761 107.263C73.8689 104.878 71.1189 103.761 68.7342 104.769C66.3492 105.776 65.2323 108.526 66.2398 110.911C68.8264 117.035 72.1867 122.835 76.227 128.147C77.7945 130.208 80.7351 130.608 82.7958 129.042Z" fill="#0C9FDB"/>
<path d="M60.6194 89.9578C60.9166 92.3287 62.9356 94.0631 65.2647 94.0631C68.0997 94.0631 70.2713 91.5819 69.9219 88.7925C69.5588 85.8969 69.375 82.9387 69.375 80C69.375 77.0612 69.5588 74.1031 69.9219 71.2078C70.2437 68.6391 68.4222 66.2956 65.8534 65.9741C63.2831 65.6519 60.9412 67.4737 60.6194 70.0425C60.2084 73.3231 60 76.6731 60 80C60 83.3269 60.2084 86.6769 60.6194 89.9578V89.9578Z" fill="#0C9FDB"/>
<path d="M82.7958 30.6463C80.7351 29.0791 77.7942 29.4794 76.227 31.5401C72.4379 36.5229 68.9842 42.5913 66.2398 49.0894C65.2323 51.4744 66.3492 54.2241 68.7342 55.2313C71.1142 56.2366 73.867 55.1263 74.8761 52.7369C77.3198 46.9504 80.3676 41.5829 83.6895 37.2147C85.2567 35.1541 84.8567 32.2135 82.7958 30.6463V30.6463Z" fill="#0C9FDB"/>
<path d="M201.25 80C201.25 46.2422 173.619 18.75 140 18.75C106.313 18.75 78.75 46.3169 78.75 80C78.75 113.761 106.378 141.25 140 141.25C173.888 141.25 201.25 113.54 201.25 80ZM180.148 112.812H177.812C175.149 112.812 172.812 110.622 172.812 108.125C172.812 100.371 166.504 94.0625 158.75 94.0625C156.165 94.0625 154.062 91.9597 154.062 89.375C154.062 86.7903 156.165 84.6875 158.75 84.6875H168.125C171.861 84.6875 175.421 83.2509 178.15 80.6425C180.955 77.9606 182.5 74.4028 182.5 70.625C182.5 68.0403 184.603 65.9375 187.188 65.9375H189.937C191.198 70.4112 191.875 75.1281 191.875 80C191.875 92.4378 187.473 103.866 180.148 112.812ZM140 28.125C141.58 28.125 143.143 28.2 144.688 28.3391V42.5C144.688 45.0847 142.585 47.1875 140 47.1875C136.264 47.1875 132.704 48.6241 129.975 51.2325C127.17 53.9144 125.625 57.4722 125.625 61.25C125.625 63.8347 123.522 65.9375 120.938 65.9375H111.562C103.808 65.9375 97.5 72.2459 97.5 80C97.5 87.7541 103.808 94.0625 111.562 94.0625C114.147 94.0625 116.25 96.1653 116.25 98.75C116.25 101.335 114.147 103.438 111.562 103.438H93.7297C90.1472 96.3937 88.125 88.4288 88.125 80C88.125 51.3959 111.396 28.125 140 28.125ZM99.8519 112.812H111.562C119.317 112.812 125.625 106.504 125.625 98.75C125.625 90.9959 119.317 84.6875 111.562 84.6875C108.978 84.6875 106.875 82.5847 106.875 80C106.875 77.4153 108.978 75.3125 111.562 75.3125H120.938C128.692 75.3125 135 69.0041 135 61.25C135 58.7528 137.337 56.5625 140 56.5625C147.754 56.5625 154.062 50.2541 154.062 42.5V30.0631C168.127 34.0291 179.785 43.7906 186.286 56.5947C178.951 57.0612 173.125 63.1741 173.125 70.625C173.125 73.1222 170.788 75.3125 168.125 75.3125H158.75C150.996 75.3125 144.688 81.6209 144.688 89.375C144.688 97.1291 150.996 103.438 158.75 103.438C161.335 103.438 163.438 105.54 163.438 108.125C163.438 111.903 164.982 115.461 167.788 118.142C169.002 119.303 170.382 120.231 171.868 120.904C163.068 127.775 152.004 131.875 140 131.875C123.834 131.875 109.373 124.441 99.8519 112.812V112.812Z" fill="#0C9FDB"/>
<path d="M140.001 0C126.578 0 113.331 3.37875 101.685 9.66031L102.055 8.14094C102.668 5.62563 101.126 3.09 98.6103 2.47719C96.0962 1.86469 93.559 3.40656 92.9462 5.92188L89.8034 18.8219C89.3337 20.7497 90.129 22.7647 91.7887 23.8522C93.4487 24.9397 95.6134 24.8644 97.1934 23.6637C109.322 14.4497 124.524 9.375 140.001 9.375C178.943 9.375 210.626 41.0572 210.626 80C210.626 107.87 194.193 133.734 167.278 145.118C167.275 145.119 167.271 145.121 167.268 145.122C167.267 145.123 167.265 145.123 167.264 145.124C164.88 146.131 163.762 148.879 164.768 151.264C165.769 153.637 168.511 154.771 170.907 153.762C201.585 140.834 220.001 111.12 220.001 80C220.001 35.9503 184.048 0 140.001 0Z" fill="#0C9FDB"/>
</g>
<defs>
<clipPath id="clip0_1311:17217">
<rect width="160" height="160" fill="white" transform="translate(60)"/>
</clipPath>
</defs>
</svg>
