<svg width="219" height="228" viewBox="0 0 219 228" fill="none" xmlns="http://www.w3.org/2000/svg">
<circle cx="100" cy="128" r="100" fill="#DEF1FA"/>
<g clip-path="url(#clip0_2757_23563)">
<path d="M138.998 0C107.983 0 82.75 25.3728 82.75 56.5606C82.75 70.7925 88.0653 83.8037 96.8122 93.7212V145.933C96.8122 149.428 100.499 151.674 103.596 150.126L115.562 144.143V155.308C115.562 158.784 119.229 161.058 122.345 159.501L138.998 151.174L155.651 159.5C158.75 161.05 162.435 158.806 162.435 155.307V144.142L174.401 150.125C177.495 151.673 181.184 149.437 181.184 145.932V93.7216C189.931 83.8041 195.246 70.7925 195.246 56.5609C195.246 25.3728 170.013 0 138.998 0ZM115.561 133.662L106.187 138.349V102.219C109.114 104.329 112.251 106.164 115.561 107.688V133.662ZM153.06 147.723L141.094 141.74C139.775 141.081 138.222 141.081 136.902 141.74L124.936 147.723V111.029C129.432 112.191 134.144 112.809 138.998 112.809C143.852 112.809 148.564 112.191 153.06 111.029V147.723ZM171.81 138.348L162.435 133.661V107.687C165.745 106.164 168.882 104.328 171.81 102.219V138.348ZM138.998 103.434C113.152 103.434 92.1247 82.4069 92.1247 56.5609C92.1247 30.5425 113.152 9.375 138.998 9.375C164.844 9.375 185.872 30.5425 185.872 56.5609C185.872 82.4069 164.844 103.434 138.998 103.434Z" fill="#0C9FDB"/>
<path d="M138.999 18.7495C118.312 18.7495 101.5 35.8495 101.5 56.5608C101.5 77.2376 118.322 94.0595 138.999 94.0595C159.676 94.0595 176.497 77.2376 176.497 56.5608C176.497 35.8723 159.711 18.7495 138.999 18.7495ZM138.999 84.6851C123.491 84.6851 110.875 72.0686 110.875 56.5611C110.875 40.8814 123.491 28.1245 138.999 28.1245C154.506 28.1245 167.123 40.8814 167.123 56.5611C167.123 72.0686 154.506 84.6851 138.999 84.6851Z" fill="#0C9FDB"/>
<path d="M140.793 38.1681C139.041 37.4422 137.025 37.8438 135.685 39.1841L126.31 48.5588C124.48 50.3894 124.48 53.3572 126.31 55.1875C128.141 57.0185 131.109 57.0185 132.939 55.1878L134.312 53.8147V70.6225C134.312 73.2113 136.411 75.31 139 75.31C141.589 75.31 143.687 73.2113 143.687 70.6225V42.4985C143.687 40.6028 142.545 38.8935 140.793 38.1681Z" fill="#0C9FDB"/>
</g>
<defs>
<clipPath id="clip0_2757_23563">
<rect width="160" height="160" fill="white" transform="translate(59)"/>
</clipPath>
</defs>
</svg>
