<svg width="220" height="228" viewBox="0 0 220 228" fill="none" xmlns="http://www.w3.org/2000/svg">
<circle cx="100" cy="128" r="100" fill="#DEF1FA"/>
<g clip-path="url(#clip0_1458_1390)">
<path d="M218.578 147.7L163.186 68.765C162.708 68.0834 162.129 67.4941 161.479 67.0066V50H200.541C202.244 50 203.812 49.0769 204.639 47.5891C205.465 46.1012 205.42 44.2816 204.521 42.8363L196.34 29.6875L204.521 16.5387C205.421 15.0934 205.466 13.2741 204.639 11.7859C203.812 10.2978 202.244 9.375 200.541 9.375H161.479V4.6875C161.479 2.09875 159.38 0 156.791 0C154.203 0 152.104 2.09875 152.104 4.6875V67.0066C151.454 67.4941 150.875 68.0834 150.396 68.765L124.325 105.918L114.273 91.9766C112.808 89.9456 110.439 88.7331 107.935 88.7331C105.432 88.7331 103.063 89.9456 101.598 91.9766L61.4804 147.618C59.757 150.009 59.5204 153.124 60.8633 155.747C62.2061 158.37 64.8708 160 67.8176 160H212.183C215.109 160 217.765 158.387 219.115 155.791C220.465 153.195 220.259 150.095 218.578 147.7ZM104.405 150.625L134.559 107.656L142.285 114.854C144.085 116.532 146.875 116.532 148.676 114.854L156.79 107.293L164.907 114.855C165.807 115.693 166.954 116.113 168.102 116.113C169.25 116.113 170.397 115.693 171.297 114.855L179.025 107.656L209.178 150.625H104.405ZM95.0051 147.7C94.3754 148.597 93.9529 149.593 93.7414 150.625H70.8704L107.935 99.2172L118.624 114.042L95.0051 147.7ZM156.791 75.9728L173.587 99.9075L168.102 105.018L159.985 97.4566C158.185 95.7794 155.395 95.7797 153.595 97.4569L145.48 105.018L139.996 99.9075L156.791 75.9728ZM192.104 18.75L186.839 27.2112C185.896 28.7275 185.896 30.6478 186.839 32.1641L192.104 40.625H161.479V18.75H192.104Z" fill="#0C9FDB"/>
</g>
<defs>
<clipPath id="clip0_1458_1390">
<rect width="160" height="160" fill="white" transform="translate(60)"/>
</clipPath>
</defs>
</svg>
