<?xml version="1.0" encoding="utf-8"?>
<!-- Generator: Adobe Illustrator 21.1.0, SVG Export Plug-In . SVG Version: 6.00 Build 0)  -->
<svg version="1.1" id="Layer_1" xmlns="http://www.w3.org/2000/svg" xmlns:xlink="http://www.w3.org/1999/xlink" x="0px" y="0px"
	 viewBox="0 0 588 253" style="enable-background:new 0 0 588 253;" xml:space="preserve">
<style type="text/css">
	.st0{fill:#F5B841;}
</style>
<g>
	<g>
		<path class="st0" d="M63,90.4c0,12.4-10.1,22.5-22.5,22.5S18,102.8,18,90.4c0-21.2,21.8-30.9,17.5-48.9C57.1,60.7,63,78,63,90.4z"
			/>
		<path d="M38,139.8c11.5,0,26.1-2.5,35.5-7.5c9.4-5,16.8-12.1,22.3-21.4c5.5-9.3,8.2-20.1,8.2-32.5c0-11.1-2.5-21.3-7.5-30.7
			S84.1,30.8,74.4,25.2c-9.7-5.6-22.8-8.4-36.4-8.4L3,16.6V7.2h35c17.3,0,31.7,3.5,43.1,10.6c11.4,7.1,19.7,16.1,25,27
			S114,67.1,114,79c0,13.9-3.2,26.1-9.5,36.8s-14.8,18.9-25.4,24.7c-10.6,5.8-28.8,8.7-41.1,8.7H3v-9.4H38z"/>
		<path d="M211,7.2v142h-9.8V7.2H211z"/>
		<path d="M413.6,7.2l-53,91.4v50.6h-9.8V98.6l-53-91.4h12L356,87.6l45.8-80.4C401.8,7.2,413.6,7.2,413.6,7.2z"/>
		<path d="M556.4,102.2h-62.6l-18.8,47h-9.8L525.2,1h0.8l60,148.2h-11L556.4,102.2z M552.8,93l-27.4-69.8l-28,69.8H552.8z"/>
	</g>
	<g>
		<path d="M34.3,250.8c-2.8,0.8-5.5,1.2-8,1.2c-5,0-9.4-1.1-13.3-3.3c-3.8-2.2-6.8-5.1-8.9-8.8C2,236.2,1,232.1,1,227.4
			c0-4.9,1.1-9.2,3.4-13.1c2.2-3.9,5.3-6.9,9.1-9.1c3.8-2.2,8-3.3,12.6-3.3c4.9,0,9.4,1.2,13.5,3.6l-1.2,3c-1.6-0.9-3.5-1.7-5.7-2.3
			c-2.2-0.6-4.2-0.9-6.2-0.9c-4.1,0-7.9,0.9-11.2,2.8c-3.4,1.9-6,4.6-7.9,7.9c-1.9,3.4-2.8,7.1-2.8,11.2c0,4.1,0.9,7.7,2.8,11
			c1.8,3.3,4.4,5.9,7.7,7.7c3.3,1.9,7.1,2.8,11.4,2.8c2,0,4.1-0.3,6.1-0.7s3.9-1.1,5.4-2v-13.6h-11v-3.3h14.4v18.8
			C39.4,249.1,37.2,250,34.3,250.8z"/>
		<path d="M170.9,251.4l-12.9-20.9c-0.9,0.2-2.2,0.3-3.6,0.3h-7.6v20.5h-3.4v-49h11.2c2.6,0,5.1,0.5,7.4,1.6c2.3,1,4.3,2.6,5.8,4.7
			s2.2,4.7,2.2,7.8c0,3-0.7,5.7-2.1,8.1c-1.4,2.4-3.5,4.1-6.4,5.3l13.3,21.8L170.9,251.4L170.9,251.4z M163.8,224.2
			c1.9-2.2,2.8-4.8,2.8-7.9c0-1.9-0.4-3.7-1.4-5.4c-0.9-1.6-2.3-2.9-4.1-4c-1.7-0.9-3.8-1.5-6-1.5h-8.3v22h7.4
			C158.7,227.6,161.9,226.5,163.8,224.2z"/>
		<path d="M275.7,214.4c2.2-3.9,5.3-6.9,9.1-9.1c3.8-2.2,8-3.5,12.5-3.5s8.7,1.1,12.6,3.5c3.9,2.2,6.9,5.4,9.1,9.1
			c2.2,3.8,3.4,8,3.4,12.5c0,4.5-1.1,8.7-3.4,12.5c-2.2,3.8-5.4,6.9-9.1,9.1c-3.9,2.2-8,3.4-12.6,3.4c-4.6,0-8.7-1.1-12.6-3.3
			c-3.8-2.2-6.8-5.2-9.1-9c-2.2-3.8-3.4-8.1-3.4-12.8C272.3,222.4,273.5,218.3,275.7,214.4z M278.7,237.9c1.9,3.3,4.6,6,7.8,7.9
			s6.8,2.9,10.8,2.9c4,0,7.6-0.9,11-2.9c3.4-1.9,6-4.6,7.9-7.9c1.9-3.4,2.9-7,2.9-11s-0.9-7.6-2.9-11c-2-3.4-4.6-6-7.9-7.9
			c-3.3-2-6.9-2.9-10.9-2.9s-7.6,1-10.9,3c-3.3,2-6,4.7-7.8,8c-1.9,3.4-2.8,7-2.8,10.9C275.8,231,276.7,234.6,278.7,237.9z"/>
		<path d="M423.9,242.2c1.1,2.1,2.8,3.7,4.8,4.8c2.1,1.1,4.4,1.7,6.9,1.7c2.6,0,4.9-0.6,7-1.7c2.1-1.1,3.6-2.8,4.8-4.8
			c1.2-2.1,1.7-4.6,1.7-7.3v-32.5h3.3V235c0,3.5-0.8,6.5-2.2,9.1c-1.5,2.5-3.5,4.5-6,5.9c-2.6,1.4-5.4,2.1-8.6,2.1s-6-0.7-8.6-2.1
			c-2.6-1.4-4.6-3.3-6-5.9c-1.5-2.5-2.2-5.5-2.2-9.1v-32.6h3.4v32.5C422.2,237.6,422.7,240.1,423.9,242.2z"/>
		<path d="M582.9,205.9c2.8,2.3,4.1,5.8,4.1,10.4c0,2.6-0.5,5-1.6,7.2c-1.1,2.2-2.8,4-5.2,5.4c-2.3,1.4-5.3,2.1-8.7,2.1h-7.6v20.5
			h-3.4v-49h11.3C576.4,202.4,580.1,203.6,582.9,205.9z M578.6,225.8c1.8-1.2,3.1-2.7,3.9-4.4c0.8-1.7,1.1-3.5,1.1-5.2
			c0-3.2-1-5.8-3-7.7c-2-2-4.8-2.9-8.5-2.9h-8.3v22h7.6C574.4,227.6,576.7,227,578.6,225.8z"/>
	</g>
</g>
</svg>
