<?xml version="1.0" encoding="UTF-8"?>
<svg width="1509px" height="434px" viewBox="0 0 1509 434" version="1.1" xmlns="http://www.w3.org/2000/svg" xmlns:xlink="http://www.w3.org/1999/xlink">
    <!-- Generator: Sketch 52.4 (67378) - http://www.bohemiancoding.com/sketch -->
    <title>diyagroup-logo</title>
    <desc>Created with Sketch.</desc>
    <g id="diyagroup-logo" stroke="none" stroke-width="1" fill="none" fill-rule="evenodd">
        <text id="iyaGroup" font-family="PlayfairDisplay-Bold, Playfair Display" font-size="280" font-weight="bold" letter-spacing="-3" fill="#202020">
            <tspan x="289" y="358">iya</tspan>
            <tspan x="654.36" y="358" font-size="262">G</tspan>
            <tspan x="843.93" y="358">rou</tspan>
            <tspan x="1289.65" y="358" letter-spacing="-0.1">p</tspan>
        </text>
        <path d="M151.522852,365 C137.915228,365 125.082023,362.699315 113.022852,358.097877 C100.963681,353.496439 90.4062001,347.040436 81.3500914,338.729675 C72.2939828,330.418914 65.1383566,320.53536 59.8829982,309.078718 C54.6276398,297.622076 52,285.038739 52,271.328331 C52,258.463085 54.6745619,246.302323 60.023766,234.845681 C65.3729701,223.389039 73.0212787,212.8951 82.9689214,203.363549 C92.9165641,193.831998 104.975554,185.427456 119.146252,178.149671 C133.316951,170.871886 149.176634,164.979316 166.725777,160.471785 L156.027422,153.006223 C149.364379,148.498692 144.57832,143.169555 141.669104,137.018652 C138.759888,130.86775 177.705621,124.083008 186.996344,130.750398 C202.668573,142.20704 216.440221,152.982696 228.3117,163.077688 C240.183179,173.17268 250.130673,183.197092 258.154479,193.151224 C266.178285,203.105356 272.254702,213.223673 276.383912,223.506479 C280.513122,233.789285 282.718463,244.89361 283,256.819787 C283,268.933778 281.263881,279.99115 277.79159,289.992235 C274.3193,299.99332 269.533242,309.008248 263.433272,317.037288 C257.333303,325.066329 250.107293,332.085764 241.755027,338.095806 C233.402761,344.105848 224.346789,349.106316 214.586837,353.097359 C204.826886,357.088403 194.59786,360.069902 183.899452,362.041947 C173.201043,364.013992 162.408951,365 151.522852,365 Z M235.420475,268.370278 C235.420475,258.979588 234.411649,250.082042 232.393967,241.677374 C230.376285,233.272706 227.091735,225.032499 222.540219,216.956505 C217.988704,208.880511 211.98267,200.851592 204.521938,192.869505 C197.061206,184.887418 187.841006,176.670687 176.86106,168.219065 C169.447251,169.815483 162.40893,172.280502 155.745887,175.614197 C149.082843,178.947892 142.889121,182.985829 137.164534,187.728127 C131.439947,192.470426 126.255051,197.823039 121.609689,203.786128 C116.964328,209.749216 113.022868,216.087837 109.785192,222.802181 C106.547516,229.516524 104.037181,236.512484 102.254113,243.790269 C100.471045,251.068054 99.5795247,258.416159 99.5795247,265.834805 C99.5795247,273.159543 100.377201,280.36679 101.972578,287.456761 C103.567954,294.546733 105.843678,301.307928 108.799817,307.740551 C111.755956,314.173174 115.392422,320.112697 119.709324,325.559297 C124.026225,331.005898 128.882666,335.701173 134.278793,339.645263 C139.67492,343.589353 145.58711,346.688234 152.015539,348.942 C158.443969,351.195765 165.27114,352.322631 172.497258,352.322631 C181.224907,352.322631 189.41282,350.280187 197.061243,346.195236 C204.709667,342.110286 211.37261,336.382051 217.050274,329.010359 C222.727938,321.638667 227.209002,312.81155 230.493601,302.528744 C233.7782,292.245938 235.420475,280.859897 235.420475,268.370278 Z" id="D" fill="#202020"></path>
        <path d="M147.666652,160.843183 C141.355436,151.688805 130.033375,145.496856 122.817388,128.13036 C119.042791,118.779036 117.15552,109.178011 117.15552,99.3269977 C117.15552,92.1885822 118.038276,85.1216568 119.803813,78.1260096 C121.56935,71.1303624 124.034978,64.6345017 127.200769,58.6382327 C130.36656,52.6419636 134.08022,47.3239238 138.341862,42.6839537 C142.603504,38.0439837 151.67462,31.5698296 156.78859,29 L147.666652,42.6839537 C144.551652,50.0274881 144.551652,54.4979281 144.551652,63.3495634 C144.551652,71.4873571 147.717395,80.1960934 154.048977,89.4760335 C160.380559,98.7559737 169.035626,111.429408 181.089984,121.565958 C201.424103,138.983692 220.245071,152.883762 235.658808,168.219065 C250.85452,183.337452 291.179009,224.877773 276.177818,249.153663 C269.067741,262.051878 244.156038,254.251317 229.46617,232.143097 C215.950583,204.523901 190.792988,181.962916 167.44071,175.564894 C152.181338,177.791473 135.969853,189.023369 118.806255,209.260583 C115.10005,213.782185 111.76509,219.230314 108.801375,225.604969 C108.468918,226.32005 108.082203,225.978462 107.742127,226.661483 C94.3851442,226.468045 91.4256908,200.309278 104.079322,186.90116 C119.963568,174.084164 128.342718,170.204928 147.666652,160.843183 Z" id="Path" fill="#FFB606"></path>
    </g>
</svg>