<svg width="40" height="60" viewBox="0 0 40 60" fill="none" xmlns="http://www.w3.org/2000/svg">

<path d="M7.68852 34.8046C7.74519 34.4751 7.81319 34.1469 7.89253 33.8199C8.12648 32.8677 8.4425 31.9376 8.837 31.0401C8.85559 31.0327 8.87242 31.0214 8.8864 31.0071C8.90039 30.9927 8.91123 30.9756 8.91823 30.9568C9.33311 30.0367 9.86107 29.1722 10.4898 28.3834C13.186 25.1958 15.7323 23.4284 18.1288 23.0813C21.7971 24.0887 25.7488 27.6411 27.872 31.9812L27.8947 32.0153C28.067 32.496 28.2127 32.986 28.331 33.4829C28.4349 33.9146 28.5199 34.3539 28.5898 34.8084C31.0062 33.7855 33.2608 32.4146 35.2824 30.739C35.2672 30.7012 35.2559 30.6652 35.2408 30.6273C35.2106 30.5516 35.1766 30.4758 35.1445 30.4001C35.0963 30.2471 35.0389 30.0973 34.9726 29.9513C34.7585 29.4927 34.5214 29.0452 34.2623 28.6106C33.7085 27.6398 33.0768 26.7158 32.3734 25.8478C32.1857 25.6168 31.9918 25.3845 31.7916 25.151C30.6771 23.8008 29.572 22.6514 28.841 21.9318C26.425 19.5061 23.4726 17.3171 20.2746 14.5751C18.3857 12.9788 17.0218 10.9773 16.0282 9.52109C15.0347 8.0649 14.536 6.69014 14.536 5.40816C14.536 4.01446 14.536 3.31004 15.0252 2.15493L16.4589 0C15.3956 0.576339 14.4199 1.30198 13.5613 2.15493C12.8721 2.9128 12.2836 3.75677 11.8102 4.66586C11.3026 5.63908 10.9126 6.66955 10.6485 7.73541C10.3723 8.82662 10.2327 9.94806 10.2329 11.0739C10.2326 12.6323 10.5348 14.1758 11.1226 15.6185C12.256 18.3529 14.0335 19.3281 15.0252 20.7692C12.0199 22.2291 10.6976 22.8521 8.24954 24.8158C7.03786 25.5878 5.9036 26.4757 4.86265 27.4669C3.65403 28.6152 2.62099 29.936 1.79688 31.3866C3.60802 32.7757 5.58773 33.9286 7.68852 34.8179V34.8046Z" fill="url(#paint0_linear_3830_4701)"/> -->
<path d="M35.2865 30.7368C33.265 32.4124 31.0104 33.7833 28.594 34.8062C28.7404 35.7605 28.813 36.7247 28.8112 37.6902C28.8321 39.5122 28.5709 41.3264 28.0367 43.068C27.5806 44.5695 26.8658 45.9795 25.9249 47.234C25.0839 48.351 24.0132 49.2739 22.7854 49.94C21.6004 50.5798 20.2742 50.9119 18.9282 50.9057C17.8353 50.9119 16.7493 50.7313 15.717 50.3717C14.7211 50.0247 13.7821 49.5314 12.9308 48.9079C12.067 48.2762 11.293 47.5296 10.63 46.6886C9.95429 45.8268 9.38357 44.8872 8.92996 43.8899C8.4618 42.8658 8.1028 41.795 7.85893 40.6953C7.60704 39.5768 7.48033 38.4335 7.48114 37.2868C7.48105 36.4534 7.5531 35.6215 7.69648 34.8005C5.59391 33.9129 3.61228 32.7612 1.79916 31.3731C1.61027 31.7139 1.42137 32.0586 1.26081 32.4108C0.422942 34.2091 -0.00733265 36.1712 0.000881101 38.156C-0.0219962 40.2041 0.400876 42.2326 1.24003 44.1C2.03921 45.8687 3.186 47.4575 4.61182 48.7716C6.06099 50.0964 7.74905 51.1318 9.58543 51.8222C11.5169 52.5527 13.5658 52.9211 15.6301 52.9091C17.3357 52.9095 19.0378 52.7535 20.7151 52.4433C22.3661 52.1411 23.9815 51.669 25.5358 51.0345C27.0455 50.4177 28.4778 49.6252 29.8029 48.6731C31.0945 47.7436 32.2405 46.626 33.203 45.3574C34.1745 44.0662 34.9358 42.6288 35.4584 41.0987C36.0213 39.4155 36.2978 37.6493 36.2763 35.8742C36.2509 34.1166 35.9158 32.3774 35.2865 30.7368Z" fill="black"/>
<defs>
<linearGradient id="paint0_linear_3830_4701" x1="18.5406" y1="41.0725" x2="18.5406" y2="6.26597" gradientUnits="userSpaceOnUse">
<stop stop-color="#FF6606"/>
<stop offset="0.02" stop-color="#FF6806"/>
<stop offset="0.29" stop-color="#FF8A06"/>
<stop offset="0.56" stop-color="#FFA206"/>
<stop offset="0.8" stop-color="#FFB106"/>
<stop offset="1" stop-color="#FFB606"/>
</linearGradient>
</defs>
</svg>
