<svg focusable="false" viewBox="0 0 24 24" aria-hidden="true" role="presentation" xmlns="http://www.w3.org/2000/svg">
    <path opacity="1" fill="#006ba6" fill-opacity="1" d="M14.34 5.19C14.16 5.03 13.91 4.83 13.65 4.78C13.62 5.31 13.49 8 13.24 12.84C14.46 9.48 15.13 7.61 15.27 7.24C15.45 6.39 14.99 5.68 14.34 5.19" id="c31CD0jrDi"></path>
    <path opacity="1" fill="#006ba6" fill-opacity="1" d="M11 4.67L12.19 12.71C12.88 7.89 13.26 5.21 13.34 4.67C12.67 4.42 11.77 4.39 11 4.67" id="jtd7vGNzn"></path>
    <path opacity="1" fill="#006ba6" fill-opacity="1" d="M10.03 5.19C9.38 5.73 8.92 6.42 9.1 7.24C9.24 7.61 9.91 9.48 11.13 12.84C10.88 8 10.75 5.31 10.72 4.78C10.46 4.83 10.21 4.98 10.03 5.19" id="avFXDD9xi"></path>
    <path opacity="1" fill="#006ba6" fill-opacity="1" d="M5.97 5.93C7.3 8.27 8.69 10.79 10.03 13.05C9.54 11.07 9.08 7.81 8.38 6.88C7.58 5.78 5.97 5.93 5.97 5.93" id="d1e2l2pSgN"></path>
    <path opacity="1" fill="#006ba6" fill-opacity="1" d="M3.58 7.11L9.1 13.46C7.03 8.96 5.89 6.46 5.66 5.96C4.78 6.01 4.01 6.45 3.58 7.11" id="b4lo0SWA"></path>
    <path opacity="1" fill="#006ba6" fill-opacity="1" d="M15.12 8.83C14.56 11.44 14.25 12.88 14.19 13.17C15.37 11.15 16.53 9.14 17.69 7.11C16.61 7.19 15.5 7.6 15.12 8.83" id="ajZVtY5Qu"></path>
    <path opacity="1" fill="#006ba6" fill-opacity="1" d="M17.99 7.11L15.06 13.56C18.13 10.23 19.84 8.38 20.18 8.01C19.61 7.4 18.87 7.11 17.99 7.11" id="n55T9YMY5G"></path>
    <path opacity="1" fill="#006ba6" fill-opacity="1" d="M2.86 9.96C4.65 11.32 6.45 12.76 8.25 14.12C7.77 13.44 3.88 7.98 3.4 7.29C2.93 8.09 2.8 8.99 2.86 9.96" id="b6GI8K1A9P"></path>
    <path opacity="1" fill="#006ba6" fill-opacity="1" d="M20.82 8.81C20.72 8.58 20.59 8.4 20.41 8.24C19.97 8.84 16.43 13.65 15.99 14.25C17.74 12.94 19.43 11.61 21.1 10.32C21.16 9.76 21.08 9.24 20.82 8.81" id="hSZO2P3B4"></path>
    <path opacity="1" fill="#006ba6" fill-opacity="1" d="M2.86 12.76C5.68 14.06 7.25 14.78 7.56 14.92C5.99 13.35 4.42 11.86 2.86 10.35C2.86 10.51 2.86 11.31 2.86 12.76" id="g49Un5cwif"></path>
    <path opacity="1" fill="#006ba6" fill-opacity="1" d="M21.16 12.92L21.16 10.73C18.49 13.31 17.01 14.74 16.71 15.02C18.23 14.3 19.61 13.64 21.16 12.92" id="i6iIUSy4p"></path>
    <path opacity="1" fill="#006ba6" fill-opacity="1" d="M2.86 14.89C4.29 15.2 5.81 15.59 7.07 15.87C6.79 15.68 5.38 14.75 2.86 13.07L2.86 14.89" id="bsLP153ay"></path>
    <path opacity="1" fill="#006ba6" fill-opacity="1" d="M21.16 15.02C21.16 14.01 21.16 13.44 21.16 13.33C19.82 14.15 18.46 15.05 17.22 15.9C17.48 15.84 18.8 15.55 21.16 15.02" id="aR56OBccN"></path>
    <path opacity="1" fill="#006ba6" fill-opacity="1" d="M2.86 17L6.99 17L2.86 15.25L2.86 17" id="axYzg2Z8j"></path>
    <path opacity="1" fill="#006ba6" fill-opacity="1" d="M21.16 17C21.16 16.04 21.16 15.51 21.16 15.41C19.79 15.97 18.61 16.46 17.35 17C17.6 17 18.87 17 21.16 17" id="acMUSyhC"></path>
    <path opacity="1" fill="#006ba6" fill-opacity="1" d="M19.72 4.96C19.74 2.49 16.12 2.49 16.19 4.93C16.17 7.22 19.82 7.34 19.72 4.96" id="biN6f1t5b"></path>
    <path opacity="1" fill="#006ba6" fill-opacity="1" d="M19.72 4.96L19.72 4.96L19.72 4.96L19.72 4.96" id="b1UNw7ntCZ"></path>
    <path opacity="1" fill="#006ba6" fill-opacity="1" d="M7.89 3.7C8.02 1.23 4.14 1.31 4.29 3.7C4.19 6.16 8.12 6.19 7.89 3.7" id="a9xoUmBckU"></path>
    <path opacity="1" fill="#006ba6" fill-opacity="1" d="M12.19 4.16C13.62 4.19 14.19 3.13 14.22 2.16C14.27 0.64 13.32 0 12.19 0C11.03 0 10.13 0.67 10.18 2.16C10.21 3.03 10.57 4.13 12.19 4.16" id="b2npbFC6E"></path>
    <path opacity="1" fill="#006ba6" fill-opacity="1" d="M11.48 17.78L11.48 20.67L10.97 20.67L10.97 17.78L11.48 17.78Z" id="a2rykgFAjI"></path>
    <path opacity="1" fill="#006ba6" fill-opacity="1" d="M8.04 17.78L8.61 17.78L7.5 19.19L8.34 20.23L9.19 17.78L9.8 17.78L10.81 20.67L10.28 20.67L10.01 19.83L8.94 19.83L8.67 20.67L8.07 20.67L7 19.25L7 20.67L6.5 20.67L6.5 17.78L7 17.78L7 19.15L8.04 17.78ZM9.07 19.43L9.87 19.43L9.47 18.23L9.46 18.23L9.07 19.43Z" id="aRPDl6jmm"></path>
    <path opacity="1" fill="#006ba6" fill-opacity="1" d="M8.12 23.17L7.62 21.08L6.73 21.08L6.73 23.97L7.22 23.97L7.22 21.51L7.86 23.97C8.17 23.97 8.34 23.97 8.37 23.97C8.38 23.97 9.01 21.51 9.01 21.51C9.01 21.67 9.01 22.49 9.01 23.97L9.5 23.97L9.5 21.08L8.64 21.08L8.12 23.17" id="bX04GhNxe"></path>
    <path opacity="1" fill="#006ba6" fill-opacity="1" d="M11.89 23.98L11.6 23.14L10.53 23.14L10.26 23.98L9.76 23.98L10.77 21.08L11.4 21.08L12.41 23.98L11.89 23.98ZM10.66 22.73L11.46 22.73L11.06 21.53L11.05 21.53L10.66 22.73Z" id="bahQOVIIUZ"></path>
    <path opacity="1" fill="#006ba6" fill-opacity="1" d="M14.45 23.32L13.29 21.08L12.62 21.08L12.62 23.97L13.1 23.97L13.1 21.79L14.24 23.97L14.92 23.97L14.92 21.08L14.44 21.08L14.44 23.32" id="bY8ybg40I"></path>
    <path opacity="1" fill="#006ba6" fill-opacity="1" d="M24 23.55L22.8 23.55L22.8 22.74L23.68 22.74L23.68 22.32L22.8 22.32C22.8 21.83 22.8 21.56 22.8 21.51C22.91 21.51 23.89 21.51 23.89 21.51C23.89 21.47 23.89 21.13 23.89 21.09C23.6 21.09 22.29 21.09 22.29 21.09C22.29 21.28 22.29 22.25 22.29 23.98L23.98 23.98L24 23.55" id="dOpuRE6VT"></path>
    <path opacity="1" fill="#006ba6" fill-opacity="1" d="M19.4 21.07L19.4 21.07L19.31 21.07L19.31 23.33L18.15 21.08L17.48 21.08L17.48 23.55L15.95 23.55L15.95 22.73L16.83 22.73L16.83 22.31L15.95 22.31C15.95 21.83 15.95 21.55 15.95 21.5C16.06 21.5 17.04 21.5 17.04 21.5C17.04 21.46 17.04 21.13 17.04 21.08C16.75 21.08 15.45 21.08 15.45 21.08C15.45 21.28 15.45 22.24 15.45 23.98L17.92 23.98L17.96 23.98L17.96 21.76L19.1 23.97L19.78 23.97L19.78 21.51L20.67 21.51L20.67 23.98L21.17 23.98L21.17 21.51L22.04 21.51L22.04 21.08L19.4 21.08" id="fqW37iBfl"></path>
    <path opacity="1" fill="#006ba6" fill-opacity="1" d="M5.68 21.13L5.86 21.19L6.01 21.29L6.13 21.4L6.21 21.54L6.27 21.71L6.29 21.9L6.27 22.04L6.22 22.18L6.13 22.34L6.01 22.51L5.93 22.58L5.84 22.63L5.73 22.68L5.61 22.71L6.39 23.99L5.79 23.99L5.71 23.85L5.51 23.51L5.28 23.1L5.07 22.75L4.82 22.75L4.82 24L2.27 24L2.27 21.1L3.87 21.1L3.87 21.51L2.78 21.51L2.78 22.33L3.67 22.33L3.67 22.75L2.78 22.75L2.78 23.56L4.32 23.56L4.32 21.08L5.17 21.08L5.45 21.09L5.68 21.13ZM4.83 22.31L5.26 22.31L5.5 22.28L5.67 22.21L5.76 22.08L5.79 21.9L5.76 21.73L5.67 21.61L5.5 21.53L5.26 21.5L4.83 21.5L4.83 22.31Z" id="cMUJy8Txw"></path>
    <path opacity="1" fill="#006ba6" fill-opacity="1" d="M17.43 17.83L17.61 17.9L17.76 17.99L17.87 18.11L17.96 18.25L18.02 18.41L18.04 18.6L18.02 18.74L17.97 18.89L17.88 19.05L17.76 19.22L17.68 19.28L17.59 19.33L17.49 19.38L17.36 19.42L18.14 20.69L17.54 20.69L17.46 20.55L17.26 20.21L17.02 19.8L16.81 19.46L16.57 19.46L16.57 20.7L14.02 20.7L14.02 17.8L15.62 17.8L15.62 18.22L14.53 18.22L14.53 19.03L15.41 19.03L15.41 19.45L14.53 19.45L14.53 20.26L16.07 20.26L16.07 17.79L16.91 17.79L17.2 17.8L17.43 17.83ZM16.58 19.01L17.01 19.01L17.26 18.98L17.42 18.91L17.51 18.78L17.54 18.6L17.51 18.44L17.42 18.31L17.26 18.23L17.01 18.2L16.58 18.2L16.58 19.01Z" id="hXF1dwqi4"></path>
    <path opacity="1" fill="#006ba6" fill-opacity="1" d="M1.27 21.14L1.48 21.2L1.69 21.3L1.8 21.41L1.89 21.56L1.95 21.72L1.97 21.91L1.95 22.11L1.89 22.28L1.81 22.43L1.69 22.55L1.55 22.65L1.37 22.72L1.14 22.76L0.85 22.78L0.51 22.78L0.51 23.98L0 23.98L0 21.08L0.85 21.08L1.06 21.1L1.27 21.14ZM0.51 22.35L0.94 22.35L1.18 22.32L1.34 22.23L1.44 22.09L1.47 21.91L1.44 21.75L1.35 21.61L1.18 21.53L0.94 21.5L0.51 21.5L0.51 22.35Z" id="b41XdNcOL"></path>
    <path opacity="1" fill="#006ba6" fill-opacity="1" d="M12.96 18.99C12.55 18.84 12.38 18.73 12.38 18.5C12.38 18.33 12.55 18.13 12.9 18.13C13.16 18.13 13.41 18.22 13.53 18.29C13.53 18.24 13.53 17.91 13.53 17.87C13.4 17.8 13.16 17.74 12.92 17.74C12.29 17.74 11.86 18.09 11.86 18.56C11.86 18.97 12.19 19.23 12.67 19.39C13.05 19.53 13.21 19.66 13.21 19.89C13.21 20.13 13 20.3 12.65 20.3C12.37 20.3 12.03 20.21 11.85 20.09C11.85 20.14 11.85 20.5 11.85 20.54C12.02 20.63 12.32 20.71 12.61 20.71C13.36 20.71 13.73 20.31 13.73 19.84C13.73 19.42 13.46 19.17 12.96 18.99" id="c2wk6tPWXz"></path>
</svg>