<svg focusable="false" viewBox="0 0 24 24" aria-hidden="true" role="presentation" xmlns="http://www.w3.org/2000/svg">
    <path opacity="1" fill="#5e5f5f" fill-opacity="1" d="M16.7 19.64L1.39 19.64L1.2 19.62L1.02 19.59L0.85 19.53L0.69 19.45L0.54 19.35L0.41 19.23L0.29 19.1L0.19 18.95L0.11 18.79L0.05 18.62L0.01 18.44L0 18.25L0 5.98L0.01 5.8L0.05 5.62L0.11 5.45L0.19 5.29L0.29 5.14L0.41 5.01L0.54 4.89L0.69 4.79L0.85 4.71L1.02 4.65L1.2 4.61L1.39 4.6L16.72 4.6L20.88 12.11L16.7 19.64ZM11.31 15.5L12.49 15.5L12.49 12.47L15.55 12.47L15.55 15.5L16.73 15.5L16.73 8.78L15.55 8.78L15.55 11.45L12.49 11.45L12.49 8.78L11.31 8.78L11.31 15.5ZM2.33 15.5L3.46 15.5L3.46 10.55L3.49 10.55L6.55 15.5L7.79 15.5L7.79 8.78L6.67 8.78L6.67 13.73L6.65 13.73L3.58 8.78L2.33 8.78L2.33 15.5ZM8.95 15.5L10.13 15.5L10.13 8.78L8.95 8.78L8.95 15.5Z" id="b3XVYDwt"></path>
    <path opacity="1" fill="#325d93" fill-opacity="1" d="M21.92 12.11L17.76 4.6C18.39 4.6 18.73 4.6 18.8 4.6C19.37 4.6 20.07 5.01 20.34 5.51C20.59 5.95 21.81 8.15 24 12.11C21.8 16.08 20.57 18.29 20.33 18.73C20.05 19.23 19.36 19.64 18.79 19.64C18.72 19.64 18.37 19.64 17.75 19.64L17.75 19.64L21.92 12.11Z" id="c1NVVwA1pJ"></path>
</svg>