<svg focusable="false" viewBox="0 0 24 24" aria-hidden="true" role="presentation" xmlns="http://www.w3.org/2000/svg">
    <path d=" M 8.115 17.878 L 8.123 17.901 C 8.123 17.917 8.111 17.921 8.087 17.921 L 8.043 17.921 C 8.003 17.921 7.991 17.913 7.975 17.878 L 7.895 17.7 C 7.883 17.669 7.871 17.662 7.835 17.662 L 7.475 17.662 C 7.439 17.662 7.431 17.669 7.415 17.7 L 7.343 17.867 C 7.323 17.913 7.311 17.921 7.259 17.921 C 7.231 17.921 7.215 17.913 7.215 17.897 L 7.223 17.87 L 7.623 17.02 C 7.635 16.993 7.643 16.989 7.671 16.989 C 7.699 16.989 7.707 16.993 7.719 17.02 M 7.487 17.557 C 7.487 17.569 7.499 17.577 7.519 17.577 L 7.799 17.577 C 7.823 17.577 7.831 17.573 7.831 17.557 L 7.827 17.538 L 7.679 17.194 L 7.663 17.174 L 7.643 17.194 L 7.491 17.538 L 7.487 17.557 Z " fill="rgb(35,31,32)" />
    <path d=" M 8.223 17.143 C 8.223 17.113 8.231 17.101 8.267 17.101 L 8.299 17.101 C 8.331 17.101 8.343 17.109 8.343 17.143 L 8.343 17.236 C 8.343 17.263 8.351 17.275 8.383 17.275 L 8.471 17.275 C 8.503 17.275 8.511 17.283 8.511 17.314 C 8.511 17.345 8.503 17.352 8.471 17.352 L 8.383 17.352 C 8.355 17.352 8.343 17.36 8.343 17.391 L 8.343 17.754 C 8.343 17.816 8.363 17.863 8.439 17.863 C 8.459 17.863 8.475 17.859 8.495 17.851 L 8.515 17.847 L 8.535 17.87 L 8.539 17.89 C 8.539 17.901 8.531 17.909 8.515 17.917 C 8.487 17.932 8.447 17.94 8.403 17.94 C 8.295 17.94 8.231 17.882 8.231 17.766 L 8.231 17.391 C 8.231 17.364 8.223 17.352 8.191 17.352 L 8.155 17.352 C 8.123 17.352 8.115 17.345 8.115 17.314 C 8.115 17.283 8.123 17.275 8.155 17.275 L 8.191 17.275 C 8.219 17.275 8.231 17.267 8.231 17.236" fill="rgb(35,31,32)" />
    <path d=" M 8.999 17.143 C 8.999 17.113 9.006 17.101 9.042 17.101 L 9.074 17.101 C 9.106 17.101 9.118 17.109 9.118 17.143 L 9.118 17.236 C 9.118 17.263 9.126 17.275 9.158 17.275 L 9.246 17.275 C 9.278 17.275 9.286 17.283 9.286 17.314 C 9.286 17.345 9.278 17.352 9.246 17.352 L 9.158 17.352 C 9.13 17.352 9.118 17.36 9.118 17.391 L 9.118 17.754 C 9.118 17.816 9.138 17.863 9.214 17.863 C 9.234 17.863 9.25 17.859 9.27 17.851 L 9.29 17.847 L 9.31 17.87 L 9.314 17.89 C 9.314 17.901 9.306 17.909 9.29 17.917 C 9.262 17.932 9.222 17.94 9.178 17.94 C 9.07 17.94 9.006 17.882 9.006 17.766 L 9.006 17.391 C 9.006 17.364 8.999 17.352 8.967 17.352 L 8.923 17.352 C 8.891 17.352 8.883 17.345 8.883 17.314 C 8.883 17.283 8.891 17.275 8.923 17.275 L 8.959 17.275 C 8.987 17.275 8.999 17.267 8.999 17.236" fill="rgb(35,31,32)" />
    <path d=" M 9.866 17.519 C 9.866 17.41 9.834 17.348 9.722 17.348 C 9.622 17.348 9.534 17.43 9.534 17.53 L 9.534 17.878 C 9.534 17.909 9.526 17.921 9.49 17.921 L 9.458 17.921 C 9.426 17.921 9.414 17.913 9.414 17.878 L 9.414 16.997 C 9.414 16.966 9.422 16.954 9.458 16.954 L 9.49 16.954 C 9.522 16.954 9.534 16.962 9.534 16.997 L 9.534 17.341 L 9.542 17.36 L 9.558 17.348 C 9.606 17.29 9.682 17.256 9.762 17.256 C 9.954 17.256 9.986 17.387 9.986 17.549 L 9.986 17.874 C 9.986 17.905 9.978 17.917 9.942 17.917 L 9.91 17.917 C 9.878 17.917 9.866 17.909 9.866 17.874" fill="rgb(35,31,32)" />
    <path d=" M 10.254 17.646 C 10.266 17.735 10.33 17.847 10.478 17.847 C 10.562 17.847 10.626 17.812 10.678 17.751 L 10.706 17.731 L 10.726 17.739 L 10.746 17.762 L 10.738 17.781 C 10.69 17.867 10.606 17.932 10.458 17.932 C 10.25 17.932 10.122 17.789 10.122 17.596 C 10.122 17.395 10.258 17.256 10.458 17.256 C 10.542 17.256 10.75 17.283 10.766 17.565 C 10.77 17.596 10.758 17.607 10.726 17.607 L 10.286 17.607 C 10.262 17.607 10.25 17.615 10.25 17.635 L 10.254 17.646 Z  M 10.258 17.495 L 10.254 17.511 C 10.254 17.526 10.266 17.53 10.29 17.53 L 10.61 17.53 C 10.634 17.53 10.646 17.522 10.646 17.507 L 10.646 17.495 C 10.634 17.426 10.582 17.337 10.458 17.337 C 10.326 17.341 10.274 17.437 10.258 17.495 Z " fill="rgb(35,31,32)" />
    <path d=" M 11.678 17.519 C 11.678 17.41 11.646 17.348 11.534 17.348 C 11.434 17.348 11.346 17.43 11.346 17.53 L 11.346 17.878 C 11.346 17.909 11.338 17.921 11.302 17.921 L 11.27 17.921 C 11.238 17.921 11.226 17.913 11.226 17.878 L 11.226 16.997 C 11.226 16.966 11.234 16.954 11.27 16.954 L 11.302 16.954 C 11.334 16.954 11.346 16.962 11.346 16.997 L 11.346 17.341 L 11.354 17.36 L 11.37 17.348 C 11.418 17.29 11.494 17.256 11.574 17.256 C 11.766 17.256 11.798 17.387 11.798 17.549 L 11.798 17.874 C 11.798 17.905 11.79 17.917 11.754 17.917 L 11.722 17.917 C 11.69 17.917 11.678 17.909 11.678 17.874" fill="rgb(35,31,32)" />
    <path d=" M 12.062 17.646 C 12.078 17.735 12.138 17.847 12.286 17.847 C 12.37 17.847 12.434 17.812 12.486 17.751 L 12.514 17.731 L 12.534 17.739 L 12.554 17.762 L 12.546 17.781 C 12.498 17.867 12.414 17.932 12.266 17.932 C 12.058 17.932 11.93 17.789 11.93 17.596 C 11.93 17.395 12.066 17.256 12.266 17.256 C 12.35 17.256 12.558 17.283 12.574 17.565 C 12.578 17.596 12.566 17.607 12.534 17.607 L 12.094 17.607 C 12.07 17.607 12.058 17.615 12.058 17.635 L 12.062 17.646 Z  M 12.066 17.495 L 12.062 17.511 C 12.062 17.526 12.074 17.53 12.098 17.53 L 12.418 17.53 C 12.442 17.53 12.454 17.522 12.454 17.507 L 12.454 17.495 C 12.442 17.426 12.39 17.337 12.266 17.337 C 12.134 17.341 12.082 17.437 12.066 17.495 Z " fill="rgb(35,31,32)" />
    <path d=" M 12.902 17.936 C 12.77 17.936 12.662 17.867 12.662 17.739 C 12.662 17.565 12.838 17.519 12.994 17.519 C 13.022 17.519 13.046 17.519 13.07 17.522 C 13.098 17.526 13.11 17.519 13.106 17.491 C 13.102 17.41 13.05 17.348 12.946 17.348 C 12.882 17.348 12.818 17.379 12.774 17.426 L 12.746 17.441 L 12.722 17.433 L 12.702 17.41 L 12.71 17.391 C 12.762 17.314 12.854 17.263 12.962 17.263 C 13.162 17.263 13.226 17.364 13.226 17.534 L 13.226 17.886 C 13.226 17.917 13.218 17.928 13.182 17.928 L 13.15 17.928 C 13.118 17.928 13.106 17.921 13.106 17.886 L 13.106 17.863 L 13.098 17.843 L 13.082 17.855 C 13.042 17.901 12.982 17.936 12.902 17.936 Z  M 12.79 17.731 C 12.79 17.812 12.854 17.855 12.934 17.855 C 13.006 17.855 13.114 17.793 13.114 17.673 L 13.114 17.642 C 13.114 17.611 13.106 17.604 13.074 17.6 C 13.05 17.596 13.022 17.596 12.99 17.596 C 12.898 17.596 12.79 17.623 12.79 17.731 Z " fill="rgb(35,31,32)" />
    <path d=" M 13.778 17.337 C 13.778 17.36 13.774 17.368 13.758 17.368 L 13.738 17.364 C 13.722 17.36 13.706 17.356 13.69 17.356 C 13.606 17.356 13.53 17.422 13.53 17.519 L 13.53 17.874 C 13.53 17.905 13.522 17.917 13.486 17.917 L 13.454 17.917 C 13.422 17.917 13.41 17.909 13.41 17.874 L 13.41 17.31 C 13.41 17.279 13.418 17.267 13.454 17.267 L 13.486 17.267 C 13.518 17.267 13.53 17.275 13.53 17.31 L 13.53 17.329 L 13.534 17.348 L 13.55 17.337 C 13.59 17.287 13.65 17.256 13.718 17.256 L 13.734 17.256 C 13.77 17.259 13.778 17.271 13.778 17.306" fill="rgb(35,31,32)" />
    <path d=" M 13.926 17.143 C 13.926 17.113 13.934 17.101 13.97 17.101 L 14.002 17.101 C 14.034 17.101 14.046 17.109 14.046 17.143 L 14.046 17.236 C 14.046 17.263 14.054 17.275 14.086 17.275 L 14.174 17.275 C 14.206 17.275 14.214 17.283 14.214 17.314 C 14.214 17.345 14.206 17.352 14.174 17.352 L 14.082 17.352 C 14.054 17.352 14.042 17.36 14.042 17.391 L 14.042 17.754 C 14.042 17.816 14.062 17.863 14.138 17.863 C 14.158 17.863 14.174 17.859 14.194 17.851 L 14.214 17.847 L 14.234 17.87 L 14.238 17.89 C 14.238 17.901 14.23 17.909 14.214 17.917 C 14.186 17.932 14.146 17.94 14.102 17.94 C 13.994 17.94 13.93 17.882 13.93 17.766 L 13.93 17.391 C 13.93 17.364 13.922 17.352 13.89 17.352 L 13.854 17.352 C 13.822 17.352 13.814 17.345 13.814 17.314 C 13.814 17.283 13.822 17.275 13.854 17.275 L 13.89 17.275 C 13.918 17.275 13.93 17.267 13.93 17.236" fill="rgb(35,31,32)" />
    <path d=" M 15.293 17.592 C 15.293 17.793 15.173 17.936 14.954 17.936 C 14.742 17.936 14.622 17.797 14.622 17.604 C 14.622 17.403 14.742 17.259 14.962 17.259 C 15.169 17.256 15.293 17.403 15.293 17.592 Z  M 14.75 17.596 C 14.75 17.735 14.81 17.859 14.958 17.859 C 15.077 17.859 15.165 17.778 15.165 17.596 C 15.165 17.461 15.101 17.337 14.958 17.337 C 14.81 17.337 14.75 17.461 14.75 17.596 Z " fill="rgb(35,31,32)" />
    <path d=" M 15.705 17.271 C 15.737 17.271 15.745 17.279 15.745 17.31 C 15.745 17.341 15.737 17.348 15.705 17.348 L 15.633 17.348 C 15.605 17.348 15.593 17.356 15.593 17.387 L 15.593 17.878 C 15.593 17.909 15.585 17.921 15.549 17.921 L 15.521 17.921 C 15.489 17.921 15.477 17.913 15.477 17.878 L 15.477 17.387 C 15.477 17.36 15.469 17.348 15.437 17.348 L 15.401 17.348 C 15.369 17.348 15.361 17.341 15.361 17.31 C 15.361 17.279 15.369 17.271 15.401 17.271 L 15.437 17.271 C 15.465 17.271 15.477 17.263 15.477 17.232 L 15.477 17.163 C 15.477 17.02 15.549 16.939 15.689 16.939 C 15.717 16.939 15.741 16.946 15.765 16.954 C 15.781 16.962 15.789 16.969 15.789 16.981 L 15.785 17 C 15.781 17.016 15.773 17.024 15.765 17.024 L 15.745 17.02 C 15.729 17.016 15.717 17.012 15.701 17.012 C 15.617 17.012 15.593 17.066 15.593 17.132 L 15.593 17.229 C 15.593 17.256 15.601 17.267 15.633 17.267" fill="rgb(35,31,32)" />
    <path d=" M 16.169 16.997 C 16.169 16.966 16.177 16.954 16.213 16.954 L 16.245 16.954 C 16.277 16.954 16.289 16.962 16.289 16.997 L 16.289 17.329 L 16.297 17.348 L 16.313 17.337 C 16.357 17.294 16.421 17.256 16.513 17.256 C 16.709 17.256 16.821 17.414 16.821 17.588 C 16.821 17.766 16.713 17.932 16.513 17.932 C 16.433 17.932 16.361 17.901 16.309 17.843 L 16.293 17.832 L 16.285 17.851 L 16.285 17.878 C 16.285 17.909 16.277 17.921 16.241 17.921 L 16.209 17.921 C 16.177 17.921 16.165 17.913 16.165 17.878 M 16.485 17.341 C 16.377 17.341 16.285 17.422 16.285 17.519 L 16.285 17.669 C 16.285 17.785 16.393 17.851 16.481 17.851 C 16.625 17.851 16.693 17.727 16.693 17.6 C 16.693 17.464 16.633 17.341 16.485 17.341 Z " fill="rgb(35,31,32)" />
    <path d=" M 17.053 17.646 C 17.069 17.735 17.129 17.847 17.277 17.847 C 17.361 17.847 17.425 17.812 17.477 17.751 L 17.505 17.731 L 17.525 17.739 L 17.545 17.762 L 17.537 17.781 C 17.489 17.867 17.405 17.932 17.257 17.932 C 17.049 17.932 16.921 17.789 16.921 17.596 C 16.921 17.395 17.057 17.256 17.257 17.256 C 17.341 17.256 17.549 17.283 17.565 17.565 C 17.569 17.596 17.557 17.607 17.525 17.607 L 17.085 17.607 C 17.061 17.607 17.049 17.615 17.049 17.635 L 17.053 17.646 Z  M 17.057 17.495 L 17.053 17.511 C 17.053 17.526 17.065 17.53 17.089 17.53 L 17.409 17.53 C 17.433 17.53 17.445 17.522 17.445 17.507 L 17.445 17.495 C 17.433 17.426 17.381 17.337 17.257 17.337 C 17.125 17.341 17.073 17.437 17.057 17.495 Z " fill="rgb(35,31,32)" />
    <path d=" M 17.745 17.143 C 17.745 17.113 17.753 17.101 17.789 17.101 L 17.821 17.101 C 17.853 17.101 17.865 17.109 17.865 17.143 L 17.865 17.236 C 17.865 17.263 17.873 17.275 17.901 17.275 L 17.989 17.275 C 18.021 17.275 18.029 17.283 18.029 17.314 C 18.029 17.345 18.021 17.352 17.989 17.352 L 17.901 17.352 C 17.873 17.352 17.865 17.36 17.865 17.391 L 17.865 17.754 C 17.865 17.816 17.885 17.863 17.961 17.863 C 17.981 17.863 17.997 17.859 18.017 17.851 L 18.037 17.847 L 18.057 17.87 L 18.061 17.89 C 18.061 17.901 18.053 17.909 18.037 17.917 C 18.009 17.932 17.969 17.94 17.925 17.94 C 17.817 17.94 17.753 17.882 17.753 17.766 L 17.753 17.391 C 17.753 17.364 17.745 17.352 17.713 17.352 L 17.677 17.352 C 17.645 17.352 17.637 17.345 17.637 17.314 C 17.637 17.283 17.645 17.275 17.677 17.275 L 17.713 17.275 C 17.741 17.275 17.753 17.267 17.753 17.236" fill="rgb(35,31,32)" />
    <path d=" M 18.197 17.143 C 18.197 17.113 18.205 17.101 18.241 17.101 L 18.273 17.101 C 18.305 17.101 18.317 17.109 18.317 17.143 L 18.317 17.236 C 18.317 17.263 18.325 17.275 18.357 17.275 L 18.445 17.275 C 18.477 17.275 18.485 17.283 18.485 17.314 C 18.485 17.345 18.477 17.352 18.445 17.352 L 18.357 17.352 C 18.329 17.352 18.317 17.36 18.317 17.391 L 18.317 17.754 C 18.317 17.816 18.337 17.863 18.413 17.863 C 18.433 17.863 18.449 17.859 18.469 17.851 L 18.489 17.847 L 18.509 17.87 L 18.513 17.89 C 18.513 17.901 18.505 17.909 18.489 17.917 C 18.461 17.932 18.421 17.94 18.377 17.94 C 18.269 17.94 18.205 17.882 18.205 17.766 L 18.205 17.391 C 18.205 17.364 18.197 17.352 18.165 17.352 L 18.129 17.352 C 18.097 17.352 18.089 17.345 18.089 17.314 C 18.089 17.283 18.097 17.275 18.129 17.275 L 18.165 17.275 C 18.193 17.275 18.205 17.267 18.205 17.236" fill="rgb(35,31,32)" />
    <path d=" M 18.701 17.646 C 18.717 17.735 18.777 17.847 18.925 17.847 C 19.009 17.847 19.073 17.812 19.125 17.751 L 19.153 17.731 L 19.173 17.739 L 19.193 17.762 L 19.185 17.781 C 19.137 17.867 19.053 17.932 18.905 17.932 C 18.697 17.932 18.569 17.789 18.569 17.596 C 18.569 17.395 18.705 17.256 18.905 17.256 C 18.989 17.256 19.197 17.283 19.213 17.565 C 19.217 17.596 19.205 17.607 19.173 17.607 L 18.733 17.607 C 18.709 17.607 18.697 17.615 18.697 17.635 L 18.701 17.646 Z  M 18.705 17.495 L 18.701 17.511 C 18.701 17.526 18.713 17.53 18.737 17.53 L 19.057 17.53 C 19.081 17.53 19.093 17.522 19.093 17.507 L 19.093 17.495 C 19.081 17.426 19.029 17.337 18.905 17.337 C 18.773 17.341 18.721 17.437 18.705 17.495 Z " fill="rgb(35,31,32)" />
    <path d=" M 19.721 17.337 C 19.721 17.36 19.717 17.368 19.701 17.368 L 19.681 17.364 C 19.665 17.36 19.649 17.356 19.633 17.356 C 19.549 17.356 19.473 17.422 19.473 17.519 L 19.473 17.874 C 19.473 17.905 19.465 17.917 19.429 17.917 L 19.397 17.917 C 19.365 17.917 19.353 17.909 19.353 17.874 L 19.353 17.31 C 19.353 17.279 19.361 17.267 19.397 17.267 L 19.429 17.267 C 19.461 17.267 19.473 17.275 19.473 17.31 L 19.473 17.329 L 19.477 17.348 L 19.493 17.337 C 19.533 17.287 19.593 17.256 19.661 17.256 L 19.677 17.256 C 19.713 17.259 19.721 17.271 19.721 17.306" fill="rgb(35,31,32)" />
    <path d=" M 20.453 17.847 C 20.529 17.847 20.589 17.812 20.633 17.758 L 20.657 17.739 L 20.677 17.747 L 20.697 17.774 L 20.689 17.793 C 20.641 17.882 20.553 17.936 20.433 17.936 C 20.229 17.936 20.105 17.797 20.105 17.604 C 20.105 17.406 20.233 17.259 20.441 17.259 C 20.557 17.259 20.641 17.31 20.689 17.395 L 20.697 17.418 C 20.697 17.43 20.689 17.437 20.673 17.445 L 20.649 17.453 L 20.621 17.43 C 20.585 17.375 20.529 17.341 20.453 17.341 C 20.325 17.341 20.233 17.433 20.233 17.592 C 20.237 17.727 20.309 17.847 20.453 17.847 Z " fill="rgb(35,31,32)" />
    <path d=" M 21.024 17.936 C 20.893 17.936 20.785 17.867 20.785 17.739 C 20.785 17.565 20.961 17.519 21.116 17.519 C 21.144 17.519 21.168 17.519 21.192 17.522 C 21.22 17.526 21.232 17.519 21.228 17.491 C 21.224 17.41 21.172 17.348 21.068 17.348 C 21.004 17.348 20.941 17.379 20.897 17.426 L 20.869 17.441 L 20.845 17.433 L 20.825 17.41 L 20.833 17.391 C 20.885 17.314 20.977 17.263 21.084 17.263 C 21.284 17.263 21.348 17.364 21.348 17.534 L 21.348 17.886 C 21.348 17.917 21.34 17.928 21.304 17.928 L 21.272 17.928 C 21.24 17.928 21.228 17.921 21.228 17.886 L 21.228 17.863 L 21.22 17.843 L 21.204 17.855 C 21.164 17.901 21.1 17.936 21.024 17.936 Z  M 20.909 17.731 C 20.909 17.812 20.973 17.855 21.052 17.855 C 21.124 17.855 21.232 17.793 21.232 17.673 L 21.232 17.642 C 21.232 17.611 21.224 17.604 21.192 17.6 C 21.168 17.596 21.14 17.596 21.108 17.596 C 21.02 17.596 20.909 17.623 20.909 17.731 Z " fill="rgb(35,31,32)" />
    <path d=" M 21.9 17.337 C 21.9 17.36 21.896 17.368 21.88 17.368 L 21.86 17.364 C 21.844 17.36 21.828 17.356 21.812 17.356 C 21.728 17.356 21.652 17.422 21.652 17.519 L 21.652 17.874 C 21.652 17.905 21.644 17.917 21.608 17.917 L 21.576 17.917 C 21.544 17.917 21.532 17.909 21.532 17.874 L 21.532 17.31 C 21.532 17.279 21.54 17.267 21.576 17.267 L 21.608 17.267 C 21.64 17.267 21.652 17.275 21.652 17.31 L 21.652 17.329 L 21.656 17.348 L 21.672 17.337 C 21.712 17.287 21.772 17.256 21.84 17.256 L 21.856 17.256 C 21.892 17.259 21.9 17.271 21.9 17.306" fill="rgb(35,31,32)" />
    <path d=" M 22.088 17.646 C 22.104 17.735 22.164 17.847 22.312 17.847 C 22.396 17.847 22.46 17.812 22.512 17.751 L 22.54 17.731 L 22.56 17.739 L 22.58 17.762 L 22.572 17.781 C 22.524 17.867 22.44 17.932 22.292 17.932 C 22.084 17.932 21.956 17.789 21.956 17.596 C 21.956 17.395 22.092 17.256 22.292 17.256 C 22.376 17.256 22.584 17.283 22.6 17.565 C 22.604 17.596 22.592 17.607 22.56 17.607 L 22.12 17.607 C 22.096 17.607 22.084 17.615 22.084 17.635 L 22.088 17.646 Z  M 22.092 17.495 L 22.088 17.511 C 22.088 17.526 22.1 17.53 22.124 17.53 L 22.444 17.53 C 22.468 17.53 22.48 17.522 22.48 17.507 L 22.48 17.495 C 22.468 17.426 22.416 17.337 22.292 17.337 C 22.16 17.341 22.108 17.437 22.092 17.495 Z " fill="rgb(35,31,32)" />
    <path d=" M 22.868 17.851 C 22.868 17.894 22.836 17.925 22.792 17.925 C 22.748 17.925 22.712 17.894 22.712 17.851 C 22.712 17.809 22.748 17.778 22.792 17.778 C 22.836 17.778 22.868 17.812 22.868 17.851 Z " fill="rgb(35,31,32)" />
    <path d=" M 9.946 11.753 L 9.774 11.753 C 9.598 11.753 9.55 11.804 9.55 11.97 L 9.55 14.437 C 9.55 14.607 9.602 14.653 9.774 14.653 L 9.946 14.653 C 10.122 14.653 10.17 14.603 10.17 14.437 L 10.17 11.97 C 10.17 11.804 10.118 11.753 9.946 11.753 Z " fill="rgb(35,31,32)" />
    <path d=" M 12.578 14.244 C 12.554 14.244 12.518 14.251 12.478 14.271 C 12.402 14.302 12.326 14.325 12.246 14.325 C 11.938 14.325 11.85 14.135 11.85 13.849 L 11.85 12.337 C 11.85 12.19 11.894 12.152 12.042 12.152 L 12.374 12.152 C 12.534 12.152 12.578 12.109 12.578 11.951 C 12.578 11.796 12.534 11.753 12.374 11.753 L 12.042 11.753 C 11.89 11.753 11.85 11.711 11.85 11.568 L 11.85 11.212 C 11.85 11.042 11.798 10.996 11.626 10.996 L 11.45 10.996 C 11.274 10.996 11.226 11.046 11.226 11.212 L 11.226 11.568 C 11.226 11.715 11.182 11.753 11.034 11.753 L 10.938 11.753 C 10.778 11.753 10.73 11.796 10.73 11.951 C 10.73 12.105 10.774 12.152 10.938 12.152 L 11.034 12.152 C 11.186 12.152 11.226 12.194 11.226 12.337 L 11.226 13.923 C 11.226 14.456 11.534 14.723 12.042 14.723 C 12.25 14.723 12.426 14.669 12.566 14.603 C 12.654 14.561 12.69 14.522 12.69 14.456 C 12.69 14.429 12.686 14.398 12.674 14.36 C 12.654 14.278 12.626 14.244 12.578 14.244 Z " fill="rgb(35,31,32)" />
    <path d=" M 15.589 11.753 L 15.417 11.753 C 15.241 11.753 15.193 11.804 15.193 11.97 L 15.193 13.493 C 15.193 13.903 14.838 14.255 14.43 14.255 C 13.974 14.255 13.842 14.004 13.842 13.548 L 13.842 11.97 C 13.842 11.8 13.79 11.753 13.618 11.753 L 13.442 11.753 C 13.266 11.753 13.218 11.804 13.218 11.97 L 13.218 13.397 C 13.218 14.12 13.366 14.719 14.226 14.719 C 14.57 14.719 14.87 14.58 15.077 14.36 C 15.113 14.321 15.141 14.298 15.161 14.298 C 15.185 14.298 15.197 14.329 15.197 14.394 L 15.197 14.433 C 15.197 14.603 15.249 14.65 15.421 14.65 L 15.593 14.65 C 15.769 14.65 15.817 14.599 15.817 14.433 L 15.817 11.966 C 15.817 11.804 15.765 11.753 15.589 11.753 Z " fill="rgb(35,31,32)" />
    <path d=" M 17.093 11.753 L 16.921 11.753 C 16.745 11.753 16.697 11.804 16.697 11.97 L 16.697 14.437 C 16.697 14.607 16.749 14.653 16.921 14.653 L 17.093 14.653 C 17.269 14.653 17.317 14.603 17.317 14.437 L 17.317 11.97 C 17.321 11.804 17.269 11.753 17.093 11.753 Z " fill="rgb(35,31,32)" />
    <path d=" M 19.729 14.244 C 19.705 14.244 19.669 14.251 19.629 14.271 C 19.553 14.302 19.477 14.325 19.397 14.325 C 19.089 14.325 19.001 14.135 19.001 13.849 L 19.001 12.337 C 19.001 12.19 19.045 12.152 19.193 12.152 L 19.525 12.152 C 19.685 12.152 19.729 12.109 19.729 11.951 C 19.729 11.796 19.685 11.753 19.525 11.753 L 19.193 11.753 C 19.041 11.753 19.001 11.711 19.001 11.568 L 19.001 11.212 C 19.001 11.042 18.949 10.996 18.777 10.996 L 18.601 10.996 C 18.425 10.996 18.377 11.046 18.377 11.212 L 18.377 11.568 C 18.377 11.715 18.333 11.753 18.185 11.753 L 18.089 11.753 C 17.929 11.753 17.881 11.796 17.881 11.951 C 17.881 12.105 17.925 12.152 18.089 12.152 L 18.185 12.152 C 18.337 12.152 18.377 12.194 18.377 12.337 L 18.377 13.923 C 18.377 14.456 18.685 14.723 19.193 14.723 C 19.401 14.723 19.577 14.669 19.717 14.603 C 19.805 14.561 19.841 14.522 19.841 14.456 C 19.841 14.429 19.837 14.398 19.825 14.36 C 19.805 14.278 19.777 14.244 19.729 14.244 Z " fill="rgb(35,31,32)" />
    <path d=" M 22.68 11.753 L 22.512 11.753 C 22.324 11.753 22.272 11.788 22.204 11.955 L 21.528 13.567 C 21.504 13.629 21.476 13.66 21.452 13.66 C 21.428 13.66 21.4 13.629 21.376 13.567 C 21.376 13.567 21.076 12.836 20.965 12.565 C 20.813 12.194 20.641 11.966 20.473 11.854 C 20.277 11.726 20.105 11.753 20.069 11.773 C 20.005 11.804 19.993 11.846 20.037 11.958 L 21.052 14.325 C 21.084 14.402 21.1 14.452 21.1 14.499 C 21.1 14.545 21.084 14.592 21.056 14.669 L 21.02 14.762 C 20.777 15.38 20.513 15.605 20.253 15.666 C 20.117 15.701 20.073 15.728 20.073 15.868 C 20.073 16.003 20.117 16.049 20.257 16.038 C 21.036 15.976 21.292 15.512 21.6 14.793 L 22.824 11.962 C 22.844 11.92 22.852 11.885 22.852 11.858 C 22.844 11.781 22.792 11.753 22.68 11.753 Z " fill="rgb(35,31,32)" />
    <path d=" M 8.895 11.753 L 8.779 11.753 C 8.591 11.753 8.539 11.788 8.471 11.955 L 7.791 13.621 C 7.767 13.683 7.739 13.714 7.715 13.714 C 7.691 13.714 7.663 13.683 7.639 13.621 L 7.175 12.477 C 6.947 11.955 6.655 11.753 6.435 11.753 C 6.355 11.753 6.195 11.753 6.279 11.955 C 6.371 12.163 7.367 14.464 7.367 14.464 C 7.435 14.622 7.483 14.653 7.663 14.653 C 7.839 14.653 7.887 14.622 7.955 14.464 L 9.038 11.955 C 9.058 11.912 9.066 11.877 9.066 11.85 C 9.058 11.781 9.006 11.753 8.895 11.753 Z " fill="rgb(35,31,32)" />
    <path d=" M 23.796 11.382 C 23.86 11.417 23.908 11.467 23.944 11.525 C 23.98 11.587 24 11.653 24 11.723 C 24 11.796 23.98 11.862 23.944 11.924 C 23.908 11.985 23.86 12.032 23.796 12.067 C 23.732 12.101 23.664 12.121 23.592 12.121 C 23.516 12.121 23.448 12.101 23.388 12.067 C 23.324 12.032 23.276 11.982 23.24 11.924 C 23.204 11.862 23.184 11.796 23.184 11.723 C 23.184 11.649 23.204 11.583 23.24 11.525 C 23.276 11.463 23.324 11.417 23.388 11.382 C 23.452 11.347 23.52 11.328 23.592 11.328 C 23.664 11.328 23.732 11.347 23.796 11.382 Z  M 23.772 12.028 C 23.828 11.997 23.868 11.955 23.9 11.9 C 23.932 11.846 23.948 11.788 23.948 11.723 C 23.948 11.657 23.932 11.599 23.9 11.545 C 23.868 11.491 23.828 11.448 23.772 11.417 C 23.716 11.386 23.656 11.371 23.592 11.371 C 23.524 11.371 23.464 11.386 23.412 11.417 C 23.356 11.448 23.316 11.491 23.284 11.545 C 23.252 11.599 23.236 11.657 23.236 11.723 C 23.236 11.788 23.252 11.846 23.284 11.9 C 23.316 11.955 23.356 11.997 23.412 12.028 C 23.468 12.059 23.528 12.074 23.592 12.074 C 23.656 12.078 23.716 12.063 23.772 12.028 Z  M 23.476 11.506 L 23.596 11.506 C 23.632 11.506 23.664 11.51 23.692 11.521 C 23.716 11.533 23.736 11.549 23.748 11.564 C 23.76 11.583 23.768 11.603 23.768 11.626 C 23.768 11.699 23.732 11.746 23.664 11.761 L 23.7 11.796 C 23.708 11.811 23.72 11.827 23.732 11.85 C 23.74 11.866 23.748 11.881 23.752 11.885 C 23.76 11.897 23.768 11.908 23.776 11.924 L 23.788 11.943 L 23.716 11.943 L 23.7 11.924 L 23.684 11.897 L 23.668 11.866 C 23.66 11.846 23.652 11.835 23.644 11.823 L 23.62 11.792 L 23.588 11.773 L 23.508 11.773 L 23.508 11.947 L 23.44 11.947 L 23.44 11.506 L 23.476 11.506 L 23.476 11.506 Z  M 23.668 11.703 C 23.688 11.688 23.696 11.665 23.696 11.634 C 23.696 11.607 23.688 11.587 23.668 11.572 C 23.652 11.556 23.62 11.549 23.58 11.549 C 23.556 11.549 23.532 11.552 23.5 11.556 L 23.5 11.726 L 23.584 11.726 C 23.624 11.726 23.652 11.719 23.668 11.703 Z " fill="rgb(35,31,32)" />
    <path d=" M 7.339 7.276 C 6.767 7.276 6.227 7.407 5.747 7.643 C 6.019 8.076 6.195 8.575 6.247 9.109 L 7.351 7.276 L 7.339 7.276 Z " fill="rgb(247,190,23)" />
    <path d=" M 3.807 10.69 C 3.807 11.305 3.975 11.885 4.271 12.384 L 6.247 9.109 C 6.199 8.575 6.023 8.076 5.747 7.643 C 4.595 8.204 3.807 9.356 3.807 10.69 Z " fill="rgb(231,56,46)" />
    <path d=" M 5.747 7.639 C 5.395 7.079 4.879 6.626 4.263 6.34 C 3.799 6.124 3.279 6 2.728 6 C 1.628 6 0.648 6.483 0 7.245 L 0 7.245 C 1.08 7.852 2.016 8.73 2.688 9.851 C 3.227 10.76 3.543 11.734 3.643 12.712 C 3.667 12.929 3.679 13.145 3.679 13.358 L 4.183 12.527 L 4.271 12.38 C 3.975 11.881 3.807 11.305 3.807 10.686 C 3.807 9.356 4.595 8.204 5.747 7.639 Z " fill="rgb(242,145,33)" />
</svg>