<svg width="672" height="72" viewBox="0 0 672 72" fill="none" xmlns="http://www.w3.org/2000/svg">
<g clip-path="url(#clip0_801:11339)">
<path d="M58.0847 35.205V57.5341C58.0847 58.9711 58.3321 59.9462 58.827 60.4595C59.3219 60.9729 60.1688 61.2295 61.3675 61.2295V62.3084C60.7182 62.2751 59.7518 62.2319 58.4683 62.1789C57.1849 62.1259 55.8764 62.1002 54.543 62.1017C53.2096 62.1017 51.8588 62.1274 50.4906 62.1789C49.1224 62.2304 48.0962 62.2735 47.4121 62.3084V61.2295C48.6093 61.2295 49.4561 60.9729 49.9525 60.4595C50.449 59.9462 50.6964 58.9711 50.6949 57.5341V41.3671C50.6949 39.8271 50.4641 38.6915 50.0025 37.9601C49.5409 37.2288 48.6774 36.8608 47.4121 36.8563V35.7729C48.5064 35.8743 49.5658 35.925 50.5905 35.925C52.0283 35.925 53.3708 35.8652 54.6179 35.7456C55.7838 35.6389 56.9417 35.4583 58.0847 35.205ZM54.0822 22.529C55.52 22.529 56.6551 22.8795 57.4876 23.5806C58.32 24.2816 58.7392 25.2485 58.7453 26.481C58.7453 27.7121 58.3261 28.6789 57.4876 29.3815C56.6491 30.084 55.5139 30.4346 54.0822 30.4331C52.6443 30.4331 51.5092 30.0825 50.6768 29.3815C49.8443 28.6804 49.4251 27.7136 49.419 26.481C49.419 25.25 49.8383 24.2832 50.6768 23.5806C51.5152 22.878 52.6504 22.5275 54.0822 22.529Z" fill="black"/>
<path d="M89.742 35.7729V36.795C89.0224 37.0109 88.3806 37.4306 87.894 38.0033C87.3128 38.6362 86.7483 39.7052 86.2004 41.2103L78.9673 61.5521L77.0694 65.1452L65.8838 39.7249C65.3011 38.3894 64.7282 37.5763 64.1652 37.2856C63.7183 37.0287 63.2177 36.8794 62.7031 36.8495V35.7729C63.8322 35.8743 65.0037 35.95 66.2175 36C67.4298 36.0522 68.6035 36.0772 69.7319 36.0772C71.1319 36.0772 72.4184 36.0432 73.5913 35.975C74.7643 35.9069 75.8586 35.8387 76.8741 35.7706V36.8472C76.2309 36.8444 75.5883 36.8877 74.9512 36.9767C74.3519 37.0607 73.9409 37.3015 73.7185 37.6944C73.496 38.0873 73.5913 38.7642 74.0022 39.7226L80.4657 55.3264L80.0116 55.6353L83.8075 45.0079C84.7656 42.237 84.9169 40.2095 84.2616 38.9254C83.6062 37.6414 82.4598 36.9312 80.8221 36.795V35.7729C81.6107 35.8077 82.4658 35.8418 83.3875 35.8751C84.3093 35.9084 85.1137 35.925 85.8008 35.925C86.4834 35.925 87.2016 35.9084 87.9553 35.8751C88.709 35.8418 89.3046 35.8077 89.742 35.7729ZM78.9673 61.5521L77.0172 67.044C76.3679 68.7884 75.6149 69.9997 74.7582 70.6781C74.2164 71.1212 73.5876 71.4454 72.9125 71.6298C72.0601 71.8643 71.1788 71.9767 70.2949 71.9637C69.4326 71.954 68.5767 71.8131 67.7567 71.5457C66.926 71.2976 66.1741 70.8373 65.575 70.2102C64.9855 69.5708 64.6722 68.7243 64.7032 67.8549C64.6852 67.3726 64.7782 66.8925 64.975 66.4519C65.1718 66.0112 65.4672 65.6216 65.8384 65.3133C66.5898 64.6796 67.5842 64.3639 68.8147 64.3639C69.9438 64.3639 70.867 64.6372 71.5844 65.1838C72.3018 65.7305 72.6567 66.5353 72.6492 67.5982C72.644 68.2991 72.4193 68.9806 72.0067 69.547C71.529 70.2014 70.8555 70.6866 70.0838 70.9325C70.2867 70.9698 70.4927 70.9873 70.699 70.9847H71.2643C72.2598 70.9972 73.2266 70.6514 73.9886 70.0103C74.7741 69.3577 75.4234 68.3311 75.9365 66.9305L77.7323 61.6429L78.9673 61.5521Z" fill="black"/>
<path d="M97.233 62.6695C94.9401 62.6695 93.2805 62.0707 92.2543 60.8729C91.2217 59.6578 90.6736 58.1042 90.7151 56.5098C90.7151 55.038 91.0488 53.8403 91.7163 52.9166C92.403 51.9752 93.2871 51.1953 94.3067 50.6317C95.3772 50.0292 96.5031 49.531 97.6689 49.144C98.848 48.7503 99.9763 48.3566 101.054 47.9629C101.99 47.6436 102.873 47.1841 103.672 46.6001C103.984 46.3801 104.238 46.0877 104.412 45.7479C104.587 45.4081 104.676 45.031 104.673 44.6491V40.6562C104.685 39.8401 104.537 39.0295 104.235 38.2713C103.972 37.6048 103.506 37.0386 102.902 36.6541C102.195 36.2468 101.388 36.0476 100.573 36.0795C99.8821 36.0822 99.1949 36.1769 98.5294 36.3611C97.8907 36.5231 97.3064 36.8515 96.8357 37.3128C97.7182 37.6017 98.4949 38.1464 99.0674 38.8777C99.5913 39.5624 99.871 40.4027 99.862 41.2649C99.862 42.4278 99.4602 43.3514 98.6565 44.0358C97.8646 44.7173 96.8494 45.0829 95.805 45.0625C94.5715 45.0625 93.6392 44.6779 93.0081 43.9086C92.365 43.1203 92.0251 42.1277 92.05 41.1104C92.0151 40.2287 92.2773 39.3608 92.7947 38.6461C93.3781 37.9171 94.0804 37.2921 94.872 36.7972C95.9578 36.2028 97.1251 35.7712 98.3364 35.5162C99.7768 35.2006 101.248 35.0483 102.723 35.062C104.157 35.0461 105.588 35.2101 106.982 35.5503C108.182 35.8404 109.281 36.4529 110.16 37.3219C110.945 38.1095 111.479 39.1114 111.697 40.2019C111.961 41.6324 112.081 43.0857 112.056 44.5401V58.5017C112.056 59.3239 112.14 59.9054 112.312 60.2483C112.39 60.4108 112.515 60.5463 112.67 60.6377C112.825 60.7291 113.004 60.7722 113.184 60.7616C113.526 60.7614 113.862 60.673 114.16 60.505C114.471 60.3298 114.764 60.1228 115.032 59.8872L115.545 60.7616C114.809 61.3859 113.962 61.8646 113.048 62.1721C112.03 62.5093 110.964 62.6743 109.892 62.6605C107.84 62.6605 106.478 62.241 105.806 61.4022C105.144 60.5785 104.774 59.5583 104.754 58.5017C103.999 59.8073 102.91 60.8883 101.599 61.6338C100.254 62.3424 98.7524 62.6987 97.233 62.6695ZM101.183 59.3852C101.817 59.3905 102.442 59.2341 103 58.931C103.673 58.5179 104.244 57.9562 104.668 57.2888V46.7568C104.24 47.4593 103.65 48.0489 102.947 48.4762C102.212 48.9305 101.46 49.4264 100.691 49.9639C99.9165 50.4998 99.2617 51.1904 98.7677 51.9922C98.2547 52.8144 97.9981 53.9099 97.9981 55.2787C97.9981 56.7483 98.3046 57.8022 98.9199 58.4336C99.21 58.7413 99.5612 58.9849 99.951 59.1488C100.341 59.3127 100.761 59.3932 101.183 59.3852Z" fill="black"/>
<path d="M120.116 62.3107V61.284C120.952 61.2604 121.781 61.1213 122.579 60.8707C122.849 60.7695 123.09 60.6044 123.282 60.3897C123.474 60.1749 123.612 59.9168 123.682 59.6374C123.869 59.0226 123.962 58.0989 123.964 56.8664V31.4097C123.964 30.1423 123.87 29.2096 123.682 28.6115C123.603 28.3313 123.459 28.0737 123.262 27.8594C123.065 27.6452 122.82 27.4804 122.547 27.3782C121.761 27.1194 120.939 26.9898 120.111 26.9943V25.9677C121.001 26.0025 122.164 26.0366 123.601 26.0699C125.037 26.1032 126.576 26.1206 128.218 26.1221C129.656 26.1221 131.076 26.1047 132.477 26.0699C133.878 26.0358 135.043 26.0018 135.965 25.9677V26.9943C134.87 27.0291 134.038 27.1571 133.467 27.3782C133.198 27.4797 132.957 27.6448 132.765 27.8596C132.572 28.0743 132.435 28.3322 132.364 28.6115C132.194 29.2172 132.109 30.1499 132.107 31.4097V56.8686C132.107 58.0997 132.202 59.0233 132.391 59.6396C132.464 59.9228 132.606 60.1836 132.804 60.3987C133.002 60.6139 133.25 60.7768 133.526 60.8729C134.316 61.1186 135.136 61.2569 135.962 61.284V62.3107C135.041 62.2425 133.876 62.1994 132.475 62.1812C131.074 62.163 129.653 62.1562 128.216 62.1562C126.574 62.1562 125.035 62.1645 123.598 62.1812C122.162 62.1979 121.001 62.241 120.116 62.3107ZM128.786 44.5491V43.5225H149.053V44.5491H128.786ZM141.87 62.3107V61.284C142.706 61.2604 143.535 61.1213 144.333 60.8707C144.603 60.7695 144.844 60.6044 145.036 60.3897C145.228 60.1749 145.365 59.9168 145.436 59.6374C145.625 59.0226 145.719 58.0989 145.718 56.8664V31.4097C145.718 30.1423 145.624 29.2096 145.436 28.6115C145.357 28.3313 145.213 28.0737 145.016 27.8594C144.818 27.6452 144.574 27.4804 144.301 27.3782C143.514 27.1196 142.691 26.99 141.863 26.9943V25.9677C142.788 26.0025 143.994 26.0366 145.482 26.0699C146.969 26.1032 148.449 26.1206 149.92 26.1221C151.491 26.1221 152.97 26.1047 154.358 26.0699C155.746 26.0351 156.866 26.001 157.718 25.9677V26.9943C156.621 27.0291 155.789 27.1571 155.221 27.3782C154.951 27.4789 154.709 27.6437 154.517 27.8586C154.325 28.0734 154.188 28.3318 154.118 28.6115C153.945 29.2172 153.86 30.1499 153.861 31.4097V56.8686C153.861 58.0997 153.955 59.0233 154.143 59.6396C154.217 59.9225 154.359 60.1828 154.557 60.3979C154.754 60.6129 155.002 60.7761 155.278 60.8729C156.069 61.1183 156.889 61.2566 157.716 61.284V62.3107C156.861 62.2425 155.741 62.1994 154.356 62.1812C152.971 62.163 151.492 62.1547 149.918 62.1562C148.447 62.1562 146.967 62.1645 145.479 62.1812C143.992 62.1979 142.788 62.241 141.87 62.3107Z" fill="black"/>
<path d="M159.878 25.9677C160.732 26.0025 161.886 26.0366 163.34 26.0699C164.795 26.1032 166.24 26.1206 167.677 26.1221C169.317 26.1221 170.906 26.1047 172.444 26.0699C173.982 26.0351 175.076 26.0177 175.727 26.0177C180.481 26.0177 184.038 26.7967 186.397 28.3548C188.757 29.9129 189.937 32.1085 189.937 34.9416C189.928 36.1491 189.684 37.3433 189.219 38.4575C188.675 39.7282 187.839 40.8531 186.781 41.7418C185.635 42.7533 184.07 43.5581 182.086 44.1562C180.102 44.7543 177.604 45.0572 174.594 45.0647H169.668V44.0381H174.081C176.099 44.0381 177.629 43.6535 178.674 42.8843C179.71 42.1219 180.467 41.0397 180.828 39.8044C181.237 38.413 181.436 36.9685 181.419 35.5185C181.419 32.8126 180.94 30.7162 179.981 29.2293C179.023 27.7423 177.381 26.9981 175.055 26.9966C173.723 26.9966 172.86 27.2873 172.465 27.8688C172.07 28.4502 171.873 29.6313 171.874 31.412V56.8686C171.874 58.0997 171.968 59.0233 172.156 59.6396C172.227 59.919 172.364 60.1772 172.556 60.3919C172.748 60.6067 172.989 60.7717 173.259 60.8729C174.057 61.1228 174.886 61.2611 175.722 61.284V62.3106C174.799 62.2425 173.636 62.1994 172.233 62.1812C170.83 62.163 169.41 62.1547 167.974 62.1562C166.333 62.1562 164.786 62.1645 163.331 62.1812C161.877 62.1978 160.723 62.241 159.869 62.3106V61.284C160.708 61.2612 161.539 61.1221 162.339 60.8707C162.609 60.7695 162.85 60.6044 163.042 60.3897C163.235 60.1749 163.372 59.9168 163.443 59.6373C163.632 59.0226 163.726 58.0989 163.726 56.8664V31.4097C163.726 30.1423 163.632 29.2096 163.443 28.6115C163.364 28.3311 163.22 28.0734 163.022 27.8591C162.825 27.6448 162.58 27.48 162.307 27.3782C161.521 27.1194 160.699 26.9898 159.871 26.9943L159.878 25.9677ZM169.575 44.1903C171.046 44.2251 172.32 44.2932 173.398 44.3947C174.475 44.4961 175.424 44.5908 176.245 44.6786C177.066 44.7626 177.8 44.824 178.451 44.858C181.565 45.1321 183.865 45.7991 185.353 46.859C186.841 47.919 187.806 49.5089 188.25 51.6288L189.43 56.9163C189.733 58.2791 190.058 59.2368 190.407 59.7895C190.557 60.0486 190.774 60.2619 191.036 60.4067C191.298 60.5516 191.594 60.6224 191.894 60.6117C192.284 60.5948 192.663 60.48 192.997 60.2778C193.348 60.0364 193.666 59.7518 193.946 59.4307L194.663 60.0462C193.855 61.0209 192.839 61.8017 191.689 62.3311C190.464 62.824 189.15 63.0598 187.83 63.0238C185.982 63.0238 184.459 62.6301 183.262 61.8428C182.065 61.0554 181.279 59.601 180.903 57.4796L179.979 52.3465C179.781 51.0723 179.495 49.8133 179.123 48.5784C178.851 47.6277 178.369 46.7505 177.711 46.0119C177.106 45.3804 176.273 45.064 175.214 45.0625H169.677L169.575 44.1903Z" fill="black"/>
<path d="M227.964 25.25C230.221 25.25 232.076 25.5831 233.531 26.2493C234.909 26.8722 236.209 27.6559 237.404 28.5842C238.086 29.1006 238.608 29.1611 238.968 28.7659C239.328 28.3707 239.576 27.438 239.713 25.9677H240.893C240.823 27.3032 240.772 28.9204 240.739 30.8192C240.705 32.718 240.688 35.2414 240.687 38.3894H239.513C239.377 37.0334 239.154 35.6875 238.845 34.3601C238.6 33.3297 238.218 32.3367 237.71 31.4074C237.192 30.5071 236.497 29.7213 235.667 29.0975C234.827 28.2517 233.811 27.6025 232.691 27.1965C231.555 26.7856 230.356 26.5773 229.149 26.5809C227.302 26.5809 225.729 27.0685 224.429 28.0437C223.067 29.0937 221.981 30.4604 221.267 32.0252C220.422 33.829 219.827 35.7392 219.498 37.7035C219.116 39.8644 218.927 42.0549 218.933 44.2493C218.926 46.4584 219.124 48.6634 219.523 50.8361C219.866 52.7881 220.487 54.6805 221.369 56.4553C222.125 58.0001 223.243 59.3389 224.629 60.3574C226.008 61.3303 227.662 61.8343 229.349 61.7951C230.513 61.7875 231.667 61.5697 232.754 61.1523C233.862 60.7498 234.87 60.1103 235.706 59.2785C236.992 58.3221 237.946 56.9847 238.43 55.4559C238.908 53.9326 239.268 51.9044 239.508 49.3711H240.687C240.687 52.6236 240.704 55.2507 240.739 57.2525C240.774 59.2543 240.825 60.9396 240.893 62.3084H239.713C239.576 60.8366 239.346 59.9122 239.02 59.5351C238.695 59.1581 238.156 59.2096 237.404 59.6896C236.134 60.584 234.789 61.366 233.383 62.0268C231.965 62.6945 230.143 63.0284 227.919 63.0284C224.286 63.0284 221.114 62.2925 218.402 60.8207C215.706 59.3754 213.501 57.162 212.065 54.4611C210.552 51.6886 209.795 48.3521 209.795 44.4515C209.795 40.6191 210.573 37.2651 212.129 34.3897C213.606 31.6001 215.826 29.2734 218.542 27.6666C221.265 26.0555 224.406 25.25 227.964 25.25Z" fill="black"/>
<path d="M265.418 25.25C269.05 25.25 272.223 25.9851 274.935 27.4554C277.625 28.8989 279.83 31.1039 281.274 33.7946C282.776 36.5489 283.529 39.8945 283.53 43.8314C283.53 47.6639 282.761 51.017 281.221 53.891C279.755 56.6894 277.533 59.0196 274.808 60.6163C272.07 62.2244 268.923 63.0284 265.368 63.0284C261.736 63.0284 258.563 62.2925 255.849 60.8207C253.154 59.3745 250.949 57.1613 249.513 54.4611C248.008 51.6886 247.256 48.3521 247.256 44.4515C247.256 40.6191 248.034 37.2651 249.59 34.3897C251.067 31.5996 253.286 29.2727 256.003 27.6666C258.723 26.0555 261.861 25.25 265.418 25.25ZM265.214 26.1721C263.298 26.1721 261.633 26.9421 260.219 28.482C258.805 30.022 257.711 32.1418 256.936 34.8416C256.166 37.5445 255.781 40.6758 255.781 44.2357C255.781 47.8698 256.217 51.0261 257.091 53.7047C257.964 56.3833 259.143 58.4563 260.628 59.9235C262.116 61.3772 263.766 62.104 265.579 62.104C267.495 62.104 269.16 61.334 270.574 59.7941C271.987 58.2541 273.082 56.1244 273.859 53.4049C274.629 50.6794 275.014 47.5563 275.012 44.0358C275.012 40.3745 274.576 37.2091 273.705 34.5396C272.833 31.87 271.652 29.8085 270.163 28.3548C268.675 26.9012 267.025 26.1736 265.214 26.1721Z" fill="black"/>
<path d="M319.395 25.9677V26.9943C318.638 27.2699 317.843 27.8688 317.009 28.7909C316.175 29.7131 315.396 31.1515 314.673 33.1064L303.848 62.4174C303.559 62.3821 303.268 62.3646 302.976 62.3652H301.18C300.888 62.3646 300.596 62.382 300.306 62.4174L287.223 30.2832C286.743 29.0521 286.213 28.2057 285.634 27.7438C285.05 27.2896 284.498 27.0329 283.992 26.9989V25.9722C285.018 26.0071 286.224 26.0411 287.609 26.0744C288.994 26.1078 290.388 26.1252 291.791 26.1267C293.363 26.1267 294.843 26.1093 296.229 26.0744C297.615 26.0396 298.735 26.0056 299.589 25.9722V26.9989C297.913 27.067 296.819 27.3494 296.306 27.8461C295.793 28.3427 295.895 29.4973 296.613 31.3098L305.95 55.0766L304.874 56.3599L311.955 37.2651C312.877 34.691 313.355 32.6718 313.39 31.2076C313.425 29.7433 313.066 28.6834 312.314 28.0278C311.557 27.3782 310.479 27.036 309.081 27.0011V25.9745L312.364 26.0767C313.39 26.1115 314.433 26.129 315.494 26.129C316.251 26.129 316.961 26.1115 317.624 26.0767C318.287 26.0419 318.877 26.0056 319.395 25.9677Z" fill="black"/>
<path d="M336.48 25.9677V26.9943C335.385 27.0291 334.553 27.1571 333.982 27.3782C333.713 27.4793 333.472 27.6444 333.28 27.8592C333.088 28.074 332.951 28.3321 332.881 28.6115C332.709 29.2172 332.623 30.1499 332.625 31.4097V56.8686C332.625 58.0997 332.718 59.0233 332.906 59.6396C332.979 59.9228 333.121 60.1836 333.319 60.3987C333.517 60.6139 333.765 60.7768 334.041 60.8729C334.831 61.1184 335.651 61.2567 336.477 61.284V62.3107C335.556 62.2425 334.391 62.1994 332.99 62.1812C331.589 62.163 330.168 62.1562 328.731 62.1562C327.089 62.1562 325.55 62.1645 324.113 62.1812C322.677 62.1979 321.514 62.241 320.624 62.3107V61.284C321.46 61.2612 322.289 61.1228 323.087 60.8729C323.357 60.7717 323.598 60.6067 323.79 60.3919C323.983 60.1772 324.12 59.919 324.191 59.6396C324.377 59.0249 324.471 58.1012 324.472 56.8686V31.4097C324.472 30.1423 324.378 29.2096 324.191 28.6115C324.111 28.3313 323.967 28.0737 323.77 27.8594C323.573 27.6452 323.328 27.4804 323.055 27.3782C322.269 27.1196 321.445 26.99 320.617 26.9943V25.9677C321.507 26.0025 322.67 26.0366 324.107 26.0699C325.543 26.1032 327.086 26.1199 328.736 26.1199C330.172 26.1199 331.592 26.1025 332.995 26.0676C334.393 26.0358 335.558 26.0018 336.48 25.9677Z" fill="black"/>
<path d="M355.773 25.9677C362.511 25.9677 367.522 27.4993 370.806 30.5625C374.091 33.6257 375.732 38.0169 375.73 43.736C375.73 47.4655 374.927 50.7248 373.319 53.5139C371.712 56.3031 369.378 58.4676 366.316 60.0076C363.255 61.5475 359.587 62.3175 355.312 62.3175C354.49 62.3175 353.318 62.2917 351.795 62.2402C350.272 62.1888 348.947 62.163 347.82 62.163C346.315 62.163 344.836 62.1713 343.381 62.188C341.927 62.2047 340.772 62.2478 339.917 62.3175V61.2908C340.753 61.265 341.582 61.1236 342.38 60.8707C342.65 60.7695 342.891 60.6044 343.083 60.3897C343.276 60.1749 343.413 59.9168 343.484 59.6373C343.671 59.0226 343.765 58.0989 343.765 56.8664V31.4097C343.765 30.1423 343.671 29.2096 343.484 28.6115C343.405 28.3311 343.261 28.0733 343.063 27.8591C342.866 27.6448 342.621 27.48 342.348 27.3782C341.562 27.1196 340.738 26.99 339.91 26.9943V25.9677C340.765 26.0025 341.92 26.0449 343.375 26.0949C344.829 26.1448 346.274 26.1539 347.711 26.1221C348.941 26.0873 350.335 26.0525 351.893 26.0177C353.45 25.9828 354.743 25.9662 355.773 25.9677ZM355.72 26.8921C354.148 26.8921 353.122 27.1828 352.642 27.7643C352.162 28.3457 351.923 29.526 351.924 31.3052V56.9708C351.924 58.7515 352.173 59.9326 352.669 60.5141C353.166 61.0955 354.2 61.3862 355.773 61.3862C358.648 61.3862 360.914 60.7101 362.57 59.358C364.226 58.0058 365.414 56.0298 366.136 53.4299C366.854 50.8285 367.213 47.6631 367.215 43.9336C367.215 38.1797 366.325 33.9021 364.545 31.1008C362.765 28.2995 359.823 26.8966 355.72 26.8921Z" fill="black"/>
<path d="M410.311 25.25C412.569 25.25 414.425 25.5831 415.878 26.2493C417.256 26.8722 418.556 27.6559 419.751 28.5842C420.436 29.1006 420.958 29.1611 421.317 28.7659C421.676 28.3707 421.923 27.438 422.059 25.9677H423.24C423.172 27.3032 423.121 28.9204 423.088 30.8192C423.055 32.718 423.037 35.2414 423.036 38.3894H421.855C421.722 37.0331 421.499 35.6871 421.188 34.3601C420.944 33.3291 420.563 32.3358 420.053 31.4074C419.536 30.5061 418.841 29.72 418.009 29.0975C417.17 28.2512 416.154 27.6019 415.033 27.1965C413.898 26.7858 412.7 26.5775 411.494 26.5809C409.646 26.5809 408.072 27.0685 406.774 28.0437C405.414 29.0938 404.331 30.4597 403.618 32.023C402.774 33.827 402.179 35.7371 401.847 37.7012C401.466 39.8622 401.278 42.0527 401.284 44.2471C401.277 46.4561 401.474 48.661 401.872 50.8338C402.216 52.7859 402.838 54.6784 403.72 56.453C404.476 57.9972 405.594 59.3359 406.978 60.3551C408.357 61.3274 410.011 61.8314 411.698 61.7928C412.863 61.7854 414.016 61.5677 415.103 61.15C416.212 60.7472 417.219 60.1078 418.055 59.2762C419.34 58.3186 420.293 56.9816 420.779 55.4536C421.256 53.9304 421.615 51.9021 421.855 49.3688H423.036C423.036 52.6213 423.053 55.2485 423.088 57.2502C423.123 59.252 423.173 60.9373 423.24 62.3061H422.059C421.923 60.8343 421.696 59.9099 421.378 59.5329C421.061 59.1558 420.522 59.2073 419.762 59.6873C418.49 60.5818 417.143 61.3631 415.735 62.0222C414.316 62.69 412.496 63.0239 410.272 63.0239C406.64 63.0239 403.467 62.288 400.753 60.8162C398.058 59.3709 395.853 57.1574 394.417 54.4565C392.912 51.684 392.16 48.3475 392.16 44.4469C392.16 40.6145 392.938 37.2606 394.494 34.3851C395.97 31.5945 398.19 29.2675 400.907 27.6621C403.62 26.054 406.754 25.25 410.311 25.25Z" fill="black"/>
<path d="M440.583 35.0529C443.077 35.0529 445.266 35.5147 447.151 36.4384C449.035 37.362 450.504 38.8505 451.557 40.9037C452.617 42.957 453.147 45.678 453.147 49.0668C453.147 52.4555 452.617 55.1674 451.557 57.2025C450.498 59.2406 449.027 60.7208 447.146 61.6429C445.265 62.5651 443.076 63.0269 440.578 63.0284C438.157 63.0284 435.993 62.5666 434.088 61.6429C432.182 60.7192 430.694 59.2391 429.624 57.2025C428.547 55.1674 428.008 52.4555 428.008 49.0668C428.008 45.678 428.547 42.957 429.624 40.9037C430.7 38.8505 432.188 37.362 434.088 36.4384C435.987 35.5147 438.152 35.0529 440.583 35.0529ZM440.583 36.0795C439.221 36.0795 438.075 37.0978 437.146 39.1344C436.216 41.171 435.754 44.4795 435.759 49.0599C435.759 53.6449 436.221 56.9474 437.146 58.9673C438.07 60.9873 439.216 62.0003 440.583 62.0063C441.983 62.0063 443.137 60.9971 444.045 58.9787C444.953 56.9603 445.407 53.6578 445.407 49.0713C445.407 44.4863 444.953 41.1755 444.045 39.1389C443.137 37.1023 441.983 36.0825 440.583 36.0795Z" fill="black"/>
<path d="M474.956 35.0529C476.393 35.0529 477.556 35.2323 478.446 35.5912C479.268 35.9057 480.006 36.4063 480.603 37.0539C481.191 37.7956 481.595 38.6668 481.781 39.5955C482.05 40.9562 482.171 42.3423 482.14 43.7292V57.5364C482.14 58.9734 482.362 59.9485 482.807 60.4618C483.252 60.9751 484.022 61.2318 485.116 61.2318V62.3107C484.5 62.2773 483.568 62.2342 482.321 62.1812C481.074 62.1282 479.851 62.1025 478.652 62.104C477.42 62.104 476.21 62.1297 475.02 62.1812C473.83 62.2327 472.922 62.2758 472.296 62.3107V61.2318C473.219 61.2318 473.861 60.9751 474.221 60.4618C474.581 59.9485 474.76 58.9734 474.759 57.5364V41.5647C474.769 40.8153 474.7 40.067 474.555 39.332C474.451 38.7647 474.173 38.2443 473.758 37.8443C473.364 37.4854 472.775 37.306 471.989 37.306C471.108 37.3029 470.248 37.5718 469.526 38.076C468.748 38.6182 468.123 39.3509 467.71 40.2042C467.237 41.1522 466.999 42.1998 467.015 43.2591V57.5296C467.015 58.9666 467.203 59.9417 467.58 60.455C467.957 60.9683 468.588 61.225 469.478 61.225V62.3038C468.932 62.2705 468.086 62.2274 466.94 62.1744C465.794 62.1214 464.623 62.0956 463.426 62.0972C462.124 62.0972 460.79 62.1229 459.423 62.1744C458.056 62.2259 457.03 62.269 456.345 62.3038V61.225C457.54 61.225 458.386 60.9683 458.883 60.455C459.379 59.9417 459.627 58.9666 459.627 57.5296V41.3671C459.627 39.8271 459.4 38.6915 458.946 37.9601C458.492 37.2288 457.618 36.8585 456.324 36.8495V35.7729C457.418 35.8743 458.478 35.925 459.503 35.925C460.94 35.925 462.283 35.8652 463.53 35.7456C464.695 35.6389 465.852 35.4583 466.995 35.205V39.8249C467.816 38.1153 468.928 36.8919 470.33 36.1544C471.758 35.4124 473.347 35.0341 474.956 35.0529ZM490.394 35.0529C491.831 35.0529 492.994 35.2323 493.884 35.5912C494.705 35.9051 495.443 36.4059 496.038 37.0539C496.627 37.7955 497.032 38.6666 497.219 39.5955C497.487 40.9564 497.607 42.3424 497.577 43.7292V57.5364C497.577 58.9734 497.826 59.9485 498.322 60.4618C498.818 60.9751 499.665 61.2318 500.86 61.2318V62.3107C500.211 62.2773 499.236 62.2342 497.936 62.1812C496.638 62.1312 495.353 62.104 494.077 62.104C492.846 62.104 491.635 62.1297 490.444 62.1812C489.253 62.2327 488.345 62.2758 487.72 62.3107V61.2318C488.645 61.2318 489.286 60.9751 489.643 60.4618C490 59.9485 490.18 58.9734 490.183 57.5364V41.5647C490.196 40.8141 490.12 40.0646 489.956 39.332C489.834 38.7548 489.528 38.2327 489.084 37.8443C488.654 37.4854 487.996 37.306 487.109 37.306C485.774 37.306 484.611 37.8958 483.62 39.0753C482.628 40.2549 482.115 41.7009 482.08 43.4135L481.824 40.2814C482.747 38.2281 483.97 36.8426 485.493 36.1249C487.028 35.4041 488.705 35.0377 490.401 35.0529H490.394Z" fill="black"/>
<path d="M513.233 35.205V66.5194C513.233 68.1274 513.644 69.1965 514.464 69.7264C515.284 70.2564 516.413 70.5221 517.849 70.5237V71.6002C516.959 71.5654 515.736 71.523 514.18 71.4731C512.624 71.4231 510.974 71.3973 509.229 71.3958C507.964 71.3958 506.731 71.4208 505.51 71.4731C504.289 71.5253 503.38 71.5662 502.765 71.6002V70.5237C503.893 70.5237 504.687 70.2837 505.149 69.8036C505.611 69.3237 505.842 68.4 505.844 67.0327V41.3671C505.844 39.8271 505.604 38.6915 505.124 37.9601C504.644 37.2288 503.789 36.8608 502.559 36.8563V35.7729C503.653 35.8743 504.712 35.925 505.737 35.925C507.14 35.925 508.474 35.8652 509.739 35.7456C510.914 35.6401 512.081 35.4595 513.233 35.205ZM521.179 35.0506C523.78 35.0506 525.961 36.1105 527.722 38.2304C529.484 40.3503 530.364 43.5498 530.363 47.8289C530.363 51.1495 529.867 53.9387 528.876 56.1963C527.884 58.454 526.508 60.1567 524.746 61.3045C522.984 62.4507 520.889 63.0238 518.46 63.0238C517.215 63.0387 515.979 62.8031 514.827 62.3311C513.812 61.9347 512.937 61.2472 512.312 60.3551L512.825 59.6873C513.162 60.2984 513.67 60.798 514.287 61.125C514.959 61.4771 515.71 61.6537 516.469 61.6384C518.008 61.6384 519.219 61.1167 520.101 60.0734C520.983 59.0302 521.625 57.5584 522.026 55.658C522.45 53.4161 522.648 51.1371 522.616 48.8555C522.616 45.9134 522.428 43.6043 522.051 41.9281C521.674 40.2519 521.161 39.0534 520.512 38.3326C520.221 37.9919 519.859 37.7189 519.452 37.5329C519.044 37.3469 518.601 37.2524 518.153 37.256C516.921 37.256 515.8 37.7353 514.791 38.6938C513.781 39.6522 513.211 41.0226 513.081 42.8048L512.825 41.0082C513.441 39.0579 514.493 37.5778 515.98 36.5678C517.52 35.5431 519.337 35.0145 521.186 35.0529L521.179 35.0506Z" fill="black"/>
<path d="M544.018 22.1178V57.5364C544.018 58.9734 544.266 59.9485 544.763 60.4618C545.259 60.9751 546.105 61.2318 547.301 61.2318V62.3107C546.652 62.2773 545.677 62.2342 544.377 62.1812C543.077 62.1282 541.76 62.1025 540.427 62.104C539.092 62.104 537.749 62.1297 536.399 62.1812C535.049 62.2327 534.031 62.2758 533.346 62.3107V61.2318C534.541 61.2318 535.388 60.9751 535.886 60.4618C536.384 59.9485 536.632 58.9734 536.631 57.5364V28.2776C536.631 26.7377 536.399 25.602 535.936 24.8707C535.473 24.1393 534.609 23.7713 533.346 23.7668V22.6834C534.44 22.7848 535.499 22.8356 536.524 22.8356C537.927 22.8356 539.261 22.7758 540.527 22.6561C541.701 22.5513 542.867 22.3715 544.018 22.1178Z" fill="black"/>
<path d="M560.18 35.205V57.5341C560.18 58.9711 560.428 59.9463 560.923 60.4596C561.42 60.9729 562.264 61.2295 563.463 61.2295V62.3084C562.814 62.2751 561.847 62.2319 560.564 62.1789C559.281 62.1259 557.972 62.1002 556.639 62.1017C555.305 62.1017 553.955 62.1275 552.586 62.1789C551.218 62.2304 550.192 62.2736 549.508 62.3084V61.2295C550.703 61.2295 551.55 60.9729 552.048 60.4596C552.546 59.9463 552.794 58.9711 552.791 57.5341V41.3671C552.791 39.8271 552.564 38.6915 552.11 37.9601C551.655 37.2288 550.792 36.8608 549.519 36.8563V35.7729C550.613 35.8743 551.673 35.925 552.698 35.925C554.134 35.925 555.476 35.8652 556.725 35.7456C557.887 35.6382 559.041 35.4577 560.18 35.205ZM556.178 22.5267C557.614 22.5267 558.749 22.8772 559.583 23.5783C560.417 24.2794 560.836 25.2462 560.839 26.4787C560.839 27.7098 560.42 28.6766 559.583 29.3792C558.746 30.0818 557.611 30.4323 556.178 30.4308C554.742 30.4308 553.606 30.0803 552.772 29.3792C551.939 28.6781 551.519 27.7113 551.515 26.4787C551.515 25.2477 551.934 24.2809 552.772 23.5783C553.611 22.8757 554.746 22.5259 556.178 22.529V22.5267Z" fill="black"/>
<path d="M572.442 62.6695C570.149 62.6695 568.49 62.0707 567.465 60.8729C566.433 59.6578 565.885 58.1042 565.926 56.5098C565.926 55.038 566.259 53.8403 566.925 52.9166C567.612 51.9746 568.497 51.1946 569.518 50.6317C570.587 50.0287 571.712 49.5305 572.878 49.144C574.058 48.7503 575.186 48.3566 576.263 47.9629C577.199 47.6436 578.081 47.1841 578.88 46.6001C579.192 46.3801 579.446 46.0877 579.621 45.7479C579.795 45.4081 579.885 45.031 579.881 44.6491V40.6562C579.895 39.8402 579.747 39.0297 579.445 38.2713C579.182 37.6052 578.714 37.0393 578.111 36.6541C577.401 36.2491 576.592 36.053 575.777 36.0886C575.086 36.0913 574.399 36.186 573.733 36.3702C573.095 36.5328 572.511 36.8611 572.04 37.3219C572.923 37.6102 573.699 38.155 574.272 38.8868C574.795 39.5715 575.075 40.4118 575.066 41.2739C575.066 42.4368 574.664 43.3605 573.861 44.0449C573.07 44.7254 572.056 45.0908 571.014 45.0715C569.783 45.0715 568.851 44.6869 568.217 43.9177C567.577 43.1281 567.24 42.1356 567.268 41.1195C567.233 40.2378 567.495 39.3699 568.012 38.6551C568.596 37.9262 569.298 37.3011 570.09 36.8063C571.176 36.2119 572.343 35.7802 573.554 35.5253C574.995 35.2099 576.466 35.0575 577.94 35.071C579.375 35.0552 580.806 35.2192 582.199 35.5594C583.4 35.8494 584.499 36.462 585.378 37.331C586.159 38.1167 586.692 39.1152 586.91 40.2019C587.174 41.6324 587.294 43.0857 587.269 44.5401V58.5017C587.269 59.3239 587.354 59.9061 587.525 60.2483C587.603 60.4107 587.728 60.5463 587.883 60.6377C588.038 60.7291 588.217 60.7722 588.397 60.7616C588.739 60.7614 589.075 60.673 589.373 60.505C589.684 60.3298 589.977 60.1228 590.245 59.8872L590.758 60.7616C590.023 61.3863 589.175 61.8651 588.261 62.1721C587.243 62.5093 586.177 62.6743 585.105 62.6604C583.053 62.6604 581.691 62.241 581.019 61.4021C580.357 60.5785 579.987 59.5583 579.968 58.5017C579.212 59.8073 578.123 60.8883 576.812 61.6338C575.466 62.3431 573.963 62.6995 572.442 62.6695ZM576.392 59.3852C577.026 59.3907 577.651 59.2344 578.208 58.931C578.883 58.5185 579.453 57.9567 579.877 57.2888V46.7568C579.449 47.4587 578.86 48.0482 578.158 48.4762C577.421 48.9305 576.664 49.4264 575.888 49.9639C575.114 50.4998 574.459 51.1904 573.965 51.9922C573.452 52.8144 573.195 53.9099 573.195 55.2787C573.195 56.7483 573.502 57.8021 574.119 58.4336C574.41 58.7429 574.763 58.9875 575.154 59.1514C575.546 59.3154 575.968 59.3951 576.392 59.3852Z" fill="black"/>
<path d="M611.332 35.0529C612.769 35.0529 613.94 35.2323 614.847 35.5912C615.668 35.8926 616.4 36.3956 616.976 37.0539C617.565 37.7898 617.977 38.6506 618.182 39.5705C618.439 40.5971 618.568 41.9833 618.568 43.7292V57.5364C618.568 58.9734 618.816 59.9485 619.312 60.4618C619.809 60.9752 620.655 61.2318 621.85 61.2318V62.3107C621.201 62.2774 620.226 62.2342 618.926 62.1812C617.626 62.1282 616.344 62.1025 615.078 62.104C613.778 62.104 612.504 62.1297 611.255 62.1812C610.006 62.2327 609.057 62.2758 608.408 62.3107V61.2318C609.434 61.2318 610.152 60.9752 610.563 60.4618C610.973 59.9485 611.179 58.9734 611.18 57.5364V41.5647C611.192 40.8125 611.106 40.0619 610.924 39.332C610.782 38.7501 610.458 38.2288 610 37.8443C609.555 37.4854 608.887 37.306 607.997 37.306C607.306 37.2972 606.622 37.4449 605.995 37.7379C605.369 38.0309 604.817 38.4617 604.381 38.9981C603.407 40.1292 602.92 41.5495 602.919 43.2591V57.5296C602.919 58.9666 603.132 59.9417 603.559 60.455C603.986 60.9683 604.695 61.225 605.688 61.225V62.3039C605.072 62.2705 604.175 62.2274 602.996 62.1744C601.817 62.1214 600.594 62.0957 599.327 62.0972C598.027 62.0972 596.693 62.1229 595.325 62.1744C593.956 62.2259 592.93 62.269 592.246 62.3039V61.225C593.442 61.225 594.289 60.9683 594.787 60.455C595.284 59.9417 595.532 58.9666 595.529 57.5296V41.3671C595.529 39.8271 595.302 38.6915 594.848 37.9601C594.394 37.2288 593.53 36.8608 592.257 36.8563V35.7729C593.352 35.8743 594.411 35.925 595.436 35.925C596.872 35.925 598.215 35.8652 599.463 35.7456C600.628 35.6395 601.785 35.4597 602.928 35.2073V39.8271C603.781 38.0828 604.945 36.851 606.417 36.1317C607.951 35.3986 609.633 35.0294 611.332 35.0529Z" fill="black"/>
<path d="M637.088 35.0529C638.324 35.0409 639.557 35.1874 640.757 35.489C641.721 35.7192 642.646 36.0912 643.501 36.5928C644.345 37.0953 645.057 37.7904 645.581 38.6211C646.087 39.4646 646.344 40.4337 646.323 41.417C646.342 41.9602 646.251 42.5016 646.056 43.0089C645.861 43.5161 645.566 43.979 645.188 44.3697C644.807 44.7541 644.351 45.0552 643.847 45.2538C643.344 45.4524 642.805 45.5443 642.264 45.5235C641.065 45.5235 640.11 45.1828 639.39 44.4992C638.67 43.8155 638.314 42.8888 638.314 41.7259C638.282 40.7112 638.65 39.7247 639.34 38.9799C639.97 38.2768 640.789 37.7692 641.699 37.5172C641.366 37.1306 640.943 36.8312 640.468 36.6451C639.884 36.3968 639.255 36.2738 638.62 36.2839C637.611 36.2674 636.626 36.5932 635.826 37.2083C634.963 37.8982 634.27 38.7761 633.798 39.7749C633.21 40.9964 632.787 42.2912 632.54 43.6247C632.239 45.2156 632.093 46.8321 632.105 48.4512C632.105 51.0859 632.438 53.1558 633.106 54.661C633.773 56.1661 634.628 57.226 635.671 57.8408C636.653 58.4405 637.779 58.7602 638.929 58.7652C639.887 58.7652 640.981 58.5002 642.212 57.9702C643.442 57.4403 644.589 56.3198 645.651 54.6087L646.523 54.9153C646.105 56.2689 645.481 57.5504 644.675 58.7152C643.815 59.9881 642.679 61.0502 641.351 61.8224C639.989 62.6264 638.313 63.0284 636.323 63.0284C634.222 63.0579 632.149 62.5547 630.295 61.5657C628.499 60.5906 627.061 59.0847 625.982 57.0481C624.903 55.0115 624.364 52.3851 624.365 49.169C624.365 46.0891 624.921 43.4968 626.032 41.3921C627.041 39.3945 628.622 37.7422 630.572 36.6451C632.571 35.5631 634.815 35.0147 637.088 35.0529Z" fill="black"/>
<path d="M662.435 35.0529C665.444 35.0529 667.803 35.9425 669.514 37.7216C671.224 39.5008 672.079 42.4096 672.079 46.448H655.199L655.097 45.4736H665.615C665.657 43.9191 665.554 42.3641 665.307 40.8288C665.068 39.41 664.689 38.2743 664.172 37.4218C663.654 36.5693 662.973 36.1416 662.128 36.1385C660.93 36.1385 659.912 36.8911 659.075 38.3962C658.238 39.9013 657.734 42.3997 657.563 45.8915L657.715 46.1981C657.681 46.6092 657.656 47.0385 657.638 47.4814C657.62 47.9243 657.613 48.3899 657.613 48.8669C657.613 51.229 657.946 53.146 658.614 54.6178C659.281 56.0896 660.128 57.1586 661.154 57.8249C662.075 58.4595 663.163 58.808 664.281 58.8265C665.441 58.7967 666.583 58.5349 667.641 58.0565C668.851 57.5432 669.987 56.431 671.046 54.72L671.97 55.0289C671.527 56.3909 670.869 57.673 670.02 58.8265C669.121 60.0663 667.967 61.0988 666.635 61.8541C665.273 62.6415 663.63 63.0352 661.708 63.0352C659.382 63.0352 657.33 62.5393 655.551 61.5475C653.773 60.5557 652.379 59.0498 651.369 57.0299C650.361 55.01 649.857 52.4434 649.857 49.3302C649.857 46.1504 650.396 43.5006 651.472 41.3807C652.548 39.2608 654.036 37.6777 655.937 36.6314C657.84 35.5791 660.006 35.0529 662.435 35.0529Z" fill="black"/>
<path d="M9.18254 41.7327C9.25064 41.3375 9.33237 40.9438 9.42772 40.5517C9.70891 39.4095 10.0887 38.2939 10.5629 37.2174C10.5852 37.2085 10.6054 37.195 10.6222 37.1778C10.639 37.1606 10.6521 37.14 10.6605 37.1175C11.1591 36.0139 11.7937 34.9769 12.5493 34.0308C15.7898 30.2074 18.8501 28.0876 21.7303 27.6712C26.1392 28.8795 30.8886 33.1404 33.4404 38.3462L33.4676 38.3871C33.6748 38.9637 33.8499 39.5514 33.9921 40.1474C34.1169 40.6652 34.2191 41.1922 34.3031 41.7373C37.2073 40.5104 39.917 38.8661 42.3466 36.8563C42.3285 36.8109 42.3149 36.7677 42.2967 36.7223C42.2604 36.6314 42.2195 36.5406 42.1809 36.4497C42.123 36.2663 42.054 36.0865 41.9743 35.9114C41.717 35.3614 41.4321 34.8247 41.1207 34.3033C40.4551 33.1389 39.6959 32.0306 38.8504 30.9895C38.6249 30.7124 38.3918 30.4338 38.1512 30.1537C36.8117 28.5343 35.4836 27.1556 34.605 26.2925C31.7013 23.3943 28.1529 20.7574 24.3093 17.4685C22.0391 15.5538 20.3999 13.1531 19.2058 11.4064C18.0116 9.65981 17.4123 8.01085 17.4123 6.47319C17.4123 4.80152 17.4123 3.95659 18.0003 2.57111L19.7234 -0.0136261C18.4454 0.677664 17.2727 1.54803 16.2408 2.57111C15.4125 3.48013 14.7052 4.49242 14.1363 5.58284C13.5261 6.75016 13.0574 7.98616 12.74 9.26461C12.4081 10.5735 12.2403 11.9186 12.2406 13.2689C12.2402 15.1381 12.6034 16.9896 13.3099 18.72C14.672 21.9997 16.8084 23.1695 18.0003 24.8979C14.3883 26.6491 12.7991 27.3963 9.85681 29.7517C8.40053 30.6777 7.0373 31.7426 5.78621 32.9315C4.33362 34.3089 3.09204 35.8931 2.10156 37.6331C4.27832 39.2991 6.65766 40.682 9.18254 41.7486V41.7327Z" fill="url(#paint0_linear_801:11339)"/>
<path d="M42.3472 36.854C39.9176 38.8638 37.2079 40.5081 34.3036 41.735C34.4798 42.8811 34.5671 44.0392 34.5647 45.1987C34.5899 47.3841 34.2759 49.5602 33.6339 51.6492C33.0857 53.4502 32.2267 55.1413 31.0957 56.6461C30.085 57.9859 28.7982 59.0928 27.3226 59.8917C25.8983 60.6592 24.3044 61.0575 22.6867 61.0501C21.3731 61.0575 20.068 60.8409 18.8272 60.4096C17.6303 59.9933 16.5018 59.4017 15.4786 58.6539C14.4405 57.8969 13.5103 57.0021 12.7134 55.9942C11.9008 54.9584 11.2148 53.8291 10.6701 52.6304C10.1075 51.4021 9.67598 50.1177 9.38288 48.7987C9.08015 47.4571 8.92785 46.0858 8.92883 44.7104C8.92872 43.7107 9.01532 42.7129 9.18764 41.7282C6.66063 40.6635 4.27898 39.2821 2.09986 37.6172C1.87283 38.026 1.6458 38.4394 1.45283 38.8618C0.44582 41.0189 -0.0713129 43.3722 -0.061441 45.7529C-0.0889365 48.2095 0.4193 50.6426 1.42786 52.8825C2.38888 55.0022 3.76714 56.9064 5.48029 58.4813C7.222 60.0703 9.25083 61.3122 11.4579 62.1403C13.7792 63.0165 16.2418 63.4584 18.7228 63.444C20.7727 63.4444 22.8184 63.2574 24.8343 62.8853C26.8185 62.5229 28.7601 61.9566 30.6281 61.1955C32.4438 60.4589 34.1666 59.5113 35.7612 58.3722C37.3135 57.2573 38.6908 55.9169 39.8476 54.3952C41.0169 52.8467 41.9333 51.1226 42.5629 49.2871C43.2394 47.2681 43.5717 45.1498 43.5459 43.0206C43.513 40.9104 43.1072 38.8227 42.3472 36.854Z" fill="black"/>
</g>
<defs>
<linearGradient id="paint0_linear_801:11339" x1="22.2252" y1="49.2507" x2="22.2252" y2="7.50208" gradientUnits="userSpaceOnUse">
<stop stop-color="#FF6606"/>
<stop offset="0.02" stop-color="#FF6806"/>
<stop offset="0.29" stop-color="#FF8A06"/>
<stop offset="0.56" stop-color="#FFA206"/>
<stop offset="0.8" stop-color="#FFB106"/>
<stop offset="1" stop-color="#FFB606"/>
</linearGradient>
<clipPath id="clip0_801:11339">
<rect width="672" height="72" fill="white"/>
</clipPath>
</defs>
</svg>
