<svg width="220" height="228" viewBox="0 0 220 228" fill="none" xmlns="http://www.w3.org/2000/svg">
<circle cx="100" cy="128" r="100" fill="#DEF1FA"/>
<g clip-path="url(#clip0_801_10163)">
<path d="M189.974 112.797L175.469 107.966L170.484 98.0062C175.229 93.0458 178.384 86.7839 179.547 80.0217L180.121 76.5891H185.241C187.875 76.5891 190.401 75.5437 192.264 73.6829C194.126 71.8221 195.172 69.2983 195.172 66.6667V47.1318C195.172 21.1442 174.01 6.53543e-06 148 6.53543e-06C141.804 -0.00325412 135.669 1.21362 129.944 3.58106C124.219 5.9485 119.018 9.42007 114.637 13.7973C110.256 18.1746 106.781 23.3716 104.412 29.0914C102.042 34.8111 100.824 40.9414 100.828 47.1318V66.6667C100.832 68.6421 101.424 70.5716 102.529 72.2094C103.635 73.8473 105.203 75.1193 107.034 75.8636V79.0698C107.034 81.7014 108.081 84.2252 109.943 86.086C111.806 87.9469 114.332 88.9923 116.966 88.9923H119.296C120.641 91.8283 122.368 94.4668 124.429 96.8341C124.768 97.2217 125.124 97.6093 125.512 98.0124L120.547 107.966L106.023 112.797C88.6279 118.592 76 136.881 76 156.279C76 157.266 76.3924 158.212 77.0908 158.91C77.7892 159.608 78.7364 160 79.7241 160H216.276C217.264 160 218.211 159.608 218.909 158.91C219.608 158.212 220 157.266 220 156.279C220 136.881 207.372 118.592 189.974 112.797ZM158.595 133.06C156.522 136.514 154.272 139.859 151.854 143.082C151.758 143.209 151.758 143.209 150.858 144.654L148 149.24L144.316 143.333C144.26 143.243 144.201 143.157 144.136 143.07C141.729 139.859 139.487 136.528 137.42 133.088L147.727 122.198L158.595 133.06ZM162.357 126.291L152.848 116.791L165.088 103.876L168.793 111.268C167 116.419 164.849 121.439 162.357 126.291ZM151.414 107.473L147.578 111.526L143.367 107.318C146.031 107.712 148.736 107.764 151.414 107.473ZM128.734 26.2512C133.234 22.13 139.118 19.8442 145.222 19.845H150.793C157.31 19.8704 163.55 22.4769 168.146 27.0927C172.742 31.7086 175.319 37.9572 175.31 44.4682C175.31 45.1659 175.31 45.7985 175.31 46.3845L172.126 45.9287C161.648 44.412 151.938 39.5613 144.437 32.0961C144.091 31.7486 143.679 31.4734 143.225 31.2866C142.771 31.0997 142.284 31.005 141.793 31.0078C137.929 31.0282 134.107 31.8233 130.556 33.3461C127.005 34.8688 123.795 37.0883 121.118 39.8729C122.11 34.6269 124.783 29.8457 128.734 26.2512ZM124.91 46.8837C126.73 44.4637 129.049 42.4634 131.711 41.0188C134.373 39.5741 137.315 38.719 140.338 38.5116C148.823 46.4674 159.547 51.6319 171.062 53.3085L175.071 53.8822C174.761 60.1364 174.14 66.462 173.281 72.214C173.082 73.5473 172.914 74.5488 172.638 76.2047C172.517 76.9271 172.374 77.755 172.201 78.8155C170.55 88.7194 163.046 97.2248 153.952 99.4977C150.046 100.468 145.961 100.468 142.054 99.4977C136.406 98.0868 131.269 94.2884 127.812 89.0047H132.591C133.338 90.8317 134.611 92.3957 136.25 93.4977C137.888 94.5998 139.818 95.1902 141.793 95.1938H148C150.634 95.1938 153.16 94.1484 155.022 92.2876C156.885 90.4268 157.931 87.9029 157.931 85.2713C157.931 82.6397 156.885 80.1159 155.022 78.2551C153.16 76.3942 150.634 75.3488 148 75.3488H141.793C139.815 75.3504 137.882 75.9412 136.241 77.0459C134.6 78.1505 133.326 79.7188 132.582 81.5504H124.429C122.878 75.9318 121.245 61.2806 120.867 52.2729L124.91 46.8837ZM148 87.7519H141.793C141.135 87.7519 140.503 87.4906 140.038 87.0254C139.572 86.5602 139.31 85.9292 139.31 85.2713C139.31 84.6134 139.572 83.9825 140.038 83.5173C140.503 83.0521 141.135 82.7907 141.793 82.7907H148C148.658 82.7907 149.29 83.0521 149.756 83.5173C150.221 83.9825 150.483 84.6134 150.483 85.2713C150.483 85.9292 150.221 86.5602 149.756 87.0254C149.29 87.4906 148.658 87.7519 148 87.7519ZM142.46 116.936L133.631 126.264C131.145 121.42 128.998 116.409 127.207 111.268L130.403 104.887L142.46 116.936ZM138.069 147.405L141.293 152.558H83.6314C85.0869 137.637 95.1855 124.251 108.378 119.854L120.87 115.696C123.242 122.149 126.143 128.396 129.544 134.372L129.559 134.4C132.122 138.908 134.964 143.251 138.069 147.405ZM157.906 147.405C161.04 143.22 163.907 138.842 166.49 134.298L166.54 134.205C169.898 128.278 172.767 122.088 175.118 115.696L187.606 119.854C200.802 124.251 210.901 137.637 212.356 152.558H154.707L157.906 147.405ZM108.447 43.4109C109.367 33.5665 113.932 24.4198 121.248 17.7616C128.563 11.1033 138.103 7.41297 147.998 7.41297C157.894 7.41297 167.434 11.1033 174.749 17.7616C182.065 24.4198 186.63 33.5665 187.55 43.4109H182.74C182.476 35.1131 178.997 27.2419 173.038 21.4572C167.078 15.6725 159.102 12.4263 150.793 12.4031H145.238C136.926 12.4214 128.945 15.6655 122.982 21.4507C117.018 27.236 113.536 35.1099 113.272 43.4109H108.447ZM187.724 66.6667C187.724 67.3246 187.463 67.9555 186.997 68.4207C186.531 68.8859 185.9 69.1473 185.241 69.1473H181.207C181.946 63.2403 182.448 56.9333 182.647 50.8527H187.724V66.6667ZM114.793 69.1473H110.759C110.1 69.1473 109.469 68.8859 109.003 68.4207C108.537 67.9555 108.276 67.3246 108.276 66.6667V50.8527H113.353C113.353 50.9799 113.353 51.1039 113.353 51.231L113.974 51.2093L113.353 51.2651C113.577 57.1876 114.067 63.355 114.793 69.1473ZM116.745 81.5504C116.126 81.4952 115.549 81.2097 115.13 80.7504C114.711 80.291 114.48 79.6912 114.483 79.0698V76.5891H115.879L116.453 80.0279C116.537 80.5209 116.637 81.0295 116.745 81.5504Z" fill="#0C9FDB"/>
</g>
<defs>
<clipPath id="clip0_801_10163">
<rect width="144" height="160" fill="white" transform="translate(76)"/>
</clipPath>
</defs>
</svg>
