<svg width="220" height="228" viewBox="0 0 220 228" fill="none" xmlns="http://www.w3.org/2000/svg">
<circle cx="100" cy="128" r="100" fill="#DEF1FA"/>
<g clip-path="url(#clip0_801_8433)">
<path d="M192.681 84.6875C194.616 90.1434 199.827 94.0625 205.938 94.0625C213.692 94.0625 220 87.7541 220 80C220 72.2459 213.692 65.9375 205.938 65.9375C199.827 65.9375 194.616 69.8566 192.681 75.3125H156.875V62.8125H187.188C188.284 62.8125 189.346 62.4281 190.188 61.7259L198.757 54.585C200.861 55.8394 203.316 56.5625 205.938 56.5625C213.692 56.5625 220 50.2541 220 42.5C220 34.7459 213.692 28.4375 205.938 28.4375C198.183 28.4375 191.875 34.7459 191.875 42.5C191.875 44.2175 192.186 45.8634 192.752 47.3862L185.49 53.4375H156.875V19.0625H170.806C172.741 24.5184 177.952 28.4375 184.062 28.4375C191.817 28.4375 198.125 22.1291 198.125 14.375C198.125 6.62094 191.817 0.3125 184.062 0.3125C177.952 0.3125 172.741 4.23156 170.806 9.6875H156.875V5C156.875 2.41125 154.776 0.3125 152.188 0.3125H127.188C124.599 0.3125 122.5 2.41125 122.5 5V11.8353C115.82 13.5047 109.497 16.1159 103.625 19.6303L98.8078 14.8134C96.9772 12.9828 94.0094 12.9828 92.1787 14.8134L74.5009 32.4909C72.6703 34.3213 72.6703 37.2894 74.5009 39.12L79.3178 43.9369C75.8034 49.8094 73.1925 56.1322 71.5228 62.8125H64.6875C62.0987 62.8125 60 64.9112 60 67.5V92.5C60 95.0888 62.0987 97.1875 64.6875 97.1875H71.5228C73.1925 103.868 75.8034 110.19 79.3178 116.063L74.5009 120.88C73.6219 121.758 73.1278 122.951 73.1278 124.194C73.1278 125.437 73.6219 126.63 74.5009 127.508L92.1787 145.186C94.0091 147.016 96.9772 147.016 98.8078 145.186L103.625 140.369C109.497 143.883 115.82 146.495 122.5 148.164V155C122.5 157.589 124.599 159.688 127.188 159.688H152.188C154.776 159.688 156.875 157.589 156.875 155V150.312H170.806C172.741 155.768 177.952 159.688 184.062 159.688C191.817 159.688 198.125 153.379 198.125 145.625C198.125 137.871 191.817 131.562 184.062 131.562C177.952 131.562 172.741 135.482 170.806 140.938H156.875V106.562H185.49L192.752 112.614C192.186 114.137 191.875 115.783 191.875 117.5C191.875 125.254 198.183 131.562 205.938 131.562C213.692 131.562 220 125.254 220 117.5C220 109.746 213.692 103.438 205.938 103.438C203.316 103.438 200.861 104.161 198.757 105.415L190.188 98.2741C189.346 97.5719 188.284 97.1875 187.188 97.1875H156.875V84.6875H192.681ZM205.938 75.3125C208.522 75.3125 210.625 77.4153 210.625 80C210.625 82.5847 208.522 84.6875 205.938 84.6875C203.353 84.6875 201.25 82.5847 201.25 80C201.25 77.4153 203.353 75.3125 205.938 75.3125ZM205.938 37.8125C208.522 37.8125 210.625 39.9153 210.625 42.5C210.625 45.0847 208.522 47.1875 205.938 47.1875C203.353 47.1875 201.25 45.0847 201.25 42.5C201.25 39.9153 203.353 37.8125 205.938 37.8125ZM184.062 9.6875C186.647 9.6875 188.75 11.7903 188.75 14.375C188.75 16.9597 186.647 19.0625 184.062 19.0625C181.478 19.0625 179.375 16.9597 179.375 14.375C179.375 11.7903 181.478 9.6875 184.062 9.6875ZM184.062 140.938C186.647 140.938 188.75 143.04 188.75 145.625C188.75 148.21 186.647 150.312 184.062 150.312C181.478 150.312 179.375 148.21 179.375 145.625C179.375 143.04 181.478 140.938 184.062 140.938ZM205.938 112.812C208.522 112.812 210.625 114.915 210.625 117.5C210.625 120.085 208.522 122.188 205.938 122.188C203.353 122.188 201.25 120.085 201.25 117.5C201.25 114.915 203.353 112.812 205.938 112.812ZM147.5 111.837C144.918 112.481 142.302 112.812 139.688 112.812C121.595 112.812 106.875 98.0928 106.875 80C106.875 61.9072 121.595 47.1875 139.688 47.1875C142.302 47.1875 144.918 47.5194 147.5 48.1634V111.837ZM131.875 150.312V144.402C131.875 142.156 130.281 140.226 128.076 139.8C119.95 138.231 112.386 135.107 105.595 130.514C103.734 129.256 101.243 129.493 99.6541 131.082L95.4934 135.242L84.445 124.194L88.6056 120.033C90.1941 118.445 90.4322 115.953 89.1738 114.093C84.5806 107.302 81.4562 99.7375 79.8875 91.6116C79.4616 89.4063 77.5312 87.8125 75.285 87.8125H69.375V72.1875H75.285C77.5312 72.1875 79.4619 70.5938 79.8875 68.3884C81.4562 60.2616 84.5806 52.6978 89.1734 45.9072C90.4319 44.0469 90.1938 41.555 88.6053 39.9666L84.4447 35.8059L95.4931 24.7575L99.6537 28.9181C101.242 30.5066 103.734 30.745 105.594 29.4863C112.386 24.8928 119.95 21.7687 128.075 20.2003C130.281 19.7744 131.875 17.8441 131.875 15.5975V9.6875H147.5V38.5613C144.914 38.0644 142.303 37.8125 139.688 37.8125C116.425 37.8125 97.5 56.7378 97.5 80C97.5 103.262 116.425 122.188 139.688 122.188C142.303 122.188 144.914 121.936 147.5 121.439V150.312H131.875Z" fill="#0C9FDB"/>
</g>
<defs>
<clipPath id="clip0_801_8433">
<rect width="160" height="160" fill="white" transform="translate(60)"/>
</clipPath>
</defs>
</svg>
