<svg width="527" height="92" viewBox="0 0 527 92" fill="none" xmlns="http://www.w3.org/2000/svg">
<path d="M527 0V82.4165C527 84.9582 527 92 527 92C527 92 518.83 92 515.881 92H5.55836C4.49033 92.0004 3.44479 91.7355 2.54695 91.2369C1.64911 90.7384 0.937015 90.0273 0.495934 89.1889C0.0548534 88.3505 -0.0965188 87.4204 0.0599457 86.5097C0.21641 85.5991 0.674077 84.7467 1.37815 84.0545L32.9549 52.9539C34.9076 51.0342 35.9842 48.5683 35.9842 46.0153C35.9842 43.4623 34.9076 40.9963 32.9549 39.0767L1.37815 7.96082C0.674077 7.26861 0.21641 6.41614 0.0599457 5.50552C-0.0965188 4.5949 0.0548534 3.66471 0.495934 2.82632C0.937015 1.98794 1.64911 1.2769 2.54695 0.778355C3.44479 0.279805 4.49033 0.0148857 5.55836 0.0152948L527 0Z" fill="#FF5733"/>
</svg>
