<svg width="190" height="50" viewBox="0 0 1260 353" fill="none" xmlns="http://www.w3.org/2000/svg">
<path d="M275.85 170.51V268.82C275.85 275.147 276.94 279.44 279.12 281.7C281.3 283.96 285.03 285.09 290.31 285.09V289.84C287.45 289.693 283.193 289.503 277.54 289.27C271.887 289.037 266.123 288.923 260.25 288.93C254.377 288.93 248.427 289.043 242.4 289.27C236.373 289.497 231.853 289.687 228.84 289.84V285.09C234.113 285.09 237.843 283.96 240.03 281.7C242.217 279.44 243.307 275.147 243.3 268.82V197.63C243.3 190.85 242.283 185.85 240.25 182.63C238.217 179.41 234.413 177.79 228.84 177.77V173C233.66 173.447 238.327 173.67 242.84 173.67C249.173 173.67 255.087 173.407 260.58 172.88C265.715 172.413 270.815 171.622 275.85 170.51ZM258.22 114.69C264.553 114.69 269.553 116.233 273.22 119.32C276.887 122.407 278.733 126.663 278.76 132.09C278.76 137.51 276.913 141.767 273.22 144.86C269.527 147.953 264.527 149.497 258.22 149.49C251.887 149.49 246.887 147.947 243.22 144.86C239.553 141.773 237.707 137.517 237.68 132.09C237.68 126.67 239.527 122.413 243.22 119.32C246.913 116.227 251.913 114.683 258.22 114.69Z" fill="black"/>
<path d="M415.29 173V177.51C412.12 178.461 409.293 180.308 407.15 182.83C404.59 185.61 402.103 190.333 399.69 197L367.83 286.5L359.47 302.32L310.2 190.4C307.633 184.52 305.11 180.94 302.63 179.66C300.661 178.529 298.457 177.872 296.19 177.74V173C301.163 173.447 306.323 173.78 311.67 174C317.01 174.23 322.18 174.34 327.15 174.34C333.317 174.34 338.983 174.19 344.15 173.89C349.317 173.59 354.137 173.29 358.61 172.99V177.73C355.777 177.718 352.946 177.908 350.14 178.3C347.5 178.67 345.69 179.73 344.71 181.46C343.73 183.19 344.15 186.17 345.96 190.39L374.43 259.09L372.43 260.45L389.15 213.66C393.37 201.46 394.037 192.533 391.15 186.88C388.263 181.227 383.213 178.103 376 177.51V173C379.473 173.153 383.24 173.303 387.3 173.45C391.36 173.597 394.903 173.67 397.93 173.67C400.937 173.67 404.1 173.597 407.42 173.45C410.74 173.303 413.363 173.153 415.29 173ZM367.83 286.45L359.24 310.63C356.38 318.31 353.063 323.643 349.29 326.63C346.903 328.581 344.134 330.008 341.16 330.82C337.405 331.853 333.523 332.347 329.63 332.29C325.833 332.257 322.063 331.647 318.45 330.48C314.791 329.387 311.479 327.361 308.84 324.6C306.248 321.79 304.868 318.071 305 314.25C304.92 312.126 305.33 310.013 306.197 308.073C307.064 306.133 308.365 304.417 310 303.06C313.31 300.27 317.69 298.88 323.11 298.88C328.083 298.88 332.15 300.083 335.31 302.49C338.47 304.897 340.033 308.44 340 313.12C339.977 316.206 338.988 319.206 337.17 321.7C335.066 324.581 332.099 326.718 328.7 327.8C329.594 327.964 330.501 328.041 331.41 328.03H333.9C338.285 328.085 342.544 326.562 345.9 323.74C349.36 320.867 352.22 316.347 354.48 310.18L362.39 286.9L367.83 286.45Z" fill="black"/>
<path d="M448.29 291.42C438.19 291.42 430.88 288.783 426.36 283.51C421.811 278.16 419.397 271.32 419.58 264.3C419.58 257.82 421.05 252.547 423.99 248.48C427.015 244.335 430.909 240.902 435.4 238.42C440.115 235.767 445.075 233.574 450.21 231.87C455.403 230.137 460.373 228.403 465.12 226.67C469.244 225.264 473.132 223.241 476.65 220.67C478.025 219.701 479.144 218.414 479.912 216.918C480.68 215.422 481.074 213.762 481.06 212.08V194.46C481.116 190.867 480.46 187.298 479.13 183.96C477.975 181.026 475.92 178.533 473.26 176.84C470.143 175.06 466.586 174.197 463 174.35C459.958 174.362 456.932 174.779 454 175.59C451.187 176.303 448.613 177.749 446.54 179.78C450.427 181.052 453.848 183.45 456.37 186.67C458.677 189.684 459.909 193.384 459.87 197.18C459.87 202.3 458.1 206.367 454.56 209.38C451.072 212.38 446.6 213.99 442 213.9C436.567 213.9 432.46 212.207 429.68 208.82C426.862 205.343 425.379 200.974 425.5 196.5C425.346 192.618 426.501 188.797 428.78 185.65C431.35 182.441 434.443 179.689 437.93 177.51C442.713 174.893 447.855 172.992 453.19 171.87C459.535 170.481 466.015 169.81 472.51 169.87C478.814 169.797 485.103 170.512 491.23 172C496.52 173.277 501.36 175.974 505.23 179.8C508.696 183.284 511.052 187.717 512 192.54C513.161 198.838 513.69 205.237 513.58 211.64V273.11C513.58 276.73 513.95 279.29 514.71 280.8C515.054 281.515 515.602 282.112 516.286 282.514C516.97 282.917 517.758 283.107 518.55 283.06C520.057 283.059 521.538 282.67 522.85 281.93C524.221 281.159 525.508 280.247 526.69 279.21L528.95 283.06C525.71 285.808 521.977 287.916 517.95 289.27C513.468 290.754 508.771 291.481 504.05 291.42C495.01 291.42 489.01 289.573 486.05 285.88C483.135 282.254 481.506 277.762 481.42 273.11C478.092 278.858 473.295 283.618 467.52 286.9C461.594 290.006 454.979 291.561 448.29 291.42ZM465.69 277C468.483 277.023 471.236 276.335 473.69 275C476.659 273.181 479.173 270.708 481.04 267.77V221.36C479.154 224.453 476.555 227.048 473.46 228.93C470.22 230.93 466.907 233.113 463.52 235.48C460.11 237.839 457.226 240.88 455.05 244.41C452.79 248.03 451.66 252.853 451.66 258.88C451.66 265.35 453.01 269.99 455.72 272.77C456.994 274.132 458.54 275.212 460.257 275.941C461.974 276.669 463.825 277.03 465.69 277Z" fill="black"/>
<path d="M554.73 289.84V285.32C558.413 285.219 562.064 284.61 565.58 283.51C566.768 283.064 567.831 282.338 568.677 281.392C569.524 280.447 570.128 279.31 570.44 278.08C571.26 275.373 571.673 271.307 571.68 265.88V153.79C571.68 148.21 571.267 144.103 570.44 141.47C570.09 140.236 569.456 139.102 568.587 138.159C567.719 137.216 566.641 136.49 565.44 136.04C561.978 134.901 558.354 134.33 554.71 134.35V129.83C558.63 129.983 563.753 130.133 570.08 130.28C576.407 130.427 583.187 130.503 590.42 130.51C596.747 130.51 603 130.433 609.18 130.28C615.35 130.13 620.48 129.98 624.54 129.83V134.35C619.72 134.503 616.053 135.067 613.54 136.04C612.353 136.487 611.291 137.214 610.445 138.159C609.598 139.105 608.993 140.24 608.68 141.47C607.933 144.137 607.557 148.243 607.55 153.79V265.88C607.55 271.3 607.967 275.367 608.8 278.08C609.122 279.327 609.747 280.475 610.619 281.422C611.491 282.369 612.584 283.086 613.8 283.51C617.279 284.592 620.888 285.2 624.53 285.32V289.84C620.47 289.54 615.34 289.35 609.17 289.27C603 289.19 596.74 289.16 590.41 289.16C583.177 289.16 576.397 289.197 570.07 289.27C563.743 289.343 558.63 289.533 554.73 289.84ZM592.92 211.64V207.12H682.19V211.64H592.92ZM650.55 289.84V285.32C654.233 285.219 657.884 284.61 661.4 283.51C662.588 283.064 663.651 282.338 664.497 281.392C665.344 280.447 665.948 279.31 666.26 278.08C667.093 275.373 667.507 271.307 667.5 265.88V153.79C667.5 148.21 667.087 144.103 666.26 141.47C665.91 140.236 665.276 139.102 664.407 138.159C663.539 137.216 662.461 136.49 661.26 136.04C657.794 134.902 654.168 134.331 650.52 134.35V129.83C654.593 129.983 659.907 130.133 666.46 130.28C673.013 130.427 679.53 130.503 686.01 130.51C692.93 130.51 699.443 130.433 705.55 130.28C711.657 130.127 716.593 129.977 720.36 129.83V134.35C715.527 134.503 711.86 135.067 709.36 136.04C708.17 136.483 707.106 137.209 706.26 138.155C705.413 139.101 704.809 140.239 704.5 141.47C703.74 144.137 703.363 148.243 703.37 153.79V265.88C703.37 271.3 703.783 275.367 704.61 278.08C704.935 279.325 705.561 280.472 706.433 281.418C707.305 282.365 708.396 283.083 709.61 283.51C713.093 284.59 716.705 285.199 720.35 285.32V289.84C716.583 289.54 711.647 289.35 705.54 289.27C699.433 289.19 692.92 289.153 686 289.16C679.52 289.16 673.003 289.197 666.45 289.27C659.897 289.343 654.597 289.533 650.55 289.84Z" fill="black"/>
<path d="M787.28 169.83C800.54 169.83 810.937 173.747 818.47 181.58C826.003 189.413 829.77 202.22 829.77 220H755.42L754.96 215.71H801.29C801.477 208.866 801.025 202.02 799.94 195.26C798.88 189.013 797.213 184.013 794.94 180.26C792.667 176.507 789.667 174.623 785.94 174.61C780.66 174.61 776.177 177.923 772.49 184.55C768.803 191.177 766.58 202.177 765.82 217.55L766.5 218.9C766.35 220.71 766.23 222.6 766.16 224.55C766.09 226.5 766.05 228.55 766.05 230.65C766.05 241.05 767.517 249.49 770.45 255.97C773.383 262.45 777.113 267.157 781.64 270.09C785.701 272.888 790.499 274.422 795.43 274.5C800.54 274.369 805.572 273.216 810.23 271.11C815.563 268.85 820.563 263.953 825.23 256.42L829.3 257.78C827.349 263.777 824.449 269.421 820.71 274.5C816.75 279.961 811.661 284.507 805.79 287.83C799.79 291.297 792.56 293.03 784.1 293.03C773.853 293.03 764.813 290.847 756.98 286.48C749.147 282.113 743.007 275.483 738.56 266.59C734.107 257.697 731.883 246.397 731.89 232.69C731.89 218.69 734.263 207.023 739.01 197.69C743.757 188.357 750.31 181.387 758.67 176.78C767.043 172.147 776.58 169.83 787.28 169.83Z" fill="black"/>
<path d="M872.71 291.42C862.61 291.42 855.303 288.783 850.79 283.51C846.238 278.162 843.82 271.321 844 264.3C844 257.82 845.467 252.547 848.4 248.48C851.426 244.332 855.324 240.899 859.82 238.42C864.531 235.765 869.487 233.572 874.62 231.87C879.82 230.137 884.793 228.403 889.54 226.67C893.661 225.262 897.545 223.239 901.06 220.67C902.435 219.701 903.554 218.414 904.322 216.918C905.091 215.422 905.484 213.762 905.47 212.08V194.46C905.529 190.868 904.877 187.299 903.55 183.96C902.395 181.023 900.336 178.529 897.67 176.84C894.547 175.057 890.983 174.193 887.39 174.35C884.348 174.362 881.322 174.779 878.39 175.59C875.578 176.306 873.005 177.751 870.93 179.78C874.818 181.049 878.241 183.448 880.76 186.67C883.072 189.682 884.304 193.383 884.26 197.18C884.26 202.3 882.49 206.367 878.95 209.38C875.467 212.376 871.003 213.985 866.41 213.9C860.99 213.9 856.883 212.207 854.09 208.82C851.272 205.343 849.789 200.974 849.91 196.5C849.756 192.618 850.911 188.797 853.19 185.65C855.76 182.441 858.853 179.689 862.34 177.51C867.123 174.893 872.265 172.992 877.6 171.87C883.945 170.481 890.425 169.81 896.92 169.87C903.228 169.796 909.52 170.512 915.65 172C920.94 173.277 925.78 175.974 929.65 179.8C933.127 183.286 935.487 187.728 936.43 192.56C937.591 198.858 938.12 205.257 938.01 211.66V273.13C938.01 276.75 938.387 279.313 939.14 280.82C939.484 281.535 940.033 282.132 940.716 282.534C941.4 282.937 942.188 283.127 942.98 283.08C944.487 283.079 945.968 282.69 947.28 281.95C948.652 281.181 949.939 280.269 951.12 279.23L953.38 283.08C950.142 285.83 946.408 287.938 942.38 289.29C937.899 290.774 933.201 291.501 928.48 291.44C919.44 291.44 913.44 289.593 910.48 285.9C907.565 282.274 905.936 277.782 905.85 273.13C902.533 278.864 897.754 283.616 892 286.9C886.057 290.016 879.419 291.571 872.71 291.42ZM890.11 277C892.903 277.024 895.657 276.336 898.11 275C901.081 273.184 903.595 270.71 905.46 267.77V221.36C903.578 224.452 900.982 227.048 897.89 228.93C894.65 230.93 891.333 233.113 887.94 235.48C884.53 237.839 881.646 240.88 879.47 244.41C877.21 248.03 876.08 252.853 876.08 258.88C876.08 265.35 877.43 269.99 880.15 272.77C881.422 274.133 882.966 275.213 884.681 275.942C886.397 276.671 888.246 277.031 890.11 277Z" fill="black"/>
<path d="M1006.05 112.88V268.82C1006.05 275.147 1007.14 279.44 1009.32 281.7C1011.51 283.96 1015.23 285.09 1020.51 285.09V289.84C1017.65 289.693 1013.36 289.503 1007.63 289.27C1001.9 289.037 996.103 288.923 990.23 288.93C984.35 288.93 978.433 289.043 972.48 289.27C966.527 289.497 962.047 289.687 959.04 289.84V285.09C964.307 285.09 968.037 283.96 970.23 281.7C972.423 279.44 973.513 275.147 973.5 268.82V140C973.5 133.22 972.5 128.22 970.5 125C968.5 121.78 964.667 120.15 959 120.11V115.37C963.82 115.817 968.487 116.04 973 116.04C979.18 116.04 985.057 115.777 990.63 115.25C995.815 114.789 1000.97 113.998 1006.05 112.88Z" fill="black"/>
<path d="M1076.1 135.93V173H1102.77V177.51H1076.1V268.82C1076.1 273.34 1076.93 276.54 1078.59 278.42C1080.25 280.31 1082.73 281.25 1086.05 281.25C1089.02 281.154 1091.88 280.082 1094.18 278.2C1096.9 276.2 1099.3 272.66 1101.42 267.69L1105.26 269.69C1103.08 276.111 1099.29 281.869 1094.26 286.42C1089.36 290.793 1082.69 292.977 1074.26 292.97C1069.81 293.051 1065.39 292.402 1061.15 291.05C1057.11 289.749 1053.49 287.385 1050.67 284.203C1047.86 281.022 1045.95 277.142 1045.15 272.97C1043.97 266.674 1043.44 260.274 1043.57 253.87V177.51H1024.57V173H1043.57V143.16C1049.45 143.206 1055.32 142.639 1061.09 141.47C1066.34 140.371 1071.4 138.504 1076.1 135.93Z" fill="black"/>
<path d="M1155.65 113.1V190.85C1159.42 183.023 1164.5 177.56 1170.91 174.46C1177.66 171.3 1185.04 169.717 1192.49 169.83C1198.97 169.83 1204.17 170.62 1208.09 172.2C1211.66 173.548 1214.84 175.761 1217.35 178.64C1220.07 181.826 1221.98 185.63 1222.89 189.72C1224.02 194.24 1224.58 200.343 1224.58 208.03V268.82C1224.58 275.147 1225.67 279.44 1227.86 281.7C1230.05 283.96 1233.78 285.09 1239.05 285.09V289.84C1236.18 289.693 1231.85 289.503 1226.05 289.27C1220.25 289.037 1214.64 288.923 1209.22 288.93C1203.34 288.93 1197.65 289.043 1192.15 289.27C1186.65 289.497 1182.55 289.687 1179.84 289.84V285.09C1184.36 285.09 1187.52 283.96 1189.33 281.7C1191.14 279.44 1192.04 275.147 1192.04 268.82V198.53C1192.09 195.218 1191.71 191.914 1190.91 188.7C1190.28 186.113 1188.81 183.809 1186.73 182.15C1184.69 180.57 1181.79 179.78 1178.03 179.78C1175.03 179.758 1172.05 180.393 1169.32 181.642C1166.59 182.891 1164.16 184.723 1162.21 187.01C1157.84 191.83 1155.65 198.08 1155.65 205.76V268.82C1155.65 275.147 1156.56 279.44 1158.37 281.7C1160.18 283.96 1163.35 285.09 1167.86 285.09V289.84C1165.15 289.693 1161.15 289.503 1155.86 289.27C1150.58 289.05 1145.24 288.93 1139.81 288.93C1133.94 288.93 1128.03 289.043 1122.07 289.27C1116.11 289.497 1111.63 289.687 1108.63 289.84V285.09C1113.9 285.09 1117.62 283.96 1119.81 281.7C1122 279.44 1123.09 275.147 1123.09 268.82V140.22C1123.09 133.447 1122.09 128.447 1120.09 125.22C1118.09 121.993 1114.29 120.373 1108.68 120.36V115.61C1113.5 116.063 1118.17 116.29 1122.68 116.29C1128.85 116.29 1134.72 116.027 1140.31 115.5C1145.47 115.027 1150.59 114.226 1155.65 113.1Z" fill="black"/>
<path fill-rule="evenodd" clip-rule="evenodd" d="M209.403 181.896C206.277 170.888 200.761 160.784 194.173 150.56C187.525 138.714 181.375 129.036 175.044 119.071C171.081 112.833 167.046 106.484 162.773 99.42C147.073 76.08 138.533 34.54 167.803 20C135.863 24.89 112.893 57.92 115.043 89.41C115.897 100.38 119.182 106.536 122.736 113.197C124.055 115.668 125.411 118.208 126.693 121.09C84.7041 119.318 44.3594 147.334 27.8386 182.887C36.6408 189.459 49.388 197.864 59.5407 202.629C59.4535 203.425 59.3778 204.223 59.3136 205.021C60.8499 185.914 68.9994 167.237 82.8432 154.04C105.703 132.2 142.713 137.71 159.043 164.79C166.063 176.42 170.697 189.701 172.272 203.674C172.272 203.673 172.272 203.673 172.272 203.673C184.563 198.411 199.049 190.2 209.403 181.896Z" fill="url(#paint0_linear_6_416)"/>
<path fill-rule="evenodd" clip-rule="evenodd" d="M172.272 203.673C173.894 218.066 172.27 233.194 166.663 248.01C148.883 297.4 88.5733 292.23 68.1633 248.01C60.5359 234.305 57.8303 218.251 59.5408 202.629C49.3881 197.864 36.6409 189.459 27.8387 182.887C14.339 211.939 16.7467 246.023 47.1633 273C104.193 321.9 215.623 282.78 212.173 202C212.21 194.868 211.203 188.232 209.403 181.896C199.049 190.2 184.563 198.411 172.272 203.673Z" fill="black"/>
<defs>
<linearGradient id="paint0_linear_6_416" x1="116.003" y1="226.5" x2="116.131" y2="69.3996" gradientUnits="userSpaceOnUse">
<stop stop-color="#FF6606"/>
<stop offset="0.02" stop-color="#FF6806"/>
<stop offset="0.29" stop-color="#FF8A06"/>
<stop offset="0.56" stop-color="#FFA206"/>
<stop offset="0.8" stop-color="#FFB106"/>
<stop offset="1" stop-color="#FFB606"/>
</linearGradient>
</defs>
</svg>
