<svg width="18" height="18" viewBox="0 0 18 18" fill="none" xmlns="http://www.w3.org/2000/svg">
<path fill-rule="evenodd" clip-rule="evenodd" d="M17.5783 15.3754L13.0375 10.8346H14.0192V7.02691H9.22977L2.62447 0.421617C2.52709 0.324234 2.39504 0.269531 2.25734 0.269531C2.11963 0.269531 1.98755 0.32427 1.8902 0.421617L0.421617 1.89023C0.218836 2.09302 0.218836 2.42176 0.421617 2.62454L4.82399 7.02691L8.63169 10.8346L15.3755 17.5784C15.4729 17.6758 15.6049 17.7305 15.7426 17.7305C15.8803 17.7305 16.0124 17.6757 16.1097 17.5784L17.5783 16.1098C17.7811 15.907 17.7811 15.5782 17.5783 15.3754ZM16.5131 2.70003C16.5131 2.53599 16.5575 2.48048 16.6762 2.33205L16.6762 2.33203C16.8318 2.13751 17.0669 1.84364 17.0669 1.31537C17.0669 1.0286 16.8344 0.796143 16.5477 0.796143C16.261 0.796143 16.0285 1.02863 16.0285 1.31537C16.0285 1.4794 15.9841 1.53492 15.8653 1.68335C15.7097 1.87783 15.4746 2.17174 15.4746 2.70003C15.4746 3.22828 15.7097 3.52218 15.8653 3.71667L15.8653 3.71671L15.8654 3.71684C15.984 3.86517 16.0285 3.9207 16.0285 4.08469C16.0285 4.24866 15.9841 4.30417 15.8653 4.45257L15.8652 4.45265C15.7097 4.64714 15.4746 4.941 15.4746 5.46918C15.4746 5.75595 15.7071 5.9884 15.9938 5.9884C16.2806 5.9884 16.5131 5.75592 16.5131 5.46918C16.5131 5.30521 16.5575 5.2497 16.6762 5.10131L16.6763 5.10122C16.8319 4.90674 17.0669 4.61287 17.0669 4.08469C17.0669 3.5564 16.8318 3.26246 16.6762 3.06801C16.5575 2.91958 16.5131 2.86407 16.5131 2.70003ZM3.35545 7.02686H0.519223C0.232488 7.02686 0 7.25934 0 7.54608V10.3153C0 10.6021 0.232488 10.8345 0.519223 10.8345H7.16312L3.35545 7.02686ZM14.5962 2.33205C14.4774 2.48048 14.433 2.53599 14.433 2.70003C14.433 2.86407 14.4774 2.91958 14.5961 3.06797C14.7517 3.26242 14.9868 3.55637 14.9868 4.08466C14.9868 4.61284 14.7518 4.9067 14.5962 5.10119L14.5961 5.10127C14.4774 5.24967 14.433 5.30518 14.433 5.46915C14.433 5.75588 14.2005 5.98837 13.9138 5.98837C13.627 5.98837 13.3945 5.75592 13.3945 5.46915C13.3945 4.94096 13.6296 4.6471 13.7852 4.45262L13.7852 4.45253C13.904 4.30414 13.9484 4.24863 13.9484 4.08466C13.9484 3.92066 13.904 3.86514 13.7853 3.7168L13.7852 3.71668L13.7852 3.71663C13.6296 3.52215 13.3945 3.22825 13.3945 2.69999C13.3945 2.1717 13.6296 1.87779 13.7852 1.68331C13.904 1.53488 13.9484 1.47937 13.9484 1.31533C13.9484 1.0286 14.1809 0.796143 14.4676 0.796143C14.7544 0.796143 14.9869 1.0286 14.9869 1.31537C14.9869 1.84364 14.7518 2.13751 14.5962 2.33203L14.5962 2.33205ZM15.0566 7.02686H17.4797C17.7664 7.02686 17.9989 7.25935 17.9989 7.54612V10.3153C17.9989 10.6021 17.7665 10.8346 17.4797 10.8346H15.0566V7.02686Z" fill="#98C95D"/>
</svg>
