<svg width="56" height="56" viewBox="0 0 56 56" fill="none" xmlns="http://www.w3.org/2000/svg">
<path fill-rule="evenodd" clip-rule="evenodd" d="M52.093 28C52.093 14.6938 41.3062 3.90698 28 3.90698C14.6938 3.90698 3.90698 14.6938 3.90698 28C3.90698 41.3062 14.6938 52.093 28 52.093C41.3062 52.093 52.093 41.3062 52.093 28ZM28 0C43.464 0 56 12.536 56 28C56 43.464 43.464 56 28 56C12.536 56 0 43.464 0 28C0 12.536 12.536 0 28 0ZM39.8009 26.6185C40.5638 27.3814 40.5638 28.6183 39.8009 29.3812L29.3823 39.7998C29.2274 39.9547 29.0492 40.0808 28.856 40.1749C28.5974 40.3012 28.3068 40.3721 27.9996 40.3721C27.4372 40.3721 26.9303 40.1344 26.5739 39.754L16.201 29.3812C15.4381 28.6183 15.4381 27.3814 16.201 26.6185C16.9639 25.8557 18.2008 25.8557 18.9637 26.6185L26.0461 33.701L26.0461 17.5814C26.0461 16.5025 26.9208 15.6279 27.9996 15.6279C29.0785 15.6279 29.9531 16.5025 29.9531 17.5814L29.9531 33.7037L37.0382 26.6185C37.8011 25.8557 39.038 25.8557 39.8009 26.6185Z" fill="#0C9FDB"/>
</svg>
