<svg width="155.05mm" height="66.437mm" version="1.1" viewBox="0 0 155.05 66.437" xmlns="http://www.w3.org/2000/svg">
 <g transform="translate(-16.971 -101.25)">
  <g transform="translate(-10.276 2.6428)">
   <g transform="matrix(.26458 0 0 .26458 26.982 98.344)" fill="#e6e6e6">
    <path class="st0" d="m63 90.4c0 12.4-10.1 22.5-22.5 22.5s-22.5-10.1-22.5-22.5c0-21.2 21.8-30.9 17.5-48.9 21.6 19.2 27.5 36.5 27.5 48.9z" fill="#f5b841"/>
    <g fill="#e6e6e6">
     <path d="m38 139.8c11.5 0 26.1-2.5 35.5-7.5s16.8-12.1 22.3-21.4 8.2-20.1 8.2-32.5c0-11.1-2.5-21.3-7.5-30.7s-12.4-16.9-22.1-22.5-22.8-8.4-36.4-8.4l-35-0.2v-9.4h35c17.3 0 31.7 3.5 43.1 10.6s19.7 16.1 25 27 7.9 22.3 7.9 34.2c0 13.9-3.2 26.1-9.5 36.8s-14.8 18.9-25.4 24.7-28.8 8.7-41.1 8.7h-35v-9.4z"/>
     <path d="m211 7.2v142h-9.8v-142z"/>
     <path d="m413.6 7.2-53 91.4v50.6h-9.8v-50.6l-53-91.4h12l46.2 80.4 45.8-80.4h11.8z"/>
     <path d="m556.4 102.2h-62.6l-18.8 47h-9.8l60-148.2h0.8l60 148.2h-11zm-3.6-9.2-27.4-69.8-28 69.8z"/>
    </g>
    <path d="m34.3 250.8c-2.8 0.8-5.5 1.2-8 1.2-5 0-9.4-1.1-13.3-3.3-3.8-2.2-6.8-5.1-8.9-8.8s-3.1-7.8-3.1-12.5c0-4.9 1.1-9.2 3.4-13.1 2.2-3.9 5.3-6.9 9.1-9.1s8-3.3 12.6-3.3c4.9 0 9.4 1.2 13.5 3.6l-1.2 3c-1.6-0.9-3.5-1.7-5.7-2.3s-4.2-0.9-6.2-0.9c-4.1 0-7.9 0.9-11.2 2.8-3.4 1.9-6 4.6-7.9 7.9-1.9 3.4-2.8 7.1-2.8 11.2s0.9 7.7 2.8 11c1.8 3.3 4.4 5.9 7.7 7.7 3.3 1.9 7.1 2.8 11.4 2.8 2 0 4.1-0.3 6.1-0.7s3.9-1.1 5.4-2v-13.6h-11v-3.3h14.4v18.8c-2 1.2-4.2 2.1-7.1 2.9z"/>
    <path d="m170.9 251.4-12.9-20.9c-0.9 0.2-2.2 0.3-3.6 0.3h-7.6v20.5h-3.4v-49h11.2c2.6 0 5.1 0.5 7.4 1.6 2.3 1 4.3 2.6 5.8 4.7s2.2 4.7 2.2 7.8c0 3-0.7 5.7-2.1 8.1s-3.5 4.1-6.4 5.3l13.3 21.8zm-7.1-27.2c1.9-2.2 2.8-4.8 2.8-7.9 0-1.9-0.4-3.7-1.4-5.4-0.9-1.6-2.3-2.9-4.1-4-1.7-0.9-3.8-1.5-6-1.5h-8.3v22h7.4c4.5 0.2 7.7-0.9 9.6-3.2z"/>
    <path d="m275.7 214.4c2.2-3.9 5.3-6.9 9.1-9.1s8-3.5 12.5-3.5 8.7 1.1 12.6 3.5c3.9 2.2 6.9 5.4 9.1 9.1 2.2 3.8 3.4 8 3.4 12.5s-1.1 8.7-3.4 12.5c-2.2 3.8-5.4 6.9-9.1 9.1-3.9 2.2-8 3.4-12.6 3.4s-8.7-1.1-12.6-3.3c-3.8-2.2-6.8-5.2-9.1-9-2.2-3.8-3.4-8.1-3.4-12.8 0.1-4.4 1.3-8.5 3.5-12.4zm3 23.5c1.9 3.3 4.6 6 7.8 7.9s6.8 2.9 10.8 2.9 7.6-0.9 11-2.9c3.4-1.9 6-4.6 7.9-7.9 1.9-3.4 2.9-7 2.9-11s-0.9-7.6-2.9-11-4.6-6-7.9-7.9c-3.3-2-6.9-2.9-10.9-2.9s-7.6 1-10.9 3-6 4.7-7.8 8c-1.9 3.4-2.8 7-2.8 10.9-0.1 4 0.8 7.6 2.8 10.9z"/>
    <path d="m423.9 242.2c1.1 2.1 2.8 3.7 4.8 4.8 2.1 1.1 4.4 1.7 6.9 1.7 2.6 0 4.9-0.6 7-1.7s3.6-2.8 4.8-4.8c1.2-2.1 1.7-4.6 1.7-7.3v-32.5h3.3v32.6c0 3.5-0.8 6.5-2.2 9.1-1.5 2.5-3.5 4.5-6 5.9-2.6 1.4-5.4 2.1-8.6 2.1s-6-0.7-8.6-2.1-4.6-3.3-6-5.9c-1.5-2.5-2.2-5.5-2.2-9.1v-32.6h3.4v32.5c0 2.7 0.5 5.2 1.7 7.3z"/>
    <path d="m582.9 205.9c2.8 2.3 4.1 5.8 4.1 10.4 0 2.6-0.5 5-1.6 7.2s-2.8 4-5.2 5.4c-2.3 1.4-5.3 2.1-8.7 2.1h-7.6v20.5h-3.4v-49h11.3c4.6-0.1 8.3 1.1 11.1 3.4zm-4.3 19.9c1.8-1.2 3.1-2.7 3.9-4.4s1.1-3.5 1.1-5.2c0-3.2-1-5.8-3-7.7-2-2-4.8-2.9-8.5-2.9h-8.3v22h7.6c3 0 5.3-0.6 7.2-1.8z"/>
   </g>
  </g>
 </g>
 <style type="text/css">.st0{fill:#F5B841;}</style>
</svg>
