<svg width="18" height="18" viewBox="0 0 18 18" fill="none" xmlns="http://www.w3.org/2000/svg">
<g clip-path="url(#clip0_1311:18634)">
<path d="M17.8118 4.96706C17.512 3.79138 16.873 2.77762 15.9639 2.03535C15.0783 1.31232 13.9934 0.914062 12.909 0.914062C12.0776 0.914062 11.2847 1.13791 10.552 1.57928C9.97347 1.92796 9.453 2.40216 8.99844 2.99405C7.96449 1.64644 6.59944 0.914062 5.08964 0.914062C4.00571 0.914062 2.92122 1.31232 2.03572 2.03535C1.12688 2.77762 0.488025 3.79124 0.188236 4.96692C-0.0316272 5.82921 -0.13174 7.03935 0.302082 8.49477H3.02628L4.00996 6.52725C4.09936 6.34859 4.28187 6.2357 4.48155 6.2357C4.68136 6.2357 4.86388 6.34859 4.95314 6.52725L6.74061 10.1021L8.52809 6.52725C8.61735 6.34859 8.79986 6.2357 8.99967 6.2357C9.19935 6.2357 9.38186 6.34859 9.47126 6.52725L10.4549 8.49477H14.1278C14.4191 8.49477 14.655 8.73084 14.655 9.02197C14.655 9.31325 14.4191 9.54932 14.1278 9.54932H10.1291C9.92939 9.54932 9.74688 9.43643 9.65748 9.25777L8.99967 7.94202L7.2122 11.5168C7.1228 11.6955 6.94029 11.8082 6.74061 11.8082C6.5408 11.8082 6.35829 11.6955 6.26902 11.5168L4.48169 7.94202L3.82375 9.2579C3.73434 9.43643 3.55183 9.54932 3.35216 9.54932H0.69704C0.873233 9.94016 1.08856 10.3447 1.35004 10.7615C2.7854 13.0507 5.2738 15.1717 8.74575 17.0656C8.82444 17.1086 8.91137 17.13 8.9983 17.13C9.08523 17.13 9.17202 17.1086 9.25071 17.0658C12.7238 15.1716 15.2128 13.0507 16.6489 10.7617C18.2004 8.28836 18.1377 6.24545 17.8118 4.96706V4.96706Z" fill="#FF5733"/>
</g>
<defs>
<clipPath id="clip0_1311:18634">
<rect width="18" height="18" fill="white"/>
</clipPath>
</defs>
</svg>
