<svg width="516" height="124" viewBox="0 0 516 124" fill="none" xmlns="http://www.w3.org/2000/svg">
<path d="M516 0V111.083C516 114.509 516 124 516 124C516 124 508.001 124 505.113 124H5.44234C4.3966 124.001 3.37289 123.643 2.49379 122.971C1.61468 122.3 0.917457 121.341 0.485583 120.211C0.0537085 119.081 -0.0945042 117.827 0.0586945 116.6C0.211893 115.373 0.660007 114.224 1.34938 113.291L32.267 71.3726C34.179 68.7853 35.2332 65.4616 35.2332 62.0206C35.2332 58.5796 34.179 55.2559 32.267 52.6686L1.34938 10.7298C0.660007 9.79682 0.211893 8.64784 0.0586945 7.42048C-0.0945042 6.19313 0.0537085 4.93939 0.485583 3.80939C0.917457 2.6794 1.61468 1.72105 2.49379 1.04909C3.37289 0.377128 4.3966 0.0200634 5.44234 0.0206147L516 0Z" fill="#FDC400"/>
</svg>
