<svg width="32" height="32" viewBox="0 0 32 32" fill="none" xmlns="http://www.w3.org/2000/svg">
<path fill-rule="evenodd" clip-rule="evenodd" d="M16 2.23256C8.39645 2.23256 2.23256 8.39645 2.23256 16C2.23256 23.6035 8.39645 29.7674 16 29.7674C23.6035 29.7674 29.7674 23.6035 29.7674 16C29.7674 8.39645 23.6035 2.23256 16 2.23256ZM0 16C0 7.16344 7.16344 0 16 0C24.8366 0 32 7.16344 32 16C32 24.8366 24.8366 32 16 32C7.16344 32 0 24.8366 0 16Z" fill="#0C9FDB"/>
<path fill-rule="evenodd" clip-rule="evenodd" d="M15.2107 9.25713C15.6467 8.82119 16.3535 8.82119 16.7894 9.25713L22.7429 15.2106C22.9522 15.42 23.0698 15.7039 23.0698 15.9999C23.0698 16.296 22.9522 16.5799 22.7429 16.7893L16.7894 22.7428C16.3535 23.1787 15.6467 23.1787 15.2107 22.7428C14.7748 22.3068 14.7748 21.6 15.2107 21.1641L20.3749 15.9999L15.2107 10.8358C14.7748 10.3998 14.7748 9.69306 15.2107 9.25713Z" fill="#0C9FDB"/>
<path fill-rule="evenodd" clip-rule="evenodd" d="M8.93018 15.9998C8.93018 15.3833 9.42995 14.8835 10.0465 14.8835H21.9534C22.5699 14.8835 23.0697 15.3833 23.0697 15.9998C23.0697 16.6163 22.5699 17.1161 21.9534 17.1161H10.0465C9.42995 17.1161 8.93018 16.6163 8.93018 15.9998Z" fill="#0C9FDB"/>
</svg>
