<svg width="220" height="228" viewBox="0 0 220 228" fill="none" xmlns="http://www.w3.org/2000/svg">
<circle cx="100" cy="128" r="100" fill="#DEF1FA"/>
<g clip-path="url(#clip0_801_10145)">
<path d="M121.793 52.202C124.318 52.202 126.787 51.4532 128.886 50.0502C130.986 48.6473 132.623 46.6533 133.589 44.3203C134.555 41.9873 134.808 39.4201 134.315 36.9435C133.823 34.4668 132.607 32.1918 130.821 30.4062C129.036 28.6206 126.761 27.4046 124.284 26.912C121.807 26.4193 119.24 26.6722 116.907 27.6385C114.574 28.6049 112.58 30.2413 111.177 32.341C109.774 34.4406 109.025 36.9091 109.025 39.4343C109.03 42.8192 110.376 46.0642 112.77 48.4577C115.163 50.8512 118.408 52.1977 121.793 52.202ZM121.793 34.4242C122.784 34.4242 123.753 34.718 124.577 35.2686C125.4 35.8191 126.043 36.6015 126.422 37.517C126.801 38.4325 126.9 39.4399 126.707 40.4117C126.514 41.3836 126.036 42.2763 125.336 42.977C124.635 43.6777 123.742 44.1548 122.77 44.3481C121.799 44.5415 120.791 44.4422 119.876 44.063C118.96 43.6838 118.178 43.0417 117.627 42.2178C117.077 41.3939 116.783 40.4252 116.783 39.4343C116.784 38.1058 117.312 36.832 118.251 35.8926C119.191 34.9532 120.465 34.4251 121.793 34.4242Z" fill="#0C9FDB"/>
<path d="M170.925 62.0606C170.925 60.0149 170.319 58.0151 169.182 56.3141C168.045 54.6131 166.43 53.2874 164.54 52.5045C162.65 51.7216 160.57 51.5168 158.564 51.9159C156.557 52.315 154.714 53.3001 153.268 54.7467C151.821 56.1932 150.836 58.0363 150.437 60.0427C150.038 62.0491 150.243 64.1288 151.026 66.0189C151.809 67.9089 153.134 69.5243 154.835 70.6609C156.536 71.7974 158.536 72.404 160.582 72.404C163.325 72.404 165.956 71.3143 167.896 69.3745C169.835 67.4347 170.925 64.8039 170.925 62.0606ZM157.996 62.0606C157.996 61.5492 158.148 61.0492 158.432 60.624C158.716 60.1987 159.12 59.8673 159.592 59.6716C160.065 59.4759 160.585 59.4247 161.086 59.5244C161.588 59.6242 162.049 59.8705 162.41 60.2321C162.772 60.5938 163.018 61.0545 163.118 61.5561C163.218 62.0577 163.166 62.5777 162.971 63.0502C162.775 63.5227 162.444 63.9265 162.018 64.2107C161.593 64.4948 161.093 64.6465 160.582 64.6465C159.896 64.6465 159.238 64.374 158.753 63.8891C158.268 63.4041 157.996 62.7464 157.996 62.0606Z" fill="#0C9FDB"/>
<path d="M205.537 0H67.2481C63.4703 0.00342345 59.8482 1.50566 57.1769 4.17695C54.5057 6.84824 53.0034 10.4703 53 14.2481V116.338C53.0034 120.116 54.5057 123.738 57.1769 126.409C59.8482 129.08 63.4703 130.582 67.2481 130.586H106.935L104.025 152.242H97.5608C96.5321 152.242 90 152.24 90 152.24V156.121V160C90 160 96.5321 160 97.5608 160H175.137C176.165 160 180.621 160 182 160C182 158 182 157.15 182 156.121C182 155.092 182 153.118 182 152.24C180.621 152.24 176.165 152.242 175.137 152.242H168.672L165.763 130.586H205.537C209.315 130.582 212.937 129.08 215.609 126.409C218.281 123.738 219.784 120.116 219.788 116.338V14.2481C219.784 10.47 218.281 6.84795 215.609 4.17675C212.937 1.50555 209.315 0.00342207 205.537 0ZM119.007 13.6081V10.5438C119.007 9.80488 119.301 9.09618 119.823 8.57365C120.346 8.05113 121.055 7.75758 121.794 7.75758C122.532 7.75758 123.241 8.05113 123.764 8.57365C124.286 9.09618 124.58 9.80488 124.58 10.5438V13.6081C124.58 14.468 124.865 15.3037 125.392 15.9835C125.919 16.6634 126.656 17.149 127.489 17.364C129.549 17.8914 131.523 18.7098 133.352 19.7947C134.094 20.2356 134.961 20.4168 135.817 20.3097C136.672 20.2025 137.468 19.8132 138.078 19.2032L140.244 17.0343C140.578 16.6992 140.993 16.4548 141.448 16.3242C141.903 16.1936 142.384 16.181 142.846 16.2878C143.307 16.3945 143.734 16.6169 144.086 16.9342C144.437 17.2514 144.703 17.653 144.856 18.101C145.036 18.5972 145.071 19.1344 144.957 19.6498C144.842 20.1651 144.583 20.637 144.21 21.0101L142.038 23.179C141.428 23.7888 141.038 24.5845 140.931 25.4403C140.824 26.2962 141.005 27.1633 141.446 27.9046C142.529 29.7344 143.348 31.7085 143.877 33.7681C144.092 34.6007 144.577 35.3383 145.257 35.8649C145.937 36.3915 146.773 36.6772 147.633 36.6772H150.697C151.422 36.6824 152.117 36.9672 152.636 37.4723C152.202 38.4275 151.944 39.4537 151.877 40.501L151.479 40.6659C149.814 39.2036 147.655 38.4296 145.44 38.5011C143.224 38.5725 141.12 39.484 139.552 41.0505C137.996 42.6219 137.09 44.7231 137.017 46.9336C136.944 49.144 137.709 51.3005 139.158 52.9713C139.103 53.1006 139.048 53.2331 138.996 53.3689C137.094 53.497 135.287 54.2426 133.848 55.4924C132.409 56.7422 131.418 58.4277 131.025 60.2925C129.882 60.7994 128.7 61.2102 127.489 61.5208C126.656 61.7358 125.919 62.2214 125.392 62.9013C124.865 63.5812 124.58 64.4168 124.58 65.2768V68.341C124.58 69.08 124.286 69.7887 123.764 70.3112C123.241 70.8337 122.532 71.1273 121.794 71.1273C121.055 71.1273 120.346 70.8337 119.823 70.3112C119.301 69.7887 119.007 69.08 119.007 68.341V65.2606C119.007 64.4006 118.722 63.565 118.195 62.8851C117.668 62.2052 116.931 61.7196 116.098 61.5046C114.038 60.9762 112.064 60.1567 110.235 59.0707C109.635 58.7156 108.951 58.5281 108.253 58.5277C107.743 58.5263 107.238 58.6261 106.767 58.8214C106.296 59.0168 105.868 59.3036 105.509 59.6655L103.343 61.8343C102.821 62.3581 102.111 62.6527 101.371 62.6533C100.631 62.6539 99.9206 62.3605 99.3968 61.8376C98.873 61.3146 98.5784 60.6051 98.5778 59.8649C98.5772 59.1248 98.8706 58.4147 99.3935 57.8909L101.566 55.722C102.176 55.1122 102.565 54.3165 102.672 53.4607C102.779 52.6048 102.598 51.7377 102.157 50.9964C101.075 49.1661 100.257 47.1921 99.7265 45.1329C99.5115 44.3003 99.0259 43.5627 98.346 43.0361C97.6661 42.5095 96.8305 42.2238 95.9705 42.2238H92.9063C92.1676 42.223 91.4594 41.9292 90.937 41.4068C90.4147 40.8845 90.1209 40.1763 90.12 39.4376C90.1217 38.6991 90.4158 37.9914 90.938 37.4693C91.4601 36.9471 92.1678 36.653 92.9063 36.6513H95.9705C96.8305 36.6514 97.6661 36.3657 98.346 35.8391C99.0259 35.3125 99.5115 34.5749 99.7265 33.7422C100.257 31.6831 101.075 29.7091 102.157 27.8788C102.598 27.1375 102.779 26.2703 102.672 25.4145C102.565 24.5586 102.176 23.7629 101.566 23.1531L99.3968 20.9875C98.873 20.4645 98.5784 19.755 98.5778 19.0148C98.5772 18.2747 98.8706 17.5646 99.3935 17.0408C99.9165 16.517 100.626 16.2224 101.366 16.2218C102.106 16.2212 102.816 16.5146 103.34 17.0376L105.509 19.2097C106.119 19.8202 106.914 20.2101 107.77 20.3178C108.626 20.4255 109.493 20.2449 110.235 19.8044C112.064 18.7185 114.038 17.8989 116.098 17.3705C116.932 17.1552 117.67 16.6687 118.197 15.9875C118.724 15.3063 119.009 14.4692 119.007 13.6081ZM156.703 77.0877C155.3 76.7277 153.956 76.1705 152.711 75.4327C151.97 74.9939 151.104 74.8142 150.249 74.9218C149.395 75.0295 148.6 75.4185 147.992 76.0275L146.414 77.6049C146.279 77.7416 146.105 77.8349 145.916 77.8728C145.728 77.9106 145.532 77.8914 145.354 77.8176C145.176 77.7437 145.024 77.6186 144.918 77.458C144.811 77.2975 144.755 77.109 144.756 76.9164C144.755 76.6597 144.856 76.4133 145.037 76.2311L146.615 74.6537C147.224 74.0445 147.614 73.2496 147.721 72.3945C147.829 71.5393 147.649 70.6727 147.209 69.9313C146.472 68.6857 145.914 67.3416 145.554 65.9394C145.339 65.1067 144.854 64.3691 144.174 63.8425C143.494 63.3159 142.658 63.0302 141.798 63.0303H139.571C139.344 63.0302 139.125 62.9506 138.951 62.8053C138.776 62.6601 138.659 62.4583 138.618 62.2351V62.1543C138.614 62.1232 138.614 62.0918 138.618 62.0606C138.618 61.8034 138.72 61.5568 138.902 61.3749C139.084 61.1931 139.33 61.0909 139.587 61.0909H141.815C142.675 61.091 143.51 60.8053 144.19 60.2787C144.87 59.7521 145.356 59.0145 145.571 58.1818C145.93 56.7796 146.488 55.4355 147.225 54.1899C147.666 53.4455 147.846 52.5751 147.735 51.7171C147.624 50.8591 147.23 50.0627 146.615 49.4545L145.037 47.8772C144.855 47.695 144.754 47.4481 144.754 47.1908C144.754 46.9334 144.857 46.6868 145.039 46.5051C145.221 46.3233 145.468 46.2214 145.725 46.2217C145.983 46.222 146.229 46.3245 146.411 46.5067L147.988 48.0808C148.597 48.6905 149.392 49.08 150.248 49.1877C151.103 49.2954 151.969 49.1152 152.711 48.6756C153.957 47.9384 155.301 47.3812 156.703 47.0206C157.535 46.8056 158.273 46.32 158.799 45.6401C159.326 44.9602 159.612 44.1246 159.612 43.2646V41.0505C159.612 40.8322 159.686 40.6203 159.822 40.4493L160.071 40.3232V40.2263C160.218 40.1353 160.386 40.0852 160.559 40.0811C160.732 40.0771 160.902 40.1193 161.053 40.2033C161.204 40.2874 161.33 40.4102 161.417 40.5592C161.505 40.7081 161.551 40.8777 161.551 41.0505V43.2776C161.551 44.1375 161.837 44.9732 162.363 45.653C162.89 46.3329 163.628 46.8185 164.46 47.0335C165.861 47.3935 167.204 47.9507 168.449 48.6885C169.19 49.1293 170.057 49.3105 170.913 49.2034C171.769 49.0963 172.565 48.7069 173.175 48.097L174.749 46.5196C174.884 46.383 175.057 46.2898 175.246 46.2519C175.434 46.2139 175.63 46.2328 175.808 46.3063C175.985 46.3797 176.137 46.5044 176.244 46.6644C176.351 46.8244 176.407 47.0125 176.407 47.2048C176.407 47.4619 176.304 47.7084 176.122 47.8901L174.535 49.4545C173.926 50.0637 173.536 50.8587 173.428 51.7138C173.321 52.569 173.501 53.4356 173.941 54.177C174.683 55.4263 175.245 56.7747 175.608 58.1818C175.823 59.0145 176.309 59.7521 176.989 60.2787C177.669 60.8053 178.504 61.091 179.364 61.0909H181.592C181.849 61.0909 182.095 61.1931 182.277 61.3749C182.459 61.5568 182.561 61.8034 182.561 62.0606C182.561 62.3178 182.459 62.5644 182.277 62.7463C182.095 62.9281 181.849 63.0303 181.592 63.0303H179.364C178.504 63.0302 177.669 63.3159 176.989 63.8425C176.309 64.3691 175.823 65.1067 175.608 65.9394C175.248 67.3414 174.691 68.6853 173.954 69.9313C173.509 70.6726 173.325 71.5411 173.43 72.399C173.536 73.2569 173.925 74.055 174.535 74.6667L176.109 76.2408C176.2 76.331 176.273 76.4382 176.322 76.5564C176.371 76.6745 176.396 76.8013 176.396 76.9293C176.396 77.0573 176.371 77.1841 176.322 77.3022C176.273 77.4204 176.2 77.5276 176.109 77.6178C175.927 77.7985 175.681 77.8996 175.424 77.899C175.297 77.8997 175.17 77.8753 175.052 77.827C174.934 77.7788 174.826 77.7077 174.736 77.6178L173.162 76.0404C172.552 75.4299 171.757 75.04 170.901 74.9323C170.045 74.8246 169.178 75.0052 168.436 75.4457C167.192 76.1838 165.849 76.741 164.447 77.1006C163.615 77.3156 162.877 77.8012 162.35 78.4811C161.824 79.161 161.538 79.9966 161.538 80.8566V83.0707C161.538 83.3279 161.436 83.5745 161.254 83.7564C161.072 83.9382 160.826 84.0404 160.568 84.0404C160.311 84.0404 160.065 83.9382 159.883 83.7564C159.701 83.5745 159.599 83.3279 159.599 83.0707V80.8436C159.6 79.9854 159.316 79.1511 158.792 78.4714C158.268 77.7918 157.533 77.3051 156.703 77.0877ZM92.903 49.9782H93.1196C93.4008 50.7475 93.7176 51.5103 94.0602 52.2408L93.9051 52.396C91.9391 54.376 90.8358 57.053 90.8358 59.8432C90.8358 62.6335 91.9391 65.3105 93.9051 67.2905L93.9277 67.3131C95.9081 69.2858 98.5894 70.3934 101.385 70.3934C104.18 70.3934 106.861 69.2858 108.842 67.3131L108.994 67.1612C109.734 67.5071 110.497 67.8077 111.256 68.105V68.3184C111.256 71.1148 112.367 73.7966 114.344 75.774C116.322 77.7514 119.004 78.8622 121.8 78.8622C124.596 78.8622 127.278 77.7514 129.256 75.774C131.233 73.7966 132.344 71.1148 132.344 68.3184V68.1018L133.048 67.8303C134.568 69.5552 136.709 70.609 139.002 70.762C139.054 70.8978 139.109 71.0271 139.164 71.1596C137.705 72.8261 136.935 74.985 137.009 77.1985C137.082 79.4121 137.995 81.5147 139.562 83.0804C141.132 84.6385 143.233 85.5454 145.444 85.6192C147.655 85.6929 149.812 84.928 151.482 83.478L151.88 83.6428C152.012 85.7521 152.914 87.7396 154.414 89.2283C154.895 89.7123 155.431 90.1386 156.011 90.4986H74.0909V20.6869H90.9701C91.3216 22.873 92.3491 24.8941 93.9083 26.4663L94.0602 26.6182C93.7176 27.3584 93.4137 28.1212 93.1196 28.8808H92.903C91.5184 28.8808 90.1473 29.1535 88.8681 29.6834C87.5888 30.2133 86.4265 30.9899 85.4474 31.969C84.4683 32.9481 83.6917 34.1105 83.1618 35.3897C82.6319 36.6689 82.3592 38.04 82.3592 39.4246C82.3592 40.8093 82.6319 42.1804 83.1618 43.4596C83.6917 44.7388 84.4683 45.9012 85.4474 46.8803C86.4265 47.8594 87.5888 48.636 88.8681 49.1659C90.1473 49.6958 91.5184 49.9685 92.903 49.9685V49.9782ZM169.289 83.6493L169.687 83.4844C171.354 84.9441 173.513 85.7152 175.727 85.6414C177.942 85.5675 180.045 84.6543 181.611 83.0869C183.168 81.5158 184.074 79.4145 184.147 77.2038C184.22 74.9932 183.455 72.8365 182.005 71.1661C182.06 71.0335 182.115 70.901 182.167 70.7685C184.377 70.6225 186.449 69.6415 187.963 68.0246C189.476 66.4076 190.319 64.2756 190.319 62.0606C190.309 59.8491 189.464 57.723 187.953 56.1082C186.441 54.4934 184.376 53.5092 182.17 53.3527L182.005 52.9552C183.46 51.29 184.228 49.1348 184.155 46.9251C184.081 44.7154 183.172 42.6158 181.611 41.0505C180.042 39.4899 177.942 38.5799 175.73 38.5032C173.519 38.4265 171.36 39.1886 169.687 40.6368L169.289 40.4752C169.143 38.265 168.162 36.1931 166.545 34.6794C164.928 33.1656 162.796 32.3233 160.581 32.3232C159.929 32.3222 159.279 32.3938 158.642 32.5366C157.654 31.3907 156.431 30.4718 155.055 29.8425C153.679 29.2132 152.184 28.8885 150.671 28.8905H150.458C150.173 28.1212 149.86 27.3616 149.514 26.6279L149.672 26.4727C151.235 24.8994 152.266 22.8761 152.62 20.6869H198.587V90.5051H165.133C166.321 89.7759 167.319 88.7733 168.042 87.5809C168.765 86.3884 169.192 85.0405 169.289 83.6493ZM111.848 152.242L114.757 130.586H157.908L160.817 152.242H111.848ZM212.03 116.338C212.028 118.059 211.343 119.709 210.125 120.926C208.908 122.142 207.258 122.827 205.537 122.828H67.2481C65.5275 122.826 63.8781 122.141 62.6614 120.924C61.4448 119.708 60.7601 118.058 60.7576 116.338V111.192H212.03V116.338ZM212.03 103.434H60.7576V14.2481C60.7601 12.5275 61.4448 10.8781 62.6614 9.66143C63.8781 8.44478 65.5275 7.76014 67.2481 7.75758H111.625C111.375 8.6653 111.249 9.60247 111.25 10.5438V10.7572C110.474 11.0448 109.714 11.3584 108.987 11.701L108.832 11.5459C107.746 10.4565 106.435 9.61825 104.991 9.08999C103.547 8.56173 102.004 8.35631 100.472 8.48818C98.9398 8.62005 97.4551 9.086 96.1223 9.85328C94.7895 10.6205 93.641 11.6705 92.7576 12.9293H73.7968C71.8184 12.931 69.9216 13.7174 68.5224 15.116C67.1232 16.5146 66.3359 18.4112 66.3333 20.3895V90.8024C66.3359 92.7808 67.1232 94.6773 68.5224 96.0759C69.9216 97.4745 71.8184 98.2609 73.7968 98.2626H198.888C200.866 98.2609 202.763 97.4745 204.162 96.0759C205.561 94.6773 206.349 92.7808 206.351 90.8024V20.3895C206.349 18.41 205.56 16.5125 204.16 15.1137C202.759 13.715 200.861 12.9293 198.881 12.9293H150.839C150.492 12.4354 150.103 11.9725 149.676 11.5459C147.695 9.57321 145.014 8.46563 142.219 8.46563C139.423 8.46563 136.742 9.57321 134.762 11.5459L134.61 11.6978C133.869 11.3552 133.107 11.0513 132.347 10.7539V10.5406C132.344 9.60013 132.215 8.66428 131.966 7.75758H205.537C207.258 7.75929 208.908 8.44355 210.125 9.66029C211.343 10.877 212.028 12.5269 212.03 14.2481V103.434Z" fill="#0C9FDB"/>
</g>
<defs>
<clipPath id="clip0_801_10145">
<rect width="166.788" height="160" fill="white" transform="translate(53)"/>
</clipPath>
</defs>
</svg>
