<svg width="220" height="228" viewBox="0 0 220 228" fill="none" xmlns="http://www.w3.org/2000/svg">
<circle cx="100" cy="128" r="100" fill="#DEF1FA"/>
<path fill-rule="evenodd" clip-rule="evenodd" d="M211 80C211 108.167 188.167 131 160 131C131.833 131 109 108.167 109 80C109 51.8335 131.833 29 160 29C188.167 29 211 51.8335 211 80ZM220 80C220 113.137 193.137 140 160 140C153.395 140 147.039 138.933 141.095 136.961C140.9 136.987 140.702 137 140.5 137H99.5C97.0147 137 95 134.985 95 132.5C95 130.015 97.0147 128 99.5 128H123.994C109.424 117.053 100 99.6272 100 80C100 60.3728 109.424 42.9467 123.994 32H99.5C97.0147 32 95 29.9853 95 27.5C95 25.0147 97.0147 23 99.5 23H140.5C140.702 23 140.9 23.0133 141.095 23.039C147.039 21.0674 153.395 20 160 20C193.137 20 220 46.8629 220 80ZM191 80C191 97.1208 177.121 111 160 111C142.879 111 129 97.1208 129 80C129 62.8792 142.879 49 160 49C177.121 49 191 62.8792 191 80ZM200 80C200 102.091 182.091 120 160 120C137.909 120 120 102.091 120 80C120 57.9086 137.909 40 160 40C182.091 40 200 57.9086 200 80ZM76 42.5C76 40.0147 78.0147 38 80.5 38H103.5C105.985 38 108 40.0147 108 42.5C108 44.9853 105.985 47 103.5 47H80.5C78.0147 47 76 44.9853 76 42.5ZM64.5 68C62.0147 68 60 70.0147 60 72.5C60 74.9853 62.0147 77 64.5 77H91.5C93.9853 77 96 74.9853 96 72.5C96 70.0147 93.9853 68 91.5 68H64.5ZM60 87.5C60 85.0147 62.0147 83 64.5 83H91.5C93.9853 83 96 85.0147 96 87.5C96 89.9853 93.9853 92 91.5 92H64.5C62.0147 92 60 89.9853 60 87.5ZM80.5 113C78.0147 113 76 115.015 76 117.5C76 119.985 78.0147 122 80.5 122H103.5C105.985 122 108 119.985 108 117.5C108 115.015 105.985 113 103.5 113H80.5ZM81 57.5C81 55.0147 83.0147 53 85.5 53H94.5C96.9853 53 99 55.0147 99 57.5C99 59.9853 96.9853 62 94.5 62H85.5C83.0147 62 81 59.9853 81 57.5ZM85.5 98C83.0147 98 81 100.015 81 102.5C81 104.985 83.0147 107 85.5 107H94.5C96.9853 107 99 104.985 99 102.5C99 100.015 96.9853 98 94.5 98H85.5ZM152 66.5C152 64.0147 154.015 62 156.5 62C158.985 62 161 64.0147 161 66.5V81H175.5C177.985 81 180 83.0147 180 85.5C180 87.9853 177.985 90 175.5 90H156.5C154.015 90 152 87.9853 152 85.5V66.5Z" fill="#0C9FDB"/>
</svg>
