<svg width="78" height="60" viewBox="0 0 78 60" fill="none" xmlns="http://www.w3.org/2000/svg">
<path d="M12.8 60C4.26667 60 0 55.9603 0 47.8808C0 39.8013 2.8 32.053 8.4 24.6358C14 17.2185 22.1333 10.596 32.8 4.76821L37.6 10.7285C27.7333 20.1324 22.8 30.8609 22.8 42.9139C22.8 47.2848 23.8 52.2517 25.8 57.8146C21.4 59.2715 17.0667 60 12.8 60ZM53.2 55.2318C44.6667 55.2318 40.4 51.192 40.4 43.1126C40.4 35.0331 43.2 27.2848 48.8 19.8676C54.4 12.4503 62.5333 5.82782 73.2 0L78 5.96027C68.1333 15.3642 63.2 26.0927 63.2 38.1457C63.2 42.5166 64.2 47.4834 66.2 53.0464C61.8 54.5033 57.4667 55.2318 53.2 55.2318Z" fill="#DEF1FA"/>
</svg>
