<svg width="78" height="60" viewBox="0 0 78 60" fill="none" xmlns="http://www.w3.org/2000/svg">
<path d="M65.2 0C73.7333 0 78 4.03974 78 12.1192C78 20.1987 75.2 27.947 69.6 35.3642C64 42.7815 55.8667 49.404 45.2 55.2318L40.4 49.2715C50.2667 39.8675 55.2 29.1391 55.2 17.0861C55.2 12.7152 54.2 7.74835 52.2 2.18543C56.6 0.728477 60.9333 0 65.2 0ZM24.8 4.76821C33.3333 4.76821 37.6 8.80795 37.6 16.8874C37.6 24.9669 34.8 32.7152 29.2 40.1324C23.6 47.5497 15.4667 54.1722 4.8 60L0 54.0397C9.86667 44.6358 14.8 33.9073 14.8 21.8543C14.8 17.4834 13.8 12.5166 11.8 6.95365C16.2 5.49669 20.5333 4.76821 24.8 4.76821Z" fill="#DEF1FA"/>
</svg>
