<svg width="220" height="228" viewBox="0 0 220 228" fill="none" xmlns="http://www.w3.org/2000/svg">
<circle cx="100" cy="128" r="100" fill="#DEF1FA"/>
<g clip-path="url(#clip0_801_10153)">
<path d="M212.061 61.6794H204.443C203.034 56.6996 201.048 51.9017 198.525 47.3832L203.911 42C204.649 41.2628 205.233 40.3876 205.632 39.4244C206.031 38.4612 206.237 37.4288 206.237 36.3863C206.237 35.3437 206.031 34.3113 205.632 33.3481C205.233 32.3849 204.649 31.5097 203.911 30.7725L189.227 16.0885C188.49 15.3513 187.615 14.7665 186.652 14.3676C185.689 13.9686 184.656 13.7632 183.614 13.7632C182.571 13.7632 181.539 13.9686 180.576 14.3676C179.612 14.7665 178.737 15.3513 178 16.0885L172.617 21.4748C168.098 18.9571 163.3 16.9762 158.321 15.5725V7.93893C158.321 5.8334 157.484 3.8141 155.995 2.32526C154.507 0.836421 152.487 0 150.382 0H129.618C127.513 0 125.493 0.836421 124.005 2.32526C122.516 3.8141 121.679 5.8334 121.679 7.93893V15.5725C116.709 16.986 111.921 18.974 107.411 21.4962L102 16.0916C101.263 15.3544 100.388 14.7696 99.4244 14.3706C98.4612 13.9716 97.4288 13.7663 96.3863 13.7663C95.3437 13.7663 94.3113 13.9716 93.3481 14.3706C92.3849 14.7696 91.5097 15.3544 90.7725 16.0916L76.0885 30.7725C75.3513 31.5097 74.7665 32.3849 74.3676 33.3481C73.9686 34.3113 73.7632 35.3437 73.7632 36.3863C73.7632 37.4288 73.9686 38.4612 74.3676 39.4244C74.7665 40.3876 75.3513 41.2628 76.0885 42L81.5237 47.4351C79.0146 51.9388 77.038 56.719 75.6336 61.6794H67.9389C65.8334 61.6794 63.8141 62.5158 62.3253 64.0046C60.8364 65.4935 60 67.5128 60 69.6183V90.3817C60 92.4872 60.8364 94.5065 62.3253 95.9953C63.8141 97.4842 65.8334 98.3206 67.9389 98.3206H75.655C77.063 103.272 79.0416 108.043 81.5511 112.537L76.0885 118C75.3513 118.737 74.7665 119.612 74.3676 120.576C73.9686 121.539 73.7632 122.571 73.7632 123.614C73.7632 124.656 73.9686 125.689 74.3676 126.652C74.7665 127.615 75.3513 128.49 76.0885 129.227L90.7725 143.911C91.5097 144.649 92.3849 145.233 93.3481 145.632C94.3113 146.031 95.3437 146.237 96.3863 146.237C97.4288 146.237 98.4612 146.031 99.4244 145.632C100.388 145.233 101.263 144.649 102 143.911L107.463 138.449C111.957 140.958 116.728 142.937 121.679 144.345V152.061C121.679 154.167 122.516 156.186 124.005 157.675C125.493 159.164 127.513 160 129.618 160H150.382C152.487 160 154.507 159.164 155.995 157.675C157.484 156.186 158.321 154.167 158.321 152.061V144.366C163.281 142.962 168.061 140.985 172.565 138.476L178 143.908C178.737 144.646 179.612 145.23 180.576 145.629C181.539 146.028 182.571 146.234 183.614 146.234C184.656 146.234 185.689 146.028 186.652 145.629C187.615 145.23 188.49 144.646 189.227 143.908L203.908 129.224C204.646 128.487 205.23 127.612 205.629 126.649C206.028 125.686 206.234 124.653 206.234 123.611C206.234 122.568 206.028 121.536 205.629 120.573C205.23 119.609 204.646 118.734 203.908 117.997L198.498 112.586C201.023 108.078 203.013 103.291 204.427 98.3206H212.061C214.167 98.3206 216.186 97.4842 217.675 95.9953C219.164 94.5065 220 92.4872 220 90.3817V69.6183C220 67.5128 219.164 65.4935 217.675 64.0046C216.186 62.5158 214.167 61.6794 212.061 61.6794ZM188.244 110.718C187.649 111.657 187.39 112.771 187.51 113.877C187.63 114.983 188.121 116.016 188.904 116.806L195.713 123.615L183.624 135.704L176.797 128.876C176.01 128.089 174.979 127.594 173.873 127.473C172.767 127.352 171.653 127.612 170.715 128.211C165.101 131.794 158.899 134.358 152.394 135.786C151.307 136.028 150.335 136.633 149.636 137.5C148.938 138.367 148.555 139.445 148.55 140.559V150.229H131.45V140.54C131.455 139.427 131.078 138.346 130.381 137.478C129.684 136.609 128.71 136.007 127.621 135.771C121.125 134.336 114.933 131.768 109.328 128.183C108.389 127.585 107.274 127.325 106.167 127.448C105.06 127.57 104.029 128.066 103.243 128.855L96.3847 135.716L84.2962 123.624L91.145 116.757C91.9276 115.968 92.4194 114.937 92.5403 113.832C92.6612 112.728 92.404 111.614 91.8107 110.675C88.2276 105.068 85.6591 98.8753 84.2229 92.3786C83.9873 91.2915 83.3857 90.3182 82.5188 89.6212C81.6518 88.9243 80.5719 88.5461 79.4595 88.5496H69.771V71.4504H79.4412C80.5534 71.4457 81.631 71.0638 82.4979 70.3671C83.3648 69.6705 83.9698 68.7003 84.2137 67.6153C85.6426 61.1106 88.207 54.9088 91.7893 49.2947C92.3815 48.3549 92.6377 47.2423 92.5163 46.1382C92.3949 45.0341 91.9029 44.0038 91.1206 43.2153L84.2962 36.3847L96.3847 24.2962L103.197 31.1053C103.986 31.8907 105.019 32.3832 106.125 32.5015C107.232 32.6198 108.346 32.3567 109.282 31.7557C114.9 28.162 121.109 25.5881 127.621 24.1527C128.71 23.9162 129.684 23.3132 130.381 22.4444C131.078 21.5757 131.455 20.4939 131.45 19.3802V9.77099H148.55V19.3649C148.558 20.4744 148.941 21.5485 149.638 22.4123C150.334 23.2761 151.302 23.8787 152.385 24.1221C158.907 25.5559 165.124 28.1297 170.751 31.7252C171.689 32.3238 172.803 32.5844 173.909 32.464C175.015 32.3435 176.047 31.8491 176.834 31.0626L183.615 24.284L195.704 36.3725L188.925 43.1542C188.134 43.9381 187.636 44.9701 187.514 46.0775C187.393 47.1848 187.656 48.3002 188.26 49.2366C191.864 54.8649 194.444 61.0873 195.878 67.6153C196.121 68.6978 196.724 69.666 197.588 70.3624C198.452 71.0588 199.526 71.4422 200.635 71.4504H210.229V88.5496H200.62C199.509 88.5549 198.432 88.9366 197.566 89.6326C196.7 90.3286 196.095 91.2977 195.85 92.3817C194.412 98.893 191.837 105.1 188.244 110.718Z" fill="#0C9FDB"/>
<path d="M156.121 57.0993C155.668 56.6455 155.129 56.2856 154.536 56.04C153.943 55.7944 153.308 55.668 152.666 55.668C152.025 55.668 151.389 55.7944 150.796 56.04C150.204 56.2856 149.665 56.6455 149.211 57.0993L135.691 70.626L130.787 65.7222C129.868 64.8103 128.628 64.297 127.334 64.2932C126.692 64.291 126.055 64.4162 125.462 64.6615C124.869 64.9068 124.33 65.2673 123.877 65.7222L112.927 76.6749C112.474 77.1285 112.114 77.6672 111.868 78.26C111.622 78.8528 111.496 79.4881 111.496 80.1298C111.496 80.7715 111.622 81.4069 111.868 81.9997C112.114 82.5925 112.474 83.1311 112.927 83.5848L132.234 102.901C132.688 103.355 133.227 103.715 133.819 103.96C134.412 104.206 135.048 104.332 135.689 104.332C136.331 104.332 136.966 104.206 137.559 103.96C138.152 103.715 138.691 103.355 139.144 102.901L167.074 74.971C167.528 74.5174 167.888 73.9787 168.133 73.3859C168.379 72.7931 168.505 72.1577 168.505 71.5161C168.505 70.8744 168.379 70.239 168.133 69.6462C167.888 69.0534 167.528 68.5148 167.074 68.0611L156.121 57.0993ZM156.711 71.5054L135.691 92.5191L123.288 80.1191L127.334 76.0733L132.219 80.9771C132.672 81.4329 133.21 81.7941 133.804 82.04C134.397 82.2858 135.033 82.4113 135.676 82.4092C136.97 82.4053 138.211 81.8907 139.129 80.9771L152.665 67.481L156.711 71.5054Z" fill="#0C9FDB"/>
<path fill-rule="evenodd" clip-rule="evenodd" d="M139.881 39.2122C117.375 39.2122 99.1297 57.4571 99.1297 79.9634C99.1297 102.47 117.375 120.715 139.881 120.715C162.387 120.715 180.632 102.47 180.632 79.9634C180.632 57.4571 162.387 39.2122 139.881 39.2122ZM90.5801 79.9634C90.5801 52.7353 112.653 30.6626 139.881 30.6626C167.109 30.6626 189.182 52.7353 189.182 79.9634C189.182 107.191 167.109 129.264 139.881 129.264C112.653 129.264 90.5801 107.191 90.5801 79.9634Z" fill="#0C9FDB"/>
</g>
<defs>
<clipPath id="clip0_801_10153">
<rect width="160" height="160" fill="white" transform="translate(60)"/>
</clipPath>
</defs>
</svg>
