<svg width="220" height="228" viewBox="0 0 220 228" fill="none" xmlns="http://www.w3.org/2000/svg">
<circle cx="100" cy="128" r="100" fill="#DEF1FA"/>
<g clip-path="url(#clip0_801_8450)">
<path d="M215.89 14.3327C212.017 9.1975 206.106 6.25258 199.674 6.25258H196.951V4.69013C196.951 2.10145 194.852 0.0027539 192.264 0.0027539C189.675 0.0027539 187.576 2.10145 187.576 4.69013V17.1898C187.576 19.7785 189.675 21.8772 192.264 21.8772C194.852 21.8772 196.951 19.7785 196.951 17.1898V15.6273H199.674C203.137 15.6273 206.32 17.2132 208.406 19.9781C210.491 22.7431 211.142 26.2389 210.19 29.5691L197.749 73.1123C194.278 85.2635 183.027 93.7499 170.389 93.7499C157.752 93.7499 146.501 85.2632 143.029 73.1123L130.588 29.5688C129.637 26.2386 130.287 22.7428 132.373 19.9778C134.459 17.2126 137.641 15.627 141.105 15.627H143.827V17.1895C143.827 19.7782 145.926 21.8768 148.515 21.8768C151.103 21.8768 153.202 19.7782 153.202 17.1895V4.68981C153.202 2.10113 151.103 0.00244141 148.515 0.00244141C145.926 0.00244141 143.827 2.10113 143.827 4.68981V6.25227H141.105C134.673 6.25227 128.762 9.1975 124.889 14.3324C121.015 19.4675 119.807 25.9595 121.574 32.1441L134.015 75.6872C136.292 83.6558 140.992 90.5053 147.609 95.4961C149.027 96.5657 150.506 97.5204 152.031 98.371L165.702 130.638V134.021C165.702 143.176 158.254 150.623 149.1 150.623C139.946 150.623 132.498 143.176 132.498 134.021V101.875C132.498 87.0563 120.442 75.0004 105.624 75.0004C90.8054 75.0004 78.7495 87.0563 78.7495 101.875V112.971C68.0648 115.148 60 124.618 60 135.936C60 148.859 70.5138 159.373 83.4369 159.373C96.3599 159.373 106.874 148.859 106.874 135.936C106.874 124.618 98.8089 115.149 88.1242 112.971V101.875C88.1242 92.2255 95.9746 84.3751 105.624 84.3751C115.273 84.3751 123.123 92.2255 123.123 101.875V134.021C123.123 148.345 134.776 159.998 149.1 159.998C163.424 159.998 175.077 148.345 175.077 134.021V130.638L188.748 98.371C190.274 97.5204 191.753 96.5657 193.17 95.4961C199.786 90.5056 204.487 83.6558 206.764 75.6872L219.205 32.1441C220.972 25.9599 219.763 19.4675 215.89 14.3327ZM97.499 135.936C97.499 143.69 91.1907 149.998 83.4369 149.998C75.683 149.998 69.3747 143.69 69.3747 135.936C69.3747 128.182 75.683 121.874 83.4369 121.874C91.1907 121.874 97.499 128.182 97.499 135.936ZM170.389 117.671L163.998 102.586C166.091 102.941 168.226 103.125 170.39 103.125C172.553 103.125 174.688 102.941 176.781 102.586L170.389 117.671Z" fill="#0C9FDB"/>
<path d="M83.4375 140.624C86.0263 140.624 88.125 138.525 88.125 135.937C88.125 133.348 86.0263 131.249 83.4375 131.249C80.8487 131.249 78.75 133.348 78.75 135.937C78.75 138.525 80.8487 140.624 83.4375 140.624Z" fill="#0C9FDB"/>
</g>
<defs>
<clipPath id="clip0_801_8450">
<rect width="160" height="160" fill="white" transform="translate(60)"/>
</clipPath>
</defs>
</svg>
