<svg width="18" height="18" viewBox="0 0 18 18" fill="none" xmlns="http://www.w3.org/2000/svg">
<g clip-path="url(#clip0_1311:18638)">
<path fill-rule="evenodd" clip-rule="evenodd" d="M9.43889 3.97573L8.4742 3.54906L8.91855 2.54421L7.88086 1.89707L8.69991 0L9.66839 0.418122L9.20899 1.48212L10.2536 2.13362L9.43889 3.97573ZM9.0647 11.5256H9.06523H9.06576C10.4154 11.5253 11.5094 10.4311 11.5094 9.0814V7.69637C11.5094 6.34647 10.4151 5.2522 9.06526 5.2522C7.71536 5.2522 6.62109 6.3465 6.62109 7.69637V9.0814C6.62102 10.4311 7.71505 11.5253 9.0647 11.5256ZM11.5642 11.5278C10.9286 12.177 10.0431 12.5805 9.06506 12.5805C8.08697 12.5805 7.2015 12.177 6.56593 11.5278C5.63524 11.5731 4.89453 12.3419 4.89453 13.2838V18.0001H13.2355V13.2838C13.2356 12.3419 12.4949 11.5731 11.5642 11.5278ZM15.1092 3.1714L14.72 2.19092L12.7994 2.95321L13.0756 4.14457L12.0508 4.54089L12.4312 5.52474L14.31 4.79824L14.0319 3.59894L15.1092 3.1714ZM5.4999 3.11803L6.2264 4.99671L5.24255 5.37718L4.84623 4.35242L3.6548 4.62863L2.89258 2.708L3.87306 2.31885L4.3006 3.39606L5.4999 3.11803Z" fill="#FDC400"/>
</g>
<defs>
<clipPath id="clip0_1311:18638">
<rect width="18" height="18" fill="white"/>
</clipPath>
</defs>
</svg>
