<svg width="220" height="228" viewBox="0 0 220 228" fill="none" xmlns="http://www.w3.org/2000/svg">
<circle cx="100" cy="128" r="100" fill="#DEF1FA"/>
<g clip-path="url(#clip0_1458_1398)">
<path d="M219.812 11.9443C219.466 5.58871 214.411 0.534649 208.055 0.187774C195.231 -0.512851 170.136 0.168712 146.14 12.5803C133.907 18.9078 120.97 29.6356 110.645 42.0131C110.518 42.1656 110.394 42.319 110.268 42.4718L86.8364 44.2818C82.9795 44.58 79.5442 46.6015 77.4111 49.8278L61.4255 74.0065C59.8076 76.4534 59.5505 79.5156 60.737 82.1978C61.9239 84.8803 64.3626 86.7496 67.2611 87.1987L87.002 90.2562C86.9323 90.64 86.8623 91.0234 86.7983 91.4072C86.1411 95.3384 87.4436 99.3803 90.283 102.219L117.78 129.717C120.135 132.071 123.315 133.369 126.575 133.369C127.246 133.369 127.921 133.314 128.593 133.202C128.977 133.137 129.36 133.067 129.744 132.998L132.801 152.739C133.25 155.637 135.12 158.077 137.802 159.263C138.918 159.757 140.099 160.001 141.274 160.001C142.925 160 144.565 159.52 145.993 158.575L170.172 142.589C173.399 140.456 175.42 137.02 175.717 133.164L177.527 109.733C177.68 109.607 177.834 109.483 177.986 109.356C190.364 99.0309 201.092 86.0934 207.42 73.8603C219.832 49.8631 220.512 24.7678 219.812 11.9443ZM165.002 134.768L141.873 150.06L138.893 130.821C148.668 127.947 158.338 123.344 167.55 117.177L166.371 132.441C166.298 133.393 165.798 134.242 165.002 134.768ZM124.41 123.088L96.9117 95.5903C96.2101 94.8884 95.8858 93.9025 96.0448 92.9528C96.8623 88.0643 98.1326 83.4109 99.7051 79.0271L140.964 120.286C135.699 122.172 130.983 123.297 127.047 123.955C126.096 124.113 125.111 123.79 124.41 123.088ZM87.5586 53.629L102.822 52.45C96.6555 61.6621 92.0523 71.3318 89.1783 81.1068L69.9395 78.1272L85.2314 54.9984C85.7583 54.2015 86.6067 53.7025 87.5586 53.629ZM171.982 102.156C164.409 108.472 157.058 113.041 150.283 116.347L103.651 69.7156C107.982 60.8706 113.267 53.5053 117.844 48.0184C127.399 36.5637 139.282 26.6821 150.447 20.9072C172.47 9.51559 195.674 8.90215 207.545 9.5484C209.116 9.63402 210.366 10.8837 210.452 12.4553C211.099 24.3265 210.484 47.5297 199.093 69.5531C193.318 80.7181 183.436 92.6012 171.982 102.156Z" fill="#0C9FDB"/>
<path d="M169.601 73.826C175.601 73.8254 181.604 71.541 186.173 66.9726C190.6 62.546 193.037 56.6604 193.037 50.4004C193.037 44.1404 190.599 38.2548 186.173 33.8282C177.035 24.6898 162.166 24.6904 153.028 33.8282C148.601 38.2548 146.164 44.1404 146.164 50.4004C146.164 56.6604 148.602 62.546 153.028 66.9726C157.598 71.542 163.598 73.8266 169.601 73.826ZM159.657 40.457C162.398 37.7154 165.999 36.3448 169.6 36.3448C173.201 36.3448 176.802 37.7154 179.543 40.457C182.199 43.1129 183.662 46.6441 183.662 50.4001C183.662 54.156 182.199 57.6876 179.543 60.3435C174.061 65.8263 165.139 65.826 159.656 60.3435C157.001 57.6876 155.538 54.1563 155.538 50.4004C155.538 46.6445 157.001 43.1129 159.657 40.457Z" fill="#0C9FDB"/>
<path d="M64.7821 131.855C65.9817 131.855 67.1814 131.398 68.0964 130.482L83.4005 115.178C85.2311 113.348 85.2311 110.38 83.4005 108.549C81.5702 106.719 78.6021 106.719 76.7714 108.549L61.4677 123.853C59.6371 125.684 59.6371 128.652 61.4677 130.482C62.3827 131.398 63.5824 131.855 64.7821 131.855Z" fill="#0C9FDB"/>
<path d="M97.4257 122.575C95.5953 120.744 92.6272 120.744 90.7966 122.575L61.3735 151.998C59.5428 153.829 59.5428 156.797 61.3735 158.627C62.2888 159.542 63.4882 160 64.6878 160C65.8875 160 67.0872 159.542 68.0022 158.627L97.4253 129.204C99.2563 127.373 99.2563 124.405 97.4257 122.575Z" fill="#0C9FDB"/>
<path d="M104.822 136.6L89.5175 151.904C87.6869 153.735 87.6869 156.703 89.5175 158.533C90.4328 159.448 91.6325 159.906 92.8319 159.906C94.0312 159.906 95.2312 159.449 96.1462 158.533L111.45 143.229C113.281 141.398 113.281 138.431 111.45 136.6C109.62 134.769 106.652 134.769 104.822 136.6Z" fill="#0C9FDB"/>
</g>
<defs>
<clipPath id="clip0_1458_1398">
<rect width="160" height="160" fill="white" transform="translate(60)"/>
</clipPath>
</defs>
</svg>
