<svg xmlns="http://www.w3.org/2000/svg" width="72" height="72" viewBox="0 0 72 72">
    <g fill="none">
        <path fill="#000" d="M44.423 71.392c-.3.049-.6.094-.901.135.301-.041.602-.086.901-.135zM45.142 71.27c-.143.026-.286.05-.43.074.144-.024.287-.048.43-.075zM42.72 71.627c-.351.04-.704.074-1.057.104.353-.03.706-.065 1.056-.104zM43.41 71.542c-.169.023-.338.044-.507.063.169-.02.338-.04.506-.063zM46.12 71.075l-.38.08.38-.08zM48.548 70.472c-.102.03-.204.057-.306.085l.306-.085zM47.813 70.673l-.333.086.333-.086zM46.853 70.913l-.354.08.354-.08zM41.651 71.732c-.189.016-.378.03-.568.043.19-.013.38-.027.568-.043z"/>
        <path fill="#0C9FDB" d="M71.86 35.93C71.86 16.09 55.77 0 35.93 0S0 16.09 0 35.93s16.09 35.93 35.93 35.93c.21 0 .42-.005.631-.009v-27.97h-7.719v-8.996h7.72v-6.62c0-7.677 4.686-11.856 11.535-11.856 3.28 0 6.099.245 6.92.354v8.024h-4.722c-3.726 0-4.447 1.77-4.447 4.369v5.73h8.909l-1.162 8.996h-7.747v26.59C60.866 66.165 71.86 52.33 71.86 35.93z"/>
        <path fill="#000" d="M41.004 71.78c-.374.024-.75.043-1.126.056.376-.013.752-.032 1.126-.056zM39.858 71.837c-.198.006-.397.011-.596.014.199-.003.398-.008.596-.014z"/>
    </g>
</svg>