<svg width="18" height="18" viewBox="0 0 18 18" fill="none" xmlns="http://www.w3.org/2000/svg">
<path d="M15.8906 0.0351562C14.7275 0.0351562 13.7812 0.981422 13.7812 2.14453C13.7812 3.06116 14.3691 3.84268 15.1875 4.13297V12.0938C15.1875 14.5751 13.1688 16.5938 10.6875 16.5938C8.30644 16.5938 6.35168 14.7348 6.19762 12.392L9.46318 7.90186C9.48512 7.8717 9.50347 7.84009 9.51996 7.80792C10.5002 6.64861 11.0391 5.1326 11.0391 3.52638C11.0391 2.60775 10.8654 1.72536 10.5233 0.900949C10.5119 0.871453 10.4996 0.842414 10.4864 0.813902C10.4803 0.79984 10.4746 0.785672 10.4684 0.771645L10.4663 0.772594C10.2345 0.314367 9.75955 0 9.21094 0C8.4343 0 7.80469 0.629613 7.80469 1.40625C7.80469 2.18289 8.4343 2.8125 9.21094 2.8125C9.33912 2.8125 9.46318 2.79503 9.5812 2.76289C9.61527 3.01307 9.63281 3.26774 9.63281 3.52638C9.63281 6.17621 7.7876 8.33203 5.51953 8.33203C3.25146 8.33203 1.40625 6.17621 1.40625 3.52638C1.40625 3.26774 1.42379 3.01303 1.45786 2.76289C1.57588 2.79503 1.69995 2.8125 1.82812 2.8125C2.60476 2.8125 3.23438 2.18289 3.23438 1.40625C3.23438 0.629613 2.60476 0 1.82812 0C1.27951 0 0.804586 0.314367 0.572836 0.772629L0.570656 0.77168C0.564504 0.785707 0.558809 0.799875 0.552727 0.813938C0.539473 0.842449 0.527168 0.871488 0.515812 0.900984C0.173672 1.72533 0 2.60775 0 3.52638C0 5.0844 0.507129 6.55755 1.43213 7.70259C1.44387 7.72263 1.45663 7.74229 1.47059 7.76148L4.78586 12.3157C4.90303 15.4699 7.50512 18 10.6875 18C13.9442 18 16.5938 15.3505 16.5938 12.0938V4.13297C17.4121 3.84268 18 3.06116 18 2.14453C18 0.981422 17.0537 0.0351562 15.8906 0.0351562ZM4.58487 9.65018C4.89052 9.70833 5.20284 9.73828 5.51953 9.73828C5.83566 9.73828 6.14742 9.70843 6.45258 9.6505L5.51925 10.9338L4.58487 9.65018ZM15.8906 2.84766C15.5029 2.84766 15.1875 2.53223 15.1875 2.14453C15.1875 1.75683 15.5029 1.44141 15.8906 1.44141C16.2783 1.44141 16.5938 1.75683 16.5938 2.14453C16.5938 2.53223 16.2783 2.84766 15.8906 2.84766Z" fill="#98C95D"/>
</svg>
