<svg width="220" height="228" viewBox="0 0 220 228" fill="none" xmlns="http://www.w3.org/2000/svg">
<circle cx="100" cy="128" r="100" fill="#DEF1FA"/>
<path d="M196.375 61.2569C199.291 55.5266 200.938 49.0459 200.938 42.1875C200.938 18.9253 182.012 0 158.75 0C135.488 0 116.562 18.9253 116.562 42.1875C116.562 45.8634 117.036 49.4306 117.924 52.8325C113.324 54.6816 108.991 56.9256 104.981 59.5459C101.373 57.3803 97.3338 56.25 93.125 56.25H83.75C82.2434 56.25 80.8281 56.9744 79.9472 58.1966C79.0663 59.4191 78.8266 60.9903 79.3028 62.4197L84.58 78.2506C79.6516 82.2184 73.8669 84.375 68.0319 84.375C68.0319 84.375 64.6878 84.3744 64.6875 84.3744C62.1006 84.3744 60 86.4731 60 89.0619V117.5C60 118.741 60.4922 119.932 61.3688 120.81L61.6428 121.085C73.6419 133.107 89.0144 141.836 105.207 145.872L107.278 156.232C107.717 158.423 109.641 160 111.875 160H130.625C133.214 160 135.312 157.901 135.312 155.312V150.276C153.266 151.412 164.374 149.822 172.812 147.402V155.312C172.812 157.901 174.911 160 177.5 160H196.25C198.339 160 200.176 158.618 200.754 156.611C203.528 146.986 207.724 137.368 213.58 127.207C217.72 120.024 220 111.472 220 103.125C220 86.1091 210.426 71.3363 196.375 61.2569ZM158.75 9.375C176.843 9.375 191.562 24.0947 191.562 42.1875C191.562 60.2803 176.843 75 158.75 75C140.657 75 125.938 60.2803 125.938 42.1875C125.938 24.0947 140.657 9.375 158.75 9.375ZM205.458 122.526C199.899 132.171 195.732 141.399 192.777 150.625H182.188V140.908C182.188 137.642 178.92 135.373 175.858 136.518C166.953 139.847 155.357 142.641 131.026 140.554C128.292 140.319 125.938 142.477 125.938 145.225V150.625H115.718L113.806 141.066C113.439 139.229 111.994 137.783 110.162 137.395C110.162 137.395 110.083 137.378 110.065 137.374C95.0569 134.174 80.6656 126.442 69.375 115.541V93.7228C78.0659 93.3712 86.5031 89.6209 93.2663 83.0725C94.5616 81.8184 95.0228 79.9328 94.4528 78.2225L90.2537 65.625H93.125C97.1725 65.625 100.176 67.3925 101.982 68.875C103.63 70.2266 105.981 70.2972 107.706 69.0475C111.812 66.0725 116.37 63.5713 121.293 61.5816C128.327 75.1113 142.476 84.375 158.75 84.375C171.796 84.375 183.478 78.4216 191.222 69.09C203.606 78.0462 210.625 90.2603 210.625 103.125C210.625 109.854 208.79 116.744 205.458 122.526V122.526Z" fill="#0C9FDB"/>
<path d="M102.5 103.125C105.089 103.125 107.188 101.026 107.188 98.4375C107.188 95.8487 105.089 93.75 102.5 93.75C99.9112 93.75 97.8125 95.8487 97.8125 98.4375C97.8125 101.026 99.9112 103.125 102.5 103.125Z" fill="#0C9FDB"/>
<path d="M167.786 39.9666C165.284 38.6313 162.397 38.0957 159.605 37.5776C157.514 37.1895 155.351 36.7885 154.128 36.1357C153.504 35.8026 153.504 35.7163 153.504 35.1551C153.504 34.8229 154.045 34.2166 155.078 33.6998C157.638 32.4204 161.247 32.5251 163.125 33.9335C165.196 35.487 168.134 35.067 169.687 32.996C171.241 30.9251 170.821 27.987 168.75 26.4335C167.208 25.2773 165.389 24.451 163.437 23.9595V22.8116C163.437 20.2229 161.339 18.1241 158.75 18.1241C156.161 18.1241 154.062 20.2229 154.062 22.8116V24.1001C152.97 24.4029 151.904 24.8057 150.886 25.3148C146.592 27.4616 144.129 31.0485 144.129 35.1554C144.129 39.2576 146.06 42.4566 149.714 44.4066C152.215 45.742 155.103 46.2776 157.895 46.7957C159.986 47.1838 162.149 47.5848 163.372 48.2376C163.996 48.5704 163.996 48.657 163.996 49.2179C163.996 49.5391 163.441 50.1576 162.413 50.6716C159.856 51.9504 156.25 51.846 154.375 50.4398C152.304 48.8863 149.366 49.3066 147.812 51.3773C146.259 53.4485 146.679 56.3866 148.75 57.9398C150.291 59.096 152.111 59.9216 154.062 60.4129V61.5616C154.062 64.1504 156.161 66.2491 158.75 66.2491C161.339 66.2491 163.437 64.1504 163.437 61.5616V60.2663C164.526 59.9638 165.591 59.5645 166.606 59.0566C170.905 56.907 173.371 53.321 173.371 49.2176C173.371 45.1157 171.44 41.9166 167.786 39.9666V39.9666Z" fill="#0C9FDB"/>
</svg>
