<svg width="18" height="18" viewBox="0 0 18 18" fill="none" xmlns="http://www.w3.org/2000/svg">
<g clip-path="url(#clip0_1311:18662)">
<path d="M17.5541 10.3909L10.571 17.383C10.159 17.7943 9.61811 18 9.0773 18C8.53664 18 7.99625 17.7946 7.58467 17.3837L0.51908 10.395C0.0459811 9.92258 -0.0939574 9.22179 0.160239 8.6071C0.414848 7.99187 1.0099 7.5943 1.67635 7.5943H4.00683V5.5551C4.00683 5.16673 4.32173 4.85184 4.71009 4.85184C5.09846 4.85184 5.41322 5.16673 5.41322 5.5551V8.29742C5.41322 8.68579 5.09846 9.00055 4.71009 9.00055H1.67635C1.53985 9.00055 1.48203 9.09091 1.45979 9.14488C1.43273 9.21011 1.41969 9.30679 1.51032 9.39743L8.57605 16.3861C8.85359 16.6634 9.30142 16.6634 9.57677 16.3884L16.559 9.39716C16.6495 9.30652 16.6363 9.20984 16.6093 9.14461C16.587 9.09091 16.5292 9.00055 16.3927 9.00055H13.4997C13.1114 9.00055 12.7966 8.68579 12.7966 8.29742V5.55496C12.7966 5.1666 13.1114 4.85184 13.4997 4.85184C13.8881 4.85184 14.2028 5.1666 14.2028 5.55496V7.59416H16.3927C17.0586 7.59416 17.6535 7.99132 17.9084 8.606C18.1629 9.21986 18.0239 9.92052 17.5541 10.3909V10.3909ZM4.71009 1.40639C5.09846 1.40639 5.41322 1.09149 5.41322 0.703125C5.41322 0.314758 5.09846 0 4.71009 0C4.32173 0 4.00683 0.314758 4.00683 0.703125C4.00683 1.09149 4.32173 1.40639 4.71009 1.40639ZM4.71009 3.86746C5.09846 3.86746 5.41322 3.55257 5.41322 3.1642C5.41322 2.77597 5.09846 2.46107 4.71009 2.46107C4.32173 2.46107 4.00683 2.77597 4.00683 3.1642C4.00683 3.55257 4.32173 3.86746 4.71009 3.86746ZM13.4997 1.40639C13.8881 1.40639 14.2028 1.09149 14.2028 0.703125C14.2028 0.314758 13.8881 0 13.4997 0C13.1114 0 12.7966 0.314758 12.7966 0.703125C12.7966 1.09149 13.1114 1.40639 13.4997 1.40639ZM13.4997 3.86746C13.8881 3.86746 14.2028 3.55257 14.2028 3.1642C14.2028 2.77597 13.8881 2.46107 13.4997 2.46107C13.1114 2.46107 12.7966 2.77597 12.7966 3.1642C12.7966 3.55257 13.1114 3.86746 13.4997 3.86746ZM9.47872 10.5476H8.43158C8.26404 10.5476 8.08386 10.4513 8.08386 10.2399C8.08386 9.85158 7.76897 9.53682 7.38074 9.53682C6.99237 9.53682 6.67747 9.85158 6.67747 10.2399C6.67747 11.1796 7.41397 11.9196 8.3658 11.9523V12.3407C8.3658 12.729 8.68056 13.0438 9.06893 13.0438C9.45729 13.0438 9.77219 12.729 9.77219 12.3407V11.9335C10.7394 11.7989 11.4605 11.0069 11.4605 10.0202V9.59271C11.4605 9.06139 11.2525 8.56494 10.8748 8.19511C10.5025 7.83023 10.0066 7.62946 9.47872 7.62946H8.83437C8.52469 7.62946 8.26294 7.35562 8.26294 7.03166V6.77527C8.26294 6.46051 8.50862 6.22307 8.83437 6.22307H9.4437C9.62278 6.22307 9.80803 6.34296 9.80803 6.54359C9.80803 6.93196 10.1229 7.24672 10.5112 7.24672C10.8995 7.24672 11.2144 6.93196 11.2144 6.54359C11.2144 5.70081 10.592 4.99768 9.77219 4.84703V4.39481C9.77219 4.00644 9.45743 3.69168 9.06906 3.69168C8.6807 3.69168 8.3658 4.00644 8.3658 4.39481V4.8712C8.01781 4.95332 7.69907 5.12677 7.44048 5.37973C7.06392 5.74818 6.85655 6.2438 6.85655 6.77527V7.03166C6.85655 8.13675 7.74384 9.03571 8.83437 9.03571H9.47872C9.80144 9.03571 10.0541 9.28043 10.0541 9.59271V10.0202C10.0541 10.3664 9.76464 10.5476 9.47872 10.5476V10.5476Z" fill="#FF5733"/>
</g>
<defs>
<clipPath id="clip0_1311:18662">
<rect width="18" height="18" fill="white"/>
</clipPath>
</defs>
</svg>
