<svg width="220" height="228" viewBox="0 0 220 228" fill="none" xmlns="http://www.w3.org/2000/svg">
<circle cx="100" cy="128" r="100" fill="#DEF1FA"/>
<path d="M205.059 0H64.9414C56.7027 0 50 6.68145 50 14.894V115.842C50 124.055 56.7027 130.736 64.9414 130.736H115.144L110.765 150.071H89.7554V160H180.245V150.071H159.235L154.856 130.736H205.059C213.297 130.736 220 124.055 220 115.842V14.894C220 6.68145 213.297 0 205.059 0ZM64.9414 9.92934H205.059C207.805 9.92934 210.039 12.1565 210.039 14.894V94.3287H59.9609V14.894C59.9609 12.1565 62.1952 9.92934 64.9414 9.92934ZM144.645 130.736L149.024 150.071H120.977L125.356 130.736H144.645ZM205.059 120.807H64.9414C62.1952 120.807 59.9609 118.58 59.9609 115.842V104.258H210.039V115.842C210.039 118.58 207.805 120.807 205.059 120.807Z" fill="#0C9FDB"/>
<path d="M98.0977 65.332L131.628 31.9082L138.67 38.9283L105.14 72.3521L98.0977 65.332Z" fill="#0C9FDB"/>
<path d="M131.297 65.3354L164.827 31.9116L171.869 38.9317L138.339 72.3555L131.297 65.3354Z" fill="#0C9FDB"/>
</svg>
