<svg focusable="false" viewBox="0 0 24 24" aria-hidden="true" role="presentation" xmlns="http://www.w3.org/2000/svg">
    <path d="M6.65 10.09L6.87 10.12L7.06 10.21L7.23 10.35L7.36 10.55L7.43 10.8L7.42 11.05L7.32 11.29L7.16 11.49L7.11 11.52L7.06 11.55L7 11.59L6.95 11.62L6.93 11.62L6.92 11.63L6.91 11.64L6.89 11.64L7.24 12.17L7.41 12.44L7.59 12.7L7.18 12.7L7.01 12.45L6.85 12.2L6.68 11.95L6.51 11.69L5.61 11.69L5.61 12.71L5.25 12.71L5.25 10.09L5.26 10.09L5.27 10.09L5.27 10.09L5.28 10.09L5.62 10.09L5.96 10.08L6.31 10.08L6.65 10.09ZM5.63 10.45L5.62 10.45L5.62 10.45L5.62 10.45L5.61 10.45L5.61 11.34L5.62 11.34L5.63 11.34L5.64 11.34L5.65 11.34L5.88 11.34L6.11 11.34L6.34 11.34L6.56 11.34L6.61 11.33L6.66 11.33L6.71 11.32L6.75 11.31L6.92 11.22L7.03 11.07L7.07 10.88L7.02 10.69L6.95 10.59L6.86 10.51L6.75 10.47L6.64 10.45L6.38 10.45L6.13 10.45L5.88 10.45L5.63 10.45Z" opacity="1" fill="#ff00b8" fill-opacity="1" id="c13zsztUDc"></path>
    <path d="M12.6 11.63C12.6 11.9 12.6 12.04 12.6 12.07C12.52 12.16 12.42 12.23 12.31 12.28C12.04 12.4 11.76 12.42 11.47 12.34C11.22 12.28 11.02 12.13 10.9 11.9C10.78 11.68 10.75 11.45 10.79 11.21C10.84 10.92 10.99 10.69 11.24 10.54C11.5 10.4 11.78 10.37 12.06 10.45C12.29 10.5 12.47 10.64 12.58 10.86C12.58 10.87 12.59 10.88 12.6 10.89C12.7 10.83 12.8 10.77 12.9 10.71C12.9 10.7 12.89 10.69 12.89 10.68C12.77 10.45 12.59 10.29 12.37 10.18C11.99 10.01 11.61 10 11.23 10.15C10.87 10.28 10.63 10.54 10.5 10.91C10.41 11.14 10.39 11.39 10.43 11.64C10.47 11.91 10.59 12.16 10.78 12.36C11.02 12.6 11.32 12.71 11.65 12.74C11.91 12.76 12.16 12.73 12.41 12.63C12.61 12.55 12.79 12.42 12.94 12.27C12.94 12.2 12.94 11.87 12.94 11.29L11.84 11.29L11.84 11.63L12.6 11.63Z" opacity="1" fill="#ff00b8" fill-opacity="1" id="czIW0uyz8"></path>
    <path d="M9.7 10.14C9.7 10.63 9.7 11.12 9.7 11.61C9.7 11.67 9.7 11.74 9.69 11.8C9.66 12.05 9.54 12.23 9.31 12.32C9.07 12.41 8.82 12.41 8.58 12.32C8.4 12.26 8.29 12.13 8.22 11.95C8.18 11.84 8.17 11.73 8.17 11.62C8.17 11.13 8.17 10.63 8.17 10.14C8.17 10.14 8.17 10.12 8.17 10.09L7.81 10.09C7.81 10.11 7.81 10.13 7.81 10.13C7.81 10.63 7.81 11.13 7.81 11.63C7.81 11.77 7.82 11.9 7.86 12.03C7.94 12.29 8.1 12.5 8.34 12.61C8.7 12.79 9.08 12.79 9.45 12.65C9.63 12.59 9.78 12.47 9.89 12.3C10.01 12.13 10.06 11.93 10.06 11.72C10.07 11.18 10.07 10.65 10.07 10.12C10.07 10.11 10.07 10.1 10.06 10.09C10.04 10.09 9.92 10.09 9.7 10.09C9.7 10.12 9.7 10.14 9.7 10.14Z" opacity="1" fill="#ff00b8" fill-opacity="1" id="a20PSlyUx8"></path>
    <path d="M14.85 10.12L15.19 10.22L15.42 10.46L15.52 10.79L15.44 11.14L15.4 11.21L15.36 11.26L15.31 11.31L15.25 11.35L15.24 11.36L15.22 11.38L15.25 11.39L15.29 11.41L15.32 11.42L15.35 11.43L15.51 11.54L15.62 11.68L15.68 11.85L15.7 12.04L15.65 12.29L15.52 12.5L15.33 12.65L15.08 12.72L15.05 12.72L15.02 12.72L14.99 12.73L14.96 12.73L14.59 12.73L14.22 12.73L13.85 12.73L13.44 12.73L13.44 10.12L13.45 10.11L13.45 10.11L13.46 10.11L13.46 10.11L13.81 10.11L14.16 10.11L14.5 10.11L14.85 10.12ZM13.82 11.59L13.82 11.59L13.8 11.59L13.8 12.37L13.81 12.37L13.82 12.37L13.82 12.37L13.83 12.37L14.11 12.37L14.39 12.37L14.68 12.37L14.96 12.37L15.09 12.35L15.2 12.29L15.28 12.2L15.32 12.08L15.33 11.9L15.27 11.74L15.15 11.63L14.98 11.59L14.69 11.59L14.4 11.59L14.11 11.59L13.82 11.59ZM13.84 10.47L13.84 10.47L13.83 10.47L13.82 10.47L13.8 10.47L13.8 11.24L13.81 11.24L13.82 11.24L13.82 11.24L13.83 11.24L14.07 11.24L14.3 11.24L14.54 11.24L14.78 11.24L14.79 11.24L14.8 11.24L14.83 11.24L14.93 11.22L15.01 11.17L15.07 11.11L15.12 11.02L15.15 10.91L15.15 10.81L15.13 10.71L15.08 10.61L15.01 10.55L14.94 10.5L14.85 10.48L14.76 10.47L14.53 10.47L14.3 10.47L14.07 10.47L13.84 10.47Z" opacity="1" fill="#ff00b8" fill-opacity="1" id="e7WR13bBw"></path>
    <path d="M19.26 10.12C19.24 10.12 19.13 10.12 18.94 10.12L18.94 12.72L19.3 12.72C19.3 11.53 19.3 10.87 19.3 10.73C19.3 10.73 19.31 10.73 19.31 10.73C19.84 11.4 20.37 12.06 20.9 12.72C20.92 12.72 21.03 12.72 21.23 12.72L21.23 10.12L20.86 10.12L20.86 12.12C20.15 11.23 19.62 10.56 19.26 10.12Z" opacity="1" fill="#ff00b8" fill-opacity="1" id="c1JYeUCEPF"></path>
    <path d="M22.9 11.21C23.25 10.85 23.61 10.49 23.96 10.13C23.95 10.12 23.95 10.12 23.95 10.12C23.9 10.12 23.55 10.12 23.5 10.12C23.03 10.6 22.55 11.09 22.07 11.58C22.06 11.58 22.06 11.58 22.05 11.58L22.05 10.12L21.7 10.12L21.7 12.72L22.06 12.72C22.06 12.35 22.06 12.14 22.06 12.09C22.26 11.88 22.46 11.67 22.65 11.47C22.96 11.89 23.27 12.31 23.58 12.73C23.62 12.73 23.95 12.73 23.99 12.73C23.99 12.72 23.99 12.72 24 12.71C23.63 12.21 23.27 11.71 22.9 11.21" opacity="1" fill="#ff00b8" fill-opacity="1" id="a2n0WyNgca"></path>
    <path d="M18 11.42L18.3 12.07L18.59 12.73L18.2 12.73L18.14 12.58L18.07 12.44L18.01 12.3L17.95 12.15L16.55 12.15L16.48 12.3L16.36 12.58L16.3 12.72L15.91 12.72L15.92 12.71L15.92 12.7L15.93 12.68L15.93 12.67L16.1 12.29L16.27 11.92L16.44 11.54L16.61 11.16L16.72 10.91L16.83 10.66L16.95 10.41L17.06 10.15L17.07 10.15L17.07 10.13L17.08 10.11L17.42 10.11L17.71 10.76L18 11.42ZM17.02 11.08L16.88 11.41L16.71 11.79L17.79 11.79L17.65 11.48L17.38 10.87L17.25 10.56L17.15 10.79L17.02 11.08Z" opacity="1" fill="#ff00b8" fill-opacity="1" id="dhJ0wYKam"></path>
    <path d="M3.5 10C2.95 10 2.65 10 2.59 10C2.59 10 2.67 10.12 2.75 10.37C2.82 10.37 3.42 10.37 3.5 10.37C4.03 10.37 4.47 10.82 4.47 11.37C4.47 11.64 4.37 11.89 4.18 12.08C4 12.27 3.76 12.37 3.5 12.37C3.42 12.37 2.84 12.37 2.77 12.37C2.68 12.63 2.59 12.75 2.59 12.75C2.68 12.75 3.4 12.75 3.5 12.75C4.23 12.75 4.83 12.13 4.83 11.37C4.83 10.61 4.23 10 3.5 10" opacity="1" fill="#ff00b8" fill-opacity="1" id="a19x9Elfc"></path>
    <path d="M2.54 10.35L2.65 10.79L2.7 11.42L2.65 12.03L2.54 12.44L2.44 12.67L2.39 12.75L1.33 12.75L1.19 12.74L1.04 12.71L0.91 12.67L0.78 12.62L0.57 12.5L0.4 12.35L0.25 12.17L0.13 11.97L0.12 11.94L0.11 11.92L0.1 11.9L0.09 11.87L0.08 11.84L0.06 11.81L0.05 11.77L0.04 11.74L0.04 11.72L0.04 11.71L0.03 11.69L0.03 11.68L0.03 11.67L0.02 11.65L0.02 11.64L0.02 11.63L0.01 11.57L0 11.5L0 11.44L0 11.37L0.1 10.84L0.39 10.4L0.81 10.11L1.33 10L2.39 10L2.44 10.09L2.54 10.35ZM0.87 10.5L0.68 10.65L0.53 10.85L0.45 11.03L0.41 11.22L0.4 11.41L0.43 11.61L0.43 11.62L0.43 11.63L0.43 11.64L0.44 11.65L0.62 11.1L0.93 10.7L1.21 10.46L1.34 10.37L1.09 10.41L0.87 10.5Z" opacity="1" fill="#ff00b8" fill-opacity="1" id="bbGPusEyC7"></path>    
</svg>