<svg width="18" height="18" viewBox="0 0 18 18" fill="none" xmlns="http://www.w3.org/2000/svg">
<path fill-rule="evenodd" clip-rule="evenodd" d="M16.5131 5.88484C16.5131 5.7208 16.5575 5.66529 16.6762 5.51686L16.6762 5.51684C16.8318 5.32233 17.0669 5.02846 17.0669 4.50018C17.0669 4.21341 16.8344 3.98096 16.5477 3.98096C16.261 3.98096 16.0285 4.21345 16.0285 4.50018C16.0285 4.66422 15.9841 4.71973 15.8653 4.86816C15.7097 5.06264 15.4746 5.35655 15.4746 5.88484C15.4746 6.4131 15.7097 6.707 15.8653 6.90148L15.8653 6.90153L15.8654 6.90165C15.984 7.04999 16.0285 7.10551 16.0285 7.26951C16.0285 7.43348 15.9841 7.48899 15.8653 7.63738C15.7097 7.83187 15.4746 8.12574 15.4746 8.654C15.4746 8.94077 15.7071 9.17322 15.9938 9.17322C16.2806 9.17322 16.5131 8.94073 16.5131 8.654C16.5131 8.49003 16.5575 8.43452 16.6761 8.28614L16.6761 8.28612C16.8317 8.09164 17.0669 7.79776 17.0669 7.26951C17.0669 6.74121 16.8317 6.44727 16.6762 6.25282C16.5575 6.10439 16.5131 6.04888 16.5131 5.88484ZM0 10.7309C0 10.4441 0.232488 10.2117 0.519223 10.2117H14.0192V14.0193H0.519223C0.232488 14.0193 0 13.7869 0 13.5001V10.7309ZM15.0566 10.2117H17.4797C17.7664 10.2117 17.9989 10.4441 17.9989 10.7309V13.5001C17.9989 13.7869 17.7665 14.0194 17.4797 14.0194H15.0566V10.2117ZM14.5962 5.51686C14.4774 5.66529 14.433 5.7208 14.433 5.88484C14.433 6.04888 14.4774 6.10439 14.5961 6.25279C14.7517 6.44724 14.9868 6.74118 14.9868 7.26947C14.9868 7.79772 14.7517 8.09159 14.5961 8.28607L14.5961 8.28609C14.4774 8.43448 14.433 8.48999 14.433 8.65396C14.433 8.94069 14.2005 9.17318 13.9138 9.17318C13.627 9.17318 13.3945 8.94073 13.3945 8.65396C13.3945 8.1257 13.6296 7.83183 13.7853 7.63735C13.904 7.48895 13.9484 7.43344 13.9484 7.26947C13.9484 7.10548 13.904 7.04995 13.7853 6.90161L13.7852 6.90149L13.7852 6.90145C13.6296 6.70696 13.3945 6.41306 13.3945 5.88481C13.3945 5.35652 13.6296 5.06261 13.7852 4.86812C13.904 4.7197 13.9484 4.66418 13.9484 4.50014C13.9484 4.21338 14.1809 3.98096 14.4676 3.98096C14.7544 3.98096 14.9869 4.21341 14.9869 4.50018C14.9869 5.02846 14.7518 5.32232 14.5962 5.51684L14.5962 5.51686Z" fill="#FF5733"/>
</svg>
