<svg width="18" height="18" viewBox="0 0 18 18" fill="none" xmlns="http://www.w3.org/2000/svg">
<g clip-path="url(#clip0_1311:18625)">
<path d="M15.8906 0.0351562C14.7275 0.0351562 13.7812 0.981422 13.7812 2.14453C13.7812 3.06116 14.3691 3.84268 15.1875 4.13297V12.0938C15.1875 14.5751 13.1688 16.5938 10.6875 16.5938C8.30644 16.5938 6.35168 14.7348 6.19762 12.392L9.46318 7.90186C9.48512 7.8717 9.50347 7.84009 9.51996 7.80792C10.5002 6.64861 11.0391 5.1326 11.0391 3.52638C11.0391 2.60775 10.8654 1.72536 10.5233 0.900949C10.5119 0.871453 10.4996 0.842414 10.4864 0.813902C10.4803 0.79984 10.4746 0.785672 10.4684 0.771645L10.4663 0.772594C10.2345 0.314367 9.75955 0 9.21094 0C8.4343 0 7.80469 0.629613 7.80469 1.40625C7.80469 2.18289 8.4343 2.8125 9.21094 2.8125C9.33912 2.8125 9.46318 2.79503 9.5812 2.76289C9.61527 3.01307 9.63281 3.26774 9.63281 3.52638C9.63281 6.17621 7.7876 8.33203 5.51953 8.33203C3.25146 8.33203 1.40625 6.17621 1.40625 3.52638C1.40625 3.26774 1.42379 3.01303 1.45786 2.76289C1.57588 2.79503 1.69995 2.8125 1.82812 2.8125C2.60476 2.8125 3.23438 2.18289 3.23438 1.40625C3.23438 0.629613 2.60476 0 1.82812 0C1.27951 0 0.804586 0.314367 0.572836 0.772629L0.570656 0.77168C0.564504 0.785707 0.558809 0.799875 0.552727 0.813938C0.539473 0.842449 0.527168 0.871488 0.515812 0.900984C0.173672 1.72533 0 2.60775 0 3.52638C0 5.0844 0.507129 6.55755 1.43213 7.70259C1.44387 7.72263 1.45663 7.74229 1.47059 7.76148L4.78586 12.3157C4.90303 15.4699 7.50512 18 10.6875 18C13.9442 18 16.5938 15.3505 16.5938 12.0938V4.13297C17.4121 3.84268 18 3.06116 18 2.14453C18 0.981422 17.0537 0.0351562 15.8906 0.0351562ZM4.58487 9.65018C4.89052 9.70833 5.20284 9.73828 5.51953 9.73828C5.83566 9.73828 6.14742 9.70843 6.45258 9.6505L5.51925 10.9338L4.58487 9.65018ZM15.8906 2.84766C15.5029 2.84766 15.1875 2.53223 15.1875 2.14453C15.1875 1.75683 15.5029 1.44141 15.8906 1.44141C16.2783 1.44141 16.5938 1.75683 16.5938 2.14453C16.5938 2.53223 16.2783 2.84766 15.8906 2.84766Z" fill="#FF5733"/>
<path d="M13.0375 10.8346L17.5783 15.3754C17.7811 15.5782 17.7811 15.907 17.5783 16.1098L16.1097 17.5784C16.0124 17.6757 15.8803 17.7305 15.7426 17.7305C15.6049 17.7305 15.4729 17.6758 15.3755 17.5784L8.63169 10.8346L4.82399 7.02691L0.421617 2.62454C0.218836 2.42176 0.218836 2.09302 0.421617 1.89023L1.8902 0.421617C1.98755 0.32427 2.11963 0.269531 2.25734 0.269531C2.39504 0.269531 2.52709 0.324234 2.62447 0.421617L9.22977 7.02691L13.0375 10.8346Z" fill="#FF5733"/>
<path fill-rule="evenodd" clip-rule="evenodd" d="M1.18309 -0.285489C1.46791 -0.570302 1.85431 -0.730469 2.25734 -0.730469C2.66031 -0.730469 3.0467 -0.570373 3.33158 -0.28549L18.2854 14.6683C18.8787 15.2617 18.8786 16.2235 18.2856 16.8168L16.8169 18.2855L16.1097 17.5784L17.5783 16.1098C17.7811 15.907 17.7811 15.5782 17.5783 15.3754L2.62447 0.421617C2.52709 0.324234 2.39504 0.269531 2.25734 0.269531C2.11963 0.269531 1.98755 0.324269 1.8902 0.421617L0.421617 1.89023C0.218836 2.09302 0.218836 2.42176 0.421617 2.62454L15.3755 17.5784C15.4729 17.6758 15.6049 17.7305 15.7426 17.7305C15.8803 17.7305 16.0124 17.6757 16.1097 17.5784L16.8169 18.2855C16.5321 18.5703 16.1456 18.7305 15.7426 18.7305C15.3396 18.7305 14.9532 18.5704 14.6684 18.2855L-0.285489 3.33165C-0.878792 2.73835 -0.878795 1.77644 -0.285498 1.18314C-0.285495 1.18313 -0.285501 1.18314 -0.285498 1.18314L1.18309 -0.285489Z" fill="#F3FAFD"/>
</g>
<defs>
<clipPath id="clip0_1311:18625">
<rect width="18" height="18" fill="white"/>
</clipPath>
</defs>
</svg>
