<svg width="219" height="228" viewBox="0 0 219 228" fill="none" xmlns="http://www.w3.org/2000/svg">
<circle cx="100" cy="128" r="100" fill="#DEF1FA"/>
<path d="M214.312 0H63.6875C61.0987 0 59 2.09875 59 4.6875V136.25C59 138.839 61.0987 140.938 63.6875 140.938H115.562V150.625H101.5C98.9112 150.625 96.8125 152.724 96.8125 155.312C96.8125 157.901 98.9112 160 101.5 160H176.5C179.089 160 181.188 157.901 181.188 155.312C181.188 152.724 179.089 150.625 176.5 150.625H162.438V140.938H214.312C216.901 140.938 219 138.839 219 136.25V4.6875C219 2.09875 216.901 0 214.312 0ZM209.625 9.375V112.812H68.375V9.375H209.625ZM157.75 131.562C155.161 131.562 153.062 133.661 153.062 136.25V150.625H124.938V136.25C124.938 133.661 122.839 131.562 120.25 131.562H68.375V122.188H209.625V131.562H157.75Z" fill="#0C9FDB"/>
<path d="M82.75 103.438H195.25C197.839 103.438 199.938 101.339 199.938 98.75V51.875C199.938 49.2862 197.839 47.1875 195.25 47.1875C192.661 47.1875 190.562 49.2862 190.562 51.875V94.0625H181.188V70.625C181.188 68.0362 179.089 65.9375 176.5 65.9375C173.911 65.9375 171.812 68.0362 171.812 70.625V94.0625H162.438V80C162.438 77.4112 160.339 75.3125 157.75 75.3125C155.161 75.3125 153.062 77.4112 153.062 80V94.0625H143.688V70.625C143.688 68.0362 141.589 65.9375 139 65.9375C136.411 65.9375 134.312 68.0362 134.312 70.625V94.0625H124.938V61.25C124.938 58.6612 122.839 56.5625 120.25 56.5625C117.661 56.5625 115.562 58.6612 115.562 61.25V94.0625H106.188V70.625C106.188 68.0362 104.089 65.9375 101.5 65.9375C98.9112 65.9375 96.8125 68.0362 96.8125 70.625V94.0625H87.4375V61.25C87.4375 58.6612 85.3388 56.5625 82.75 56.5625C80.1612 56.5625 78.0625 58.6612 78.0625 61.25V98.75C78.0625 101.339 80.1612 103.438 82.75 103.438Z" fill="#0C9FDB"/>
<path d="M80.6547 46.6929L99.4047 56.0679C101.209 56.97 103.389 56.6166 104.815 55.1897L120.691 39.3144L154.938 65C156.804 66.3991 159.416 66.2144 161.065 64.5644L198.565 27.0644C200.396 25.2338 200.396 22.266 198.565 20.4353C196.735 18.6047 193.767 18.6047 191.936 20.4353L157.311 55.0607L123.063 29.375C121.197 27.9753 118.586 28.161 116.937 29.8107L100.576 46.1716L84.8475 38.3075C82.5322 37.1497 79.7163 38.0885 78.5585 40.4038C77.4006 42.7191 78.3391 45.5347 80.6547 46.6929V46.6929Z" fill="#0C9FDB"/>
</svg>
