<svg width="48" height="37" viewBox="0 0 48 37" fill="none" xmlns="http://www.w3.org/2000/svg">
<path d="M40.1231 0C45.3744 0 48 2.49117 48 7.47351C48 12.4559 46.2769 17.234 42.8308 21.8079C39.3846 26.3819 34.3795 30.4658 27.8154 34.0596L24.8615 30.3841C30.9333 24.585 33.9692 17.9691 33.9692 10.5364C33.9692 7.84106 33.3538 4.77815 32.1231 1.34768C34.8308 0.449227 37.4974 0 40.1231 0ZM15.2615 2.9404C20.5128 2.9404 23.1385 5.43157 23.1385 10.4139C23.1385 15.3962 21.4154 20.1744 17.9692 24.7483C14.5231 29.3223 9.51795 33.4062 2.95385 37L0 33.3245C6.07179 27.5254 9.10769 20.9095 9.10769 13.4768C9.10769 10.7815 8.49231 7.71855 7.26154 4.28808C9.96923 3.38963 12.6359 2.9404 15.2615 2.9404Z" fill="#DEF1FA"/>
</svg>
