<svg width="48" height="37" viewBox="0 0 48 37" fill="none" xmlns="http://www.w3.org/2000/svg">
<path d="M7.87692 37C2.62564 37 0 34.5088 0 29.5265C0 24.5441 1.72308 19.766 5.16923 15.1921C8.61539 10.6181 13.6205 6.53421 20.1846 2.94039L23.1385 6.61589C17.0667 12.415 14.0308 19.0309 14.0308 26.4636C14.0308 29.1589 14.6462 32.2219 15.8769 35.6523C13.1692 36.5508 10.5026 37 7.87692 37ZM32.7385 34.0596C27.4872 34.0596 24.8615 31.5684 24.8615 26.5861C24.8615 21.6038 26.5846 16.8256 30.0308 12.2517C33.4769 7.67771 38.4821 3.59382 45.0462 0L48 3.6755C41.9282 9.47462 38.8923 16.0905 38.8923 23.5232C38.8923 26.2185 39.5077 29.2815 40.7385 32.7119C38.0308 33.6104 35.3641 34.0596 32.7385 34.0596Z" fill="#DEF1FA"/>
</svg>
