<svg width="592.01" height="397.44" version="1.1" viewBox="0 0 592.01 397.44" xmlns="http://www.w3.org/2000/svg">
 <g fill="#202020">
  <path d="m281.2 143.23q8.8867 0 15.039 6.2891 6.1524 6.1523 6.1524 14.902t-6.2891 14.902q-6.1524 6.1524-14.902 6.1524t-14.902-6.1524q-6.1524-6.1523-6.1524-14.902t6.1524-14.902q6.1523-6.2891 14.902-6.2891zm19.141 61.934v101.31q0 13.535 3.1445 17.363 3.1445 3.6914 12.305 4.2383v4.9219h-69.043v-4.9219q8.4766-0.27343 12.578-4.9219 2.7344-3.1445 2.7344-16.68v-74.648q0-13.535-3.1445-17.227-3.1445-3.8281-12.168-4.375v-5.0586z"/>
  <path d="m383.74 338.2-41.289-94.746q-9.2969-21.465-13.809-26.387-4.375-4.9219-10.664-6.8359v-5.0586h67.949v5.0586q-6.6992 0.27344-9.4336 2.5977-2.7344 2.3242-2.7344 5.6055 0 5.1953 6.8359 20.508l21.875 50.039 14.902-38.691q8.0664-20.645 8.0664-28.711 0-5.0586-3.418-8.0664-3.2812-3.0078-11.758-3.2812v-5.0586h42.793v5.0586q-6.2891 0.6836-10.254 4.9219-3.9648 4.1016-13.262 28.301l-36.504 94.746q-13.809 35.547-20.508 43.75-9.4336 11.484-23.652 11.484-11.348 0-18.457-6.5625-6.9726-6.4258-6.9726-15.586 0-7.9297 4.7852-13.125 4.9219-5.1953 12.031-5.1953 6.8359 0 10.938 4.375 4.2383 4.375 4.375 13.535 0.13672 5.1953 1.2305 6.6992 1.0938 1.5039 3.1445 1.5039 3.2812 0 6.9727-3.9648 5.4688-5.7422 12.852-26.25z"/>
  <path d="m532.64 314.13q-23.379 20.645-41.973 20.645-10.938 0-18.184-7.1094-7.2461-7.2461-7.2461-18.047 0-14.629 12.578-26.25 12.578-11.758 54.824-31.172v-12.852q0-14.492-1.6406-18.184-1.5039-3.8281-5.8789-6.5625-4.375-2.8711-9.8438-2.8711-8.8867 0-14.629 3.9648-3.5547 2.4609-3.5547 5.7422 0 2.8711 3.8281 7.1094 5.1953 5.8789 5.1953 11.348 0 6.6992-5.0586 11.484-4.9219 4.6484-12.988 4.6484-8.6133 0-14.492-5.1953-5.7422-5.1953-5.7422-12.168 0-9.8438 7.793-18.73 7.793-9.0234 21.738-13.809t28.984-4.7852q18.184 0 28.711 7.793 10.664 7.6562 13.809 16.68 1.9141 5.7422 1.9141 26.387v49.629q0 8.75 0.68359 11.074 0.6836 2.1875 2.0508 3.2812 1.3672 1.0938 3.1445 1.0938 3.5547 0 7.2461-5.0586l4.1016 3.2812q-6.8359 10.117-14.219 14.766-7.2461 4.5117-16.543 4.5117-10.938 0-17.09-5.0586-6.1523-5.1953-7.5195-15.586zm0-9.9805v-42.793q-16.543 9.707-24.609 20.781-5.332 7.3828-5.332 14.902 0 6.2891 4.5117 11.074 3.418 3.6914 9.5703 3.6914 6.8359 0 15.859-7.6562z"/>
  <path d="m103.52 340c-13.608 0-26.441-2.3007-38.5-6.9021s-22.617-11.057-31.673-19.368c-9.0561-8.3108-16.212-18.194-21.467-29.651-5.2554-11.457-7.883-24.04-7.883-37.75 0-12.865 2.6746-25.026 8.0238-36.483s12.998-21.951 22.945-31.482c9.9476-9.5316 22.007-17.936 36.177-25.214 14.171-7.2778 30.03-13.17 47.58-17.678l-10.698-7.4656c-6.663-4.5075-11.449-9.8367-14.358-15.988-2.9092-6.1509 36.037-12.936 45.327-6.2682 15.672 11.457 29.444 22.232 41.315 32.327s21.819 20.119 29.843 30.074c8.0238 9.9541 14.1 20.072 18.229 30.355 4.1292 10.283 6.3346 21.387 6.6161 33.313 0 12.114-1.7361 23.171-5.2084 33.172s-8.2584 19.016-14.358 27.045-13.326 15.048-21.678 21.059c-8.3523 6.01-17.408 11.011-27.168 15.002s-19.989 6.9725-30.687 8.9446c-10.698 1.972-21.49 2.958-32.377 2.958zm83.898-96.63c0-9.3907-1.0088-18.288-3.0265-26.693-2.0177-8.4047-5.3022-16.645-9.8538-24.721-4.5515-8.076-10.558-16.105-18.018-24.087-7.4607-7.9821-16.681-16.199-27.661-24.65-7.4138 1.5964-14.452 4.0614-21.115 7.3951s-12.857 7.3716-18.581 12.114c-5.7246 4.7423-10.909 10.095-15.555 16.058s-8.5868 12.302-11.824 19.016c-3.2377 6.7143-5.748 13.71-7.5311 20.988-1.7831 7.2778-2.6746 14.626-2.6746 22.045 0 7.3247 0.79768 14.532 2.3931 21.622 1.5954 7.09 3.8711 13.851 6.8272 20.284s6.5926 12.372 10.91 17.819 9.1734 10.142 14.569 14.086c5.3961 3.9441 11.308 7.043 17.737 9.2967 6.4284 2.2538 13.256 3.3806 20.482 3.3806 8.7276 0 16.916-2.0424 24.564-6.1274 7.6484-4.085 14.311-9.8132 19.989-17.185 5.6777-7.3717 10.159-16.199 13.443-26.482 3.2846-10.283 4.9269-21.669 4.9269-34.158z"/>
 </g>
 <path d="m99.673 135.84c-6.3112-9.1544-17.633-15.346-24.849-32.713-3.7746-9.3513-5.6619-18.952-5.6619-28.803 0-7.1384 0.88276-14.205 2.6483-21.201 1.7655-6.9956 4.2312-13.492 7.397-19.488s6.8794-11.314 11.141-15.954 13.333-11.114 18.447-13.684l-9.1219 13.684c-3.115 7.3435-3.115 11.814-3.115 20.666 0 8.1378 3.1657 16.847 9.4973 26.126 6.3316 9.2799 14.987 21.953 27.041 32.09 20.334 17.418 39.155 31.318 54.569 46.653 15.196 15.118 55.52 56.659 40.519 80.935-7.1101 12.898-32.022 5.0977-46.712-17.011-13.516-27.619-38.673-50.18-62.025-56.578-15.259 2.2266-31.471 13.458-48.634 33.696-3.7062 4.5216-7.0412 9.9697-10.005 16.344-0.33245 0.71508-0.71917 0.37349-1.0592 1.0565-13.357-0.19344-16.316-26.352-3.6628-39.76 15.884-12.817 24.263-16.696 43.587-26.058z" fill="#ffb606"/>
</svg>
