<svg xmlns="http://www.w3.org/2000/svg" width="72" height="72" viewBox="0 0 72 72">
    <path fill="#0C9FDB" d="M36 0C16.12 0 0 16.12 0 36s16.12 36 36 36 36-16.12 36-36S55.88 0 36 0zM25.539 54.422H16.77V28.044h8.768v26.378zm-4.384-29.98h-.057c-2.942 0-4.845-2.025-4.845-4.556 0-2.589 1.961-4.558 4.96-4.558 3 0 4.845 1.97 4.903 4.558 0 2.531-1.903 4.556-4.96 4.556zm35.998 29.98h-8.766V40.31c0-3.546-1.27-5.965-4.442-5.965-2.422 0-3.865 1.632-4.499 3.207-.231.563-.288 1.351-.288 2.14v14.73h-8.767s.115-23.903 0-26.378h8.767v3.735c1.165-1.797 3.25-4.354 7.901-4.354 5.769 0 10.094 3.77 10.094 11.872v15.125z"/>
</svg>