<svg width="220" height="228" viewBox="0 0 220 228" fill="none" xmlns="http://www.w3.org/2000/svg">
<circle cx="100" cy="128" r="100" fill="#DEF1FA"/>
<path d="M177.161 115.593C174.659 114.258 171.772 113.722 168.98 113.204C166.889 112.816 164.726 112.415 163.503 111.762C162.879 111.429 162.879 111.343 162.879 110.781C162.879 110.449 163.42 109.843 164.453 109.326C167.013 108.047 170.622 108.151 172.5 109.56C174.571 111.113 177.509 110.693 179.062 108.622C180.616 106.551 180.196 103.613 178.125 102.06C176.583 100.903 174.764 100.077 172.812 99.5856V98.4375C172.812 95.8487 170.714 93.75 168.125 93.75C165.536 93.75 163.437 95.8487 163.437 98.4375V99.7259C162.345 100.029 161.279 100.432 160.261 100.941C155.967 103.088 153.504 106.674 153.504 110.781C153.504 114.883 155.435 118.083 159.089 120.033C161.59 121.368 164.478 121.903 167.27 122.422C169.361 122.81 171.524 123.211 172.747 123.863C173.371 124.196 173.371 124.283 173.371 124.844C173.371 125.165 172.816 125.783 171.788 126.298C169.231 127.576 165.625 127.472 163.75 126.066C161.679 124.512 158.741 124.933 157.187 127.003C155.634 129.074 156.054 132.013 158.125 133.566C159.666 134.722 161.486 135.548 163.437 136.039V137.188C163.437 139.776 165.536 141.875 168.125 141.875C170.714 141.875 172.812 139.776 172.812 137.188V135.892C173.901 135.59 174.966 135.19 175.981 134.683C180.28 132.533 182.746 128.947 182.746 124.843C182.746 120.742 180.815 117.543 177.161 115.593Z" fill="#0C9FDB"/>
<path d="M74.375 141.25H79.0625V155.312C79.0625 157.901 81.1613 160 83.75 160H168.125C191.387 160 210.312 141.075 210.312 117.812C210.312 96.1347 193.877 78.2262 172.812 75.8869V61.5625C172.812 58.9737 170.714 56.875 168.125 56.875H93.125C90.5362 56.875 88.4375 58.9737 88.4375 61.5625V75.625H74.375C71.7862 75.625 69.6875 77.7237 69.6875 80.3125V99.0625C69.6875 101.651 71.7862 103.75 74.375 103.75H79.0625V113.125H74.375C71.7862 113.125 69.6875 115.224 69.6875 117.812V136.562C69.6875 139.151 71.7862 141.25 74.375 141.25ZM88.4375 150.625V141.25H133.064C135.439 144.79 138.335 147.951 141.641 150.625H88.4375ZM88.4375 113.125V103.747H128.351C127.292 106.736 126.56 109.875 126.199 113.125H88.4375ZM200.938 117.812C200.938 135.905 186.218 150.625 168.125 150.625C150.032 150.625 135.312 135.905 135.312 117.812C135.312 99.7197 150.032 85 168.125 85C186.218 85 200.938 99.7197 200.938 117.812ZM97.8125 66.25H163.438V75.625H97.8125V66.25ZM79.0625 84.9969H141.641C138.335 87.6706 135.439 90.835 133.064 94.375C129.691 94.375 82.1606 94.375 79.0625 94.375V84.9969ZM79.0625 122.5H126.199C126.56 125.75 127.292 128.889 128.351 131.875C119.629 131.875 84.9866 131.875 79.0625 131.875V122.5Z" fill="#0C9FDB"/>
<path d="M111.875 28.1252H116.563V42.8127C116.563 45.4014 118.662 47.5002 121.25 47.5002H140C142.589 47.5002 144.688 45.4014 144.688 42.8127V28.1252H149.375C151.271 28.1252 152.981 26.983 153.706 25.2314C154.431 23.4798 154.03 21.4636 152.69 20.123L133.94 1.37297C132.109 -0.457656 129.141 -0.457656 127.311 1.37297L108.561 20.123C107.22 21.4636 106.819 23.4798 107.544 25.2314C108.27 26.983 109.979 28.1252 111.875 28.1252ZM130.625 11.3167L138.355 19.0467C136.578 19.713 135.313 21.4277 135.313 23.4377V38.1252H125.938V23.4377C125.938 21.4277 124.673 19.713 122.895 19.0467L130.625 11.3167Z" fill="#0C9FDB"/>
</svg>
