<?xml version="1.0" encoding="utf-8"?>
<!-- Generator: Adobe Illustrator 25.3.1, SVG Export Plug-In . SVG Version: 6.00 Build 0)  -->
<svg version="1.1" id="English" xmlns="http://www.w3.org/2000/svg" xmlns:xlink="http://www.w3.org/1999/xlink" x="0px" y="0px"
	 viewBox="0 0 463.4 150.3" style="enable-background:new 0 0 463.4 150.3;" xml:space="preserve">
<style type="text/css">
	.st0{fill:#FFFFFF;}
</style>
<g>
	<g>
		<g>
			<g>
				<path id="SVGID_1_" class="st0" d="M79.9,65.6H63.3c-0.7,0-1-0.3-1-1v-3.2c0-0.7,0.3-1,1-1h4.1l-3.1-8.9H49l-3,8.9h4
					c0.7,0,1,0.3,1,1v3.2c0,0.7-0.3,1-1,1H35.8c-0.7,0-1-0.3-1-1v-3.2c0-0.7,0.3-1,1-1h3.9l13.2-38.8c0.3-0.6,0.7-0.9,1.3-0.9h6.4
					c0.6,0,1.1,0.3,1.3,0.9l13.4,38.8h4.5c0.7,0,1,0.3,1,1v3.2C80.9,65.3,80.5,65.6,79.9,65.6L79.9,65.6z M56.6,27l-6.3,19.5h12.5
					L56.6,27L56.6,27z M97.4,65.6H81.6c-0.7,0-1-0.3-1-1v-3.2c0-0.7,0.3-1,1-1h4.2V21.6h-3.6c-0.7,0-1-0.3-1-1v-3.4c0-0.7,0.3-1,1-1
					h10c0.7,0,1,0.3,1,1v43.2h4.2c0.7,0,1,0.3,1,1v3.2C98.4,65.3,98,65.6,97.4,65.6L97.4,65.6z M126.4,44.5h-4c-0.7,0-1.1-0.3-1.1-1
					c-0.2-3.9-2.2-5.8-5.9-5.8c-2.6,0-4.6,0.9-5.8,2.7c-1.2,1.8-1.9,4.6-1.9,8.4c0,8,3.1,12,9.3,12c2,0,4.3-0.6,7-1.8
					c0.7-0.3,1.1-0.1,1.4,0.6l1.2,2.9c0.2,0.6,0,1.1-0.5,1.4c-2.7,1.6-6.1,2.4-10.2,2.4c-5.3,0-9.3-1.5-11.8-4.5
					c-2.6-3-3.8-7.1-3.8-12.3s1.3-9.4,3.9-12.6c2.6-3.2,6.5-4.8,11.8-4.8c4,0,6.9,1.1,8.8,3.2c1.9,2.2,2.8,4.9,2.8,8.3
					C127.5,44.2,127.1,44.5,126.4,44.5L126.4,44.5z M155.6,61.8c-3,3.1-6.8,4.6-11.4,4.6c-4.6,0-8.2-1.4-10.8-4.2s-3.9-7-3.9-12.5
					c0-3.3,0.5-6.2,1.5-8.6s2.3-4.3,4-5.5c3.1-2.3,6.5-3.5,10.2-3.5c2.7,0,5,0.4,6.8,1.3c1.9,0.8,3.3,1.8,4.3,2.9
					c1,1.1,1.9,2.7,2.6,4.8c0.7,2.1,1.1,4.5,1.1,7.3C160.1,54.2,158.6,58.7,155.6,61.8L155.6,61.8z M150.5,40.5
					c-1.2-2-3.2-2.9-5.9-2.9c-5.1,0-7.6,3.6-7.6,10.7c0,8.5,2.6,12.7,7.7,12.7c2.6,0,4.6-1,5.8-2.9c1.2-2,1.8-4.9,1.8-8.8
					C152.4,45.4,151.8,42.4,150.5,40.5L150.5,40.5z M198.6,65.6h-14.5c-0.7,0-1-0.3-1-1v-3.2c0-0.7,0.3-1,1-1h3.2V46.7
					c0-2.8-0.4-4.8-1.1-6.1c-0.7-1.3-2.2-1.9-4.4-1.9s-4,0.7-5.5,2s-2.2,2.8-2.2,4.5v15.2h4c0.7,0,1,0.3,1,1v3.2c0,0.7-0.3,1-1,1
					h-15c-0.7,0-1-0.3-1-1v-3.2c0-0.7,0.3-1,1-1h3.6V21.6h-3.6c-0.7,0-1-0.3-1-1v-3.4c0-0.7,0.3-1,1-1h10c0.7,0,1,0.3,1,1v20.4
					c2.5-3.7,5.9-5.5,10.3-5.5c6.8,0,10.3,3.8,10.3,11.3v17h3.9c0.7,0,1,0.3,1,1v3.2C199.6,65.3,199.2,65.6,198.6,65.6L198.6,65.6z
					 M227.7,61.8c-3,3.1-6.8,4.6-11.4,4.6c-4.6,0-8.2-1.4-10.8-4.2s-3.9-7-3.9-12.5c0-3.3,0.5-6.2,1.5-8.6s2.3-4.3,4-5.5
					c3.1-2.3,6.5-3.5,10.2-3.5c2.7,0,5,0.4,6.8,1.3c1.9,0.8,3.3,1.8,4.3,2.9c1,1.1,1.9,2.7,2.6,4.8c0.7,2.1,1.1,4.5,1.1,7.3
					C232.1,54.2,230.6,58.7,227.7,61.8L227.7,61.8z M222.6,40.5c-1.2-2-3.2-2.9-5.9-2.9c-5.1,0-7.6,3.6-7.6,10.7
					c0,8.5,2.6,12.7,7.7,12.7c2.6,0,4.6-1,5.8-2.9c1.2-2,1.8-4.9,1.8-8.8C224.4,45.4,223.8,42.4,222.6,40.5L222.6,40.5z M250.7,65.6
					h-15.8c-0.7,0-1-0.3-1-1v-3.2c0-0.7,0.3-1,1-1h4.2V21.6h-3.6c-0.7,0-1-0.3-1-1v-3.4c0-0.7,0.3-1,1-1h10c0.7,0,1,0.3,1,1v43.2
					h4.2c0.7,0,1,0.3,1,1v3.2C251.7,65.3,251.3,65.6,250.7,65.6L250.7,65.6z M268.9,65.6h-15.8c-0.7,0-1-0.3-1-1v-3.2
					c0-0.7,0.3-1,1-1h4.2V38.3h-3.6c-0.7,0-1-0.3-1-1v-3.4c0-0.7,0.3-1,1-1h10c0.7,0,1,0.3,1,1v26.5h4.2c0.7,0,1,0.3,1,1v3.2
					C269.9,65.3,269.6,65.6,268.9,65.6L268.9,65.6z M260.2,28.3c-1.4,0-2.6-0.4-3.4-1.3s-1.3-2-1.3-3.4s0.4-2.5,1.3-3.4
					c0.9-0.9,2-1.4,3.4-1.4s2.6,0.5,3.4,1.4c0.9,0.9,1.3,2,1.3,3.4s-0.4,2.5-1.3,3.4C262.8,27.8,261.6,28.3,260.2,28.3L260.2,28.3z
					 M297.9,44.5h-4c-0.7,0-1.1-0.3-1.1-1c-0.2-3.9-2.2-5.8-5.9-5.8c-2.6,0-4.6,0.9-5.8,2.7c-1.2,1.8-1.9,4.6-1.9,8.4
					c0,8,3.1,12,9.3,12c2,0,4.3-0.6,6.9-1.8c0.7-0.3,1.1-0.1,1.4,0.6l1.2,2.9c0.2,0.6,0,1.1-0.5,1.4c-2.7,1.6-6.1,2.4-10.2,2.4
					c-5.3,0-9.3-1.5-11.8-4.5c-2.6-3-3.8-7.1-3.8-12.3s1.3-9.4,3.9-12.6c2.6-3.2,6.5-4.8,11.8-4.8c4,0,6.9,1.1,8.8,3.2
					c1.9,2.2,2.8,4.9,2.8,8.3C299.1,44.2,298.7,44.5,297.9,44.5L297.9,44.5z M310.4,43.8c1.1,0.8,2.5,1.4,4.2,1.8
					c1.6,0.5,3.3,1,4.9,1.6c1.7,0.6,3.1,1.6,4.2,3s1.7,3.3,1.7,5.5c0,3.4-1.2,6-3.5,7.8c-2.3,1.9-5.6,2.8-9.9,2.8
					c-3,0-6.1-0.4-9.3-1.3c-0.6-0.2-0.9-0.6-0.9-1.3v-7c0-0.7,0.3-1,1-1h3.8c0.7,0,1,0.3,0.9,1l-0.2,3.4c1.2,0.9,2.9,1.3,5.1,1.3
					c3.9,0,5.9-1.4,5.9-4.2c0-1.4-0.6-2.5-1.7-3.3s-2.5-1.4-4.1-1.9c-1.6-0.4-3.2-0.9-4.9-1.5c-1.6-0.6-3-1.5-4.1-2.9
					s-1.7-3.2-1.7-5.5c0-2.9,1.1-5.3,3.4-7.3c2.2-1.9,5.1-2.9,8.5-2.9s6.4,0.4,8.9,1.2c0.6,0.2,0.9,0.6,0.9,1.2v7c0,0.7-0.3,1-1,1
					h-3.8c-0.7,0-1-0.3-0.9-1l0.3-3.4c-1.3-0.7-2.8-1.1-4.4-1.1c-3.5,0-5.3,1.2-5.3,3.7C308.7,42,309.3,43.1,310.4,43.8L310.4,43.8z
					 M79.9,114.1H63.3c-0.7,0-1-0.3-1-1v-3.2c0-0.7,0.3-1,1-1h4.1l-3.1-8.9H49l-3,8.9h4c0.7,0,1,0.3,1,1v3.2c0,0.7-0.3,1-1,1H35.8
					c-0.7,0-1-0.3-1-1v-3.2c0-0.7,0.3-1,1-1h3.9l13.2-38.8c0.3-0.6,0.7-0.9,1.3-0.9h6.4c0.6,0,1.1,0.3,1.3,0.9l13.4,38.8h4.5
					c0.7,0,1,0.3,1,1v3.2C80.9,113.8,80.5,114.1,79.9,114.1L79.9,114.1z M56.6,75.5L50.3,95h12.5L56.6,75.5L56.6,75.5z M117.5,114.1
					h-14.4c-0.7,0-1-0.3-1-1v-3.2c0-0.7,0.3-1,1-1h3.2V95.2c0-2.8-0.4-4.8-1.1-6.1c-0.7-1.3-2.2-1.9-4.4-1.9c-2.2,0-4,0.7-5.5,2
					s-2.2,2.8-2.2,4.5v15.2h4.1c0.7,0,1,0.3,1,1v3.2c0,0.7-0.3,1-1,1h-15c-0.7,0-1-0.3-1-1v-3.2c0-0.7,0.3-1,1-1h3.5V86.8h-3.6
					c-0.7,0-1-0.3-1-0.9v-3.5c0-0.7,0.3-1,1-1h9c0.6,0,0.9,0.3,1.1,1l0.6,3.8c2.5-3.7,6-5.6,10.6-5.6c6.8,0,10.3,3.8,10.3,11.3v17
					h3.8c0.7,0,1,0.3,1,1v3.2C118.5,113.8,118.2,114.1,117.5,114.1L117.5,114.1z M146.4,110.3c-3,3.1-6.8,4.6-11.4,4.6
					c-4.6,0-8.2-1.4-10.8-4.2c-2.6-2.8-3.9-7-3.9-12.5c0-3.3,0.5-6.2,1.5-8.6s2.3-4.3,4-5.5c3.1-2.3,6.5-3.5,10.2-3.5
					c2.7,0,5,0.4,6.8,1.3c1.9,0.8,3.3,1.8,4.3,2.9s1.9,2.7,2.6,4.8c0.7,2.1,1.1,4.5,1.1,7.3C150.8,102.8,149.4,107.3,146.4,110.3
					L146.4,110.3z M141.3,89c-1.2-2-3.2-2.9-5.9-2.9c-5.1,0-7.6,3.6-7.6,10.7c0,8.5,2.6,12.7,7.7,12.7c2.6,0,4.6-1,5.8-2.9
					c1.2-2,1.8-4.9,1.8-8.8C143.1,93.9,142.5,91,141.3,89L141.3,89z M189.6,114.1h-14.4c-0.7,0-1-0.3-1-1v-3.2c0-0.7,0.3-1,1-1h3.2
					V95.2c0-2.8-0.4-4.8-1.1-6.1c-0.7-1.3-2.2-1.9-4.4-1.9s-4,0.7-5.5,2s-2.2,2.8-2.2,4.5v15.2h4.1c0.7,0,1,0.3,1,1v3.2
					c0,0.7-0.3,1-1,1h-15c-0.7,0-1-0.3-1-1v-3.2c0-0.7,0.3-1,1-1h3.5V86.8h-3.6c-0.7,0-1-0.3-1-0.9v-3.5c0-0.7,0.3-1,1-1h9
					c0.6,0,0.9,0.3,1.1,1l0.6,3.8c2.5-3.7,6-5.6,10.6-5.6c6.8,0,10.3,3.8,10.3,11.3v17h3.8c0.7,0,1,0.3,1,1v3.2
					C190.6,113.8,190.2,114.1,189.6,114.1L189.6,114.1z M223,83.4l-14.2,37c-0.7,1.7-1.2,3-1.7,3.9s-1.1,1.9-2,2.9
					c-1.6,1.9-4,2.9-7.2,2.9s-5.8-0.5-7.8-1.5c-0.4-0.2-0.5-0.4-0.5-0.7s0-0.5,0.1-0.6l1.1-3.2c0.2-0.6,0.6-0.8,1.3-0.6
					c2.1,0.7,3.8,1.1,5.2,1.1c1.3,0,2.4-0.3,3.1-1c0.7-0.7,1.5-2.1,2.3-4.3l1.7-4.4l-10.1-28.1H191c-0.7,0-1-0.3-1-1v-3.4
					c0-0.7,0.3-1,1-1h8.7c0.7,0,1.1,0.3,1.3,0.9l7.7,24.1l6.9-19.6h-3.4c-0.7,0-1-0.3-1-1v-3.4c0-0.7,0.3-1,1-1h9.7
					c0.5,0,0.9,0.2,1.1,0.5c0.2,0.3,0.3,0.6,0.3,0.8C223.1,82.9,223.1,83.1,223,83.4L223,83.4z M280.1,114.1h-14.6c-0.7,0-1-0.3-1-1
					v-3.2c0-0.7,0.3-1,1-1h3.4V95.2c0-2.8-0.4-4.8-1.1-6.1c-0.7-1.3-2.1-1.9-4.3-1.9c-2.1,0-3.9,0.6-5.1,1.7c-1.3,1.1-1.9,2.5-1.9,4
					v16h3.2c0.7,0,1,0.3,1,1v3.2c0,0.7-0.3,1-1,1h-13.6c-0.7,0-1-0.3-1-1v-3.2c0-0.7,0.3-1,1-1h3V95.2c0-2.8-0.4-4.8-1.1-6.1
					c-0.7-1.3-2.2-1.9-4.3-1.9c-2.2,0-3.9,0.7-5.2,2s-1.9,2.8-1.9,4.5v15.2h4c0.7,0,1,0.3,1,1v3.2c0,0.7-0.3,1-1,1h-15
					c-0.7,0-1-0.3-1-1v-3.2c0-0.7,0.3-1,1-1h3.5V86.8h-3.6c-0.7,0-1-0.3-1-1v-3.4c0-0.7,0.3-1,1-1h9.1c0.6,0,0.9,0.3,1,1l0.5,3.8
					c2.3-3.7,5.7-5.6,10.3-5.6s7.6,1.9,9.1,5.8c2.4-3.9,5.8-5.8,10.4-5.8c6.8,0,10.3,3.8,10.3,11.3v17h3.8c0.7,0,1,0.3,1,1v3.2
					C281.1,113.8,280.8,114.1,280.1,114.1L280.1,114.1z M309.5,110.3c-3,3.1-6.8,4.6-11.4,4.6s-8.2-1.4-10.8-4.2
					c-2.6-2.8-3.9-7-3.9-12.5c0-3.3,0.5-6.2,1.5-8.6s2.3-4.3,4-5.5c3.1-2.3,6.5-3.5,10.2-3.5c2.7,0,5,0.4,6.8,1.3
					c1.9,0.8,3.3,1.8,4.3,2.9s1.9,2.7,2.6,4.8c0.7,2.1,1.1,4.5,1.1,7.3C314,102.8,312.5,107.3,309.5,110.3L309.5,110.3z M304.4,89
					c-1.2-2-3.2-2.9-5.9-2.9c-5.1,0-7.6,3.6-7.6,10.7c0,8.5,2.6,12.7,7.7,12.7c2.6,0,4.6-1,5.8-2.9c1.2-2,1.8-4.9,1.8-8.8
					C306.2,93.9,305.6,91,304.4,89L304.4,89z M351.4,114.1H344c-0.5,0-0.9-0.3-1-1l-0.6-3.7c-2.8,3.7-6.5,5.5-11.1,5.5
					c-7.1,0-10.7-3.8-10.7-11.3V86.8H317c-0.7,0-1-0.3-1-1v-3.4c0-0.7,0.3-1,1-1h9.9c0.7,0,1,0.3,1,1v19.3c0,2.6,0.3,4.5,1,5.7
					c0.7,1.1,2.1,1.7,4.4,1.7c2.2,0,4.1-0.7,5.5-2c1.5-1.3,2.2-2.8,2.2-4.5V86.8h-4.2c-0.7,0-1-0.3-1-1v-3.4c0-0.7,0.3-1,1-1h10.6
					c0.7,0,1,0.3,1,1v26.5h2.9c0.7,0,1,0.3,1,1v3.2C352.4,113.8,352,114.1,351.4,114.1L351.4,114.1z M365.3,92.4
					c1.1,0.8,2.5,1.4,4.2,1.8c1.6,0.5,3.3,1,4.9,1.6c1.7,0.6,3.1,1.6,4.2,3s1.7,3.3,1.7,5.5c0,3.4-1.2,6-3.5,7.8
					c-2.3,1.9-5.6,2.8-9.9,2.8c-3,0-6.1-0.4-9.3-1.3c-0.6-0.2-0.9-0.6-0.9-1.3v-7c0-0.7,0.3-1,1-1h3.8c0.7,0,1,0.3,0.9,1l-0.2,3.4
					c1.2,0.9,2.9,1.3,5.1,1.3c3.9,0,5.9-1.4,5.9-4.2c0-1.4-0.6-2.5-1.7-3.3s-2.5-1.4-4.1-1.9c-1.6-0.4-3.2-0.9-4.9-1.5
					c-1.6-0.6-3-1.5-4.1-2.9s-1.7-3.2-1.7-5.5c0-2.9,1.1-5.3,3.4-7.3c2.3-1.9,5.1-2.9,8.5-2.9s6.4,0.4,8.9,1.2
					c0.6,0.2,0.9,0.6,0.9,1.2v7c0,0.7-0.3,1-1,1h-3.8c-0.7,0-1-0.3-0.9-1l0.3-3.4c-1.3-0.7-2.8-1.1-4.4-1.1c-3.5,0-5.3,1.2-5.3,3.7
					C363.5,90.6,364.1,91.6,365.3,92.4L365.3,92.4z M406,96.7c-2,2-4.7,3-7.9,3c-3.3,0-5.9-1-7.8-2.9s-2.9-4.4-2.9-7.5s1-5.6,3-7.6
					s4.6-3,7.7-3s5.7,1,7.8,2.9c2.1,2,3.1,4.5,3.1,7.5C409,92.3,408,94.8,406,96.7L406,96.7z M404.7,82.7c-1.7-1.7-4-2.6-6.7-2.6
					s-4.9,0.8-6.5,2.5s-2.4,3.9-2.4,6.6s0.8,4.9,2.5,6.6s3.9,2.5,6.6,2.5s4.9-0.8,6.6-2.4s2.6-3.8,2.6-6.6
					C407.4,86.6,406.5,84.4,404.7,82.7L404.7,82.7z M403.1,94.3h-2.3c-0.3,0-0.5-0.1-0.6-0.4l-2.1-4.4h-1.4V93h0.7
					c0.3,0,0.5,0.2,0.5,0.5v0.2c0,0.3-0.2,0.5-0.5,0.5H394c-0.3,0-0.5-0.1-0.5-0.4v-0.4c0-0.3,0.1-0.4,0.4-0.4h0.7v-8H394
					c-0.3,0-0.5-0.2-0.5-0.5v-0.7c0-0.3,0.2-0.5,0.5-0.5h4.2c2.5,0,3.8,1,3.8,2.9c0,1.3-0.7,2.2-2,2.8l2,3.9h1.1
					c0.3,0,0.5,0.1,0.5,0.4v0.4C403.5,94.2,403.4,94.3,403.1,94.3L403.1,94.3z M397.6,85.1h-1v3.1h1c1.5,0,2.3-0.6,2.3-1.7
					C399.9,85.5,399.1,85.1,397.6,85.1L397.6,85.1z"/>
			</g>
			<g>
				<defs>
					<path id="SVGID_2_" d="M79.9,65.6H63.3c-0.7,0-1-0.3-1-1v-3.2c0-0.7,0.3-1,1-1h4.1l-3.1-8.9H49l-3,8.9h4c0.7,0,1,0.3,1,1v3.2
						c0,0.7-0.3,1-1,1H35.8c-0.7,0-1-0.3-1-1v-3.2c0-0.7,0.3-1,1-1h3.9l13.2-38.8c0.3-0.6,0.7-0.9,1.3-0.9h6.4
						c0.6,0,1.1,0.3,1.3,0.9l13.4,38.8h4.5c0.7,0,1,0.3,1,1v3.2C80.9,65.3,80.5,65.6,79.9,65.6L79.9,65.6z M56.6,27l-6.3,19.5h12.5
						L56.6,27L56.6,27z M97.4,65.6H81.6c-0.7,0-1-0.3-1-1v-3.2c0-0.7,0.3-1,1-1h4.2V21.6h-3.6c-0.7,0-1-0.3-1-1v-3.4
						c0-0.7,0.3-1,1-1h10c0.7,0,1,0.3,1,1v43.2h4.2c0.7,0,1,0.3,1,1v3.2C98.4,65.3,98,65.6,97.4,65.6L97.4,65.6z M126.4,44.5h-4
						c-0.7,0-1.1-0.3-1.1-1c-0.2-3.9-2.2-5.8-5.9-5.8c-2.6,0-4.6,0.9-5.8,2.7c-1.2,1.8-1.9,4.6-1.9,8.4c0,8,3.1,12,9.3,12
						c2,0,4.3-0.6,7-1.8c0.7-0.3,1.1-0.1,1.4,0.6l1.2,2.9c0.2,0.6,0,1.1-0.5,1.4c-2.7,1.6-6.1,2.4-10.2,2.4c-5.3,0-9.3-1.5-11.8-4.5
						c-2.6-3-3.8-7.1-3.8-12.3s1.3-9.4,3.9-12.6c2.6-3.2,6.5-4.8,11.8-4.8c4,0,6.9,1.1,8.8,3.2c1.9,2.2,2.8,4.9,2.8,8.3
						C127.5,44.2,127.1,44.5,126.4,44.5L126.4,44.5z M155.6,61.8c-3,3.1-6.8,4.6-11.4,4.6c-4.6,0-8.2-1.4-10.8-4.2s-3.9-7-3.9-12.5
						c0-3.3,0.5-6.2,1.5-8.6s2.3-4.3,4-5.5c3.1-2.3,6.5-3.5,10.2-3.5c2.7,0,5,0.4,6.8,1.3c1.9,0.8,3.3,1.8,4.3,2.9
						c1,1.1,1.9,2.7,2.6,4.8c0.7,2.1,1.1,4.5,1.1,7.3C160.1,54.2,158.6,58.7,155.6,61.8L155.6,61.8z M150.5,40.5
						c-1.2-2-3.2-2.9-5.9-2.9c-5.1,0-7.6,3.6-7.6,10.7c0,8.5,2.6,12.7,7.7,12.7c2.6,0,4.6-1,5.8-2.9c1.2-2,1.8-4.9,1.8-8.8
						C152.4,45.4,151.8,42.4,150.5,40.5L150.5,40.5z M198.6,65.6h-14.5c-0.7,0-1-0.3-1-1v-3.2c0-0.7,0.3-1,1-1h3.2V46.7
						c0-2.8-0.4-4.8-1.1-6.1c-0.7-1.3-2.2-1.9-4.4-1.9s-4,0.7-5.5,2s-2.2,2.8-2.2,4.5v15.2h4c0.7,0,1,0.3,1,1v3.2c0,0.7-0.3,1-1,1
						h-15c-0.7,0-1-0.3-1-1v-3.2c0-0.7,0.3-1,1-1h3.6V21.6h-3.6c-0.7,0-1-0.3-1-1v-3.4c0-0.7,0.3-1,1-1h10c0.7,0,1,0.3,1,1v20.4
						c2.5-3.7,5.9-5.5,10.3-5.5c6.8,0,10.3,3.8,10.3,11.3v17h3.9c0.7,0,1,0.3,1,1v3.2C199.6,65.3,199.2,65.6,198.6,65.6L198.6,65.6z
						 M227.7,61.8c-3,3.1-6.8,4.6-11.4,4.6c-4.6,0-8.2-1.4-10.8-4.2s-3.9-7-3.9-12.5c0-3.3,0.5-6.2,1.5-8.6s2.3-4.3,4-5.5
						c3.1-2.3,6.5-3.5,10.2-3.5c2.7,0,5,0.4,6.8,1.3c1.9,0.8,3.3,1.8,4.3,2.9c1,1.1,1.9,2.7,2.6,4.8c0.7,2.1,1.1,4.5,1.1,7.3
						C232.1,54.2,230.6,58.7,227.7,61.8L227.7,61.8z M222.6,40.5c-1.2-2-3.2-2.9-5.9-2.9c-5.1,0-7.6,3.6-7.6,10.7
						c0,8.5,2.6,12.7,7.7,12.7c2.6,0,4.6-1,5.8-2.9c1.2-2,1.8-4.9,1.8-8.8C224.4,45.4,223.8,42.4,222.6,40.5L222.6,40.5z
						 M250.7,65.6h-15.8c-0.7,0-1-0.3-1-1v-3.2c0-0.7,0.3-1,1-1h4.2V21.6h-3.6c-0.7,0-1-0.3-1-1v-3.4c0-0.7,0.3-1,1-1h10
						c0.7,0,1,0.3,1,1v43.2h4.2c0.7,0,1,0.3,1,1v3.2C251.7,65.3,251.3,65.6,250.7,65.6L250.7,65.6z M268.9,65.6h-15.8
						c-0.7,0-1-0.3-1-1v-3.2c0-0.7,0.3-1,1-1h4.2V38.3h-3.6c-0.7,0-1-0.3-1-1v-3.4c0-0.7,0.3-1,1-1h10c0.7,0,1,0.3,1,1v26.5h4.2
						c0.7,0,1,0.3,1,1v3.2C269.9,65.3,269.6,65.6,268.9,65.6L268.9,65.6z M260.2,28.3c-1.4,0-2.6-0.4-3.4-1.3s-1.3-2-1.3-3.4
						s0.4-2.5,1.3-3.4c0.9-0.9,2-1.4,3.4-1.4s2.6,0.5,3.4,1.4c0.9,0.9,1.3,2,1.3,3.4s-0.4,2.5-1.3,3.4
						C262.8,27.8,261.6,28.3,260.2,28.3L260.2,28.3z M297.9,44.5h-4c-0.7,0-1.1-0.3-1.1-1c-0.2-3.9-2.2-5.8-5.9-5.8
						c-2.6,0-4.6,0.9-5.8,2.7c-1.2,1.8-1.9,4.6-1.9,8.4c0,8,3.1,12,9.3,12c2,0,4.3-0.6,6.9-1.8c0.7-0.3,1.1-0.1,1.4,0.6l1.2,2.9
						c0.2,0.6,0,1.1-0.5,1.4c-2.7,1.6-6.1,2.4-10.2,2.4c-5.3,0-9.3-1.5-11.8-4.5c-2.6-3-3.8-7.1-3.8-12.3s1.3-9.4,3.9-12.6
						c2.6-3.2,6.5-4.8,11.8-4.8c4,0,6.9,1.1,8.8,3.2c1.9,2.2,2.8,4.9,2.8,8.3C299.1,44.2,298.7,44.5,297.9,44.5L297.9,44.5z
						 M310.4,43.8c1.1,0.8,2.5,1.4,4.2,1.8c1.6,0.5,3.3,1,4.9,1.6c1.7,0.6,3.1,1.6,4.2,3s1.7,3.3,1.7,5.5c0,3.4-1.2,6-3.5,7.8
						c-2.3,1.9-5.6,2.8-9.9,2.8c-3,0-6.1-0.4-9.3-1.3c-0.6-0.2-0.9-0.6-0.9-1.3v-7c0-0.7,0.3-1,1-1h3.8c0.7,0,1,0.3,0.9,1l-0.2,3.4
						c1.2,0.9,2.9,1.3,5.1,1.3c3.9,0,5.9-1.4,5.9-4.2c0-1.4-0.6-2.5-1.7-3.3s-2.5-1.4-4.1-1.9c-1.6-0.4-3.2-0.9-4.9-1.5
						c-1.6-0.6-3-1.5-4.1-2.9s-1.7-3.2-1.7-5.5c0-2.9,1.1-5.3,3.4-7.3c2.2-1.9,5.1-2.9,8.5-2.9s6.4,0.4,8.9,1.2
						c0.6,0.2,0.9,0.6,0.9,1.2v7c0,0.7-0.3,1-1,1h-3.8c-0.7,0-1-0.3-0.9-1l0.3-3.4c-1.3-0.7-2.8-1.1-4.4-1.1c-3.5,0-5.3,1.2-5.3,3.7
						C308.7,42,309.3,43.1,310.4,43.8L310.4,43.8z M79.9,114.1H63.3c-0.7,0-1-0.3-1-1v-3.2c0-0.7,0.3-1,1-1h4.1l-3.1-8.9H49l-3,8.9
						h4c0.7,0,1,0.3,1,1v3.2c0,0.7-0.3,1-1,1H35.8c-0.7,0-1-0.3-1-1v-3.2c0-0.7,0.3-1,1-1h3.9l13.2-38.8c0.3-0.6,0.7-0.9,1.3-0.9
						h6.4c0.6,0,1.1,0.3,1.3,0.9l13.4,38.8h4.5c0.7,0,1,0.3,1,1v3.2C80.9,113.8,80.5,114.1,79.9,114.1L79.9,114.1z M56.6,75.5
						L50.3,95h12.5L56.6,75.5L56.6,75.5z M117.5,114.1h-14.4c-0.7,0-1-0.3-1-1v-3.2c0-0.7,0.3-1,1-1h3.2V95.2c0-2.8-0.4-4.8-1.1-6.1
						c-0.7-1.3-2.2-1.9-4.4-1.9c-2.2,0-4,0.7-5.5,2s-2.2,2.8-2.2,4.5v15.2h4.1c0.7,0,1,0.3,1,1v3.2c0,0.7-0.3,1-1,1h-15
						c-0.7,0-1-0.3-1-1v-3.2c0-0.7,0.3-1,1-1h3.5V86.8h-3.6c-0.7,0-1-0.3-1-0.9v-3.5c0-0.7,0.3-1,1-1h9c0.6,0,0.9,0.3,1.1,1l0.6,3.8
						c2.5-3.7,6-5.6,10.6-5.6c6.8,0,10.3,3.8,10.3,11.3v17h3.8c0.7,0,1,0.3,1,1v3.2C118.5,113.8,118.2,114.1,117.5,114.1
						L117.5,114.1z M146.4,110.3c-3,3.1-6.8,4.6-11.4,4.6c-4.6,0-8.2-1.4-10.8-4.2c-2.6-2.8-3.9-7-3.9-12.5c0-3.3,0.5-6.2,1.5-8.6
						s2.3-4.3,4-5.5c3.1-2.3,6.5-3.5,10.2-3.5c2.7,0,5,0.4,6.8,1.3c1.9,0.8,3.3,1.8,4.3,2.9s1.9,2.7,2.6,4.8
						c0.7,2.1,1.1,4.5,1.1,7.3C150.8,102.8,149.4,107.3,146.4,110.3L146.4,110.3z M141.3,89c-1.2-2-3.2-2.9-5.9-2.9
						c-5.1,0-7.6,3.6-7.6,10.7c0,8.5,2.6,12.7,7.7,12.7c2.6,0,4.6-1,5.8-2.9c1.2-2,1.8-4.9,1.8-8.8C143.1,93.9,142.5,91,141.3,89
						L141.3,89z M189.6,114.1h-14.4c-0.7,0-1-0.3-1-1v-3.2c0-0.7,0.3-1,1-1h3.2V95.2c0-2.8-0.4-4.8-1.1-6.1
						c-0.7-1.3-2.2-1.9-4.4-1.9s-4,0.7-5.5,2s-2.2,2.8-2.2,4.5v15.2h4.1c0.7,0,1,0.3,1,1v3.2c0,0.7-0.3,1-1,1h-15c-0.7,0-1-0.3-1-1
						v-3.2c0-0.7,0.3-1,1-1h3.5V86.8h-3.6c-0.7,0-1-0.3-1-0.9v-3.5c0-0.7,0.3-1,1-1h9c0.6,0,0.9,0.3,1.1,1l0.6,3.8
						c2.5-3.7,6-5.6,10.6-5.6c6.8,0,10.3,3.8,10.3,11.3v17h3.8c0.7,0,1,0.3,1,1v3.2C190.6,113.8,190.2,114.1,189.6,114.1
						L189.6,114.1z M223,83.4l-14.2,37c-0.7,1.7-1.2,3-1.7,3.9s-1.1,1.9-2,2.9c-1.6,1.9-4,2.9-7.2,2.9s-5.8-0.5-7.8-1.5
						c-0.4-0.2-0.5-0.4-0.5-0.7s0-0.5,0.1-0.6l1.1-3.2c0.2-0.6,0.6-0.8,1.3-0.6c2.1,0.7,3.8,1.1,5.2,1.1c1.3,0,2.4-0.3,3.1-1
						c0.7-0.7,1.5-2.1,2.3-4.3l1.7-4.4l-10.1-28.1H191c-0.7,0-1-0.3-1-1v-3.4c0-0.7,0.3-1,1-1h8.7c0.7,0,1.1,0.3,1.3,0.9l7.7,24.1
						l6.9-19.6h-3.4c-0.7,0-1-0.3-1-1v-3.4c0-0.7,0.3-1,1-1h9.7c0.5,0,0.9,0.2,1.1,0.5c0.2,0.3,0.3,0.6,0.3,0.8
						C223.1,82.9,223.1,83.1,223,83.4L223,83.4z M280.1,114.1h-14.6c-0.7,0-1-0.3-1-1v-3.2c0-0.7,0.3-1,1-1h3.4V95.2
						c0-2.8-0.4-4.8-1.1-6.1c-0.7-1.3-2.1-1.9-4.3-1.9c-2.1,0-3.9,0.6-5.1,1.7c-1.3,1.1-1.9,2.5-1.9,4v16h3.2c0.7,0,1,0.3,1,1v3.2
						c0,0.7-0.3,1-1,1h-13.6c-0.7,0-1-0.3-1-1v-3.2c0-0.7,0.3-1,1-1h3V95.2c0-2.8-0.4-4.8-1.1-6.1c-0.7-1.3-2.2-1.9-4.3-1.9
						c-2.2,0-3.9,0.7-5.2,2s-1.9,2.8-1.9,4.5v15.2h4c0.7,0,1,0.3,1,1v3.2c0,0.7-0.3,1-1,1h-15c-0.7,0-1-0.3-1-1v-3.2
						c0-0.7,0.3-1,1-1h3.5V86.8h-3.6c-0.7,0-1-0.3-1-1v-3.4c0-0.7,0.3-1,1-1h9.1c0.6,0,0.9,0.3,1,1l0.5,3.8
						c2.3-3.7,5.7-5.6,10.3-5.6s7.6,1.9,9.1,5.8c2.4-3.9,5.8-5.8,10.4-5.8c6.8,0,10.3,3.8,10.3,11.3v17h3.8c0.7,0,1,0.3,1,1v3.2
						C281.1,113.8,280.8,114.1,280.1,114.1L280.1,114.1z M309.5,110.3c-3,3.1-6.8,4.6-11.4,4.6s-8.2-1.4-10.8-4.2
						c-2.6-2.8-3.9-7-3.9-12.5c0-3.3,0.5-6.2,1.5-8.6s2.3-4.3,4-5.5c3.1-2.3,6.5-3.5,10.2-3.5c2.7,0,5,0.4,6.8,1.3
						c1.9,0.8,3.3,1.8,4.3,2.9s1.9,2.7,2.6,4.8c0.7,2.1,1.1,4.5,1.1,7.3C314,102.8,312.5,107.3,309.5,110.3L309.5,110.3z M304.4,89
						c-1.2-2-3.2-2.9-5.9-2.9c-5.1,0-7.6,3.6-7.6,10.7c0,8.5,2.6,12.7,7.7,12.7c2.6,0,4.6-1,5.8-2.9c1.2-2,1.8-4.9,1.8-8.8
						C306.2,93.9,305.6,91,304.4,89L304.4,89z M351.4,114.1H344c-0.5,0-0.9-0.3-1-1l-0.6-3.7c-2.8,3.7-6.5,5.5-11.1,5.5
						c-7.1,0-10.7-3.8-10.7-11.3V86.8H317c-0.7,0-1-0.3-1-1v-3.4c0-0.7,0.3-1,1-1h9.9c0.7,0,1,0.3,1,1v19.3c0,2.6,0.3,4.5,1,5.7
						c0.7,1.1,2.1,1.7,4.4,1.7c2.2,0,4.1-0.7,5.5-2c1.5-1.3,2.2-2.8,2.2-4.5V86.8h-4.2c-0.7,0-1-0.3-1-1v-3.4c0-0.7,0.3-1,1-1h10.6
						c0.7,0,1,0.3,1,1v26.5h2.9c0.7,0,1,0.3,1,1v3.2C352.4,113.8,352,114.1,351.4,114.1L351.4,114.1z M365.3,92.4
						c1.1,0.8,2.5,1.4,4.2,1.8c1.6,0.5,3.3,1,4.9,1.6c1.7,0.6,3.1,1.6,4.2,3s1.7,3.3,1.7,5.5c0,3.4-1.2,6-3.5,7.8
						c-2.3,1.9-5.6,2.8-9.9,2.8c-3,0-6.1-0.4-9.3-1.3c-0.6-0.2-0.9-0.6-0.9-1.3v-7c0-0.7,0.3-1,1-1h3.8c0.7,0,1,0.3,0.9,1l-0.2,3.4
						c1.2,0.9,2.9,1.3,5.1,1.3c3.9,0,5.9-1.4,5.9-4.2c0-1.4-0.6-2.5-1.7-3.3s-2.5-1.4-4.1-1.9c-1.6-0.4-3.2-0.9-4.9-1.5
						c-1.6-0.6-3-1.5-4.1-2.9s-1.7-3.2-1.7-5.5c0-2.9,1.1-5.3,3.4-7.3c2.3-1.9,5.1-2.9,8.5-2.9s6.4,0.4,8.9,1.2
						c0.6,0.2,0.9,0.6,0.9,1.2v7c0,0.7-0.3,1-1,1h-3.8c-0.7,0-1-0.3-0.9-1l0.3-3.4c-1.3-0.7-2.8-1.1-4.4-1.1c-3.5,0-5.3,1.2-5.3,3.7
						C363.5,90.6,364.1,91.6,365.3,92.4L365.3,92.4z M406,96.7c-2,2-4.7,3-7.9,3c-3.3,0-5.9-1-7.8-2.9s-2.9-4.4-2.9-7.5s1-5.6,3-7.6
						s4.6-3,7.7-3s5.7,1,7.8,2.9c2.1,2,3.1,4.5,3.1,7.5C409,92.3,408,94.8,406,96.7L406,96.7z M404.7,82.7c-1.7-1.7-4-2.6-6.7-2.6
						s-4.9,0.8-6.5,2.5s-2.4,3.9-2.4,6.6s0.8,4.9,2.5,6.6s3.9,2.5,6.6,2.5s4.9-0.8,6.6-2.4s2.6-3.8,2.6-6.6
						C407.4,86.6,406.5,84.4,404.7,82.7L404.7,82.7z M403.1,94.3h-2.3c-0.3,0-0.5-0.1-0.6-0.4l-2.1-4.4h-1.4V93h0.7
						c0.3,0,0.5,0.2,0.5,0.5v0.2c0,0.3-0.2,0.5-0.5,0.5H394c-0.3,0-0.5-0.1-0.5-0.4v-0.4c0-0.3,0.1-0.4,0.4-0.4h0.7v-8H394
						c-0.3,0-0.5-0.2-0.5-0.5v-0.7c0-0.3,0.2-0.5,0.5-0.5h4.2c2.5,0,3.8,1,3.8,2.9c0,1.3-0.7,2.2-2,2.8l2,3.9h1.1
						c0.3,0,0.5,0.1,0.5,0.4v0.4C403.5,94.2,403.4,94.3,403.1,94.3L403.1,94.3z M397.6,85.1h-1v3.1h1c1.5,0,2.3-0.6,2.3-1.7
						C399.9,85.5,399.1,85.1,397.6,85.1L397.6,85.1z"/>
				</defs>
				<clipPath id="SVGID_3_">
					<use xlink:href="#SVGID_2_"  style="overflow:visible;"/>
				</clipPath>
			</g>
		</g>
	</g>
</g>
</svg>
