<svg width="213.26" height="134.34" version="1.1" viewBox="29 29 213.26 134.34" xml:space="preserve" class="icon" xmlns="http://www.w3.org/2000/svg">
<style type="text/css">
	.st0{fill:none;}
	.st11{fill:none;stroke:#000000;stroke-width:0;stroke-linecap:round;stroke-linejoin:round;}
	.st2{fill:url(#SVGID_1_);}
</style>
<g transform="matrix(.41924 0 0 .41924 16.632 15.962)">
	
	<path class="st0" d="m179.4 207.9c-0.6-2.6-1.4-5.2-2.3-7.8 0-0.1-0.1-0.1-0.1-0.2-11.2-23-32.2-41.7-51.6-47-12.7 1.9-26.2 11.2-40.4 28-3.1 3.8-5.9 8.3-8.3 13.6-0.1 0.3-0.3 0.4-0.4 0.4-2.1 4.7-3.8 9.6-5 14.7-0.4 1.7-0.8 3.5-1.1 5.2-0.8 4.3-1.1 8.7-1.1 13.1 0 6.1 0.7 12.1 2 18s3.2 11.5 5.7 16.9c2.5 5.3 5.5 10.3 9.1 14.8s7.6 8.4 12.1 11.7 9.4 5.9 14.7 7.7c5.3 1.9 11 2.8 17 2.8 7.3 0 14.1-1.7 20.4-5.1 6.4-3.4 11.9-8.2 16.6-14.3s8.4-13.5 11.2-22c2.7-8.6 4.1-18 4.1-28.4 0-5.3-0.4-10.3-1.2-15.2-0.4-2.3-0.9-4.6-1.4-6.9z" fill="none"/>
	<path class="st11" d="m127.2 153.5" fill="none" stroke-width="0"/>
	
		<path class="st0" d="m180.7 214.9c-0.4-2.4-0.8-4.7-1.4-7-0.6-2.6-1.4-5.2-2.3-7.8 0-0.1-0.1-0.1-0.1-0.2-11.2-23-32.2-41.7-51.6-47-12.7 1.9-26.2 11.2-40.4 28-3.1 3.8-5.9 8.3-8.3 13.6-0.1 0.3-0.3 0.4-0.4 0.4-2.1 4.7-3.8 9.6-5 14.7-0.4 1.7-0.8 3.5-1.1 5.2-0.8 4.3-1.1 8.7-1.1 13.1 0 6.1 0.7 12.1 2 18s3.2 11.5 5.7 16.9c2.5 5.3 5.5 10.3 9.1 14.8s7.6 8.4 12.1 11.7 9.4 5.9 14.7 7.7c5.3 1.9 11 2.8 17 2.8 7.3 0 14.1-1.7 20.4-5.1 6.4-3.4 11.9-8.2 16.6-14.3s8.4-13.5 11.2-22c2.7-8.6 4.1-18 4.1-28.4 0-5.2-0.4-10.2-1.2-15.1z" fill="none"/>
		<linearGradient id="SVGID_1_" x1="127.54" x2="127.54" y1="247.96" y2="64.145" gradientUnits="userSpaceOnUse">
			<stop stop-color="#FF6606" offset=".001315"/>
			<stop stop-color="#FF6806" offset=".017155"/>
			<stop stop-color="#FF8A06" offset=".2938"/>
			<stop stop-color="#FFA206" offset=".557"/>
			<stop stop-color="#FFB106" offset=".7991"/>
			<stop stop-color="#FFB606" offset="1"/>
		</linearGradient>
		<path class="st2" d="m70.1 214.9c0.3-1.7 0.7-3.5 1.1-5.2 1.2-5.1 2.9-9.9 5-14.7 0.1-0.1 0.3-0.2 0.4-0.4 2.5-5.3 5.2-9.8 8.3-13.6 14.3-16.8 27.8-26.2 40.4-28 19.4 5.3 40.3 24.1 51.6 47 0 0.1 0.1 0.1 0.1 0.2 0.9 2.6 1.7 5.2 2.3 7.8 0.5 2.3 1 4.6 1.4 7 12.9-5.4 24.8-12.7 35.4-21.5-0.1-0.2-0.1-0.4-0.2-0.6-0.2-0.4-0.3-0.8-0.5-1.2-0.3-0.8-0.5-1.6-0.9-2.4-1.1-2.4-2.4-4.7-3.8-7.1-2.8-4.9-6.1-9.8-10-14.6-1-1.2-2-2.5-3.1-3.7-5.9-7.1-11.8-13.2-15.6-17-12.8-12.8-28.5-24.3-45.4-38.8-10-8.4-17.2-19-22.5-26.7s-7.9-15-7.9-21.7c0-7.4 0-11.1 2.6-17.2l7.6-11.4c-4.3 2.1-11.8 7.5-15.3 11.4s-6.6 8.3-9.3 13.3-4.7 10.4-6.2 16.2-2.2 11.7-2.2 17.6c0 8.2 1.6 16.2 4.7 24 6 14.4 15.4 19.6 20.7 27.2-15.9 7.7-22.9 11-35.9 21.4-6.7 4.3-12.7 8.9-17.9 14-6.7 6.4-12.1 13.3-16.2 20.7 9.6 7.1 20.1 13.2 31.3 18z" fill="url(#SVGID_1_)"/>
		<path d="m216.2 193.4c-10.6 8.8-22.5 16.1-35.4 21.5 0.8 4.9 1.2 10 1.2 15.2 0 10.4-1.4 19.9-4.1 28.4-2.7 8.6-6.5 15.9-11.2 22s-10.3 10.9-16.6 14.3c-6.4 3.4-13.2 5.1-20.4 5.1-6 0-11.7-0.9-17-2.8s-10.3-4.5-14.7-7.7c-4.5-3.3-8.5-7.2-12.1-11.7s-6.6-9.5-9.1-14.8-4.4-11-5.7-16.9-2-11.9-2-18c0-4.4 0.4-8.8 1.1-13.1-11.2-4.7-21.7-10.8-31.2-18.1-1 1.8-2 3.6-2.8 5.5-4.4 9.5-6.7 19.6-6.7 30.3 0 11.4 2.2 21.9 6.6 31.4s10.3 17.7 17.9 24.7c7.5 6.9 16.3 12.3 26.3 16.1s20.7 5.7 32 5.7c9.1 0 18-0.8 26.9-2.5 8.9-1.6 17.4-4.1 25.5-7.4s15.6-7.5 22.6-12.5c6.9-5 13-10.8 18-17.5s9.1-14.2 11.9-22.5c2.9-8.3 4.3-17.5 4.3-27.6-0.3-9.7-2-18.7-5.3-27.1z"/>
		<line class="st11" x1="70.1" x2="70.1" y1="214.9" y2="214.9" fill="none" stroke-width="0"/>
	
	<polygon points=""/>
<g stroke-width="2.3852" aria-label="iya"><path d="m262.16 131.03q9.6173 0 15.113 4.8087 5.7246 4.5797 5.7246 
12.823 0 8.2434-5.7246 13.052-5.4956 4.5797-15.113 4.5797-9.6173 0-15.342-4.5797-5.4956-4.8087-5.4956-13.052 
0-8.2434 5.4956-12.823 5.7246-4.8087 15.342-4.8087zm17.861 56.559v99.608q0 9.6173 3.2058 13.052 3.4348 3.4348 
11.449 3.4348v4.8087q-4.1217-0.22899-12.823-0.45797-8.7014-0.45797-17.632-0.45797t-18.09 0.45797q-9.1594 
0.22898-13.739 0.45797v-4.8087q8.0144 0 11.22-3.4348 
3.4348-3.4348 3.4348-13.052v-72.13q0-10.304-3.2058-15.113-2.9768-5.0376-11.449-5.0376v-4.8087q7.3275 0.68695 14.197
 0.68695 9.6173 0 17.861-0.68695 8.4724-0.91594 15.571-2.5188z"/><path d="m415.67 190.11v4.5797q-4.3507 1.1449-8.2434 
 5.4956-3.8927 4.1217-7.5565 14.197l-32.287 
 90.678-8.4724 16.029-49.919-113.35q-3.8927-8.9304-7.7855-10.762-3.6637-2.0609-6.4116-2.0609v-4.8087q7.5565 0.68695 
 15.571 1.1449 8.2434 0.22898 15.8 0.22898 9.3883 0 17.174-0.45796 7.7854-0.45797 14.655-0.91594v4.8087q-4.5797
  0-8.7014 0.68696-3.8927 0.45796-5.4956 3.2058-1.3739 2.5188 1.3739 8.9304l28.852 69.611-2.0608 1.3739 16.945-47.4q6.4116-18.548
   2.0609-27.02-4.3507-8.7014-15.342-9.6173v-4.5797q5.2666 0.22898 11.449 0.45797 6.1826 0.22898 10.762 
   0.22898t9.6173-0.22898q5.0376-0.22899 8.0144-0.45797zm-48.087 114.95-8.7014 24.501q-4.3507 11.678-10.075 16.258-3.2058 
   2.7478-8.2434 4.1217-5.0376 1.6029-11.678 1.6029-5.4956 0-11.449-1.8319-5.7246-1.8319-9.6173-5.9536-3.8927-4.1217-3.8927-10.533 
   0-7.0985 5.0376-11.449 5.0376-4.1217 13.281-4.1217 7.5565 0 12.365 3.6637 4.8087 3.6637 4.8087 10.762 0 4.5797-2.9768 8.7014-2.7478
    4.1217-8.4724 6.1826 1.1449 0.22898 2.7478 0.22898 1.6029 0 2.5188 0 6.8695 0 12.136-4.3507 5.2666-4.3507 
	8.7014-13.739l8.0144-23.585z"/><path d="m450.16 310.1q-15.342 0-22.211-8.0144t-6.8695-19.464q0-9.8463 4.3507-16.029
	 4.5797-6.1826 11.678-10.075 7.0985-4.1217 14.884-6.6405 8.0144-2.7478 15.113-5.2666 7.3275-2.7478 11.678-6.1826 
	 4.5797-3.4348 4.5797-8.7014v-17.861q0-5.9536-2.0609-10.533-1.8319-4.8087-5.9536-7.3275-3.8927-2.5188-10.304-2.5188-4.5797 
	 0-9.1594 1.3739-4.5797 1.1449-7.5565 4.1217 6.4116 2.2898 9.8463 7.0985 3.6637 4.5797 3.6637 10.533 
	 0 7.7854-5.4956 12.365-5.2666 4.5797-12.594 4.5797-8.2434 0-12.594-5.0376-4.1217-5.2666-4.1217-12.594 0-6.6405 3.2058-10.991 
	 3.4348-4.3507 9.3883-8.2434 6.4116-3.6637 15.342-5.7246 9.1594-2.0608 19.693-2.0608 10.533 0 19.006 2.2898 8.4724 
	 2.0609 14.197 7.7855 5.2666 5.2666 6.8695 13.052 1.6029 7.5565 1.6029 19.235v62.284q0 5.4956 1.1449 7.7855t3.8927 
	 2.2898q2.2898 0 4.3507-1.1449 2.0608-1.1449 3.8927-2.7478l2.2898 3.8927q-4.8087 4.1217-11.22 6.4116-6.1826 2.0608-13.968
	  2.0608-13.739 0-18.319-5.4956-4.3507-5.7246-4.5797-13.052-5.7246 9.3883-14.197 13.968-8.2434 4.5797-19.464 
	  4.5797zm17.632-14.655q4.3507 0 8.0144-2.0609 3.8927-2.0608 7.5565-7.3275v-46.942q-2.7478 4.5797-7.7855 7.7854-4.8087
	   2.9768-10.075 6.6405-5.0376 3.4348-8.4724 8.9304-3.4348 5.4956-3.4348 14.655 0 9.8463 4.1217 14.197 4.1217 4.1217 10.075 
	   4.1217z"/></g>
</g>
</svg>
