<?xml version="1.0" encoding="utf-8"?>
<!-- Generator: Adobe Illustrator 21.1.0, SVG Export Plug-In . SVG Version: 6.00 Build 0)  -->
<svg version="1.1" id="Layer_1" xmlns="http://www.w3.org/2000/svg" xmlns:xlink="http://www.w3.org/1999/xlink" x="0px" y="0px"
	 viewBox="0 0 1024 1024" style="enable-background:new 0 0 1024 1024;" xml:space="preserve" width="36px" height="36px">
<style type="text/css">
	.st0{fill:none;}
	.st1{fill:url(#SVGID_1_);}
	.st2{fill:none;stroke:#000000;stroke-width:0;stroke-linecap:round;stroke-linejoin:round;}
</style>
<g>
	<path class="st0" d="M682,629c-2-8.2-4.4-16.3-7.3-24.4c-0.1-0.2-0.3-0.4-0.4-0.5C638.9,531.7,573,472.6,511.8,455.9
		c-40,5.8-82.4,35.2-127.4,88.3c-9.7,11.8-18.4,26.1-26.2,42.8c-0.4,0.9-0.9,1.2-1.4,1.4c-6.6,14.9-11.9,30.3-15.8,46.2
		c-1.3,5.4-2.5,10.9-3.4,16.4c-2.4,13.7-3.6,27.5-3.6,41.3c0,19.2,2.1,38.1,6.3,56.6c4.2,18.6,10.1,36.3,17.9,53.1
		c7.7,16.8,17.3,32.4,28.6,46.7c11.3,14.3,24,26.6,38.2,36.9c14.1,10.3,29.6,18.4,46.5,24.3c16.8,5.9,34.7,8.9,53.6,8.9
		c22.9,0,44.3-5.3,64.3-16c20-10.7,37.5-25.7,52.4-45c14.9-19.3,26.6-42.4,35.2-69.4c8.6-26.9,12.9-56.8,12.9-89.5
		c0-16.6-1.2-32.6-3.6-48c0,0,0,0,0,0C685.1,643.5,683.7,636.2,682,629z"/>
	<linearGradient id="SVGID_1_" gradientUnits="userSpaceOnUse" x1="518.6747" y1="755.1727" x2="518.6747" y2="176.2199">
		<stop  offset="1.314975e-03" style="stop-color:#FF6606"/>
		<stop  offset="1.715545e-02" style="stop-color:#FF6806"/>
		<stop  offset="0.2938" style="stop-color:#FF8A06"/>
		<stop  offset="0.557" style="stop-color:#FFA206"/>
		<stop  offset="0.7991" style="stop-color:#FFB106"/>
		<stop  offset="1" style="stop-color:#FFB606"/>
	</linearGradient>
	<path class="st1" d="M337.7,650.9C337.7,650.9,337.7,650.9,337.7,650.9c1-5.5,2.1-10.9,3.4-16.4c3.9-15.9,9.2-31.3,15.8-46.2
		c0.5-0.2,0.9-0.5,1.4-1.4c7.8-16.7,16.5-31,26.2-42.8c45-53,87.4-82.4,127.4-88.3c61.2,16.8,127,75.8,162.4,148.2
		c0.1,0.2,0.3,0.4,0.4,0.5c2.9,8.1,5.3,16.2,7.3,24.4c1.7,7.2,3.1,14.5,4.3,21.9v0c0,0,0,0,0,0c40.6-17.1,78.1-40,111.6-67.7
		c-0.2-0.6-0.4-1.2-0.7-1.8c-0.5-1.3-1.1-2.5-1.6-3.8c-0.8-2.5-1.7-5-2.9-7.5c-3.4-7.4-7.5-14.9-11.8-22.3
		c-8.8-15.5-19.2-30.8-31.4-45.9c-3.1-3.9-6.4-7.7-9.7-11.6c-18.6-22.5-37-41.6-49.2-53.7c-40.4-40.2-89.7-76.6-142.9-122.2
		c-31.6-26.5-54.2-59.7-70.8-84c-16.6-24.3-24.9-47.1-24.9-68.4c0-23.2,0-34.9,8.2-54.1L483.9,72c-13.4,6.7-37.2,23.7-48.3,35.8
		c-11.2,12.2-20.9,26.1-29.2,41.8s-14.7,32.7-19.4,51c-4.6,18.3-6.9,36.8-6.9,55.5c0,25.8,4.9,50.9,14.8,75.4
		c18.9,45.5,48.6,61.7,65.1,85.7c-50.1,24.3-72.2,34.5-113,67.3c-21.1,13.5-39.9,28.2-56.5,44.1c-21,20.1-38,41.8-51.1,65.2
		C269.5,616.8,302.4,636.1,337.7,650.9L337.7,650.9z M517.7,457.6c0,0-0.1,0-0.1,0C517.6,457.6,517.7,457.6,517.7,457.6z"/>
	<path class="st2" d="M517.6,457.6c0,0,0.1,0,0.1,0"/>
	<path d="M797.9,583.3c-33.5,27.7-71,50.6-111.6,67.7c2.4,15.4,3.6,31.4,3.6,48c0,32.7-4.3,62.5-12.9,89.5
		c-8.6,26.9-20.3,50-35.2,69.4c-14.9,19.3-32.3,34.3-52.4,45c-20,10.7-41.5,16-64.3,16c-18.9,0-36.8-3-53.6-8.9
		c-16.8-5.9-32.3-14-46.5-24.3c-14.1-10.3-26.9-22.6-38.2-36.9c-11.3-14.3-20.8-29.8-28.6-46.7c-7.7-16.8-13.7-34.6-17.9-53.1
		c-4.2-18.6-6.3-37.4-6.3-56.6c0-13.9,1.2-27.7,3.6-41.3c0,0,0,0,0,0l0,0c-35.3-14.9-68.2-34.1-98.2-57.1c-3.2,5.7-6.2,11.4-9,17.3
		c-14,30-21,61.9-21,95.6c0,35.9,6.9,68.9,20.6,98.9c13.8,30,32.5,55.9,56.2,77.7c23.7,21.8,51.4,38.7,83,50.7
		C400.9,946,434.5,952,470.2,952c28.5,0,56.8-2.6,84.8-7.7c28-5.2,54.8-13,80.4-23.4c25.6-10.5,49.3-23.5,71.2-39.3
		c21.9-15.7,40.8-34.1,56.8-55.2s28.5-44.6,37.6-70.8c9.1-26.2,13.6-55.2,13.6-86.9C813.8,638.1,808.2,609.7,797.9,583.3z"/>
	<polygon points="686.3,651 686.3,651 686.3,650.9 	"/>
</g>
</svg>
