<svg width="392.41" height="135.95" fill="none" version="1.1" viewBox="0 0 392.41 135.95" class="icon" xmlns="http://www.w3.org/2000/svg">
 <g fill="#000">
  <path d="m111.26 50.037c0-2.3602-0.774-4.1626-2.367-5.4929-1.593-1.2874-3.745-1.974-6.457-1.974-2.712 0-4.864 0.6437-6.457 1.974s-2.368 3.1327-2.368 5.4929c0 2.3603 0.775 4.1627 2.368 5.493s3.745 1.974 6.457 1.974c2.712 0 4.864-0.6437 6.457-1.974s2.367-3.1327 2.367-5.493zm0.172 64.155c-0.947-1.03-1.42-2.832-1.42-5.493v-42.141c-3.702 0.9011-8.437 1.3732-14.206 1.3732-1.937 0-3.96-0.0858-6.026-0.3004v2.0169c2.325 0 3.96 0.6437 4.864 2.017 0.904 1.3303 1.378 3.5189 1.378 6.4799v30.554c0 2.661-0.474 4.506-1.378 5.493s-2.539 1.502-4.864 1.502v2.017c7.017-0.257 11.493-0.386 13.517-0.386 2.152 0 6.456 0.129 12.956 0.386v-2.017c-2.281 0-3.874-0.515-4.821-1.502z" clip-rule="evenodd" fill-rule="evenodd"/>
  <path d="m170.06 67.589v1.9311c-1.378 0.3862-2.583 1.2016-3.659 2.489-1.076 1.2445-2.109 3.2185-3.056 5.8791l-17.434 48.75c-1.292 3.347-2.712 5.665-4.262 6.866-1.894 1.631-4.692 2.446-8.48 2.446-2.712 0-5.165-0.643-7.361-1.974-2.195-1.33-3.271-3.261-3.271-5.75 0-2.017 0.732-3.605 2.152-4.806 1.421-1.202 3.315-1.803 5.639-1.803 2.195 0 3.96 0.515 5.295 1.588 1.334 1.073 1.98 2.575 1.98 4.506 0 1.373-0.431 2.618-1.248 3.733-0.861 1.116-2.024 1.974-3.616 2.575 0.473 0.043 1.205 0.086 2.238 0.086 4.003 0 6.974-2.575 8.868-7.681l1.549-4.635-20.576-46.733c-1.033-2.1885-2.023-3.6476-3.013-4.3771-0.99-0.7296-1.98-1.0729-3.013-1.0729v-2.0169c4.261 0.3862 8.738 0.6008 13.344 0.6008 3.831 0 8.351-0.2146 13.517-0.6008v2.0169c-2.067 0-3.616 0.1288-4.606 0.4292s-1.507 1.0728-1.507 2.2744c0 0.7295 0.215 1.6307 0.689 2.7035l11.881 28.624 6.715-18.625c1.033-3.0469 1.549-5.6217 1.549-7.7674 0-4.7205-2.41-7.2953-7.188-7.7673v-1.9311c3.056 0.2146 6.198 0.3004 9.427 0.3004 3.185 0.0429 5.682-0.0429 7.447-0.2575z"/>
  <path d="m171.92 106.77c0 3.519 1.033 6.309 3.056 8.454 2.023 2.146 5.123 3.176 9.298 3.347 6.285 0 11.063-2.617 14.292-7.853 0.086 2.361 0.817 4.292 2.238 5.708 1.42 1.416 3.917 2.145 7.49 2.145 4.219 0 7.791-1.201 10.719-3.604l-0.99-1.631c-1.335 1.073-2.497 1.631-3.487 1.631-0.861 0-1.421-0.344-1.722-0.987-0.301-0.644-0.431-1.76-0.431-3.305v-26.392c0-3.5618-0.258-6.3941-0.731-8.4539-0.517-2.0599-1.464-3.8193-2.884-5.2355-1.593-1.5449-3.53-2.6606-5.855-3.3043-2.324-0.6437-5.079-0.987-8.265-0.987-3.013 0-5.811 0.2575-8.394 0.8582-2.539 0.5579-4.692 1.3733-6.457 2.4032-1.808 1.0728-3.185 2.2744-4.046 3.5189-0.904 1.2445-1.334 2.7894-1.334 4.5918 0 2.1027 0.602 3.9051 1.85 5.3212 1.249 1.4162 2.971 2.1457 5.252 2.1457 2.152 0 3.96-0.6437 5.467-1.9311s2.238-3.0469 2.238-5.2354c0-1.7166-0.516-3.2615-1.506-4.5489s-2.411-2.2744-4.219-2.9181c1.636-1.5449 4.004-2.3173 7.103-2.3173 2.669 0 4.649 0.7724 5.897 2.2744 1.249 1.502 1.894 3.6476 1.894 6.3512v7.5528c0 1.7594-0.861 3.1327-2.496 4.1197-1.636 0.987-4.262 2.1027-7.835 3.3472-3.357 1.1587-6.155 2.2744-8.308 3.3044-2.195 1.0299-4.046 2.5319-5.553 4.4201-1.506 1.8882-2.281 4.2912-2.281 7.2092zm26.429-18.41v19.869c-1.851 2.661-4.089 3.991-6.586 3.991-1.851 0-3.271-0.643-4.391-1.888-1.076-1.287-1.635-3.218-1.635-5.879 0-3.047 0.645-5.3642 1.937-6.995 1.291-1.6307 3.185-3.2185 5.725-4.8492 2.54-1.5449 4.176-2.961 4.95-4.2484z" clip-rule="evenodd" fill-rule="evenodd"/>
 </g>
 <path d="m17.52 78.875c0.129-0.7295 0.302-1.5019 0.474-2.2315 0.516-2.1885 1.248-4.2484 2.152-6.3082 0.043-0.0429 0.129-0.0859 0.172-0.1717 1.076-2.2744 2.239-4.2055 3.573-5.8362 6.156-7.2095 11.967-11.243 17.391-12.016 8.351 2.2744 17.348 10.342 22.212 20.169 0 0.0429 0.043 0.043 0.043 0.0859 0.387 1.1157 0.732 2.2315 0.99 3.3472 0.215 0.987 0.43 1.974 0.603 3.004 5.552-2.3174 10.675-5.45 15.238-9.2264-0.043-0.0859-0.043-0.1717-0.086-0.2575-0.086-0.1717-0.129-0.3433-0.215-0.515-0.13-0.3433-0.216-0.6866-0.388-1.0299-0.473-1.0299-1.033-2.0169-1.636-3.0469-1.205-2.1027-2.625-4.2055-4.304-6.2653-0.431-0.515-0.861-1.0729-1.335-1.5878-2.539-3.0469-5.079-5.6646-6.715-7.2953-5.51-5.4929-12.268-10.428-19.543-16.65-4.305-3.6048-7.404-8.1536-9.685-11.458-2.282-3.3044-3.401-6.437-3.401-9.3122 0-3.1756 0-4.7634 1.119-7.3812l3.272-4.8921c-1.851 0.90118-5.08 3.2185-6.586 4.8921-1.507 1.6736-2.841 3.5618-4.004 5.7075-1.162 2.1457-2.023 4.463-2.669 6.952-0.645 2.489-0.947 5.0209-0.947 7.5528 0 3.5189 0.689 6.952 2.024 10.299 2.582 6.1795 6.629 8.411 8.91 11.672-6.844 3.3043-9.857 4.7205-15.453 9.1835-2.885 1.8452-5.467 3.8192-7.706 6.0078-2.884 2.7465-5.208 5.7075-6.973 8.8831 4.132 3.0469 8.652 5.6646 13.473 7.7244z" fill="url(#paint0_linear)"/>
 <path d="m80.41 69.649c-4.562 3.7764-9.685 6.909-15.238 9.2264 0.344 2.1027 0.517 4.2913 0.517 6.5228 0 4.463-0.603 8.5398-1.765 12.188-1.163 3.6902-2.798 6.8232-4.821 9.4412-2.024 2.617-4.434 4.677-7.146 6.136-2.755 1.459-5.682 2.189-8.782 2.189-2.582 0-5.036-0.386-7.318-1.202-2.281-0.815-4.433-1.931-6.327-3.304-1.937-1.416-3.659-3.09-5.209-5.021s-2.841-4.077-3.917-6.351c-1.076-2.2745-1.894-4.7205-2.454-7.2524-0.559-2.5319-0.861-5.1067-0.861-7.7245 0-1.8882 0.172-3.7763 0.474-5.6216-4.864-2.0599-9.384-4.6776-13.474-7.8103-0.43 0.7725-0.861 1.5449-1.205 2.3603-1.894 4.0767-2.884 8.411-2.884 13.003 0 4.8922 0.947 9.3981 2.841 13.475 1.894 4.077 4.434 7.596 7.705 10.6 3.229 2.961 7.017 5.278 11.321 6.909 4.305 1.631 8.911 2.446 13.775 2.446 3.917 0 7.749-0.343 11.58-1.073 3.831-0.687 7.49-1.759 10.977-3.176 3.486-1.416 6.715-3.218 9.728-5.364 2.97-2.145 5.596-4.634 7.748-7.51 2.153-2.875 3.918-6.0933 5.123-9.6552 1.248-3.5618 1.851-7.5098 1.851-11.844-0.043-4.1197-0.818-7.9819-2.239-11.587z" fill="#000"/>
 <defs>
  <linearGradient id="paint0_linear" x1="284.56" x2="284.56" y1="93.128" y2="14.352" gradientTransform="translate(-204.22 -.17151)" gradientUnits="userSpaceOnUse">
   <stop stop-color="#FF6606" offset="0"/>
   <stop stop-color="#FF6806" offset=".017155"/>
   <stop stop-color="#FF8A06" offset=".2938"/>
   <stop stop-color="#FFA206" offset=".557"/>
   <stop stop-color="#FFB106" offset=".7991"/>
   <stop stop-color="#FFB606" offset="1"/>
  </linearGradient>
 </defs>
 <path d="m313.64 44.965v2.0575q-3.2921 0.10288-4.9381 0.82301-1.646 0.61726-2.2633 2.469-0.51439 1.7489-0.51439 5.5553v51.027q0 3.7036 0.51439 5.5553 0.61726 1.8518 2.2633 2.469 1.646 0.61726 4.9381 0.82301v2.0575q-2.8806-0.20575-7.3042-0.20575-4.3208-0.10288-8.8474-0.10288-4.9381 0-9.2589 0.10288-4.3208 0-6.9956 0.20575v-2.0575q3.4978-0.20575 5.2467-0.82301 1.8518-0.61726 2.469-2.469 0.61726-1.8518 0.61726-5.5553v-55.656h0.72014l-25.513 66.664h-1.646l-27.777-66.253v49.278q0 5.6582 0.61726 8.7445 0.61726 2.9834 2.6748 4.3208 2.1604 1.2345 6.687 1.7489v2.0575q-1.9547-0.20575-5.1438-0.20575-3.1892-0.10288-5.9668-0.10288-2.3662 0-4.8352 0.10288-2.469 0-4.1151 0.20575v-2.0575q3.292-0.51438 4.9381-1.7489 1.646-1.2345 2.1604-4.0122 0.61726-2.8806 0.61726-7.8186v-46.295q0-3.8064-0.61726-5.5553-0.51438-1.8518-2.2633-2.469-1.646-0.72014-4.8352-0.82301v-2.0575q1.646 0.10288 4.1151 0.20575 2.469 0.10288 4.8352 0.10288 4.4237 0 8.6416-0.10288 4.3208-0.10288 7.6129-0.20575l21.604 52.159-2.5719 2.3662 20.678-54.216q1.7489 0 3.6007 0t3.7036 0q4.5266 0 8.8474-0.10288 4.4237-0.10288 7.3042-0.20575z" fill="#000"/>
 <path d="m352.39 44.965q20.267 0 30.143 9.2589 9.8762 9.156 9.8762 26.336 0 11.214-4.8352 19.649-4.8352 8.333-14.094 12.962-9.156 4.6294-22.016 4.6294-2.469 0-7.0985-0.10287-4.5266-0.20576-7.9215-0.20576-4.5266 0-8.9503 0.10288-4.3208 0-6.8927 0.20575v-2.0575q3.2921-0.20575 4.9381-0.82301 1.646-0.61726 2.1604-2.469 0.61726-1.8518 0.61726-5.5553v-51.027q0-3.8064-0.61726-5.5553-0.51439-1.8518-2.2633-2.469-1.646-0.72014-4.8352-0.82301v-2.0575q2.5719 0.10288 6.8927 0.30863 4.4237 0.10288 8.7445 0 3.7036-0.10288 8.333-0.20575 4.7323-0.10288 7.8186-0.10288zm-0.10288 1.8518q-4.7323 0-6.1726 1.7489-1.4403 1.7489-1.4403 7.0985v51.438q0 5.3496 1.4403 7.0985 1.5432 1.7489 6.2755 1.7489 8.6416 0 13.58-4.0122 5.041-4.1151 7.2014-11.934 2.1604-7.8186 2.1604-19.032 0-17.283-5.3496-25.719t-17.695-8.4359z" fill="#000"/>
</svg>
