<svg version="1.1" xmlns="http://www.w3.org/2000/svg" width="24" height="24" class="icon" viewBox="0 0 24 24">
<title>google-brand-tile</title>
<path fill="#4285f4" d="M23.27 12.261c0-0.816-0.073-1.599-0.209-2.352h-10.831v4.448h6.189c-0.266 1.438-1.077 2.655-2.295 3.471v2.886h3.717c2.175-2.002 3.429-4.95 3.429-8.453v0z"></path>
<path fill="#34a853" d="M12.23 23.5c3.105 0 5.708-1.030 7.611-2.786l-3.717-2.886c-1.030 0.69-2.347 1.098-3.894 1.098-2.995 0-5.53-2.023-6.435-4.741h-3.842v2.979c1.892 3.758 5.781 6.336 10.277 6.336v0z"></path>
<path fill="#fbbc05" d="M5.795 14.185c-0.23-0.69-0.361-1.427-0.361-2.185s0.131-1.495 0.361-2.185v-2.979h-3.842c-0.779 1.553-1.223 3.309-1.223 5.165s0.444 3.612 1.223 5.165l3.842-2.979z"></path>
<path fill="#ea4335" d="M12.23 5.074c1.688 0 3.204 0.58 4.396 1.72l3.299-3.298c-1.992-1.856-4.595-2.995-7.695-2.995-4.495 0-8.385 2.577-10.277 6.336l3.842 2.979c0.904-2.718 3.44-4.741 6.435-4.741v0z"></path>
</svg>
