<svg width="424" height="194" viewBox="0 0 424 194" fill="none" class="icon" xmlns="http://www.w3.org/2000/svg">
<rect width="424" height="194"/>
<path fill-rule="evenodd" clip-rule="evenodd" d="M315.48 50.2086C315.48 47.8484 314.706 46.046 313.113 44.7157C311.52 43.4283 309.368 42.7417 306.656 42.7417C303.944 42.7417 301.792 43.3854 300.199 44.7157C298.606 46.046 297.831 47.8484 297.831 50.2086C297.831 52.5689 298.606 54.3713 300.199 55.7016C301.792 57.0319 303.944 57.6756 306.656 57.6756C309.368 57.6756 311.52 57.0319 313.113 55.7016C314.706 54.3713 315.48 52.5689 315.48 50.2086ZM315.652 114.364C314.705 113.334 314.232 111.532 314.232 108.871V66.7303C310.53 67.6314 305.795 68.1035 300.026 68.1035C298.089 68.1035 296.066 68.0177 294 67.8031V69.82C296.325 69.82 297.96 70.4637 298.864 71.837C299.768 73.1673 300.242 75.3559 300.242 78.3169V108.871C300.242 111.532 299.768 113.377 298.864 114.364C297.96 115.351 296.325 115.866 294 115.866V117.883C301.017 117.626 305.493 117.497 307.517 117.497C309.669 117.497 313.973 117.626 320.473 117.883V115.866C318.192 115.866 316.599 115.351 315.652 114.364Z" fill="black"/>
<path d="M374.28 67.7602V69.6913C372.902 70.0775 371.697 70.8929 370.621 72.1803C369.545 73.4248 368.512 75.3988 367.565 78.0594L350.131 126.809C348.839 130.156 347.419 132.474 345.869 133.675C343.975 135.306 341.177 136.121 337.389 136.121C334.677 136.121 332.224 135.478 330.028 134.147C327.833 132.817 326.757 130.886 326.757 128.397C326.757 126.38 327.489 124.792 328.909 123.591C330.33 122.389 332.224 121.788 334.548 121.788C336.743 121.788 338.508 122.303 339.843 123.376C341.177 124.449 341.823 125.951 341.823 127.882C341.823 129.255 341.392 130.5 340.575 131.615C339.714 132.731 338.551 133.589 336.959 134.19C337.432 134.233 338.164 134.276 339.197 134.276C343.2 134.276 346.171 131.701 348.065 126.595L349.614 121.96L329.038 75.2271C328.005 73.0386 327.015 71.5795 326.025 70.85C325.035 70.1204 324.045 69.7771 323.012 69.7771V67.7602C327.273 68.1464 331.75 68.361 336.356 68.361C340.187 68.361 344.707 68.1464 349.873 67.7602V69.7771C347.806 69.7771 346.257 69.9059 345.267 70.2063C344.277 70.5067 343.76 71.2791 343.76 72.4807C343.76 73.2102 343.975 74.1114 344.449 75.1842L356.33 103.808L363.045 85.1831C364.078 82.1362 364.594 79.5614 364.594 77.4157C364.594 72.6952 362.184 70.1204 357.406 69.6484V67.7173C360.462 67.9319 363.604 68.0177 366.833 68.0177C370.018 68.0606 372.515 67.9748 374.28 67.7602Z" fill="black"/>
<path fill-rule="evenodd" clip-rule="evenodd" d="M376.133 106.94C376.133 110.459 377.166 113.249 379.189 115.394C381.212 117.54 384.312 118.57 388.487 118.741C394.772 118.741 399.55 116.124 402.779 110.888C402.865 113.249 403.596 115.18 405.017 116.596C406.437 118.012 408.934 118.741 412.507 118.741C416.726 118.741 420.298 117.54 423.226 115.137L422.236 113.506C420.901 114.579 419.739 115.137 418.749 115.137C417.888 115.137 417.328 114.793 417.027 114.15C416.726 113.506 416.596 112.39 416.596 110.845V84.4535C416.596 80.8917 416.338 78.0594 415.865 75.9996C415.348 73.9397 414.401 72.1803 412.981 70.7641C411.388 69.2192 409.451 68.1035 407.126 67.4598C404.802 66.8161 402.047 66.4728 398.861 66.4728C395.848 66.4728 393.05 66.7303 390.467 67.331C387.928 67.8889 385.775 68.7043 384.01 69.7342C382.202 70.807 380.825 72.0086 379.964 73.2531C379.06 74.4976 378.63 76.0425 378.63 77.8449C378.63 79.9476 379.232 81.75 380.48 83.1661C381.729 84.5823 383.451 85.3118 385.732 85.3118C387.884 85.3118 389.692 84.6681 391.199 83.3807C392.706 82.0933 393.437 80.3338 393.437 78.1453C393.437 76.4287 392.921 74.8838 391.931 73.5964C390.941 72.309 389.52 71.322 387.712 70.6783C389.348 69.1334 391.716 68.361 394.815 68.361C397.484 68.361 399.464 69.1334 400.712 70.6354C401.961 72.1374 402.606 74.283 402.606 76.9866V84.5394C402.606 86.2988 401.745 87.6721 400.11 88.6591C398.474 89.6461 395.848 90.7618 392.275 92.0063C388.918 93.165 386.12 94.2807 383.967 95.3107C381.772 96.3406 379.921 97.8426 378.414 99.7308C376.908 101.619 376.133 104.022 376.133 106.94ZM402.562 88.5304V108.399C400.711 111.06 398.473 112.39 395.976 112.39C394.125 112.39 392.705 111.747 391.585 110.502C390.509 109.215 389.95 107.284 389.95 104.623C389.95 101.576 390.595 99.2588 391.887 97.628C393.178 95.9973 395.072 94.4095 397.612 92.7788C400.152 91.2339 401.788 89.8178 402.562 88.5304Z" fill="black"/>
<path d="M221.735 79.0464V79.0464C221.864 78.3169 222.037 77.5445 222.209 76.8149C222.725 74.6264 223.457 72.5665 224.361 70.5067C224.404 70.4638 224.49 70.4208 224.533 70.335C225.609 68.0606 226.772 66.1295 228.106 64.4988C234.262 57.2893 240.073 53.2555 245.497 52.483C253.848 54.7574 262.845 62.8252 267.709 72.6523C267.709 72.6952 267.752 72.6953 267.752 72.7382C268.139 73.8539 268.484 74.9697 268.742 76.0854C268.957 77.0724 269.172 78.0594 269.345 79.0894V79.0894V79.0894C274.897 76.772 280.02 73.6394 284.583 69.863C284.54 69.7771 284.54 69.6913 284.497 69.6055C284.411 69.4338 284.368 69.2622 284.282 69.0905C284.152 68.7472 284.066 68.4039 283.894 68.0606C283.421 67.0307 282.861 66.0437 282.258 65.0137C281.053 62.911 279.633 60.8082 277.954 58.7484C277.523 58.2334 277.093 57.6755 276.619 57.1606C274.08 54.1137 271.54 51.496 269.904 49.8653C264.394 44.3724 257.636 39.4373 250.361 33.2149C246.056 29.6101 242.957 25.0613 240.676 21.757C238.394 18.4526 237.275 15.32 237.275 12.4448C237.275 9.26916 237.275 7.68136 238.394 5.06364L241.666 0.171509C239.815 1.07269 236.586 3.39002 235.08 5.06364C233.573 6.73727 232.239 8.62546 231.076 10.7711C229.914 12.9168 229.053 15.2341 228.407 17.7231C227.762 20.2121 227.46 22.744 227.46 25.2759C227.46 28.7948 228.149 32.2279 229.484 35.5751C232.066 41.7546 236.113 43.9861 238.394 47.2476C231.55 50.5519 228.537 51.9681 222.941 56.4311C220.056 58.2763 217.474 60.2503 215.235 62.4389C212.351 65.1854 210.027 68.1464 208.262 71.322C212.394 74.3689 216.914 76.9866 221.735 79.0464V79.0464Z" fill="url(#paint0_linear)"/>
<path d="M284.625 69.8201C280.063 73.5965 274.94 76.7291 269.387 79.0465C269.731 81.1492 269.904 83.3378 269.904 85.5693C269.904 90.0323 269.301 94.1091 268.139 97.7568C266.976 101.447 265.341 104.58 263.318 107.198C261.294 109.815 258.884 111.875 256.172 113.334C253.417 114.793 250.49 115.523 247.39 115.523C244.808 115.523 242.354 115.137 240.072 114.321C237.791 113.506 235.639 112.39 233.745 111.017C231.808 109.601 230.086 107.927 228.536 105.996C226.986 104.065 225.695 101.919 224.619 99.645C223.543 97.3705 222.725 94.9245 222.165 92.3926C221.606 89.8607 221.304 87.2859 221.304 84.6681C221.304 82.7799 221.476 80.8918 221.778 79.0465V79.0465C216.914 76.9866 212.394 74.3689 208.304 71.2362C207.874 72.0087 207.443 72.7811 207.099 73.5965C205.205 77.6732 204.215 82.0075 204.215 86.5992C204.215 91.4914 205.162 95.9973 207.056 100.074C208.95 104.151 211.49 107.67 214.761 110.674C217.99 113.635 221.778 115.952 226.082 117.583C230.387 119.214 234.993 120.029 239.857 120.029C243.774 120.029 247.606 119.686 251.437 118.956C255.268 118.269 258.927 117.197 262.414 115.78C265.9 114.364 269.129 112.562 272.142 110.416C275.112 108.271 277.738 105.782 279.89 102.906C282.043 100.031 283.808 96.8127 285.013 93.2508C286.261 89.689 286.864 85.741 286.864 81.4067C286.821 77.287 286.046 73.4248 284.625 69.8201Z" fill="black"/>
<path d="M51.4354 118.799H44.4414V66.5603H51.4354V74.4271C53.1175 71.245 55.2866 68.8143 58.0311 67.179C60.7756 65.4996 63.9185 64.7041 67.4597 64.7041C71.1338 64.7041 74.2767 65.5438 76.8441 67.2232C79.4558 68.9027 81.4478 71.3776 82.8201 74.6039C84.812 71.2892 87.2909 68.7701 90.2125 67.1348C93.134 65.4996 96.4983 64.6599 100.394 64.6599C105.75 64.6599 109.955 66.2951 113.009 69.5214C116.064 72.7477 117.613 77.1672 117.613 82.8242V118.799H110.663V85.6085C110.663 80.7028 109.645 76.9904 107.609 74.4713C105.573 71.9963 102.563 70.7147 98.5345 70.7147C93.7095 70.7147 90.2125 72.3057 87.9549 75.4436C85.6973 78.5814 84.5907 83.5755 84.5907 90.3816V118.799H77.6409V85.6085C77.6409 80.4818 76.6671 76.681 74.7636 74.3387C72.8602 71.9963 69.8501 70.7589 65.7776 70.7589C60.8641 70.7589 57.2343 72.3499 54.9325 75.532C52.6306 78.714 51.4797 83.6639 51.4797 90.3816V118.799H51.4354Z" fill="black"/>
<path fill-rule="evenodd" clip-rule="evenodd" d="M180.074 64.7041H188.972V64.6599H192.646V89.3651C192.646 103.95 182.376 116.192 168.742 118.932V122.114C168.742 123.837 167.99 125.384 166.795 126.445V126.622C166.795 154.774 140.412 193.754 90.834 193.754C63.8759 193.754 45.6826 179.965 35.1473 168.386C22.7528 154.73 14.475 137.008 12.1732 119.285C5.26766 118.004 0 111.949 0 104.701C0 96.5247 6.68418 89.8512 14.8734 89.8512C23.0626 89.8512 29.7468 96.5247 29.7468 104.701C29.7468 111.153 25.63 116.589 19.9197 118.667C22.0888 134.709 29.6583 150.752 40.9018 163.171C50.3748 173.601 66.709 186.02 90.834 186.02C116.11 186.02 132.311 175.016 141.43 165.735C152.408 154.553 159.004 139.969 159.004 126.666V126.489C157.809 125.428 157.056 123.882 157.056 122.158V118.976C143.466 116.236 133.152 104.038 133.152 89.4093V64.7041H137.358H146.255C148.203 64.7041 149.796 66.2951 149.796 68.2397C149.796 70.1843 148.203 71.7754 146.255 71.7754H140.943V89.3651C140.943 101.696 150.814 111.772 162.943 111.772C175.072 111.772 184.944 101.74 184.944 89.3651V71.7754H180.074C178.127 71.7754 176.533 70.1843 176.533 68.2397C176.533 66.2951 178.127 64.7041 180.074 64.7041ZM14.9177 97.5854C10.9781 97.5854 7.79091 100.767 7.79091 104.701C7.79091 108.634 10.9781 111.816 14.9177 111.816C18.8574 111.816 22.0446 108.634 22.0446 104.701C22.0446 100.767 18.8574 97.5854 14.9177 97.5854Z" fill="url(#paint1_linear)"/>
<path d="M264.468 178.744H251.938V191.931H248V162.071H266.498V165.312H251.938V175.524H264.468V178.744Z" fill="black"/>
<path d="M280.377 192.341C277.369 192.341 274.922 191.356 273.035 189.388C271.148 187.405 270.205 184.76 270.205 181.451V180.754C270.205 178.553 270.622 176.591 271.456 174.868C272.304 173.132 273.479 171.778 274.983 170.808C276.501 169.823 278.142 169.331 279.905 169.331C282.79 169.331 285.032 170.281 286.632 172.182C288.231 174.082 289.031 176.803 289.031 180.344V181.923H273.999C274.054 184.11 274.689 185.881 275.906 187.234C277.137 188.574 278.695 189.244 280.582 189.244C281.922 189.244 283.057 188.971 283.986 188.424C284.916 187.877 285.729 187.152 286.427 186.25L288.744 188.055C286.885 190.912 284.096 192.341 280.377 192.341ZM279.905 172.448C278.374 172.448 277.089 173.009 276.05 174.13C275.011 175.237 274.368 176.796 274.122 178.806H285.237V178.519C285.128 176.591 284.608 175.101 283.679 174.048C282.749 172.981 281.491 172.448 279.905 172.448Z" fill="black"/>
<path d="M303.648 192.341C300.641 192.341 298.193 191.356 296.307 189.388C294.42 187.405 293.477 184.76 293.477 181.451V180.754C293.477 178.553 293.894 176.591 294.728 174.868C295.575 173.132 296.751 171.778 298.255 170.808C299.772 169.823 301.413 169.331 303.177 169.331C306.062 169.331 308.304 170.281 309.903 172.182C311.503 174.082 312.303 176.803 312.303 180.344V181.923H297.271C297.325 184.11 297.961 185.881 299.178 187.234C300.408 188.574 301.967 189.244 303.854 189.244C305.193 189.244 306.328 188.971 307.258 188.424C308.188 187.877 309.001 187.152 309.698 186.25L312.016 188.055C310.156 190.912 307.367 192.341 303.648 192.341ZM303.177 172.448C301.646 172.448 300.36 173.009 299.321 174.13C298.282 175.237 297.64 176.796 297.394 178.806H308.509V178.519C308.399 176.591 307.88 175.101 306.95 174.048C306.021 172.981 304.763 172.448 303.177 172.448Z" fill="black"/>
<path d="M321.834 191.931H318.04V160.431H321.834V191.931Z" fill="black"/>
<path d="M349.735 178.621C346.358 177.65 343.897 176.461 342.353 175.053C340.821 173.631 340.056 171.881 340.056 169.803C340.056 167.451 340.992 165.51 342.865 163.979C344.752 162.434 347.199 161.661 350.207 161.661C352.258 161.661 354.083 162.058 355.683 162.851C357.296 163.644 358.54 164.737 359.415 166.132C360.304 167.526 360.748 169.051 360.748 170.705H356.79C356.79 168.9 356.216 167.485 355.067 166.46C353.919 165.421 352.299 164.901 350.207 164.901C348.266 164.901 346.748 165.332 345.654 166.193C344.574 167.041 344.034 168.224 344.034 169.741C344.034 170.958 344.547 171.99 345.572 172.838C346.611 173.672 348.368 174.438 350.843 175.135C353.331 175.832 355.272 176.604 356.667 177.452C358.075 178.286 359.114 179.264 359.784 180.385C360.468 181.506 360.81 182.825 360.81 184.343C360.81 186.763 359.866 188.704 357.979 190.167C356.093 191.616 353.57 192.341 350.412 192.341C348.361 192.341 346.447 191.951 344.67 191.172C342.893 190.379 341.519 189.299 340.548 187.932C339.591 186.564 339.112 185.013 339.112 183.276H343.07C343.07 185.081 343.733 186.51 345.06 187.562C346.399 188.602 348.184 189.121 350.412 189.121C352.49 189.121 354.083 188.697 355.19 187.85C356.298 187.002 356.852 185.847 356.852 184.384C356.852 182.921 356.339 181.793 355.313 181C354.288 180.193 352.429 179.4 349.735 178.621Z" fill="black"/>
<path d="M379.979 191.931C379.761 191.493 379.583 190.714 379.446 189.593C377.683 191.425 375.577 192.341 373.13 192.341C370.942 192.341 369.145 191.726 367.736 190.495C366.342 189.251 365.645 187.679 365.645 185.778C365.645 183.468 366.52 181.677 368.27 180.405C370.033 179.12 372.508 178.478 375.693 178.478H379.385V176.734C379.385 175.408 378.988 174.355 378.195 173.576C377.402 172.783 376.233 172.387 374.688 172.387C373.335 172.387 372.2 172.729 371.284 173.412C370.368 174.096 369.91 174.923 369.91 175.894H366.096C366.096 174.786 366.485 173.72 367.265 172.694C368.058 171.655 369.124 170.835 370.464 170.233C371.817 169.632 373.301 169.331 374.914 169.331C377.471 169.331 379.474 169.974 380.923 171.259C382.372 172.53 383.124 174.287 383.179 176.529V186.742C383.179 188.779 383.438 190.399 383.958 191.603V191.931H379.979ZM373.684 189.039C374.873 189.039 376.001 188.731 377.067 188.116C378.134 187.501 378.906 186.701 379.385 185.717V181.164H376.411C371.763 181.164 369.438 182.524 369.438 185.245C369.438 186.435 369.835 187.364 370.628 188.034C371.421 188.704 372.439 189.039 373.684 189.039Z" fill="black"/>
<path d="M391.992 191.931V172.674H388.485V169.741H391.992V167.465C391.992 165.086 392.628 163.247 393.899 161.948C395.171 160.649 396.969 160 399.293 160C400.168 160 401.036 160.116 401.897 160.349L401.692 163.425C401.05 163.302 400.366 163.24 399.642 163.24C398.411 163.24 397.461 163.603 396.791 164.327C396.121 165.038 395.786 166.063 395.786 167.403V169.741H400.523V172.674H395.786V191.931H391.992Z" fill="black"/>
<path d="M414.443 192.341C411.436 192.341 408.988 191.356 407.102 189.388C405.215 187.405 404.271 184.76 404.271 181.451V180.754C404.271 178.553 404.688 176.591 405.522 174.868C406.37 173.132 407.546 171.778 409.05 170.808C410.567 169.823 412.208 169.331 413.972 169.331C416.856 169.331 419.099 170.281 420.698 172.182C422.298 174.082 423.098 176.803 423.098 180.344V181.923H408.065C408.12 184.11 408.756 185.881 409.973 187.234C411.203 188.574 412.762 189.244 414.648 189.244C415.988 189.244 417.123 188.971 418.053 188.424C418.982 187.877 419.796 187.152 420.493 186.25L422.811 188.055C420.951 190.912 418.162 192.341 414.443 192.341ZM413.972 172.448C412.44 172.448 411.155 173.009 410.116 174.13C409.077 175.237 408.435 176.796 408.188 178.806H419.304V178.519C419.194 176.591 418.675 175.101 417.745 174.048C416.815 172.981 415.558 172.448 413.972 172.448Z" fill="black"/>
<defs>
<linearGradient id="paint0_linear" x1="284.563" y1="93.1281" x2="284.563" y2="14.3521" gradientUnits="userSpaceOnUse">
<stop stop-color="#FF6606"/>
<stop offset="0.0171554" stop-color="#FF6806"/>
<stop offset="0.2938" stop-color="#FF8A06"/>
<stop offset="0.557" stop-color="#FFA206"/>
<stop offset="0.7991" stop-color="#FFB106"/>
<stop offset="1" stop-color="#FFB606"/>
</linearGradient>
<linearGradient id="paint1_linear" x1="296.246" y1="216.766" x2="296.308" y2="-51.0115" gradientUnits="userSpaceOnUse">
<stop stop-color="#FF6606"/>
<stop offset="0.0171554" stop-color="#FF6806"/>
<stop offset="0.2938" stop-color="#FF8A06"/>
<stop offset="0.557" stop-color="#FFA206"/>
<stop offset="0.7991" stop-color="#FFB106"/>
<stop offset="1" stop-color="#FFB606"/>
</linearGradient>
</defs>
</svg>
