<svg xmlns="http://www.w3.org/2000/svg" width="72" height="72" viewBox="0 0 72 72">
    <path fill="#0C9FDB" d="M36 0C16.12 0 0 16.12 0 36s16.12 36 36 36 36-16.12 36-36S55.88 0 36 0zm16.437 28.069c.016.354.024.71.024 1.068 0 10.919-8.311 23.51-23.51 23.51-4.667 0-9.01-1.368-12.666-3.712.647.077 1.305.115 1.971.115 3.872 0 7.434-1.321 10.263-3.537-3.617-.068-6.667-2.456-7.72-5.74.504.097 1.022.15 1.553.15.754 0 1.485-.102 2.18-.291-3.782-.757-6.63-4.099-6.63-8.1l.001-.106c1.114.62 2.387.992 3.743 1.034-2.219-1.48-3.677-4.011-3.677-6.878 0-1.514.409-2.933 1.119-4.154 4.074 5 10.164 8.288 17.032 8.634-.142-.605-.215-1.236-.215-1.884 0-4.562 3.7-8.263 8.264-8.263 2.377 0 4.524 1.005 6.031 2.611 1.883-.371 3.65-1.059 5.247-2.005-.618 1.928-1.927 3.547-3.633 4.57 1.671-.2 3.264-.643 4.745-1.301-1.106 1.657-2.508 3.113-4.122 4.279z"/>
</svg>