<svg xmlns="http://www.w3.org/2000/svg" width="114" height="112" viewBox="0 0 114 112">
    <g fill="#FB4F4F">
        <path d="M113.743 51.236c-.237-3.083-1.631-5.839-3.925-7.759-2.146-1.797-4.844-2.635-7.596-2.359-3.754.377-7.06 2.833-8.69 6.368l-3.412.301-3.367-.944c-.262-.073-.473-.28-.565-.554-.978-2.911-2.375-5.66-4.154-8.178l1.192-3.203 3.76-4.068c2.14-.072 4.129-1.015 5.555-2.659 2.581-2.975 2.474-7.534-.245-10.38-1.492-1.56-3.501-2.417-5.65-2.394-2.123.018-4.166.92-5.607 2.479-1.41 1.526-2.133 3.516-2.043 5.565l-3.762 4.068-3.151 1.462c-4.7-2.748-10.039-4.234-15.499-4.313l-2.06-3.286-.727-3.612c2.895-2.367 4.248-6.045 3.474-9.667C56.111 2.667 50.512-.874 44.794.21c-2.88.546-5.33 2.147-6.898 4.508-1.47 2.212-1.978 4.843-1.43 7.409.731 3.42 3.211 6.18 6.585 7.412l.803 3.99-.639 3.888c-2.908 1.301-5.591 3.026-7.995 5.14l-2.362-.42-2.669-2.014c-.382-2.027-1.552-3.812-3.29-4.978-3.245-2.178-7.608-1.582-10.15 1.385-1.404 1.64-2.05 3.722-1.818 5.861.229 2.11 1.331 4.053 3.025 5.331 1.752 1.321 3.98 1.825 6.111 1.415l2.237 1.688 1.003 2.053c.044.09.046.195.003.287-1.913 4.16-2.883 8.602-2.883 13.202 0 .85.035 1.716.105 2.572.01.132-.042.253-.14.322l-3.777 2.692-4.312 1.356c-2.647-2.048-6.147-2.667-9.369-1.602-.064.021-.128.044-.191.068l-.053.02c-.888.32-1.348 1.298-1.029 2.185.32.888 1.298 1.349 2.186 1.029l.08-.03c.027-.01.054-.02.08-.028 2.354-.778 4.932-.2 6.73 1.51.322.306.745.47 1.176.47.172 0 .344-.026.513-.08l5.472-1.72c.171-.054.333-.135.479-.239l3.997-2.848c1.072-.764 1.67-2.06 1.563-3.383-.062-.763-.094-1.535-.094-2.295 0-4.103.865-8.065 2.571-11.774.473-1.027.459-2.198-.037-3.214l-1.183-2.42c-.118-.242-.292-.452-.506-.614l-3.216-2.426c-.443-.335-1.021-.433-1.55-.263-1.333.427-2.794.18-3.908-.66-.958-.723-1.557-1.779-1.686-2.972-.13-1.193.231-2.354 1.016-3.271 1.392-1.625 3.874-1.963 5.652-.77 1.095.735 1.787 1.908 1.897 3.22.04.484.285.929.673 1.221l3.562 2.687c.214.162.464.271.729.318l3.588.64c.528.094 1.069-.065 1.462-.43 2.5-2.32 5.357-4.15 8.493-5.441.548-.226.94-.718 1.035-1.303l.841-5.12c.034-.203.03-.411-.01-.613L46.2 17.873c-.129-.642-.614-1.153-1.248-1.317-2.641-.68-4.613-2.65-5.145-5.142-.354-1.66-.023-3.366.934-4.805 1.056-1.588 2.72-2.669 4.689-3.042 3.911-.74 7.724 1.614 8.5 5.25.556 2.603-.602 5.267-2.951 6.785-.59.381-.885 1.084-.747 1.772l1.004 4.987c.04.203.117.396.227.57l2.467 3.936c.477.76 1.296 1.214 2.197 1.214h.001c5.141 0 10.18 1.401 14.571 4.052.736.445 1.64.495 2.417.135l3.862-1.792c.202-.093.384-.226.535-.39l4.51-4.877c.353-.383.513-.906.433-1.421-.202-1.308.196-2.614 1.091-3.583.815-.88 1.925-1.371 3.126-1.381 1.196 0 2.32.465 3.153 1.338 1.513 1.584 1.572 4.123.134 5.78-.902 1.04-2.207 1.577-3.58 1.473-.52-.039-1.03.162-1.383.544l-4.51 4.878c-.151.163-.269.355-.346.564l-1.466 3.942c-.302.81-.176 1.713.335 2.415 1.7 2.334 3.025 4.898 3.94 7.62.452 1.346 1.529 2.377 2.88 2.755l3.668 1.028c.199.056.406.075.611.057l4.763-.42c.67-.06 1.243-.507 1.464-1.142.986-2.84 3.43-4.858 6.226-5.138 1.829-.183 3.628.377 5.063 1.58 1.582 1.324 2.546 3.242 2.712 5.401.11 1.427-.148 2.86-.746 4.143-.398.856-.028 1.871.828 2.27.855.398 1.871.028 2.27-.828.843-1.815 1.208-3.837 1.053-5.848z"/>
        <path d="M105.146 59.694c-.48.158-.974.263-1.47.313-2.956.296-5.719-1.34-7.041-4.17-.304-.651-.983-1.043-1.698-.98l-4.471.396c-.206.018-.406.073-.592.163l-3.375 1.628c-1.279.617-2.161 1.835-2.36 3.26-.296 2.118-.836 4.203-1.603 6.197-.459 1.19-.368 2.505.249 3.607l1.202 2.15c.13.234.316.434.539.584l3.345 2.244c.46.31 1.044.375 1.562.177 1.308-.5 2.78-.335 3.94.442.996.669 1.652 1.69 1.848 2.874.195 1.184-.101 2.364-.835 3.323-1.3 1.7-3.758 2.175-5.6 1.082-1.134-.673-1.89-1.807-2.072-3.11-.067-.482-.337-.912-.74-1.182l-3.705-2.486c-.223-.15-.479-.245-.746-.277l-2.332-.284c-1.304-.159-2.604.276-3.567 1.194-1.867 1.779-3.964 3.295-6.232 4.504-1.32.704-2.198 2.076-2.292 3.581l-.296 4.725c-.01.176.005.353.049.524l1.466 5.818c.15.594.606 1.063 1.196 1.228 1.989.556 3.538 2.143 4.041 4.14.384 1.522.141 3.096-.683 4.432-.823 1.335-2.121 2.259-3.656 2.6-2.861.638-5.814-1.042-6.72-3.825-.685-2.101-.132-4.367 1.442-5.913.433-.425.608-1.048.46-1.636l-1.475-5.854c-.043-.171-.113-.335-.206-.485l-2.274-3.657c-.922-1.483-2.527-2.368-4.313-2.368h-.003c-1.847 0-3.697-.18-5.497-.537-1.716-.34-3.45.208-4.641 1.465l-3.007 3.173c-.122.128-.222.274-.3.433l-3.365 6.983c-.228.473-.226 1.025.006 1.496.59 1.198.597 2.572.019 3.771-.522 1.082-1.44 1.877-2.587 2.237-1.145.36-2.356.232-3.41-.36-1.852-1.043-2.671-3.4-1.865-5.368.538-1.311 1.637-2.247 3.015-2.568.503-.117.927-.456 1.151-.922l3.388-7.028c.077-.159.128-.329.153-.503l.663-4.718c.206-1.462-.373-2.942-1.51-3.863-2.559-2.076-4.72-4.554-6.423-7.364-.747-1.23-2.113-2.004-3.567-2.018l-4.71-.045c-.18-.002-.358.025-.529.079l-5.156 1.622c-.645.203-1.11.767-1.185 1.439-.297 2.635-2.121 4.851-4.648 5.646-3.485 1.097-7.244-.836-8.379-4.308-.45-1.38-.436-2.846.043-4.237.307-.892-.167-1.864-1.06-2.171-.892-.307-1.863.167-2.17 1.06-.723 2.1-.744 4.315-.06 6.408 1.388 4.249 5.376 6.97 9.64 6.97.998 0 2.012-.149 3.011-.463 3.45-1.086 6.033-3.925 6.827-7.399l3.905-1.228 4.44.042c.28.003.54.145.677.373 1.907 3.147 4.328 5.921 7.194 8.246.211.17.318.452.278.734l-.626 4.454-2.944 6.107c-2.06.73-3.738 2.312-4.578 4.36-1.472 3.591-.032 7.736 3.351 9.64 1.884 1.06 4.054 1.288 6.11.642 2.026-.637 3.717-2.1 4.64-4.013.91-1.888 1.012-4.018.31-5.962l2.915-6.048 2.823-2.98c.38-.4.94-.574 1.5-.463 2.017.399 4.09.602 6.179.602h.001c.579 0 1.1.282 1.394.755l2.134 3.432 1.186 4.707c-1.975 2.41-2.598 5.642-1.615 8.661 1.24 3.804 4.874 6.317 8.76 6.317.646 0 1.3-.07 1.951-.215 2.443-.544 4.511-2.015 5.822-4.142 1.312-2.128 1.698-4.635 1.088-7.059-.719-2.85-2.77-5.174-5.464-6.265l-1.175-4.664.28-4.458c.02-.331.208-.63.489-.78 2.54-1.356 4.89-3.053 6.982-5.046.22-.21.51-.31.798-.275l1.926.234 2.777 1.863c.493 2.003 1.76 3.72 3.56 4.788 3.361 1.994 7.685 1.158 10.058-1.945 1.312-1.716 1.841-3.83 1.49-5.953-.345-2.094-1.554-3.973-3.315-5.155-1.822-1.222-4.074-1.602-6.18-1.075l-2.327-1.561-1.002-1.793c-.12-.213-.135-.472-.043-.711.862-2.237 1.467-4.576 1.799-6.953.04-.29.213-.535.46-.655l3.094-1.492 3.038-.269c2.111 3.495 5.878 5.45 9.902 5.047.743-.074 1.482-.232 2.197-.467.897-.295 1.384-1.26 1.089-2.156-.295-.897-1.26-1.384-2.157-1.09z"/>
        <path d="M61.616 33.083c-1.79-.42-3.637-.634-5.487-.634-13.189 0-23.918 10.73-23.918 23.918 0 13.188 10.73 23.917 23.918 23.917 13.188 0 23.917-10.729 23.917-23.917 0-8.246-4.165-15.805-11.142-20.222-.797-.505-1.853-.267-2.357.53-.504.797-.267 1.852.53 2.357 5.982 3.786 9.553 10.267 9.553 17.335 0 11.304-9.197 20.501-20.501 20.501-11.305 0-20.502-9.197-20.502-20.501 0-11.305 9.197-20.502 20.502-20.502 1.588 0 3.171.183 4.706.544.919.216 1.838-.354 2.054-1.272.216-.919-.354-1.838-1.273-2.054zM18.759 17.697c4.43 0 8.033-3.604 8.033-8.033 0-4.43-3.604-8.033-8.033-8.033-4.43 0-8.033 3.604-8.033 8.033 0 4.43 3.603 8.033 8.033 8.033zm0-12.65c2.545 0 4.616 2.072 4.616 4.617 0 2.546-2.07 4.617-4.616 4.617s-4.617-2.071-4.617-4.617c0-2.545 2.071-4.617 4.617-4.617zM17.03 87.15c-3.246 0-5.886 2.64-5.886 5.885 0 3.245 2.64 5.886 5.886 5.886 3.245 0 5.886-2.64 5.886-5.886 0-3.245-2.64-5.886-5.886-5.886zm0 8.355c-1.362 0-2.47-1.108-2.47-2.47s1.108-2.47 2.47-2.47 2.47 1.108 2.47 2.47-1.108 2.47-2.47 2.47zM93.733 92.036c-4.334 0-7.861 3.527-7.861 7.862s3.527 7.861 7.861 7.861c4.335 0 7.862-3.526 7.862-7.861s-3.527-7.862-7.862-7.862zm0 12.307c-2.45 0-4.445-1.994-4.445-4.445 0-2.452 1.994-4.446 4.445-4.446 2.452 0 4.446 1.994 4.446 4.446 0 2.45-1.994 4.445-4.446 4.445z"/>
        <path d="M56.756 50.242c0-4.105-3.34-7.445-7.445-7.445s-7.445 3.34-7.445 7.445 3.34 7.445 7.445 7.445 7.445-3.34 7.445-7.445zm-7.445 4.029c-2.221 0-4.029-1.808-4.029-4.03 0-2.22 1.808-4.028 4.03-4.028 2.22 0 4.028 1.807 4.028 4.029 0 2.221-1.807 4.029-4.029 4.029zM53.916 73.673c3.095 0 5.613-2.518 5.613-5.613 0-3.095-2.518-5.613-5.613-5.613-3.094 0-5.612 2.518-5.612 5.613 0 3.095 2.517 5.613 5.612 5.613zm0-7.81c1.212 0 2.197.986 2.197 2.198 0 1.21-.985 2.196-2.197 2.196-1.21 0-2.196-.985-2.196-2.196 0-1.212.985-2.197 2.196-2.197zM61.19 56.367c0 2.75 2.237 4.987 4.987 4.987s4.987-2.237 4.987-4.987-2.237-4.987-4.987-4.987-4.987 2.237-4.987 4.987zm4.987-1.571c.866 0 1.571.704 1.571 1.57 0 .867-.705 1.571-1.57 1.571-.867 0-1.571-.704-1.571-1.57 0-.867.704-1.571 1.57-1.571z"/>
    </g>
</svg>
