<svg version="1.1" xmlns="http://www.w3.org/2000/svg" width="72" height="72" viewBox="0 0 72 72">
<path fill="#0c9fdb" d="M31.007 41.807l9.985-5.793-9.985-5.822z"></path>
<path fill="#0c9fdb" d="M36 0c-19.882 0-36 16.118-36 36s16.118 36 36 36c19.882 0 36-16.118 36-36v0c0-19.882-16.118-36-36-36v0zM54.947 42.371c0 0.001 0 0.003 0 0.005 0 3.958-3.209 7.167-7.167 7.167h-23.561c-3.958 0-7.167-3.209-7.167-7.167 0-0.002 0-0.003 0-0.005v0-12.742c0-0.001 0-0.003 0-0.005 0-3.958 3.209-7.167 7.167-7.167h23.561c3.958 0 7.167 3.209 7.167 7.167 0 0.002 0 0.003 0 0.005v-0z"></path>
</svg>
