<svg version="1" xmlns="http://www.w3.org/2000/svg" width="1193.333" height="1193.333" viewBox="0 0 895.000000 895.000000"><path d="M408 5.6c-4.1 2.5-7.8 5.1-8.2 5.7-.4.7-.8.8-.8.4 0-.7-8.2 5.3-19 13.8-4.9 4-14.7 14.2-20.5 21.5-3.2 4.1-6.3 7.6-6.7 7.8-.4.2-.8.8-.8 1.3 0 .4-2.2 4.2-5 8.2-2.7 4.1-5 7.9-5 8.5 0 .5-.4 1.2-.8 1.4-1 .4-11.2 20.6-13.1 25.8-3.8 10.5-7.3 20.7-7.6 22-.2.8-1 4-1.9 7.1-1.6 5.5-2.1 7.4-3.2 13.3-.2 1.6-.7 3.2-.9 3.6-.2.3-.6 2.7-.9 5.3-.3 2.6-.9 6.8-1.3 9.4-1.6 10.7-.6 56.3 1.2 59.4.2.3.7 2.8 1.1 5.5 1.5 11.8 11.5 41.2 17.3 51.3 1.4 2.5 3.2 5.7 3.9 7.1 2.1 4.2 13.4 19.5 18.8 25.7 2.9 3.2 11.4 12.1 18.9 19.8 7.5 7.7 15 15.8 16.5 18l2.8 4.1-9.1 4.4c-5.1 2.4-9.4 4.4-9.7 4.5-.6.1-26.9 13.3-29 14.5-.8.5-5.8 3.2-11 6.1-14.9 8.1-29.4 17.7-47 30.9-6.3 4.8-13.5 10-16 11.6-2.5 1.6-4.9 3.2-5.5 3.7-.5.4-4.1 2.9-8 5.7-3.8 2.7-7.5 5.3-8 5.7-.6.4-4.4 3.5-8.5 6.7-10.3 8.1-9.6 7.5-27.5 25.2-13.4 13.3-19.8 20.8-34.3 39.9-5.6 7.5-20.1 34.5-25.4 47.5-3.3 7.9-8.3 22.2-9.3 26.6-.3 1-1.4 5.7-2.5 10.3-1.1 4.6-1.8 8.6-1.6 8.9.3.2.1 1.2-.4 2.2-.9 1.6-1.2 3.5-2.7 18.5-1.3 12.7-.7 40.6 1.1 54.5.8 5.6 3.5 19.9 5.1 26.5 1.1 4.8 4.3 15.2 5.3 17.8.7 1.6 1.2 3.1 1.2 3.5 0 1.1 5.4 14.1 9.3 22.2 3.7 7.8 14.2 26.5 15.7 28 .3.3 2.3 3.2 4.5 6.5s4.2 6.2 4.5 6.5c.3.3 2.5 3.1 4.9 6.3 2.4 3.2 5.1 6.2 6 6.7.9.5 1.2 1 .6 1-1.5 0 25.2 25.8 32 31 3.3 2.5 6.2 4.8 6.5 5.1 2.3 2.8 33.7 22 35.1 21.6.4-.1 1.5.5 2.5 1.3 1.1.9 3 2.1 4.4 2.7 8.8 4 14.9 6.7 17.5 7.8 10.5 4.4 29.3 10.5 41 13.1 4.4.9 8.5 1.9 9 2 .6.1 2.7.5 4.9.9 2.1.4 4.8.9 6 1.1 3.6.8 17.1 2.4 24.8 2.9 2.5.1 5 .5 5.5.7 1.1.6 41.7.1 51.3-.6 9.9-.7 19.9-1.6 23-2.1 3.3-.5 9.6-1.4 14.5-2 2.2-.3 5.1-.8 6.5-1.1 1.4-.3 3.2-.6 4-.6 7.4-.2 51.4-10.9 63.5-15.5 2.2-.8 4-1.4 4-1.3 0 .4 15.4-5.2 24-8.7 14.2-5.8 36.3-16.8 45.2-22.6 2.4-1.5 4.5-2.7 4.8-2.7.5 0 13.6-8.4 16-10.2.6-.5 4.8-3.6 9.5-7s8.7-6.4 9-6.7c.3-.3 2.8-2.4 5.5-4.6 6.2-4.9 27.7-26.3 33-32.8 6.1-7.5 17.5-23.5 17.5-24.7 0-.5.3-1 .8-1 .7 0 1.5-1.3 9.5-15.5 8.4-15.1 21.1-46.5 23-57.2.2-1 .9-3.6 1.5-5.8.6-2.2 1.3-5.4 1.6-7 2.8-16.9 3.2-19.3 4.3-31 1.4-14.2.6-51.3-1.2-56.8-.2-.7-.6-3-.9-5.2-.3-2.2-.7-5-1-6.1-.2-1.2-.7-3.7-1-5.5-.3-1.9-1-4.9-1.5-6.7-.5-1.8-1-3.6-1.1-4-.1-1.1-1.1-5.6-1.5-6.7-.1-.6-.3-1.2-.3-1.5-1.1-5.3-13.8-36.6-18-44.3-12.8-23.2-25.9-42.5-41.9-62.2-3.7-4.6-11.8-14-12.4-14.5-.4-.3-2.3-2.5-4.4-5-10.3-12.5-44.3-47.3-60.5-62-10.1-9.1-9.1-8.3-17-15-3.6-3-6.7-5.7-7-6-.3-.3-4.3-3.7-9-7.5s-8.7-7.2-9-7.5c-.3-.3-2.7-2.3-5.5-4.5-2.7-2.2-5.5-4.4-6.2-5-.7-.5-1.8-1.5-2.5-2-3.9-3.1-33.5-27.1-34.5-28-.6-.5-2.4-2-4-3.2-1.5-1.2-3.8-3-5-4-1.2-1-4.1-3.4-6.4-5.3-2.3-1.9-4.9-4.2-5.9-5-1-.8-3.2-2.6-5-4-1.7-1.3-4.2-3.3-5.4-4.5-1.2-1.1-4.9-4.3-8.2-7-7.9-6.7-23.6-22.5-30.4-30.5-3-3.6-5.7-6.7-6-7-.8-.8-5.2-6.3-8-10-3.8-5.1-7.9-10.4-8.9-11.6-.4-.5-1.3-2-2-3.1-.6-1.2-1.7-2.7-2.4-3.5-2.3-2.4-15.7-21.8-15.7-22.8 0-.6-.4-1-.9-1s-1.1-.8-1.4-1.8c-.4-.9-2-4-3.7-6.7-1.7-2.8-3.4-5.9-3.9-7-.5-1.1-2-4.5-3.5-7.6-3.4-7.5-7.4-21.5-8.3-29.2-1.6-14.3-.4-41 2.3-49.9.3-.9.6-2.5.8-3.5.9-4.5 5.1-13.4 9.4-19.8 2.6-3.9 4.9-7.2 5.2-7.5.3-.3 2.1-3 4-6s4.3-6.4 5.2-7.4c1-1.1 1.8-2.4 1.8-3 0-.5.7-1.8 1.7-2.8 2.7-3 .1-2.1-7.7 2.8zm46.3 387c1.5.4 3 1.1 3.3 1.5.3.5 1.4.9 2.5.9 1 0 2.7.4 3.7.9.9.6 6.4 3.2 12.2 5.8 10.5 4.8 23.5 12.2 33.9 19.3 17.8 12 42.2 33.9 56 49.9 2.5 3 5.7 6.6 7 8 10.4 11.5 32.8 45.6 39.4 60.1 4.4 9.8 8 22 10.3 34.5.3 1.6.9 4.3 1.4 6 .8 3 2.6 12.7 3.5 19.5 1.4 9.8 1.9 20.4 1.9 39 .1 24-.8 35.2-4 54.5-.4 2.2-.7 4.8-.8 5.7 0 1-.3 1.8-.6 1.8s-.6.8-.6 1.7c-.4 9.6-11.9 43.5-20.5 60.6-4.4 8.9-11.9 21.9-12.9 22.7-.4.3-1.5 2-2.4 3.7-.9 1.8-2.1 3.3-2.6 3.3-.6 0-1 .5-1 1.1 0 .9-3.2 5.2-9.5 12.7-5.7 6.8-18.5 18.8-26.5 24.9-6.5 4.9-20 13.2-25.2 15.6-2.1.9-5.3 2.4-7 3.2-3.8 1.7-17.7 6.4-21.1 7.1-15.4 3.3-19.1 3.6-35.7 3.6-16.9-.1-24.2-.8-36.5-3.7-13.6-3.1-37.8-12.3-39.7-15-.4-.5-.8-.6-.8-.1s-.6.4-1.2-.2c-.7-.5-3.5-2.2-6.3-3.7-7-3.9-16.9-10.5-17.3-11.6-.2-.5-1-.9-1.7-.9s-1.5-.3-1.7-.8c-.1-.4-2.5-2.5-5.3-4.7-7.8-6.2-22.5-21.2-29.9-30.5-3.7-4.7-7.4-9.3-8.2-10.3-.8-.9-1.4-2.2-1.4-2.7 0-.6-.4-1-1-1-.5 0-1-.4-1-.9 0-.6-1.3-2.9-2.9-5.3-14.4-21.4-29.2-58.6-34-85.3-.6-3.3-1.4-7.1-1.7-8.5-.5-2.3-.7-4-1.9-12.5-2.3-16.3-2.3-51.1 0-62.4.2-1.3.7-4.9 1-8 .8-8.6 5.9-29.5 10-41.1 2-5.8 4.1-12.2 4.7-14.3.6-2 1.4-3.7 1.9-3.7s.9-.6.9-1.3c0-.7.8-2.8 1.8-4.7 9.3-17.8 12.9-24.1 17.8-31.7 3.2-4.8 6-9 6.4-9.3.3-.3 2.1-2.5 4-5 6.6-8.4 31.8-34.4 42-43.2 3-2.6 7.1-6.1 9-7.8 1.9-1.6 5.3-4.2 7.5-5.7 2.2-1.6 4.2-3 4.5-3.3 1.4-1.5 11.1-8 11.9-8 .5 0 1.6-.7 2.5-1.5 1.5-1.6 19.8-11.1 25.1-13.1 1.7-.7 3.9-1.5 5-1.9 2.4-1 1.9-.8 7.5-2.4 2.5-.7 5.8-1.5 7.4-1.8 1.6-.3 3.8-.8 4.9-1.2 1.2-.5 3.7-.4 5.7.1 1.9.4 4.7 1.1 6.3 1.4z"/></svg>