<svg xmlns="http://www.w3.org/2000/svg" width="158" height="132" viewBox="0 0 158 132">
    <path fill="#D3F0F9" d="M125.979 132c3.651 0 7.373-.562 11.165-1.687 3.792-1.125 7.233-2.882 10.323-5.271 3.09-2.39 5.617-5.483 7.584-9.278 1.966-3.796 2.949-8.365 2.949-13.706 0-5.342-.983-9.911-2.95-13.707-1.966-3.795-4.353-6.888-7.162-9.278-2.809-2.39-5.899-4.146-9.27-5.271-3.37-1.125-6.6-1.687-9.69-1.687s-6.18.281-9.27.843c-3.09.563-5.898 1.687-8.426 3.374-1.404-1.405-2.809-3.514-4.213-6.326-1.405-2.811-2.107-6.466-2.107-10.964 0-10.122 4.073-19.189 12.219-27.202 8.145-8.013 19.1-16.798 32.864-26.358L147.045 0c-5.898 3.936-12.359 8.364-19.381 13.284s-13.483 10.614-19.381 17.08c-5.899 6.467-10.885 13.917-14.958 22.352-4.073 8.434-6.109 18.134-6.109 29.099 0 16.025 3.792 28.396 11.376 37.112 7.584 8.715 16.713 13.073 27.387 13.073zm-87.216 0c3.651 0 7.373-.562 11.165-1.687 3.792-1.125 7.233-2.882 10.323-5.271 3.09-2.39 5.617-5.483 7.584-9.278 1.966-3.796 2.949-8.365 2.949-13.706 0-5.342-.983-9.911-2.95-13.707-1.966-3.795-4.353-6.888-7.162-9.278-2.809-2.39-5.899-4.146-9.27-5.271-3.37-1.125-6.6-1.687-9.69-1.687s-6.18.281-9.27.843c-3.09.563-5.898 1.687-8.426 3.374-1.404-1.405-2.809-3.514-4.213-6.326-1.405-2.811-2.107-6.466-2.107-10.964 0-10.122 4.073-19.189 12.219-27.202 8.145-8.013 19.1-16.798 32.864-26.358L59.829 0C53.931 3.936 47.47 8.364 40.448 13.284s-13.483 10.614-19.381 17.08c-5.899 6.467-10.885 13.917-14.958 22.352C2.036 61.15 0 70.85 0 81.815c0 16.025 3.792 28.396 11.376 37.112C18.96 127.642 28.089 132 38.763 132z"/>
</svg>
