<svg id="layer" width="600.04" height="66.8" version="1.1" viewBox="0 0 600.04 66.8" xml:space="preserve" xmlns="http://www.w3.org/2000/svg">
<style type="text/css">
	.st0{fill:#006BA6;}
</style>
<g id="Home" transform="translate(-26.059 -292.1)">
	<g id="Home-Copy" transform="translate(-75,-58)">
		<g id="_x31_400-expanded" transform="translate(-1.5)">
			<g id="top-bar">
				<g id="logo" transform="translate(76,58)" fill="#006ba6">
					<path class="st0" d="m71.3 312.3c-0.7-0.6-1.7-1.4-2.7-1.6l-1.6 31.4 7.9-21.8c0.7-3.3-1.1-6.1-3.6-8"/>
					<path class="st0" d="m58.3 310.3 4.6 31.3 4.5-31.3c-2.6-1-6.1-1.1-9.1 0"/>
					<path class="st0" d="m54.5 312.3c-2.5 2.1-4.3 4.8-3.6 8l7.9 21.8-1.6-31.4c-1 0.2-2 0.8-2.7 1.6"/>
					<path class="st0" d="m38.7 315.2c5.2 9.1 10.6 18.9 15.8 27.7-1.9-7.7-3.7-20.4-6.4-24-3.1-4.3-9.4-3.7-9.4-3.7"/>
					<path class="st0" d="m29.4 319.8 21.5 24.7-13.4-29.2c-3.4 0.2-6.4 1.9-8.1 4.5"/>
					<path class="st0" d="m74.3 326.5-3.6 16.9c4.6-7.9 9.1-15.7 13.6-23.6-4.2 0.3-8.5 1.9-10 6.7"/>
					<path class="st0" d="m85.5 319.8-11.4 25.1 19.9-21.6c-2.2-2.4-5.1-3.5-8.5-3.5"/>
					<path class="st0" d="m26.6 330.9c7 5.3 14 10.9 21 16.2l-18.9-26.6c-1.8 3.1-2.3 6.6-2.1 10.4"/>
					<path class="st0" d="m96.5 326.4c-0.4-0.9-0.9-1.6-1.6-2.2l-17.2 23.4c6.8-5.1 13.4-10.3 19.9-15.3 0.2-2.2-0.1-4.2-1.1-5.9"/>
					<path class="st0" d="m26.6 341.8 18.3 8.4c-6.1-6.1-12.2-11.9-18.3-17.8v9.4"/>
					<path class="st0" d="m97.8 342.4v-8.5l-17.3 16.7c5.9-2.8 11.3-5.4 17.3-8.2"/>
					<path class="st0" d="m26.6 350.1c5.6 1.2 11.5 2.7 16.4 3.8l-16.4-10.9v7.1"/>
					<path class="st0" d="m97.8 350.6v-6.6c-5.2 3.2-10.5 6.7-15.3 10l15.3-3.4"/>
					<path class="st0" d="m26.6 358.3h16.1l-16.1-6.8v6.8"/>
					<path class="st0" d="m97.8 358.3v-6.2c-5.3 2.2-9.9 4.1-14.8 6.2h14.8"/>
					<path class="st0" d="m92.2 311.4c0.1-9.6-14-9.6-13.7-0.1-0.1 8.9 14.1 9.4 13.7 0.1"/>
					<path class="st0" d="m92.2 311.4"/>
					<path class="st0" d="m46.2 306.5c0.5-9.6-14.6-9.3-14 0-0.4 9.6 14.9 9.7 14 0"/>
					<path class="st0" d="m62.9 308.3c5.6 0.1 7.8-4 7.9-7.8 0.2-5.9-3.5-8.4-7.9-8.4-4.5 0-8 2.6-7.8 8.4 0.1 3.4 1.5 7.7 7.8 7.8"/>
					<path class="st0" d="m181.3 320.3h6.6v37.6h-6.6z"/>
					<path class="st0" d="m158.2 320.3-11.1 31.9-10.9-13.6 14.5-18.3h-7.5l-13.4 17.8v-17.8h-6.6v37.6h6.6v-18.5l13.8 18.5h7.9l3.5-10.9h13.8l3.6 10.9h6.8l-13.1-37.6zm-1.6 21.5 5.1-15.6h0.1l5.2 15.6z"/>
					<path class="st0" d="m400.3 347.5-6.6-27.2h-11.5v37.6h6.4v-32l8.3 32h6.6c0.1 0 8.3-32 8.3-32v32h6.4v-37.6h-11.2l-6.7 27.2"/>
					<path class="st0" d="m434.7 320.3-13.1 37.7h6.4l3.5-10.9h14l3.7 10.9h6.8l-13.1-37.7zm-1.5 21.5 5.1-15.6h0.1l5.3 15.6z"/>
					<path class="st0" d="m482.5 349.4-15.1-29.1h-8.7v37.6h6.2v-28.3l14.8 28.3h8.9v-37.6h-6.3v29.1"/>
					<path class="st0" d="m606.5 352.5h-15.6v-10.6h11.5v-5.4h-11.5v-10.6h14.2v-5.4h-20.8v37.5h22l0.2-5.5"/>
					<path class="st0" d="m546.8 320.2h-1.2v29.4l-15.1-29.3h-8.7v32.1h-19.9v-10.6h11.5v-5.4h-11.5v-10.6h14.2v-5.4h-20.6v37.6h32.5v-28.8l14.8 28.7h8.9v-31.9h11.5v32h6.6v-32h11.2v-5.7h-34.2"/>
					<path class="st0" d="m372.9 339c2.1-1.7 3.6-4.6 3.6-8 0-3.5-1.5-6.2-3.6-7.9-2.3-2-5.6-2.7-11-2.7h-11v32.2h-20v-10.6h11.5v-5.4h-11.5v-10.6h14.2v-5.4h-20.8v37.7h33.1v-16.2h3.2c3 4.7 9.4 16.1 9.4 16.1h7.8l-10.1-16.6c2.2-0.6 3.8-1.5 5.2-2.6zm-15.4-2.6v-10.6h5.6c4.9 0 6.9 2 6.9 5.2 0 3.6-2 5.3-6.9 5.3h-5.6z"/>
					<path class="st0" d="m269.5 339c2.1-1.7 3.6-4.6 3.6-8 0-3.5-1.5-6.2-3.6-7.9-2.2-2-5.6-2.7-11-2.7h-11v32.2h-20v-10.6h11.5v-5.4h-11.5v-10.6h14.2v-5.4h-20.8v37.7h33.1v-16.2h3.2c3 4.7 9.4 16.1 9.4 16.1h7.8l-10.1-16.6c2.4-0.6 4-1.5 5.2-2.6zm-15.3-2.6v-10.6h5.6c4.9 0 6.9 2 6.9 5.2 0 3.6-2 5.3-6.9 5.3h-5.6z"/>
					<path class="st0" d="m316.8 323.2c-2.3-2-5.6-2.8-11-2.8h-11v37.6h6.6v-15.6h4.5c5.4 0 8.7-1 10.9-3 2.1-1.7 3.6-4.7 3.6-8.2s-1.6-6.3-3.6-8zm-9.8 13.7h-5.6v-11.1h5.6c4.9 0 6.9 2.2 6.9 5.4 0 3.4-2.2 5.7-6.9 5.7z"/>
					<path class="st0" d="m207.1 336c-5.2-1.9-7.5-3.3-7.5-6.3 0-2.2 2.3-4.8 6.8-4.8 3.3 0 6.6 1.1 8.2 2v-5.4c-1.7-0.9-4.8-1.7-8-1.7-8.2 0-13.7 4.6-13.7 10.6 0 5.4 4.2 8.8 10.5 10.9 4.9 1.7 7 3.5 7 6.4 0 3.2-2.7 5.4-7.3 5.4-3.6 0-8-1.2-10.4-2.7v5.8c2.2 1.2 6.2 2.2 9.9 2.2 9.8 0 14.5-5.2 14.5-11.3 0-5.5-3.5-8.7-10-11.1"/>
					<path class="st0" d="m612.4 351.2c0-3.6 2.7-6.3 6.3-6.3 3.5 0 6.2 2.7 6.2 6.3 0 3.7-2.7 6.3-6.2 6.3-3.4 0.1-6.3-2.6-6.3-6.3zm6.4 7.7c4.2 0 7.8-3.2 7.8-7.7 0-4.3-3.6-7.7-7.8-7.7s-7.8 3.2-7.8 7.7 3.6 7.7 7.8 7.7zm-1.7-7.1h1.5l2.3 3.8h1.5l-2.5-3.8c1.4-0.1 2.3-0.9 2.3-2.5 0-1.7-1-2.5-3.1-2.5h-3.3v8.8h1.4v-3.8zm0-1.1v-2.7h1.9c1 0 2 0.2 2 1.2 0 1.4-1 1.5-2.1 1.5z"/>
				</g>
			</g>
		</g>
	</g>
</g>
</svg>
