<svg width="69.255" height="52.275" version="1.1" viewBox="0 0 69.255 52.275" xml:space="preserve" xmlns="http://www.w3.org/2000/svg"><g transform="matrix(1.3333 0 0 -1.3333 -15.996 67.917)"><g transform="scale(.1)"><path d="m379.7 458.77c114.12 0 206.66-81.539 206.66-182.09 0-41.871-16.058-80.434-43.027-111.2h-327.27c-26.968 30.762-43.027 69.325-43.027 111.2 0 100.55 92.543 182.09 206.66 182.09" fill="#ed1c24" fill-rule="evenodd"/><path d="m179.64 193.55 3.378-6.625-34.46-17.559-3.254 6.391 14.75 25.461-22.012-11.215-3.363 6.601 34.457 17.559 3.187-6.254-15.355-25.914zm-31.586 41.668-10.981-7.449 13.215-1.516zm9.824-9.75 8.586-0.953 1.898-7.61-41.156 5.215-1.578 6.332 33.941 23.711 1.965-7.867-7.129-4.914zm-37.488 44.097 6.781 0.473 0.512-7.262 31.796 2.227 0.524-7.524-31.797-2.226 0.508-7.262-6.781-0.472zm38.222 7.5-38.648 1.348 0.265 7.566 38.649-1.347zm-18.355 25.852c1.633-0.344 3.203-0.398 4.722-0.16 1.512 0.238 2.969 0.762 4.356 1.57 1.504 0.895 2.762 2.004 3.758 3.336 0.996 1.324 1.664 2.774 2 4.344 0.703 3.316 0.113 6.344-1.77 9.09-1.871 2.742-4.57 4.484-8.09 5.23-3.226 0.688-6.215 0.145-8.972-1.633-2.762-1.777-4.473-4.246-5.149-7.422-0.703-3.304-0.16-6.351 1.617-9.14 1.782-2.785 4.293-4.528 7.528-5.215zm-1.395-7.82c-2.074 0.441-3.976 1.132-5.703 2.082-1.723 0.941-3.277 2.136-4.66 3.566-2.324 2.453-3.918 5.246-4.801 8.379-0.883 3.137-0.969 6.383-0.258 9.723 0.535 2.511 1.535 4.828 2.996 6.953 1.465 2.129 3.309 3.914 5.512 5.363 2.293 1.488 4.719 2.473 7.285 2.953 2.559 0.488 5.149 0.457 7.746-0.097 2.696-0.575 5.145-1.575 7.313-3.008 2.18-1.43 3.992-3.239 5.445-5.43 1.539-2.227 2.559-4.66 3.082-7.301 0.516-2.629 0.492-5.265-0.066-7.898-0.598-2.82-1.656-5.309-3.164-7.477-1.508-2.152-3.442-3.937-5.813-5.363-2.242-1.367-4.633-2.258-7.144-2.668-2.532-0.418-5.117-0.34-7.77 0.223zm32.469 47.105-3.141-6.738-35.05 16.344 3.031 6.5 29.148 4.05-22.39 10.442 3.132 6.715 35.047-16.344-2.965-6.359-29.875-3.856zm11.766 50.852-12.696 3.847 7.137-11.226zm-1.399-13.774 4.668-7.273-4.719-6.262-21.851 35.266 3.929 5.211 39.79-11.461-4.879-6.469-8.305 2.441zm37.746 31.973-13.879-13.875-27.343 27.344 5.293 5.297 22.539-22.543 8.582 8.586zm11.848 34.094 1.387 0.937c2.531 1.711 4.156 3.469 4.855 5.274 0.691 1.8 0.445 3.582-0.746 5.347-1.148 1.699-2.539 2.586-4.195 2.653-1.637 0.066-3.633-0.692-5.973-2.27l-2.324-1.57zm11.105-16.473-6.269-4.234-21.625 32.062 7.617 5.141c2.422 1.633 4.281 2.765 5.574 3.39 1.293 0.629 2.489 1.032 3.59 1.215 2.391 0.375 4.582 0.129 6.566-0.754 1.981-0.882 3.661-2.351 5.051-4.41 1.676-2.48 2.41-5.047 2.203-7.691-0.195-2.645-1.308-4.996-3.351-7.051l16.414-7.035-7.488-5.055-18.321 9.309zm3.786 48.086 6.8 3.316 9.782-20.05c1.527-3.137 2.925-5.153 4.179-6.051 1.254-0.891 2.684-0.949 4.289-0.168 1.606 0.781 2.442 1.945 2.508 3.484 0.063 1.543-0.66 3.883-2.191 7.02l-9.782 20.051 6.805 3.32 10.758-22.067c1.195-2.441 1.953-4.355 2.281-5.707 0.332-1.359 0.395-2.652 0.211-3.89-0.305-2.117-1.039-3.926-2.195-5.426-1.16-1.504-2.809-2.773-4.961-3.824-2.152-1.047-4.168-1.571-6.07-1.555-1.895 0.012-3.766 0.547-5.625 1.609-1.09 0.622-2.047 1.422-2.875 2.442-0.832 1.015-1.883 2.82-3.157 5.43zm48.308 0.59 1.613 0.465c2.938 0.839 5.024 2.015 6.243 3.511 1.222 1.504 1.535 3.274 0.945 5.321-0.563 1.968-1.613 3.242-3.168 3.816-1.539 0.566-3.668 0.465-6.379-0.312l-2.699-0.774zm5.477-19.102-7.278-2.086-10.656 37.176 8.836 2.535c2.805 0.801 4.926 1.305 6.348 1.5 1.425 0.196 2.683 0.211 3.789 0.047 2.39-0.379 4.398-1.297 6.011-2.746 1.614-1.453 2.758-3.367 3.446-5.754 0.82-2.879 0.726-5.547-0.285-7.996-1.004-2.457-2.793-4.344-5.364-5.668l13.438-11.766-8.688-2.488-14.547 14.508zm38.558 24.821-6.261 11.699-2.887-12.985zm-10.726-8.75-1.848-8.442-7.762-1.094 9.485 40.387 6.461 0.91 20.035-36.238-8.028-1.129-4.144 7.606zm49.23-3.161-19.597-1.027-2.024 38.621 7.477 0.391 1.668-31.832 12.121 0.636zm30.602 14.407-1.641-15.645-7.527 0.793 4.043 38.461 7.527-0.793-1.637-15.578 12.36-1.297 1.636 15.578 7.528-0.793-4.043-38.461-7.528 0.793 1.645 15.641zm45.746-25.243-20.262 5.051 9.359 37.528 20.254-5.051-1.64-6.598-12.992 3.238-2.137-8.554 12.992-3.242-1.617-6.493-12.992 3.239-2.313-9.278 12.988-3.238zm28.769 5.618 0.2 13.265-8.821-9.957zm-13.621-2.45-5.703-6.492-7.324 2.809 27.875 30.726 6.094-2.339-0.047-41.407-7.567 2.903 0.063 8.66zm40.149-28.539-17.164 9.52 18.75 33.82 6.547-3.629-15.454-27.875 10.618-5.886zm40.812 18.621-3.804-5.636-6.036 4.07-17.824-26.426-6.25 4.219 17.82 26.426-6.035 4.07 3.805 5.637zm-1.972-28.64-10.524-11.688-5.629 5.067 25.879 28.738 5.625-5.062-10.48-11.641 9.234-8.32 10.484 11.644 5.625-5.066-25.879-28.742-5.625 5.066 10.524 11.691zm22.847-50.086-3.855 6.418 33.148 19.918 5.156-8.582-19.046-22.918 29.156 6.09 5.156-8.582-33.148-19.914-3.844 6.394 24.203 14.231-29.098-6.082-2.945 4.898 19.02 22.859zm18.051-35.188 35.855 14.485 2.836-7.02-35.855-14.484zm16.816-9.48 1.461-6.754-0.55-0.117c-1.586-0.336-2.774-1.024-3.555-2.063-0.793-1.027-1.031-2.238-0.742-3.621 0.32-1.492 1.011-2.574 2.093-3.254 1.067-0.672 2.379-0.847 3.903-0.523 2.437 0.516 3.812 2.637 4.121 6.359 0.047 0.477 0.09 0.864 0.113 1.137 0.297 3.141 1.137 5.602 2.52 7.379 1.394 1.777 3.379 2.941 5.961 3.488 3.543 0.754 6.601 0.375 9.171-1.125 2.567-1.515 4.192-3.902 4.891-7.172 0.652-3.07 0.211-5.711-1.32-7.937-1.52-2.223-3.981-3.809-7.387-4.746l-1.422 6.703 0.309 0.062c1.215 0.258 2.113 0.832 2.703 1.715 0.59 0.887 0.762 1.914 0.512 3.094-0.258 1.215-0.844 2.086-1.754 2.621-0.91 0.539-2.024 0.672-3.336 0.395-0.559-0.118-1.031-0.293-1.426-0.536-0.395-0.23-0.727-0.543-1.008-0.925-0.625-0.887-1.023-2.555-1.191-5.039-0.055-1.094-0.113-1.942-0.188-2.543-0.328-2.786-1.187-4.969-2.574-6.563-1.379-1.582-3.355-2.648-5.918-3.191-3.898-0.828-7.258-0.414-10.082 1.25-2.828 1.66-4.621 4.289-5.383 7.871-0.718 3.379-0.152 6.344 1.692 8.914 1.84 2.558 4.636 4.265 8.386 5.121zm5.688-28.117 0.629-6.883-0.559-0.051c-1.617-0.137-2.879-0.676-3.781-1.613-0.91-0.922-1.301-2.098-1.176-3.504 0.133-1.516 0.688-2.68 1.68-3.484 0.98-0.797 2.254-1.133 3.808-0.997 2.485 0.219 4.106 2.153 4.872 5.817 0.105 0.465 0.187 0.844 0.246 1.113 0.675 3.078 1.812 5.418 3.398 7.012 1.602 1.598 3.711 2.508 6.34 2.738 3.617 0.317 6.601-0.433 8.969-2.234 2.363-1.817 3.687-4.383 3.976-7.719 0.278-3.121-0.48-5.691-2.273-7.715-1.778-2.019-4.414-3.297-7.91-3.812l-0.594 6.828 0.312 0.027c1.239 0.106 2.2 0.567 2.891 1.371 0.695 0.809 0.992 1.809 0.887 3.008-0.11 1.238-0.582 2.172-1.422 2.816-0.84 0.649-1.926 0.915-3.262 0.797-0.57-0.05-1.058-0.164-1.48-0.355-0.418-0.184-0.789-0.453-1.114-0.801-0.73-0.801-1.328-2.41-1.796-4.851-0.188-1.082-0.348-1.915-0.5-2.5-0.661-2.727-1.782-4.79-3.352-6.2-1.559-1.402-3.656-2.222-6.266-2.449-3.961-0.348-7.25 0.477-9.851 2.469-2.606 1.992-4.063 4.82-4.383 8.469-0.301 3.441 0.621 6.316 2.769 8.64 2.133 2.317 5.118 3.672 8.942 4.063zm-10.317-31.172 38.668-0.68-0.132-7.566-38.668 0.672zm17.161-25.008c-1.637 0.32-3.211 0.348-4.723 0.078-1.512-0.262-2.957-0.812-4.328-1.644-1.488-0.918-2.727-2.055-3.699-3.399-0.973-1.344-1.618-2.804-1.922-4.383-0.649-3.328-8e-3 -6.343 1.926-9.054 1.918-2.707 4.644-4.403 8.179-5.09 3.239-0.629 6.215-0.035 8.946 1.789 2.726 1.824 4.398 4.324 5.015 7.512 0.645 3.32 0.055 6.351-1.773 9.109-1.832 2.758-4.371 4.453-7.621 5.082zm1.257 7.844c2.082-0.403 3.997-1.063 5.739-1.981 1.742-0.914 3.316-2.078 4.722-3.484 2.368-2.41 4.012-5.18 4.942-8.297 0.941-3.117 1.082-6.359 0.433-9.715-0.492-2.519-1.453-4.851-2.879-7.004-1.421-2.152-3.234-3.968-5.417-5.461-2.266-1.523-4.668-2.55-7.231-3.078-2.551-0.531-5.137-0.547-7.742-0.039-2.707 0.528-5.172 1.485-7.367 2.883-2.203 1.387-4.047 3.168-5.535 5.332-1.579 2.199-2.645 4.617-3.211 7.246-0.563 2.621-0.586 5.258-0.075 7.899 0.551 2.832 1.567 5.343 3.036 7.531 1.464 2.18 3.371 4 5.714 5.465 2.223 1.402 4.594 2.34 7.102 2.793 2.519 0.461 5.109 0.429 7.769-0.09zm-32.816-47.813 3.375 6.625 34.461-17.558-3.258-6.391-29.269-3.031 22.007-11.215-3.359-6.598-34.461 17.555 3.188 6.254 29.992 2.809-22.676 11.55" fill="#141a1a"/><path d="m305.4 379.03c11.008 0 19.93-10.148 19.93-22.66s-8.922-22.66-19.93-22.66c-11.003 0-19.929 10.148-19.929 22.66s8.926 22.66 19.929 22.66zm-58.519-95.797v-3e-3c3.504-2.911 8.785-2.395 11.734 1.14l26.469 31.668v11.563c-0.199 0.203-0.41 0.402-0.633 0.586v4e-3c-3.504 2.906-8.781 2.398-11.734-1.137l-26.824-32.098c-2.953-3.539-2.508-8.808 0.988-11.723zm115.62 1.118c-3.504-2.91-8.781-2.399-11.738 1.136l-26.82 32.098c-0.774 0.922-1.309 1.961-1.625 3.047v4.676c0.441 1.515 1.316 2.922 2.613 4 3.5 2.91 8.781 2.398 11.734-1.137l26.824-32.094c2.954-3.539 2.508-8.816-0.988-11.726zm-81.844 20.5 8.211 9.574v12.156h29.672v-9.738l9.34-11.992v-40.989c0-3.898-3.187-7.082-7.086-7.082h-33.055c-3.894 0-7.082 3.184-7.082 7.082zm8.907-54.934c4.199 0 7.64-3.441 7.64-7.644v-50.684c0-4.207-3.441-7.645-7.64-7.645-4.204 0-7.641 3.438-7.641 7.645v50.684c0 4.203 3.437 7.644 7.641 7.644zm29.8 0c4.2 0 7.641-3.441 7.641-7.644v-50.684c0-4.207-3.441-7.645-7.641-7.645-4.203 0-7.64 3.438-7.64 7.645v50.684c0 4.203 3.437 7.644 7.64 7.644zm147.28 115.74c10.211 0 18.488-9.414 18.488-21.023s-8.277-21.024-18.488-21.024-18.492 9.415-18.492 21.024 8.281 21.023 18.492 21.023zm-43.52-90.179v-4e-3c3.168-2.281 7.656-1.531 9.977 1.664l23.66 32.597c2.32 3.2 1.625 7.68-1.543 9.961-3.172 2.282-7.66 1.536-9.981-1.66l-23.66-32.601c-2.32-3.196-1.625-7.676 1.547-9.957zm89.785 0.875c-3.136-2.336-7.769-1.762-10.293 1.277l-25.757 31.012c-2.528 3.039-2.028 7.437 1.113 9.773v4e-3c3.133 2.332 7.765 1.758 10.289-1.281l25.762-31.012c2.523-3.039 2.023-7.437-1.114-9.773zm-40.265 34.539 1.402-4.055 26.008-75.168c1.363-3.926-3.402-7.559-7.555-7.559h-51.179c-4.153 0-8.915 3.633-7.555 7.559l25.414 73.445 2 5.778c3.879 11.211 7.254 12.156 11.465 0zm-20.567-92.192c4.067 0 7.391-3.324 7.391-7.386v-21.614c0-4.062-3.324-7.386-7.391-7.386-4.062 0-7.386 3.324-7.386 7.386v21.614c0 4.062 3.324 7.386 7.386 7.386zm29.004 0c4.063 0 7.387-3.324 7.387-7.386v-21.614c0-4.062-3.324-7.386-7.387-7.386-4.066 0-7.39 3.324-7.39 7.386v21.614c0 4.062 3.324 7.386 7.39 7.386zm-88.469 38.11 0.809-2.34 18.375-43.289c0.957-2.258-1.613-4.348-3.828-4.348h-36.531c-2.645 0-6.082 2.172-5.129 4.348l18.554 42.301 1.153 3.328c2.234 6.453 4.18 7 6.597 0zm-2.058 29.761c5.426 0 9.82-5.136 9.82-11.472 0-6.34-4.394-11.477-9.82-11.477-5.418 0-9.817 5.137-9.817 11.477 0 6.336 4.399 11.472 9.817 11.472zm-8.102-82.425c2.36 0 4.289-1.93 4.289-4.289v-12.543c0-2.356-1.929-4.289-4.289-4.289-2.359 0-4.289 1.933-4.289 4.289v12.543c0 2.359 1.93 4.289 4.289 4.289zm15.063 0c2.359 0 4.289-1.93 4.289-4.289v-12.543c0-2.356-1.93-4.289-4.289-4.289-2.36 0-4.285 1.933-4.285 4.289v12.543c0 2.359 1.925 4.289 4.285 4.289zm28.219 68.312c-1.145-11.519-11.614-21.039-25.618-24.098l-4.464 10.086c10.175 1.477 18.128 7.172 19.925 14.34zm-46.969-23.625c-13.844 3.703-23.778 13.828-23.778 25.731 0 1.425 0.141 2.82 0.415 4.187l9.675-0.59c-0.136-0.754-0.211-1.519-0.211-2.301 0-7.878 7.368-14.566 17.567-16.902l-3.668-10.125" fill="#fff" fill-rule="evenodd"/><path d="m381.41 432.07c1.488-0.133 2.91-0.492 4.235-1.047l3.191 5.543-2.176-6.015c1.031-0.528 1.988-1.18 2.856-1.93l8.937 7.488-7.492-8.937c0.91-1.047 1.672-2.227 2.246-3.504l6.117 1.867-5.695-2.906c0.41-1.129 0.676-2.324 0.789-3.563l14.82-1.304-14.82-1.305c-0.113-1.262-0.391-2.469-0.809-3.609l5.688-2.93-6.113 1.891c-0.571-1.262-1.325-2.426-2.223-3.458l7.492-8.941-8.937 7.492c-1.145-0.992-2.45-1.808-3.868-2.398l1.7-6.168-2.754 5.773c-1.012-0.336-2.078-0.558-3.184-0.66l-1.305-14.82-1.304 14.82c-1.488 0.137-2.914 0.496-4.235 1.051l-3.191-5.543 2.176 6.019c-1.031 0.528-1.988 1.176-2.856 1.926l-8.937-7.492 7.492 8.941c-0.91 1.047-1.668 2.227-2.246 3.504l-6.117-1.867 5.695 2.906c-0.406 1.129-0.676 2.325-0.789 3.563l-14.82 1.305 14.82 1.304c0.113 1.258 0.391 2.465 0.805 3.61l-5.684 2.925 6.109-1.89c0.575 1.262 1.329 2.43 2.227 3.461l-7.492 8.937 8.937-7.488c1.145 0.992 2.446 1.809 3.868 2.402l-1.7 6.164 2.75-5.773c1.016 0.336 2.082 0.559 3.188 0.656l1.304 14.828 1.305-14.828" fill="#fff200" fill-rule="evenodd"/><path d="m227.85 144.81h-2.438v-5.809c0-0.543-0.105-1.121-0.308-1.738-0.211-0.606-0.532-1.114-0.977-1.528-0.77-0.683-1.879-1.027-3.336-1.027l0.899-1.621c0.195-0.352 0.39-0.692 0.582-1.027 0.191-0.336 0.441-0.735 0.738-1.184 0.48-0.734 1.152-1.645 2.008-2.746 0.804-1.028 1.261-1.598 1.375-1.684l-2.399-2.445-1.148 1.621-2.055 3.016c-0.789 1.214-1.578 2.507-2.359 3.882-0.297 0.54-0.657 1.192-1.082 1.977-0.418 0.781-0.868 1.621-1.356 2.527l-1.449 2.782 2.527 2.011c0-0.144 0.16-0.547 0.485-1.226 0.32-0.676 0.765-1.317 1.332-1.934 0.566-0.605 1.199-0.91 1.902-0.91 0.277 0 0.504 0.063 0.688 0.18 0.191 0.125 0.324 0.304 0.414 0.531 0.16 0.394 0.238 0.769 0.238 1.121v5.231h-10.285v3.148h16.004zm6.613 0h-1.891v-20.579h-3.308v20.579h-3.852v3.148h9.051zm11.437-12.672c-1.003-0.836-2.128-1.258-3.367-1.258-0.976 0-1.91 0.289-2.785 0.859-0.883 0.571-1.586 1.363-2.121 2.383-0.531 1.023-0.801 2.137-0.801 3.359v7.329h-3.308v3.148h9.488v-3.148h-2.906l5.8-7.676zm-0.668 3.093-5.167 6.875v-5.152c0-0.562 0.113-1.062 0.347-1.5 0.235-0.426 0.559-0.785 0.969-1.059 0.195-0.128 0.398-0.234 0.601-0.304 0.204-0.067 0.442-0.125 0.719-0.168 1.121 0 1.969 0.437 2.531 1.308zm15.993 9.579h-3.356v-6.836h-7.051c-0.714 0-1.304-0.336-1.769-1.012-0.465-0.68-0.699-1.551-0.699-2.613 0-1.067 0.261-2.098 0.781-3.086 0.519-0.981 1.207-1.782 2.066-2.399 0.856-0.617 1.7-0.929 2.524-0.929 0.726 0 1.519 0.328 2.383 0.984 0.871 0.644 1.492 1.473 1.878 2.476l2.508-2.164c-0.863-1.492-1.847-2.589-2.945-3.281-1.098-0.703-2.395-1.055-3.898-1.055-1.536 0-2.961 0.454-4.274 1.352-1.312 0.895-2.363 2.109-3.137 3.637-0.773 1.527-1.164 3.176-1.164 4.918 0 1.816 0.485 3.289 1.45 4.445 0.968 1.145 2.16 1.719 3.574 1.719h4.648v3.844h-12.687v3.148h19.168zm1.535-25.071-1.879-2.426-4.871 6.118-4.281-6.118-2.266 1.918 5.168 5.985h2.285zm6.48 25.071h-1.898v-20.579h-3.309v20.579h-3.855v3.148h2.551c0 0.258-0.219 1.09-0.645 2.484-0.426 1.403-1.027 2.735-1.797 4.008-0.769 1.27-1.656 1.91-2.672 1.91-0.816 0-1.554-0.297-2.215-0.89-0.656-0.59-0.984-1.356-0.984-2.285 0-0.715 0.106-1.403 0.316-2.055 0.211-0.656 0.469-1.254 0.782-1.801 0.261-0.477 0.437-0.75 0.539-0.824h-3.317l-0.328 0.504-0.504 0.984c-0.175 0.387-0.328 0.879-0.457 1.473-0.132 0.582-0.195 1.23-0.195 1.945 0 0.883 0.156 1.688 0.457 2.402 0.305 0.715 0.742 1.348 1.328 1.895 1.094 1.066 2.559 1.594 4.395 1.594 1.371 0 2.597-0.528 3.664-1.594 1.027-1.02 1.883-2.254 2.57-3.703 0.691-1.442 1.207-2.766 1.555-3.961 0.351-1.192 0.523-1.891 0.523-2.086h3.496zm18.598 0h-1.949v-20.579h-3.309v5.707c-0.691-0.558-1.32-0.949-1.879-1.16-0.558-0.211-1.219-0.32-1.972-0.32-1.329 0-2.579 0.414-3.747 1.246-1.171 0.828-2.101 1.957-2.773 3.391-0.684 1.433-1.019 2.984-1.019 4.66 0.335-0.125 0.687-0.188 1.062-0.188 0.855 0 1.625 0.274 2.313 0.828 0.691 0.543 1.031 1.457 1.031 2.735 0 0.668-0.168 1.41-0.512 2.215-0.336 0.808-0.625 1.3-0.844 1.465h-5.949v3.148h19.547zm-5.258-10.141v10.141h-4.797c0.676-1.129 1.016-2.543 1.016-4.25 0-3.071-1.32-4.93-3.965-5.571 0.262-1.035 0.699-1.855 1.305-2.461 0.336-0.32 0.691-0.57 1.058-0.758 0.375-0.179 0.77-0.273 1.196-0.273 0.64 0 1.261 0.164 1.859 0.5 0.285 0.156 0.551 0.328 0.793 0.531 0.242 0.192 0.477 0.426 0.699 0.684 0.406 0.484 0.692 0.973 0.836 1.457zm34.266 10.141h-1.953v-20.579h-3.282v20.579h-4.644v-11.489c0-1.308-0.402-1.965-1.207-1.965-0.301 0-0.879 0.414-1.735 1.246-0.859 0.829-1.671 1.739-2.445 2.739-0.773 0.996-1.164 1.652-1.164 1.953 0 0.476 0.152 0.82 0.461 1.031 0.297 0.207 0.531 0.32 0.695 0.32h2.043v6.165h-6.433v3.148h19.664zm-4.547-13.653-8.109-6.832-1.879 3.106 9.988 6.398zm13.039 13.653h-1.891v-20.579h-3.308v20.579h-3.852v3.148h9.051zm18.531 0h-1.914v-20.579h-3.305v10.477h-5.605v-2.711c0-0.242-0.078-0.562-0.227-0.961-0.125-0.379-0.394-0.566-0.796-0.566-0.286 0-0.813 0.437-1.59 1.308-0.778 0.879-1.485 1.824-2.133 2.844-0.641 1.02-0.965 1.691-0.965 2.012 0 0.453 0.152 0.754 0.461 0.91 0.16 0.078 0.305 0.133 0.422 0.183 0.117 0.043 0.23 0.067 0.324 0.067h1.305v7.016h-5.449v3.148h19.472zm-5.219-7.016v7.016h-5.605v-7.016zm13.336 7.016h-1.902v-20.579h-3.305v20.579h-3.855v3.148h2.547c0 0.258-0.219 1.09-0.645 2.484-0.426 1.403-1.027 2.735-1.797 4.008-0.765 1.27-1.656 1.91-2.672 1.91-0.82 0-1.554-0.297-2.214-0.89-0.653-0.59-0.985-1.356-0.985-2.285 0-0.715 0.106-1.403 0.317-2.055 0.211-0.656 0.472-1.254 0.781-1.801 0.262-0.477 0.441-0.75 0.539-0.824h-3.313l-0.332 0.504-0.5 0.984c-0.175 0.387-0.332 0.879-0.457 1.473-0.132 0.582-0.195 1.23-0.195 1.945 0 0.883 0.149 1.688 0.457 2.402 0.301 0.715 0.742 1.348 1.324 1.895 1.094 1.066 2.559 1.594 4.395 1.594 1.371 0 2.598-0.528 3.664-1.594 1.027-1.02 1.887-2.254 2.57-3.703 0.692-1.442 1.207-2.766 1.559-3.961 0.348-1.192 0.515-1.891 0.515-2.086h3.504zm13.758 0h-0.648v-8.747c0-0.933-0.242-1.839-0.723-2.718-0.484-0.879-1.137-1.598-1.957-2.149-0.816-0.547-1.668-0.82-2.547-0.82-0.969 0-1.863 0.285-2.691 0.855-0.824 0.571-1.481 1.301-1.961 2.192-0.485 0.887-0.723 1.769-0.723 2.64v8.747h-3.465v3.148h14.715zm-3.957-8.754v8.754h-3.969v-8.754c0-1.676 0.688-2.508 2.051-2.508 1.278 0 1.918 0.832 1.918 2.508zm12.063 8.754h-1.891v-20.579h-3.305v20.579h-3.855v3.148h9.051zm27.05-9.633h-3.535l-1.668 2.851h5.203zm-2.843 9.633h-2.551v-5.801c0-1.582-0.422-2.719-1.266-3.403-0.359-0.289-0.82-0.507-1.375-0.664l-1.093-0.226 0.906-1.645 1.344-2.191c0.496-0.746 1.101-1.606 1.82-2.574l1.098-1.485-2.59-2.351-0.887 1.386-1.773 2.86c-0.333 0.527-0.708 1.144-1.11 1.847-0.473 0.786-0.851 1.442-1.137 1.965-0.757 1.309-1.527 2.782-2.312 4.414-0.785 1.641-1.18 2.496-1.18 2.59l2.461 1.965c0-0.211 0.281-0.887 0.84-2.027 0.559-1.145 1.102-1.715 1.641-1.715 0.879 0 1.316 0.609 1.316 1.824v5.231h-9.016v3.148h14.864zm16.758 0h-1.899v-20.579h-3.309v5.989l-0.335-0.321c-0.188-0.187-0.411-0.355-0.688-0.511-0.273-0.164-0.621-0.313-1.039-0.453-0.426-0.133-0.852-0.204-1.281-0.204-1.782 0-3.258 0.629-4.442 1.895-1.187 1.262-1.777 2.953-1.777 5.074 0 1.215 0.242 2.336 0.723 3.363 0.484 1.032 1.148 1.84 2.004 2.434 0.847 0.59 1.781 0.891 2.796 0.891 0.809 0 1.598-0.192 2.364-0.571l0.336-3.172c-0.114 0.133-0.348 0.321-0.719 0.543-0.367 0.227-0.84 0.344-1.422 0.344-0.816 0-1.484-0.375-2-1.121-0.516-0.742-0.773-1.676-0.773-2.805 0-1.171 0.273-2.105 0.82-2.796 0.543-0.696 1.238-1.04 2.082-1.04 0.648 0 1.219 0.188 1.715 0.571 0.496 0.379 0.89 0.808 1.172 1.277 0.285 0.473 0.441 0.793 0.464 0.957v10.235h-12.503v3.148h17.711zm8.109 0h-1.891v-20.579h-3.308v20.579h-3.856v3.148h9.055zm16.762-9.633h-3.536l-1.671 2.851h5.207zm-2.844 9.633h-2.551v-5.801c0-1.582-0.422-2.719-1.266-3.403-0.359-0.289-0.82-0.507-1.378-0.664l-1.09-0.226 0.906-1.645 1.34-2.191c0.496-0.746 1.105-1.606 1.824-2.574l1.098-1.485-2.594-2.351-0.887 1.386-1.769 2.86c-0.332 0.527-0.707 1.144-1.114 1.847-0.468 0.786-0.847 1.442-1.136 1.965-0.754 1.309-1.524 2.782-2.313 4.414-0.785 1.641-1.18 2.496-1.18 2.59l2.465 1.965c0-0.211 0.278-0.887 0.84-2.027 0.559-1.145 1.102-1.715 1.637-1.715 0.883 0 1.32 0.609 1.32 1.824v5.231h-9.019v3.148h14.867zm15.195-13.454c-1.726-1.933-3.871-2.898-6.437-2.898-1.653 0-3.078 0.445-4.282 1.324-1.199 0.879-2.14 1.996-2.82 3.344-0.672 1.348-1.121 2.734-1.348 4.168 0.684-0.379 1.7-0.567 3.04-0.567 0.753 0 1.484 0.165 2.195 0.493 0.707 0.324 1.281 0.84 1.719 1.558 0.441 0.715 0.664 1.606 0.664 2.672 0 1.113-0.211 2.031-0.621 2.774-0.422 0.742-1.075 1.109-1.973 1.109-1.117 0-1.676-0.609-1.676-1.824 0-0.477 0.172-0.871 0.516-1.203 0.343-0.325 0.695-0.489 1.054-0.489v-2.652c-0.609 0-1.265 0.145-1.957 0.414-0.695 0.273-1.296 0.75-1.796 1.434-0.5 0.687-0.754 1.597-0.754 2.718 0 0.93 0.211 1.739 0.621 2.434 0.418 0.695 0.984 1.23 1.695 1.621s1.48 0.586 2.297 0.586c1.055 0 2.039-0.332 2.949-0.992 0.914-0.66 1.629-1.551 2.156-2.649 0.528-1.105 0.793-2.308 0.793-3.601 0-1.34-0.285-2.555-0.855-3.641-0.57-1.09-1.332-1.972-2.297-2.648-0.961-0.68-1.926-1.02-2.891-1.02 0.161-0.375 0.539-0.855 1.145-1.445 0.598-0.582 1.457-0.879 2.574-0.879 0.828 0 1.613 0.227 2.367 0.672 0.742 0.453 1.395 0.98 1.961 1.59 0.563 0.609 1.028 1.183 1.387 1.726 0.371 0.559 0.559 0.891 0.574 1.008zm15.754 13.454h-1.949v-20.579h-3.309v5.707c-0.691-0.558-1.32-0.949-1.879-1.16-0.562-0.211-1.222-0.32-1.976-0.32-1.324 0-2.578 0.414-3.746 1.246-1.176 0.828-2.102 1.957-2.778 3.391-0.675 1.433-1.011 2.984-1.011 4.66 0.336-0.125 0.683-0.188 1.058-0.188 0.86 0 1.629 0.274 2.313 0.828 0.691 0.543 1.035 1.457 1.035 2.735 0 0.668-0.172 1.41-0.516 2.215-0.336 0.808-0.621 1.3-0.843 1.465h-5.95v3.148h19.551zm-5.258-10.141v10.141h-4.801c0.68-1.129 1.016-2.543 1.016-4.25 0-3.071-1.324-4.93-3.961-5.571 0.262-1.035 0.695-1.855 1.301-2.461 0.336-0.32 0.691-0.57 1.059-0.758 0.375-0.179 0.769-0.273 1.195-0.273 0.644 0 1.265 0.164 1.863 0.5 0.281 0.156 0.547 0.328 0.789 0.531 0.242 0.192 0.481 0.426 0.699 0.684 0.407 0.484 0.692 0.973 0.84 1.457zm37.309 14.023h-3.402c-0.051 0.067-0.083 0.129-0.11 0.176-0.215 0.336-0.476 0.703-0.777 1.102-0.313 0.386-0.629 0.785-0.961 1.175-0.332 0.383-0.719 0.793-1.16 1.239-0.832 0.851-1.797 1.605-2.903 2.25-1.105 0.652-2.203 0.968-3.297 0.968-1.25 0-2.195-0.421-2.843-1.269-0.641-0.844-0.969-1.941-0.969-3.297 0-0.289 0.023-0.609 0.059-0.961 0.035-0.351 0.097-0.715 0.183-1.113 0.086-0.395 0.145-0.637 0.164-0.715 0.024-0.086 0.055-0.18 0.094-0.289h2.277v-3.148h-1.91v-20.579h-3.308v20.579h-3.848v3.148h3.848c-0.039 0.121-0.071 0.238-0.086 0.367-0.067 0.254-0.129 0.512-0.188 0.77-0.172 0.886-0.258 1.668-0.258 2.355 0 1.434 0.278 2.688 0.844 3.777 0.563 1.09 1.371 1.934 2.41 2.528 0.535 0.301 1.086 0.527 1.672 0.683 0.582 0.149 1.231 0.227 1.934 0.227 1.89 0 3.754-0.738 5.601-2.215 0.942-0.746 1.778-1.476 2.516-2.187 0.742-0.715 1.41-1.465 2-2.246 1.094-1.395 1.898-2.508 2.418-3.325zm4.871-3.882h-1.91v-20.579h-3.309v10.477h-5.605v-2.711c0-0.242-0.078-0.562-0.227-0.961-0.125-0.379-0.39-0.566-0.797-0.566-0.285 0-0.812 0.437-1.59 1.308-0.777 0.879-1.484 1.824-2.128 2.844-0.641 1.02-0.969 1.691-0.969 2.012 0 0.453 0.152 0.754 0.465 0.91 0.16 0.078 0.3 0.133 0.422 0.183 0.113 0.043 0.226 0.067 0.32 0.067h1.301v7.016h-5.446v3.148h19.473zm-5.219-7.016v7.016h-5.605v-7.016zm21.645 7.016h-3.922c0.457-0.747 0.801-1.45 1.015-2.106 0.219-0.656 0.325-1.41 0.325-2.281 0-1.488-0.25-2.879-0.758-4.164-0.5-1.293-1.211-2.356-2.145-3.188-0.511-0.445-1.015-0.789-1.523-1.027-0.508-0.242-1.051-0.367-1.641-0.367l0.801-0.864c0.547-0.609 0.941-1.023 1.191-1.234l2.735-2.625-1.899-3.016-0.984 0.957-1.859 1.872-1.961 2.058-2.34 2.742-1.465 1.848 2.082 2.555 1.227-1.395 0.355-0.109c0.27-0.063 0.481-0.098 0.625-0.106 0.156-0.011 0.305-0.011 0.473-0.011 2.156 0.593 3.308 1.933 3.457 4.023-0.992-0.508-1.848-0.758-2.586-0.758-1.344 0-2.453 0.438-3.348 1.301-0.894 0.867-1.34 2.074-1.34 3.609 0 0.75 0.164 1.508 0.5 2.286h-4.382v3.148h17.367zm-5.949-2.7c0 0.321-0.11 0.711-0.325 1.176s-0.547 0.875-0.976 1.234c-0.438 0.356-0.926 0.54-1.473 0.54-0.496 0-0.914-0.227-1.262-0.688-0.351-0.461-0.523-0.996-0.523-1.621 0-0.703 0.211-1.262 0.637-1.691 0.418-0.43 0.925-0.637 1.523-0.637 0.535 0 1.02 0.168 1.469 0.512 0.449 0.343 0.762 0.734 0.93 1.175zm13.835 2.7h-1.89v-20.579h-3.309v20.579h-3.855v3.148h9.054zm18.532 0h-1.914v-20.579h-3.309v12.168h-5.82v-3.125c0-1.004-0.336-1.504-1.004-1.504-0.324 0-0.852 0.446-1.59 1.348-0.352 0.453-0.691 0.91-1.004 1.367-0.309 0.457-0.613 0.957-0.91 1.508-0.586 1.063-0.875 1.777-0.875 2.145 0 0.64 0.156 1.058 0.473 1.261 0.316 0.211 0.605 0.313 0.871 0.313h9.859v5.098h-14.25v3.148h19.473v-3.148" fill="#141a1a"/></g></g></svg>
