<svg version="1.1" xmlns="http://www.w3.org/2000/svg" width="32" height="32" viewBox="0 0 32 32">
<path fill="#ffc107" d="M31.917 12.255c-0.209-0.648-0.784-1.108-1.464-1.169l-9.236-0.839-3.652-8.548c-0.269-0.626-0.883-1.032-1.564-1.032s-1.295 0.406-1.564 1.033l-3.652 8.547-9.238 0.839c-0.679 0.063-1.252 0.521-1.463 1.169s-0.016 1.359 0.497 1.807l6.981 6.123-2.059 9.068c-0.151 0.667 0.108 1.356 0.661 1.756 0.297 0.215 0.645 0.324 0.996 0.324 0.303 0 0.603-0.082 0.872-0.243l7.967-4.762 7.964 4.762c0.583 0.351 1.317 0.319 1.869-0.082 0.553-0.401 0.812-1.091 0.661-1.756l-2.059-9.068 6.981-6.122c0.513-0.449 0.71-1.159 0.499-1.808z"></path>
</svg>
